<?xml version="1.0" encoding="UTF-8" standalone="no"?>
<svg
   xmlns:dc="http://purl.org/dc/elements/1.1/"
   xmlns:cc="http://creativecommons.org/ns#"
   xmlns:rdf="http://www.w3.org/1999/02/22-rdf-syntax-ns#"
   xmlns:svg="http://www.w3.org/2000/svg"
   xmlns="http://www.w3.org/2000/svg"
   xmlns:sodipodi="http://sodipodi.sourceforge.net/DTD/sodipodi-0.dtd"
   xmlns:inkscape="http://www.inkscape.org/namespaces/inkscape"
   width="34.838699"
   height="39.999901"
   viewBox="0 0 34.838699 39.999901"
   version="1.1"
   id="svg17"
   sodipodi:docname="Activo_web.svg"
   style="fill:none"
   inkscape:version="0.92.5 (2060ec1f9f, 2020-04-08)">
  <metadata
     id="metadata21">
    <rdf:RDF>
      <cc:Work
         rdf:about="">
        <dc:format>image/svg+xml</dc:format>
        <dc:type
           rdf:resource="http://purl.org/dc/dcmitype/StillImage" />
        <dc:title></dc:title>
      </cc:Work>
    </rdf:RDF>
  </metadata>
  <sodipodi:namedview
     pagecolor="#ffffff"
     bordercolor="#666666"
     borderopacity="1"
     objecttolerance="10"
     gridtolerance="10"
     guidetolerance="10"
     inkscape:pageopacity="0"
     inkscape:pageshadow="2"
     inkscape:window-width="1848"
     inkscape:window-height="1043"
     id="namedview19"
     showgrid="false"
     fit-margin-top="0"
     fit-margin-left="0"
     fit-margin-right="0"
     fit-margin-bottom="0"
     inkscape:zoom="6.6295937"
     inkscape:cx="-7.8729101"
     inkscape:cy="13.101102"
     inkscape:window-x="72"
     inkscape:window-y="0"
     inkscape:window-maximized="1"
     inkscape:current-layer="svg17" />
  <path
     d="m 63.68,29.288 c -0.8533,0 -1.552,-0.144 -2.096,-0.432 -0.544,-0.2987 -0.976,-0.672 -1.296,-1.12 -0.32,-0.448 -0.544,-0.9333 -0.672,-1.456 -0.1173,-0.5333 -0.176,-1.0347 -0.176,-1.504 v -7.104 h 1.152 v 6.976 c 0,0.4587 0.0533,0.9067 0.16,1.344 0.1067,0.4267 0.2773,0.8107 0.512,1.152 0.2453,0.3307 0.5653,0.6027 0.96,0.816 0.3947,0.2027 0.88,0.304 1.456,0.304 0.576,0 1.0613,-0.1013 1.456,-0.304 0.3947,-0.2133 0.7093,-0.4853 0.944,-0.816 0.2453,-0.3413 0.4213,-0.7253 0.528,-1.152 0.1067,-0.4373 0.16,-0.8853 0.16,-1.344 v -6.976 h 1.152 v 7.104 c 0,0.4693 -0.064,0.9707 -0.192,1.504 -0.1173,0.5227 -0.336,1.008 -0.656,1.456 -0.32,0.448 -0.7573,0.8213 -1.312,1.12 -0.544,0.288 -1.2373,0.432 -2.08,0.432 z m 10.8634,-6 c -0.16,-0.3093 -0.4054,-0.56 -0.736,-0.752 -0.32,-0.2027 -0.688,-0.304 -1.104,-0.304 -0.192,0 -0.384,0.0213 -0.576,0.064 -0.192,0.0427 -0.3627,0.112 -0.512,0.208 -0.1494,0.096 -0.272,0.2187 -0.368,0.368 -0.0854,0.1493 -0.128,0.3253 -0.128,0.528 0,0.352 0.144,0.624 0.432,0.816 0.288,0.1813 0.7413,0.336 1.36,0.464 0.8853,0.1813 1.536,0.448 1.952,0.8 0.4266,0.3413 0.64,0.8053 0.64,1.392 0,0.4267 -0.0854,0.7893 -0.256,1.088 -0.16,0.288 -0.3734,0.528 -0.64,0.72 -0.2667,0.1813 -0.5707,0.3093 -0.912,0.384 -0.3307,0.0853 -0.6667,0.128 -1.008,0.128 -0.5654,0 -1.1147,-0.1173 -1.648,-0.352 -0.5334,-0.2347 -0.9707,-0.6027 -1.312,-1.104 l 0.864,-0.64 c 0.192,0.3307 0.4746,0.608 0.848,0.832 0.3733,0.224 0.784,0.336 1.232,0.336 0.2346,0 0.4586,-0.0213 0.672,-0.064 0.2133,-0.0427 0.4,-0.1173 0.56,-0.224 0.16,-0.1067 0.288,-0.24 0.384,-0.4 0.096,-0.1707 0.144,-0.3787 0.144,-0.624 0,-0.3947 -0.192,-0.688 -0.576,-0.88 -0.3734,-0.2027 -0.9174,-0.3893 -1.632,-0.56 -0.224,-0.0533 -0.464,-0.1173 -0.72,-0.192 -0.2454,-0.0853 -0.4747,-0.2027 -0.688,-0.352 -0.2134,-0.16 -0.3894,-0.3573 -0.528,-0.592 -0.1387,-0.2347 -0.208,-0.528 -0.208,-0.88 0,-0.384 0.0746,-0.7093 0.224,-0.976 0.1493,-0.2773 0.3466,-0.5013 0.592,-0.672 0.256,-0.1813 0.544,-0.3147 0.864,-0.4 0.32,-0.0853 0.6506,-0.128 0.992,-0.128 0.5226,0 1.0293,0.1173 1.52,0.352 0.4906,0.2347 0.8586,0.5653 1.104,0.992 z M 82.8688,29 c -0.0214,-0.2027 -0.0374,-0.4267 -0.048,-0.672 -0.0107,-0.2453 -0.016,-0.448 -0.016,-0.608 h -0.032 c -0.2134,0.4373 -0.56,0.7947 -1.04,1.072 -0.48,0.2667 -0.9867,0.4 -1.52,0.4 -0.9494,0 -1.664,-0.2827 -2.144,-0.848 -0.4694,-0.5653 -0.704,-1.312 -0.704,-2.24 v -4.592 h 1.088 v 4.144 c 0,0.3947 0.032,0.752 0.096,1.072 0.064,0.32 0.1706,0.5973 0.32,0.832 0.16,0.224 0.368,0.4 0.624,0.528 0.2666,0.128 0.5973,0.192 0.992,0.192 0.288,0 0.5653,-0.0587 0.832,-0.176 0.2773,-0.1173 0.5226,-0.2933 0.736,-0.528 0.2133,-0.2453 0.384,-0.5493 0.512,-0.912 0.128,-0.3733 0.192,-0.8107 0.192,-1.312 v -3.84 h 1.088 v 5.84 c 0,0.2027 0.0053,0.464 0.016,0.784 0.0106,0.32 0.0266,0.608 0.048,0.864 z m 8.3368,-4.832 c 0,-0.6507 -0.1706,-1.136 -0.512,-1.456 -0.3413,-0.32 -0.8373,-0.48 -1.488,-0.48 -0.448,0 -0.864,0.08 -1.248,0.24 -0.384,0.16 -0.7093,0.3733 -0.976,0.64 l -0.608,-0.72 c 0.3094,-0.3093 0.7147,-0.5653 1.216,-0.768 0.512,-0.2027 1.088,-0.304 1.728,-0.304 0.4054,0 0.784,0.0587 1.136,0.176 0.352,0.1067 0.6614,0.272 0.928,0.496 0.2667,0.224 0.4747,0.5067 0.624,0.848 0.1494,0.3413 0.224,0.7413 0.224,1.2 v 3.28 c 0,0.288 0.0107,0.5867 0.032,0.896 0.0214,0.3093 0.0534,0.5707 0.096,0.784 h -0.976 c -0.032,-0.1813 -0.0586,-0.3787 -0.08,-0.592 -0.0213,-0.2133 -0.032,-0.4213 -0.032,-0.624 h -0.032 c -0.3413,0.5013 -0.7306,0.864 -1.168,1.088 -0.4266,0.2133 -0.944,0.32 -1.552,0.32 -0.288,0 -0.5866,-0.0427 -0.896,-0.128 -0.2986,-0.0747 -0.576,-0.2027 -0.832,-0.384 -0.2453,-0.1813 -0.4533,-0.416 -0.624,-0.704 -0.16,-0.288 -0.24,-0.64 -0.24,-1.056 0,-0.576 0.144,-1.0293 0.432,-1.36 0.2987,-0.3413 0.6934,-0.592 1.184,-0.752 0.4907,-0.1707 1.0507,-0.2773 1.68,-0.32 0.64,-0.0533 1.3014,-0.08 1.984,-0.08 z m -0.32,1.088 c -0.448,0 -0.9013,0.0213 -1.36,0.064 -0.448,0.032 -0.8586,0.1067 -1.232,0.224 -0.3626,0.1067 -0.6613,0.2667 -0.896,0.48 -0.2346,0.2133 -0.352,0.496 -0.352,0.848 0,0.2667 0.048,0.4907 0.144,0.672 0.1067,0.1813 0.2454,0.3307 0.416,0.448 0.1707,0.1067 0.3574,0.1867 0.56,0.24 0.2134,0.0427 0.4267,0.064 0.64,0.064 0.384,0 0.7254,-0.064 1.024,-0.192 0.2987,-0.1387 0.5494,-0.32 0.752,-0.544 0.2027,-0.2347 0.3574,-0.5013 0.464,-0.8 0.1067,-0.2987 0.16,-0.6133 0.16,-0.944 v -0.56 z m 3.9069,-2.096 c 0,-0.2027 -0.0053,-0.464 -0.016,-0.784 -0.0107,-0.32 -0.0267,-0.608 -0.048,-0.864 h 1.04 c 0.0213,0.2027 0.0373,0.4267 0.048,0.672 0.0107,0.2453 0.016,0.448 0.016,0.608 h 0.032 c 0.2133,-0.4373 0.5333,-0.7893 0.96,-1.056 0.4267,-0.2773 0.9067,-0.416 1.44,-0.416 0.1387,0 0.2613,0.0053 0.368,0.016 0.1173,0.0107 0.2347,0.032 0.352,0.064 l -0.144,1.024 c -0.064,-0.0213 -0.1707,-0.0427 -0.32,-0.064 -0.1493,-0.0213 -0.2987,-0.032 -0.448,-0.032 -0.288,0 -0.5653,0.0533 -0.832,0.16 -0.2667,0.1067 -0.5013,0.2773 -0.704,0.512 -0.192,0.224 -0.352,0.5173 -0.48,0.88 -0.1173,0.352 -0.176,0.7787 -0.176,1.28 V 29 h -1.088 z M 101.422,29 h -1.088 v -7.488 h 1.088 z m 0.224,-10.368 c 0,0.224 -0.08,0.4107 -0.24,0.56 -0.16,0.1387 -0.336,0.208 -0.528,0.208 -0.192,0 -0.368,-0.0693 -0.528,-0.208 -0.16,-0.1493 -0.24,-0.336 -0.24,-0.56 0,-0.224 0.08,-0.4053 0.24,-0.544 0.16,-0.1493 0.336,-0.224 0.528,-0.224 0.192,0 0.368,0.0747 0.528,0.224 0.16,0.1387 0.24,0.32 0.24,0.544 z m 9.872,6.624 c 0,0.5653 -0.101,1.088 -0.304,1.568 -0.192,0.48 -0.464,0.896 -0.816,1.248 -0.352,0.352 -0.773,0.6293 -1.264,0.832 -0.491,0.192 -1.029,0.288 -1.616,0.288 -0.576,0 -1.109,-0.096 -1.6,-0.288 -0.491,-0.2027 -0.912,-0.48 -1.264,-0.832 -0.352,-0.352 -0.629,-0.768 -0.832,-1.248 -0.192,-0.48 -0.288,-1.0027 -0.288,-1.568 0,-0.5653 0.096,-1.088 0.288,-1.568 0.203,-0.48 0.48,-0.896 0.832,-1.248 0.352,-0.352 0.773,-0.624 1.264,-0.816 0.491,-0.2027 1.024,-0.304 1.6,-0.304 0.587,0 1.125,0.1013 1.616,0.304 0.491,0.192 0.912,0.464 1.264,0.816 0.352,0.352 0.624,0.768 0.816,1.248 0.203,0.48 0.304,1.0027 0.304,1.568 z m -1.152,0 c 0,-0.416 -0.069,-0.8053 -0.208,-1.168 -0.128,-0.3733 -0.315,-0.6933 -0.56,-0.96 -0.245,-0.2773 -0.544,-0.496 -0.896,-0.656 -0.352,-0.16 -0.747,-0.24 -1.184,-0.24 -0.437,0 -0.832,0.08 -1.184,0.24 -0.341,0.16 -0.635,0.3787 -0.88,0.656 -0.245,0.2667 -0.437,0.5867 -0.576,0.96 -0.128,0.3627 -0.192,0.752 -0.192,1.168 0,0.416 0.064,0.8107 0.192,1.184 0.139,0.3627 0.331,0.6827 0.576,0.96 0.245,0.2667 0.539,0.48 0.88,0.64 0.352,0.1493 0.747,0.224 1.184,0.224 0.437,0 0.832,-0.0747 1.184,-0.224 0.352,-0.16 0.651,-0.3733 0.896,-0.64 0.245,-0.2773 0.432,-0.5973 0.56,-0.96 0.139,-0.3733 0.208,-0.768 0.208,-1.184 z m 7.237,-1.968 c -0.16,-0.3093 -0.405,-0.56 -0.736,-0.752 -0.32,-0.2027 -0.688,-0.304 -1.104,-0.304 -0.192,0 -0.384,0.0213 -0.576,0.064 -0.192,0.0427 -0.362,0.112 -0.512,0.208 -0.149,0.096 -0.272,0.2187 -0.368,0.368 -0.085,0.1493 -0.128,0.3253 -0.128,0.528 0,0.352 0.144,0.624 0.432,0.816 0.288,0.1813 0.742,0.336 1.36,0.464 0.886,0.1813 1.536,0.448 1.952,0.8 0.427,0.3413 0.64,0.8053 0.64,1.392 0,0.4267 -0.085,0.7893 -0.256,1.088 -0.16,0.288 -0.373,0.528 -0.64,0.72 -0.266,0.1813 -0.57,0.3093 -0.912,0.384 -0.33,0.0853 -0.666,0.128 -1.008,0.128 -0.565,0 -1.114,-0.1173 -1.648,-0.352 -0.533,-0.2347 -0.97,-0.6027 -1.312,-1.104 l 0.864,-0.64 c 0.192,0.3307 0.475,0.608 0.848,0.832 0.374,0.224 0.784,0.336 1.232,0.336 0.235,0 0.459,-0.0213 0.672,-0.064 0.214,-0.0427 0.4,-0.1173 0.56,-0.224 0.16,-0.1067 0.288,-0.24 0.384,-0.4 0.096,-0.1707 0.144,-0.3787 0.144,-0.624 0,-0.3947 -0.192,-0.688 -0.576,-0.88 -0.373,-0.2027 -0.917,-0.3893 -1.632,-0.56 -0.224,-0.0533 -0.464,-0.1173 -0.72,-0.192 -0.245,-0.0853 -0.474,-0.2027 -0.688,-0.352 -0.213,-0.16 -0.389,-0.3573 -0.528,-0.592 -0.138,-0.2347 -0.208,-0.528 -0.208,-0.88 0,-0.384 0.075,-0.7093 0.224,-0.976 0.15,-0.2773 0.347,-0.5013 0.592,-0.672 0.256,-0.1813 0.544,-0.3147 0.864,-0.4 0.32,-0.0853 0.651,-0.128 0.992,-0.128 0.523,0 1.03,0.1173 1.52,0.352 0.491,0.2347 0.859,0.5653 1.104,0.992 z"
     id="path2"
     clip-path="url(#clipPath3680)"
     inkscape:connector-curvature="0"
     style="fill:#000000"
     transform="translate(0,-4)" />
  <g
     clip-path="url(#clip0)"
     id="g10"
     transform="translate(0,-4)">
    <path
       d="m 32.5,24 c 0,8.2843 -6.7157,15 -15,15 -8.28427,0 -15,-6.7157 -15,-15 0,-8.2843 6.71573,-15 15,-15 8.2843,0 15,6.7157 15,15 z"
       id="path4"
       inkscape:connector-curvature="0"
       style="opacity:0.5;fill:#3ea635" />
    <path
       d="m 26.0645,24.2581 c -1.9355,-1.1613 -3.871,-1.9355 -5.8064,-2.3226 l -2.3226,-0.5161 2.1935,-0.7742 c 2.0645,-0.7742 3.871,-2.1936 4.7742,-4.2581 0.6452,-1.1613 0.9033,-2.4516 0.9033,-3.871 0,-1.0322 -0.2581,-2.0645 -0.6452,-3.09675 0,0 0,-0.12903 -0.129,-0.12903 -0.1291,-0.25806 -0.3871,-0.38709 -0.7742,-0.38709 -0.3871,0 -0.7742,0.38709 -0.7742,0.77419 0,0.12903 0,0.12903 0,0.25806 0,0 0,0 0,0.12902 v 0.129 C 23.871,10.9677 24,11.7419 24,12.6452 c 0,1.0322 -0.2581,2.1935 -0.7742,3.0967 -1.1613,2.3226 -3.6129,3.871 -6.1935,3.871 -2.7097,0 -5.0323,-1.4194 -6.1936,-3.871 -0.129,-1.0322 -0.3871,-2.0645 -0.3871,-3.2258 0,-3.87094 3.0968,-6.96771 6.9678,-6.96771 1.8064,0 3.6129,0.90322 4.9032,1.93548 0.129,0.25807 0.3871,0.3871 0.5161,0.3871 0.3871,0 0.7742,-0.3871 0.7742,-0.7742 0,-0.12903 -0.129,-0.38709 -0.129,-0.51612 0,-0.12904 -0.1291,-0.12904 -0.2581,-0.25807 C 21.6774,4.90323 19.6129,4 17.4194,4 12.6452,4 8.77419,7.87097 8.77419,12.5161 c 0,1.2904 0.25806,2.5807 0.90323,3.871 1.03228,1.9355 2.70968,3.4839 4.77418,4.2581 l 2.1936,0.7742 -2.3226,0.5161 c -1.9355,0.3871 -3.871,1.1613 -5.80647,2.3226 -2.19355,1.2903 -3.87097,2.8387 -5.1613,4.7742 0,0.129 -0.12903,0.129 -0.12903,0.258 -0.12903,0.2581 -0.12903,0.5162 0,0.6452 0.12903,0.129 0.25807,0.3871 0.51613,0.3871 0.25807,0.129 0.64516,0 0.7742,-0.2581 0.12903,-0.129 0.12903,-0.2581 0.25806,-0.3871 0.12903,-0.129 0.12903,-0.258 0.25806,-0.3871 0.12904,-0.258 0.3871,-0.5161 0.51613,-0.6451 0.3871,-0.3871 0.7742,-0.7742 1.16129,-1.1613 0.3871,-0.3871 0.7742,-0.6452 1.16129,-1.0323 0.3871,-0.2581 0.7742,-0.5161 1.16129,-0.7742 0.12904,-0.129 0.25807,-0.129 0.25807,-0.129 C 10.1935,25.0323 11.0968,24.5161 12.129,24.129 L 12.6452,24 16,28.3871 13.8064,37.4194 c 0,0.258 0,0.5161 0.1291,0.6451 l 2.8387,3.3549 c 0.129,0.129 0.3871,0.258 0.6452,0.258 0.258,0 0.5161,-0.129 0.6451,-0.258 l 2.7097,-3.4839 c 0.129,-0.2581 0.2581,-0.5161 0.129,-0.6452 L 18.7097,28.3871 22.0645,24 l 0.5161,0.129 c 0.9033,0.3871 1.9355,0.9033 2.8388,1.4194 3.8709,2.3226 7.8709,6.3226 7.8709,17.5484 0,0.3871 0.3871,0.7742 0.7742,0.7742 0.3871,0 0.7742,-0.3871 0.7742,-0.7742 0,-9.4194 -2.7097,-15.2258 -8.7742,-18.8387 z m -6.1935,13.2903 -2.5807,3.3548 -2.3226,-3.3548 2.0646,-9.0323 h 0.7741 z M 17.5484,27.871 h -0.6452 l -2.9677,-4.2581 3.3548,-0.9032 3.3549,0.9032 z"
       id="path6"
       inkscape:connector-curvature="0"
       style="fill:#000000" />
    <path
       d="m 2.96774,30.8386 c -0.64516,0 -0.90322,0.7742 -1.16129,1.1613 C 1.67742,32.516 1.41935,33.1612 1.29032,33.6773 0.903226,34.9677 0.645161,36.258 0.387097,37.5483 0.129032,39.3548 0,41.2902 0,43.2257 c 0,0.3871 0.387097,0.7742 0.774194,0.7742 0.387096,0 0.774196,-0.3871 0.774196,-0.7742 0,-2.7097 0.25806,-5.5484 0.90322,-8.129 0.12904,-0.6452 0.3871,-1.1613 0.64516,-1.8065 C 3.35484,32.7741 3.6129,32.1289 3.6129,31.6128 3.74194,31.0967 3.48387,30.8386 2.96774,30.8386 Z"
       id="path8"
       inkscape:connector-curvature="0"
       style="fill:#000000" />
  </g>
  <defs
     id="defs15">
    <clipPath
       id="clip0">
      <rect
         width="34.838699"
         height="40"
         transform="translate(0,4)"
         id="rect12"
         x="0"
         y="0"
         style="fill:#ffffff" />
    </clipPath>
    <clipPath
       clipPathUnits="userSpaceOnUse"
       id="clipPath3680">
      <rect
         id="rect3682"
         width="36.565472"
         height="43.441578"
         x="-0.062479477"
         y="2.2958419"
         ry="0.10906" />
    </clipPath>
  </defs>
</svg>
