<?xml version="1.0" encoding="UTF-8" standalone="no"?>
<svg
   xmlns:dc="http://purl.org/dc/elements/1.1/"
   xmlns:cc="http://creativecommons.org/ns#"
   xmlns:rdf="http://www.w3.org/1999/02/22-rdf-syntax-ns#"
   xmlns:svg="http://www.w3.org/2000/svg"
   xmlns="http://www.w3.org/2000/svg"
   xmlns:sodipodi="http://sodipodi.sourceforge.net/DTD/sodipodi-0.dtd"
   xmlns:inkscape="http://www.inkscape.org/namespaces/inkscape"
   width="38.480595"
   height="40"
   viewBox="0 0 38.480595 40"
   version="1.1"
   id="svg23"
   sodipodi:docname="Activo_web(4).svg"
   style="fill:none"
   inkscape:version="0.92.5 (2060ec1f9f, 2020-04-08)">
  <metadata
     id="metadata27">
    <rdf:RDF>
      <cc:Work
         rdf:about="">
        <dc:format>image/svg+xml</dc:format>
        <dc:type
           rdf:resource="http://purl.org/dc/dcmitype/StillImage" />
        <dc:title></dc:title>
      </cc:Work>
    </rdf:RDF>
  </metadata>
  <sodipodi:namedview
     pagecolor="#ffffff"
     bordercolor="#666666"
     borderopacity="1"
     objecttolerance="10"
     gridtolerance="10"
     guidetolerance="10"
     inkscape:pageopacity="0"
     inkscape:pageshadow="2"
     inkscape:window-width="893"
     inkscape:window-height="480"
     id="namedview25"
     showgrid="false"
     fit-margin-top="0"
     fit-margin-left="0"
     fit-margin-right="0"
     fit-margin-bottom="0"
     inkscape:zoom="0.81575079"
     inkscape:cx="140.65301"
     inkscape:cy="22.459037"
     inkscape:window-x="72"
     inkscape:window-y="27"
     inkscape:window-maximized="0"
     inkscape:current-layer="svg23" />
  <circle
     cx="19.554565"
     cy="25"
     r="15"
     id="circle4"
     style="opacity:0.5;fill:#3ea635" />
  <g
     clip-path="url(#clip0)"
     id="g16"
     transform="translate(-0.44543451,-4.0000006)">
    <path
       d="m 29.104,24.7388 c -0.4325,-0.8174 -1.1913,-1.4682 -1.8609,-2.0424 -0.5819,-0.4991 -1.2413,-1.0648 -1.2413,-1.4377 0,-0.3285 -0.2662,-0.5949 -0.5947,-0.5949 -0.3246,0 -0.5885,0.2599 -0.5946,0.5831 0,0.0039 -10e-5,0.0077 -10e-5,0.0116 -0.0144,0.2267 -0.8304,0.8077 -1.2689,1.1199 -1.2073,0.8596 -2.7099,1.9296 -2.7099,3.6052 0,0.3285 0.2662,0.5947 0.5947,0.5947 0.3285,0 0.5947,-0.2662 0.5947,-0.5947 0,-1.0625 1.1743,-1.8986 2.2104,-2.6363 0.4055,-0.2888 0.7875,-0.5607 1.0919,-0.8423 0.3072,0.377 0.7195,0.7306 1.1436,1.0942 1.498,1.2849 2.3408,2.1745 1.4148,3.6907 -0.171,0.2804 -0.0827,0.6463 0.1976,0.8175 0.0968,0.0591 0.2037,0.0872 0.3094,0.0872 0.2003,0 0.396,-0.1012 0.508,-0.2848 0.6694,-1.0962 0.7385,-2.1631 0.2053,-3.171 z"
       id="path6"
       inkscape:connector-curvature="0"
       style="fill:#000000" />
    <path
       d="M 8.30831,28.2535 C 8.0316,28.0766 7.66394,28.1574 7.48691,28.4342 6.40488,30.1267 4.92878,31.5777 3.21808,32.6304 l -2.489532,1.532 c -0.279687,0.1721 -0.366953,0.5384 -0.194843,0.8181 0.112343,0.1825 0.307344,0.2831 0.507105,0.2831 0.10633,0 0.21391,-0.0285 0.31118,-0.0883 l 2.48945,-1.532 c 1.86242,-1.1461 3.46953,-2.726 4.64758,-4.5685 0.17679,-0.2767 0.09594,-0.6443 -0.18071,-0.8213 z"
       id="path8"
       inkscape:connector-curvature="0"
       style="fill:#000000" />
    <path
       d="m 38.4886,31.3431 c -0.7875,-1.2345 -2.4083,-1.6464 -3.6899,-0.9379 l -8.199,4.5329 c -0.5157,0.2852 -1.1195,0.3881 -1.7008,0.2896 L 16.8416,33.863 c -0.5646,-0.0956 -0.9664,-0.6174 -0.9147,-1.1878 0.0279,-0.3083 0.1781,-0.5826 0.4227,-0.7724 0.2447,-0.1898 0.5476,-0.2669 0.8534,-0.2172 l 7.022,1.1411 c 1.2373,0.201 2.4427,-0.5944 2.7445,-1.8107 0.1611,-0.6494 0.0526,-1.3183 -0.3056,-1.8836 -0.3582,-0.5651 -0.9168,-0.9489 -1.5727,-1.0804 L 13.9504,25.8186 c -0.4497,-0.0901 -0.9102,-0.1401 -1.3685,-0.1485 -1.0081,-0.0191 -2.014,0.2301 -2.90842,0.719 -0.28821,0.1575 -0.39414,0.5188 -0.23664,0.807 0.1575,0.2881 0.5189,0.3941 0.80706,0.2366 0.7133,-0.3898 1.5126,-0.5879 2.3163,-0.5735 0.3873,0.0071 0.7764,0.0493 1.1564,0.1256 l 11.1409,2.2334 c 0.3345,0.0671 0.6193,0.2627 0.8019,0.5509 0.1826,0.2881 0.2379,0.6293 0.1557,0.9603 -0.1538,0.6202 -0.7683,1.0258 -1.3993,0.9233 l -7.022,-1.1411 c -0.626,-0.1019 -1.2721,0.0628 -1.7731,0.4514 -0.5009,0.3886 -0.8211,0.9734 -0.8782,1.6048 -0.1074,1.185 0.7275,2.2691 1.9006,2.4678 l 8.0572,1.3647 c 0.8455,0.1433 1.7245,-0.0064 2.475,-0.4213 l 8.199,-4.533 c 0.7333,-0.4054 1.6609,-0.1697 2.1118,0.5368 0.2293,0.3595 0.3043,0.7866 0.2115,1.2028 -0.093,0.4161 -0.3426,0.7707 -0.7031,0.9986 l -10.5964,6.6964 c -0.9439,0.5965 -2.0717,0.8334 -3.1762,0.6664 L 10.7071,39.6563 C 9.91699,39.537 9.11395,39.7131 8.44605,40.1522 l -4.19062,2.7559 c -0.27445,0.1805 -0.35055,0.5492 -0.17016,0.8236 0.1143,0.1738 0.30391,0.268 0.49743,0.268 0.1121,0 0.22562,-0.0316 0.32617,-0.0979 l 4.19062,-2.7559 c 0.42235,-0.2778 0.93001,-0.3892 1.42981,-0.3136 l 12.5148,1.8907 c 1.3869,0.2094 2.8036,-0.0877 3.9892,-0.837 l 10.5964,-6.6965 c 0.6299,-0.3981 1.0661,-1.0178 1.2285,-1.745 0.1623,-0.727 0.0311,-1.4734 -0.3696,-2.1014 z"
       id="path10"
       inkscape:connector-curvature="0"
       style="fill:#000000" />
    <path
       d="m 34.7774,18.6431 c -0.076,-0.3195 -0.3962,-0.5169 -0.7161,-0.4411 -0.3196,0.0759 -0.5171,0.3966 -0.4411,0.7161 0.3826,1.6094 0.4566,3.1984 0.2199,4.7227 -0.478,3.0793 -2.7563,5.5979 -5.8042,6.4162 -0.3173,0.0851 -0.5054,0.4114 -0.4202,0.7285 0.0713,0.2656 0.3116,0.4407 0.574,0.4407 0.0511,0 0.103,-0.0066 0.1546,-0.0205 3.5024,-0.9404 6.121,-3.8382 6.6711,-7.3825 0.2604,-1.6771 0.1803,-3.42 -0.238,-5.1801 z"
       id="path12"
       inkscape:connector-curvature="0"
       style="fill:#000000" />
    <path
       d="m 33.9872,16.2051 c -1.3067,-3.1831 -3.2223,-5.2452 -3.3031,-5.3314 -0.1668,-0.1779 -0.4254,-0.2358 -0.6525,-0.1461 -0.2268,0.0897 -0.3758,0.3089 -0.3758,0.5529 0,1.8632 -0.9953,3.6683 -1.8816,4.9064 C 27.9484,13.7527 27.4204,11.1413 26.2103,8.5178 25.0239,5.94569 23.6177,4.27889 23.5584,4.2092 23.3835,4.00342 23.0917,3.94178 22.8481,4.05866 c -0.2436,0.11687 -0.3776,0.38359 -0.3265,0.6489 0.0125,0.06539 1.2154,6.59254 -2.768,10.57594 -0.7497,0.7498 -1.3992,1.5961 -1.9302,2.5154 -1.3817,2.3915 -1.5959,5.2423 -0.5877,7.8216 0.0917,0.2348 0.3163,0.3783 0.554,0.3783 0.072,0 0.1452,-0.0131 0.2164,-0.041 0.3059,-0.1196 0.4569,-0.4645 0.3374,-0.7704 -0.8758,-2.2407 -0.6901,-4.7169 0.5097,-6.7937 0.4791,-0.8293 1.065,-1.5929 1.7413,-2.2693 1.8432,-1.8431 2.9622,-4.4439 3.2363,-7.52129 0.0604,-0.67844 0.0741,-1.30867 0.0631,-1.86203 1.4696,2.35734 3.5738,6.77352 2.367,11.34262 -0.0682,0.2582 0.0441,0.5303 0.2747,0.6651 0.2303,0.1348 0.5227,0.0995 0.7145,-0.0865 0.1276,-0.1238 2.7494,-2.7013 3.433,-5.9012 0.6406,0.8695 1.517,2.2229 2.2036,3.8957 0.1247,0.3037 0.472,0.4491 0.776,0.3243 0.3039,-0.1248 0.4491,-0.4721 0.3245,-0.776 z"
       id="path14"
       inkscape:connector-curvature="0"
       style="fill:#000000" />
  </g>
  <defs
     id="defs21">
    <clipPath
       id="clip0">
      <rect
         width="40"
         height="40"
         transform="translate(0,4)"
         id="rect18"
         x="0"
         y="0"
         style="fill:#ffffff" />
    </clipPath>
  </defs>
</svg>
