<?xml version="1.0" encoding="UTF-8" standalone="no"?>
<svg
   xmlns:dc="http://purl.org/dc/elements/1.1/"
   xmlns:cc="http://creativecommons.org/ns#"
   xmlns:rdf="http://www.w3.org/1999/02/22-rdf-syntax-ns#"
   xmlns:svg="http://www.w3.org/2000/svg"
   xmlns="http://www.w3.org/2000/svg"
   xmlns:sodipodi="http://sodipodi.sourceforge.net/DTD/sodipodi-0.dtd"
   xmlns:inkscape="http://www.inkscape.org/namespaces/inkscape"
   width="37.470032"
   height="38.769531"
   viewBox="0 0 37.470032 38.769531"
   version="1.1"
   id="svg8"
   sodipodi:docname="Activo_web(2).svg"
   style="fill:none"
   inkscape:version="0.92.5 (2060ec1f9f, 2020-04-08)">
  <metadata
     id="metadata14">
    <rdf:RDF>
      <cc:Work
         rdf:about="">
        <dc:format>image/svg+xml</dc:format>
        <dc:type
           rdf:resource="http://purl.org/dc/dcmitype/StillImage" />
        <dc:title></dc:title>
      </cc:Work>
    </rdf:RDF>
  </metadata>
  <defs
     id="defs12" />
  <sodipodi:namedview
     pagecolor="#ffffff"
     bordercolor="#666666"
     borderopacity="1"
     objecttolerance="10"
     gridtolerance="10"
     guidetolerance="10"
     inkscape:pageopacity="0"
     inkscape:pageshadow="2"
     inkscape:window-width="893"
     inkscape:window-height="480"
     id="namedview10"
     showgrid="false"
     fit-margin-top="0"
     fit-margin-left="0"
     fit-margin-right="0"
     fit-margin-bottom="0"
     inkscape:zoom="2.3072917"
     inkscape:cx="94.730471"
     inkscape:cy="20"
     inkscape:window-x="72"
     inkscape:window-y="27"
     inkscape:window-maximized="0"
     inkscape:current-layer="svg8" />
  <circle
     cx="18.730471"
     cy="23.769529"
     r="15"
     id="circle4"
     style="opacity:0.5;fill:#3ea635" />
  <path
     d="m 36.906371,4.3704899 c -0.5417,-1.7038 -1.276,-2.92374 -1.3071,-2.97501 -0.1204,-0.19844 -0.3683,-0.30166 -0.5928,-0.25017 -0.0582,0.01328 -1.4447,0.33692 -3.0442,1.13572 -2.1592,1.07803 -3.6676,2.5172 -4.3624,4.1613 -0.5784,1.3692 -0.6615,3.043 -0.2511,4.8921001 -0.8741,-0.9762 -1.8574,-1.8301001 -2.9293,-2.5490001 -0.3273,-0.6466 -1.1927,-2.2385 -2.5456,-3.9022 -0.4456,-0.54776 -1.3028,0.1396 -0.8526,0.6928 0.9117,1.1213 1.5979,2.224 2.027,2.9816 l -5.004,-0.9755 -4.7544,-6.48488 c 0.4617,0.00641 0.9249,0.05104 1.3859,0.14145 1.4614,0.2861 2.905,1.03042 4.2913,2.21191 0.5432,0.46303 1.2486,-0.37971 0.7125,-0.83633 -1.5314,-1.30509 -3.1439,-2.13089 -4.7928,-2.45384 -2.517,-0.49256 -5.4525999,0.15403 -8.4903399,1.87065 -2.2641,1.27945 -3.77815,2.68478 -3.84132,2.74384 -0.20256,0.1893 -0.23484,0.5331 -0.06524,0.7542 0.22202,0.4554 1.06339,2.0986 2.46392,3.8676 0.82558,1.0430001 1.69624,1.9357001 2.59689,2.6692001 -0.25589,0.2145 -0.50491,0.4388 -0.74592,0.6748 -1.28723,1.2591 -2.2728,2.7443 -2.91985,4.368 -0.57198,1.4346 -0.87959,2.9779 -0.89676,4.5687 -0.02838,2.6012 0.72533,5.11 2.1801,7.2555 1.42113,2.0957 3.40782,3.7047 5.7451199,4.653 0.6542,0.2648 1.0678,-0.7526 0.4132,-1.0181 -0.8469,-0.3436 -1.6424999,-0.7837 -2.3762999,-1.3071 0.0939,-0.5205 0.3115,-2.3937 -0.93267,-4.3328 -0.17418,-0.2712 0.34653,-1.3364 0.65735,-1.9727 0.32092,-0.6558 0.65212,-1.3337 0.80682,-1.9721 0.1643,-0.6781 -0.0206,-1.2474 -0.5344,-1.6468 -0.37725,-0.2932 -0.87094,-0.4449 -1.30605,-0.5788 -0.28267,-0.087 -0.6031,-0.1854 -0.71754,-0.2808 -0.23575,-0.1976 -0.62073,-0.9275 -0.93018,-1.5136 -0.34332,-0.6503 -0.67017,-1.2692 -1.00388,-1.6503 0.75097,-1.7834 1.95717,-3.3616 3.46779,-4.5689 1.37996,0.94 2.9548599,1.5886 4.6289599,1.72 -1.9414,1.5042 -2.5695,3.4252 -1.6718,5.2705 1.0483,2.1547 3.2059,1.8104 5.1096,1.5072 0.3293,-0.0527 0.6701,-0.1069 0.9965,-0.1477 0.1225,-0.0153 0.1593,0.0181 0.184,0.0399 0.4168,0.3708 0.4045,2.1416 0.3955,3.4348 -0.0121,1.7887 -0.0235,3.4783 0.6427,4.3458 0.3399,0.4422 0.8185,0.6683 1.3795,0.6683 0.3362,0 0.7015,-0.081 1.0847,-0.2453 1.6569,-0.7096 3.3792,-2.845 3.1164,-4.5347 -0.2295,-1.4772 -0.3815,-2.4531 -0.0233,-3.2398 0.3312,-0.728 1.1318,-1.4021 2.7086,-2.2622 0.1888,0.8503 0.284,1.7349 0.2742,2.6424 -0.0337,3.0977 -1.2719,5.9969 -3.4863,8.1633 -2.4749,2.4211 -5.9533,3.6168 -9.394,3.2375 -0.7011,-0.076 -0.8222,1.0149 -0.1202,1.0923 3.7662,0.4147 7.5742,-0.8945 10.2823,-3.5443 2.4245,-2.3719 3.78,-5.5456 3.8168,-8.9371 0.049,-4.4969 -2.2584,-8.4808 -5.7708,-10.7758 0.7258,-0.5175 1.2664,-0.965 1.5663,-1.2247001 1.2805,0.9187001 2.4165,2.0505001 3.3615,3.3691001 2.2687,3.1661 3.1685,7.0258 2.534,10.8687 -1.3104,7.9328 -8.8298,13.3214 -16.764,12.0106 -3.8431999,-0.6347 -7.2088699,-2.7276 -9.4775499,-5.8937 -2.2689,-3.1659 -3.16863998,-7.026 -2.53395,-10.8687 0.11398,-0.6915 -0.96930998,-0.873 -1.08375998,-0.179 -0.68275,4.1325 0.28519,8.2832 2.72438998,11.6878 2.43965,3.4042 6.05937,5.655 10.1918699,6.3378 0.8643,0.1426 1.7294,0.2131 2.5887,0.2131 3.2478,0 6.4073,-1.0085 9.0996,-2.9377 3.4051,-2.4397 5.6562,-6.0588 6.3385,-10.1912 0.5001,-3.0281 0.113,-6.0661 -1.0891,-8.8131 0.5548,-0.1637 1.499,-0.4814 2.5331,-0.9977 2.1588,-1.0781 3.6673,-2.5173 4.362,-4.1613 0.6953,-1.6445001 0.6759,-3.7292001 -0.0561,-6.0285401 z M 5.0217711,19.47583 c 0.40878,0.7749 0.79536,1.5074 1.19705,1.8434 0.2845,0.2378 0.68047,0.3595 1.09955,0.4884 1.07368,0.33 1.19842,0.4921 1.09543,0.9167 -0.12635,0.5221 -0.43122,1.1455 -0.72579,1.7482 -0.5674,1.1609 -1.10321,2.2567 -0.59532,3.0487 0.72029,1.1224 0.84366,2.2275 0.8313,2.9148 -3.2721,-2.9505 -4.60442,-7.6108 -3.38562,-11.8465 0.16159,0.277 0.33142,0.5988 0.4834,0.8863 z M 31.600671,8.6801299 l -1.5612,-3.7834 c 0.7597,-0.71049 1.6411,-1.24516 2.3918,-1.62167 0.6395,-0.32089 1.2479,-0.56076 1.7359,-0.73082 z m 3.5793,-5.70994 c 0.2181,0.46875 0.471,1.07323 0.6871,1.75644 0.2369,0.7498 0.4543,1.6791 0.4976,2.6484 l -3.6587,1.5095 z m -6.5683,3.89994 c 0.1621,-0.3832 0.3715,-0.7384 0.6134,-1.0664 l 1.7773,4.3064001 -1.5948,3.8137 c -0.2241,-0.4754 -0.488,-1.0998 -0.7119,-1.8091 -0.4493,-1.4202 -0.8283,-3.4834001 -0.084,-5.2446001 z m 3.5196,6.6961001 c -0.6155,0.309 -1.2028,0.543 -1.6812,0.7116 l 1.6551,-3.9566 4.2128,-1.7384001 c -0.0611,0.472 -0.1776,0.9398 -0.3674,1.3884 -0.7441,1.7612001 -2.4877,2.9274001 -3.8193,3.5950001 z m -19.8091,-0.3126 c -0.1941,-0.038 -0.3857,-0.0845 -0.5745,-0.1373 l 6.08,-4.4568001 5.0064,0.9757 c -1.8238,1.4369001 -6.262,4.4511001 -10.5119,3.6184001 z M 6.7656211,9.8165299 c -1.30028,-1.4015 -2.25334,-2.9 -2.8006,-3.8594 l 6.3709499,1.2421 z m 1.12518,-7.32951 2.6655699,3.63581 -6.4121399,-1.2499 c 0.80727,-0.63748 2.13982,-1.59444 3.74657,-2.38591 z m 4.2548699,3.94571 -3.2314999,-4.40805 c 0.9674,-0.39757 2.0058999,-0.71045 3.0703999,-0.84961 l 4.4705,6.09746 z m -0.3419,1.0526 4.5564,0.8881 -5.8478,4.2862001 c -1.1026999,-0.5092 -2.0951399,-1.2414 -2.9635199,-2.0553 z m 14.9066,10.7277001 c -1.9805,1.0552 -2.9503,1.8839 -3.4103,2.8949 -0.4942,1.0856 -0.3131,2.2508 -0.0625,3.8635 0.1481,0.951 -0.9821,2.7219 -2.463,3.3561 -0.5479,0.2346 -0.9382,0.2069 -1.1604,-0.0826 -0.4365,-0.5681 -0.4246,-2.2874 -0.4152,-3.6687 0.013,-1.9112 0.0245,-3.5617 -0.764,-4.2632 -0.2836,-0.2522 -0.6464,-0.3589 -1.0495,-0.3094 -0.3453,0.043 -0.6958,0.0988 -1.0343,0.1528 -2.0194,0.3219 -3.2902,0.4507 -3.9484,-0.9027 -1.0666,-2.192 1.0924,-3.8157 2.0702,-4.4119 0.1991,-0.1213 0.3839,-0.2644 0.5555,-0.4237 2.3632,-0.2824 4.5962,-1.2963 6.5861,-2.5664 2.3859,1.4255 4.2174,3.6813 5.0958,6.3613 z"
     id="path6"
     inkscape:connector-curvature="0"
     style="fill:#000000" />
</svg>
