<?xml version="1.0" encoding="UTF-8" standalone="no"?>
<svg
   xmlns:dc="http://purl.org/dc/elements/1.1/"
   xmlns:cc="http://creativecommons.org/ns#"
   xmlns:rdf="http://www.w3.org/1999/02/22-rdf-syntax-ns#"
   xmlns:svg="http://www.w3.org/2000/svg"
   xmlns="http://www.w3.org/2000/svg"
   xmlns:sodipodi="http://sodipodi.sourceforge.net/DTD/sodipodi-0.dtd"
   xmlns:inkscape="http://www.inkscape.org/namespaces/inkscape"
   width="39.993946"
   height="39.999699"
   viewBox="0 0 39.993946 39.999699"
   version="1.1"
   id="svg25"
   sodipodi:docname="Activo_web(1).svg"
   style="fill:none"
   inkscape:version="0.92.5 (2060ec1f9f, 2020-04-08)">
  <metadata
     id="metadata29">
    <rdf:RDF>
      <cc:Work
         rdf:about="">
        <dc:format>image/svg+xml</dc:format>
        <dc:type
           rdf:resource="http://purl.org/dc/dcmitype/StillImage" />
        <dc:title></dc:title>
      </cc:Work>
    </rdf:RDF>
  </metadata>
  <sodipodi:namedview
     pagecolor="#ffffff"
     bordercolor="#666666"
     borderopacity="1"
     objecttolerance="10"
     gridtolerance="10"
     guidetolerance="10"
     inkscape:pageopacity="0"
     inkscape:pageshadow="2"
     inkscape:window-width="893"
     inkscape:window-height="480"
     id="namedview27"
     showgrid="false"
     fit-margin-top="0"
     fit-margin-left="0"
     fit-margin-right="0"
     fit-margin-bottom="0"
     inkscape:zoom="2.3072917"
     inkscape:cx="95.996948"
     inkscape:cy="19.9997"
     inkscape:window-x="72"
     inkscape:window-y="27"
     inkscape:window-maximized="0"
     inkscape:current-layer="svg25" />
  <circle
     cx="19.996948"
     cy="20"
     r="15"
     id="circle4"
     style="opacity:0.5;fill:#3ea635" />
  <g
     clip-path="url(#clip0)"
     id="g18"
     transform="translate(-0.0030525,-4)">
    <path
       d="m 12.6008,31.5786 c -0.1453,-0.1453 -0.3469,-0.229 -0.5523,-0.229 -0.2055,0 -0.4071,0.0836 -0.5524,0.229 -0.1453,0.1452 -0.2289,0.3468 -0.2289,0.5523 0,0.2055 0.0836,0.4071 0.2289,0.5523 0.1453,0.1453 0.3469,0.2289 0.5524,0.2289 0.2054,0 0.407,-0.0835 0.5523,-0.2289 0.1453,-0.1452 0.2289,-0.3468 0.2289,-0.5523 0,-0.2055 -0.0836,-0.4071 -0.2289,-0.5523 z"
       id="path6"
       inkscape:connector-curvature="0"
       style="fill:#000000" />
    <path
       d="m 38.6898,32.4413 -5.648,-5.6481 c -0.843,-0.8429 -1.9637,-1.3072 -3.1559,-1.3072 -1.1922,0 -2.3128,0.4643 -3.1558,1.3072 l -1.9696,1.9696 c 0,0 -10e-5,10e-5 -2e-4,2e-4 -10e-5,10e-5 -2e-4,2e-4 -2e-4,2e-4 l -0.7868,0.7868 -9.5315,-9.5315 2.7568,-2.7568 c 1.7401,-1.7401 1.7401,-4.5715 0,-6.3117 L 11.5554,5.3069 C 9.8153,3.56697 6.98389,3.56697 5.24374,5.3069 L 3.75522,6.79533 c -5.00289,5.00297 -5.00289,13.14337 0,18.14637 l 5.48844,5.4884 c 0.30508,0.305 0.79974,0.305 1.10494,0 0.3051,-0.3051 0.3051,-0.7998 0,-1.1049 L 4.86014,23.8367 C 0.816704,19.7934 0.494595,13.4164 3.89342,9.00088 l 5.93289,5.93302 c 0.15258,0.1525 0.35249,0.2288 0.55239,0.2288 0.2,0 0.4,-0.0763 0.5525,-0.2288 0.305,-0.3051 0.3051,-0.7998 0,-1.105 L 4.93131,7.82901 6.34858,6.41174 c 1.13094,-1.13078 2.97102,-1.13094 4.10192,0 l 5.6432,5.64316 c 1.1309,1.1309 1.1309,2.971 0,4.1019 l -3.3093,3.3092 c -0.1464,0.1465 -0.2288,0.3452 -0.2288,0.5524 0,0.2072 0.0824,0.4058 0.2288,0.5524 l 10.6364,10.6364 c 0.3052,0.3052 0.7999,0.3051 1.1049,0 l 0.787,-0.7869 9.6836,9.6836 c -1.9602,1.5131 -4.351,2.3333 -6.8681,2.3333 -3.01,0 -5.8399,-1.1722 -7.9683,-3.3006 L 14.5933,33.57 c -0.305,-0.305 -0.7997,-0.305 -1.1048,0 -0.3051,0.3051 -0.3051,0.7998 0,1.105 l 5.5666,5.5665 c 2.4235,2.4235 5.6457,3.7582 9.0731,3.7582 3.4274,0 6.6497,-1.3347 9.0732,-3.7582 l 1.4884,-1.4885 c 0.843,-0.8429 1.3072,-1.9637 1.3072,-3.1559 0,-1.1921 -0.4642,-2.3128 -1.3072,-3.1558 z m -1.1048,5.2068 -1.4174,1.4173 -9.75,-9.75 1.4174,-1.4173 c 0.5478,-0.5479 1.2762,-0.8496 2.0509,-0.8496 0.7748,0 1.5032,0.3017 2.051,0.8496 l 5.648,5.6481 c 0.5479,0.5478 0.8496,1.2763 0.8496,2.0509 0,0.7748 -0.3016,1.5032 -0.8495,2.051 z"
       id="path8"
       inkscape:connector-curvature="0"
       style="fill:#000000" />
    <path
       d="m 12.8282,15.726 c -0.1453,-0.1461 -0.3469,-0.2289 -0.5523,-0.2289 -0.2055,0 -0.4071,0.0828 -0.5524,0.2289 -0.1453,0.1453 -0.2289,0.3461 -0.2289,0.5523 0,0.2055 0.0836,0.407 0.2289,0.5524 0.1453,0.1453 0.3469,0.2289 0.5524,0.2289 0.2054,0 0.407,-0.0836 0.5523,-0.2289 0.1453,-0.1454 0.2289,-0.3469 0.2289,-0.5524 0,-0.2054 -0.0836,-0.407 -0.2289,-0.5523 z"
       id="path10"
       inkscape:connector-curvature="0"
       style="fill:#000000" />
    <path
       d="M 32.9333,9.64333 C 32.8411,8.30365 31.7613,7.22388 30.4216,7.13154 29.6618,7.0799 28.938,7.33544 28.3833,7.85326 27.8363,8.3638 27.5226,9.0856 27.5226,9.83372 c 0,0.43138 0.3497,0.78128 0.7812,0.78128 0.4315,0 0.7813,-0.3499 0.7813,-0.78128 0,-0.32117 0.1294,-0.6189 0.3644,-0.8382 0.2346,-0.21906 0.5413,-0.32711 0.8647,-0.30508 0.5656,0.03891 1.0214,0.49485 1.0603,1.06039 0.0395,0.57177 -0.3354,1.07707 -0.8911,1.20147 -0.6085,0.136 -1.0335,0.665 -1.0335,1.2863 v 1.4072 c 0,0.4314 0.3498,0.7813 0.7813,0.7813 0.4315,0 0.7812,-0.3499 0.7812,-0.7813 v -1.2177 c 1.2105,-0.3611 2.0093,-1.5023 1.9209,-2.78477 z"
       id="path12"
       inkscape:connector-curvature="0"
       style="fill:#000000" />
    <path
       d="m 30.7837,15.8736 c -0.1453,-0.1453 -0.3469,-0.2281 -0.5524,-0.2281 -0.2054,0 -0.407,0.0829 -0.5523,0.2281 -0.1453,0.1461 -0.2289,0.3469 -0.2289,0.5532 0,0.2054 0.0836,0.407 0.2289,0.5523 0.1453,0.1453 0.3469,0.2289 0.5523,0.2289 0.2055,0 0.4071,-0.0835 0.5524,-0.2289 0.1453,-0.1454 0.2289,-0.3469 0.2289,-0.5523 0,-0.2063 -0.0836,-0.4071 -0.2289,-0.5532 z"
       id="path14"
       inkscape:connector-curvature="0"
       style="fill:#000000" />
    <path
       d="M 36.0907,4 H 24.372 c -2.154,0 -3.9063,1.75234 -3.9063,3.90625 v 8.90415 c 0,2.1539 1.7523,3.9062 3.9063,3.9062 h 2.9628 l 2.287,2.978 C 29.7697,23.8872 29.9987,24 30.2414,24 c 5e-4,0 9e-4,0 0.0014,0 0.2433,-5e-4 0.4724,-0.1142 0.6199,-0.3077 l 2.2682,-2.9757 h 2.9597 c 2.1539,0 3.9063,-1.7523 3.9063,-3.9062 V 7.90625 C 39.997,5.75234 38.2447,4 36.0907,4 Z m 2.3439,12.8104 h -1e-4 c 0,1.2923 -1.0514,2.3437 -2.3438,2.3437 h -3.3466 c -0.2437,0 -0.4736,0.1138 -0.6213,0.3077 L 30.2392,21.933 28.3397,19.4595 C 28.1918,19.267 27.9628,19.1541 27.7201,19.1541 h -3.348 c -1.2923,0 -2.3437,-1.0514 -2.3437,-2.3437 V 7.90625 c 0,-1.29234 1.0514,-2.34375 2.3437,-2.34375 h 11.7188 c 1.2923,0 2.3437,1.05141 2.3437,2.34375 z"
       id="path16"
       inkscape:connector-curvature="0"
       style="fill:#000000" />
  </g>
  <defs
     id="defs23">
    <clipPath
       id="clip0">
      <rect
         width="40"
         height="40"
         transform="translate(0,4)"
         id="rect20"
         x="0"
         y="0"
         style="fill:#ffffff" />
    </clipPath>
  </defs>
</svg>
