<?xml version="1.0" encoding="UTF-8" standalone="no"?>
<svg
   xmlns:dc="http://purl.org/dc/elements/1.1/"
   xmlns:cc="http://creativecommons.org/ns#"
   xmlns:rdf="http://www.w3.org/1999/02/22-rdf-syntax-ns#"
   xmlns:svg="http://www.w3.org/2000/svg"
   xmlns="http://www.w3.org/2000/svg"
   xmlns:sodipodi="http://sodipodi.sourceforge.net/DTD/sodipodi-0.dtd"
   xmlns:inkscape="http://www.inkscape.org/namespaces/inkscape"
   width="26.384819"
   height="26.037651"
   viewBox="0 0 26.384819 26.037651"
   version="1.1"
   id="svg25"
   sodipodi:docname="Botones_escritorio.svg"
   style="fill:none"
   inkscape:version="0.92.5 (2060ec1f9f, 2020-04-08)">
  <metadata
     id="metadata29">
    <rdf:RDF>
      <cc:Work
         rdf:about="">
        <dc:format>image/svg+xml</dc:format>
        <dc:type
           rdf:resource="http://purl.org/dc/dcmitype/StillImage" />
        <dc:title></dc:title>
      </cc:Work>
    </rdf:RDF>
  </metadata>
  <sodipodi:namedview
     pagecolor="#ffffff"
     bordercolor="#666666"
     borderopacity="1"
     objecttolerance="10"
     gridtolerance="10"
     guidetolerance="10"
     inkscape:pageopacity="0"
     inkscape:pageshadow="2"
     inkscape:window-width="1848"
     inkscape:window-height="1043"
     id="namedview27"
     showgrid="false"
     fit-margin-top="0"
     fit-margin-left="0"
     fit-margin-right="0"
     fit-margin-bottom="0"
     inkscape:zoom="14.402221"
     inkscape:cx="16.573988"
     inkscape:cy="13.197469"
     inkscape:window-x="72"
     inkscape:window-y="0"
     inkscape:window-maximized="1"
     inkscape:current-layer="svg25" />
  <g
     clip-path="url(#clip0)"
     id="g14"
     transform="translate(-14.997687,-2.6989634)">
    <path
       d="M 38.7385,7.13565 35.7383,4.13721 C 35.6503,4.04936 35.5312,4 35.4069,4 H 21.5308 C 21.272,4 21.0621,4.20987 21.0621,4.46878 V 19.5619 h -1.5939 c -1.2924,0 -2.3439,1.0515 -2.3439,2.3439 v 3.7503 c 0,1.2924 1.0515,2.3439 2.3439,2.3439 h 12.3759 6.563 c 0.2589,0 0.4688,-0.2099 0.4688,-0.4688 v -9.4166 c 0,-0.2589 -0.2099,-0.4688 -0.4688,-0.4688 -0.2589,0 -0.4688,0.2099 -0.4688,0.4688 v 8.9478 H 33.718 c 0.2949,-0.392 0.47,-0.8791 0.47,-1.4063 v -3.7503 c 0,-1.2924 -1.0514,-2.3439 -2.3439,-2.3439 H 21.9996 V 4.93757 h 12.9385 v 2.52966 c 0,0.25891 0.2099,0.46878 0.4688,0.46878 h 2.5314 v 5.95949 c 0,0.2589 0.2099,0.4688 0.4688,0.4688 0.2589,0 0.4688,-0.2099 0.4688,-0.4688 V 7.46723 c 0,-0.12437 -0.0495,-0.24368 -0.1374,-0.33158 z m -5.488,14.77015 v 3.7503 c 0,0.7754 -0.6309,1.4063 -1.4064,1.4063 H 19.4682 c -0.7755,0 -1.4064,-0.6309 -1.4064,-1.4063 v -3.7503 c 0,-0.7755 0.6309,-1.4064 1.4064,-1.4064 h 12.3759 c 0.7755,0 1.4064,0.6309 1.4064,1.4064 z m 2.6252,-16.30574 1.3992,1.39838 h -1.3992 z"
       id="path2"
       inkscape:connector-curvature="0"
       style="fill:#3ea635" />
    <path
       d="m 38.407,15.5364 c -0.1233,0 -0.2442,0.0497 -0.3314,0.1373 -0.0872,0.0872 -0.1374,0.2077 -0.1374,0.3315 0,0.1233 0.0501,0.2442 0.1374,0.3314 0.0872,0.0872 0.2081,0.1374 0.3314,0.1374 0.1233,0 0.2442,-0.0502 0.3314,-0.1374 0.0872,-0.0872 0.1374,-0.2081 0.1374,-0.3314 0,-0.1233 -0.0502,-0.2443 -0.1374,-0.3315 -0.0872,-0.0876 -0.2081,-0.1373 -0.3314,-0.1373 z"
       id="path4"
       inkscape:connector-curvature="0"
       style="fill:#3ea635" />
    <path
       d="m 29.8751,24.2497 h 0.1875 c 0.2585,0 0.4688,0.2103 0.4688,0.4688 0,0.2585 -0.2103,0.4688 -0.4688,0.4688 h -0.6797 c -0.2589,0 -0.4688,0.2099 -0.4688,0.4688 0,0.2589 0.2099,0.4688 0.4688,0.4688 h 0.6797 c 0.7755,0 1.4064,-0.6309 1.4064,-1.4064 0,-0.7755 -0.6309,-1.4063 -1.4064,-1.4063 h -0.1875 c -0.2585,0 -0.4688,-0.2103 -0.4688,-0.4688 0,-0.2585 0.2103,-0.4688 0.4688,-0.4688 h 0.5391 c 0.2589,0 0.4688,-0.2099 0.4688,-0.4688 0,-0.2589 -0.2099,-0.4688 -0.4688,-0.4688 h -0.5391 c -0.7755,0 -1.4063,0.6309 -1.4063,1.4064 0,0.7754 0.6308,1.4063 1.4063,1.4063 z"
       id="path6"
       inkscape:connector-curvature="0"
       style="fill:#3ea635" />
    <path
       d="m 20.6779,21.6129 c -0.1618,-0.2022 -0.4568,-0.235 -0.6589,-0.0733 -0.2022,0.1618 -0.235,0.4568 -0.0732,0.659 l 1.2658,1.5822 -1.2658,1.5823 c -0.1618,0.2022 -0.129,0.4972 0.0732,0.6589 0.0864,0.0692 0.1898,0.1028 0.2926,0.1028 0.1374,0 0.2737,-0.0602 0.3663,-0.1759 l 1.134,-1.4176 1.134,1.4176 c 0.0927,0.1157 0.2288,0.1759 0.3663,0.1759 0.1028,0 0.2062,-0.0336 0.2926,-0.1028 0.2022,-0.1617 0.235,-0.4567 0.0732,-0.6589 l -1.2658,-1.5823 1.2658,-1.5822 c 0.1618,-0.2022 0.129,-0.4972 -0.0732,-0.659 -0.2021,-0.1616 -0.4971,-0.1289 -0.6589,0.0733 l -1.134,1.4175 z"
       id="path8"
       inkscape:connector-curvature="0"
       style="fill:#3ea635" />
    <path
       d="m 25.1873,26.1249 h 1.8751 c 0.2589,0 0.4688,-0.2099 0.4688,-0.4688 0,-0.2589 -0.2099,-0.4688 -0.4688,-0.4688 h -1.4063 v -3.2815 c 0,-0.2589 -0.2099,-0.4688 -0.4688,-0.4688 -0.2589,0 -0.4688,0.2099 -0.4688,0.4688 v 3.7503 c 0,0.2589 0.2099,0.4688 0.4688,0.4688 z"
       id="path10"
       inkscape:connector-curvature="0"
       style="fill:#3ea635" />
    <path
       d="m 24.3435,9.15479 c -0.2588,0 -0.4687,0.20987 -0.4687,0.46878 v 8.24783 c 0,0.2589 0.2099,0.4688 0.4687,0.4688 h 3.7001 c 0.0166,0.0018 0.0332,0.0028 0.0502,0.0028 0.017,0 0.0337,-0.0011 0.0502,-0.0028 h 7.4504 c 0.2588,0 0.4688,-0.2099 0.4688,-0.4688 V 9.62357 c 0,-0.25891 -0.21,-0.46878 -0.4688,-0.46878 z m 0.4688,3.68681 h 2.8127 v 1.8117 h -2.8127 z m 3.7503,0 h 6.563 v 1.8117 h -6.563 z m 6.563,-0.9375 h -6.563 v -1.8117 h 6.563 z M 27.625,10.0924 v 1.8117 h -2.8127 v -1.8117 z m -2.8127,5.4985 h 2.8127 v 1.8117 h -2.8127 z m 3.7503,1.8117 v -1.8117 h 6.563 v 1.8117 z"
       id="path12"
       inkscape:connector-curvature="0"
       style="fill:#3ea635" />
  </g>
  <path
     d="m 57.9293,7.84 h 9.38 v 2.2 h -6.86 v 3.6 h 6.5 v 2.12 h -6.5 v 4 h 7.22 V 22 h -9.74 z m 14.287,9.06 -3.46,-4.5 h 2.88 l 2.08,2.98 2.14,-2.98 h 2.76 l -3.44,4.5 3.92,5.1 h -2.92 l -2.5,-3.5 -2.52,3.5 h -2.84 z m 10.3622,-4.5 v 1.34 h 0.06 c 0.12,-0.1867 0.2733,-0.3733 0.46,-0.56 0.2,-0.2 0.44,-0.3733 0.72,-0.52 0.28,-0.16 0.5933,-0.2867 0.94,-0.38 0.36,-0.1067 0.76,-0.16 1.2,-0.16 0.68,0 1.3067,0.1333 1.88,0.4 0.5734,0.2533 1.0667,0.6067 1.48,1.06 0.4133,0.4533 0.7333,0.9867 0.96,1.6 0.2267,0.6133 0.34,1.2733 0.34,1.98 0,0.7067 -0.1133,1.3733 -0.34,2 -0.2133,0.6133 -0.5266,1.1533 -0.94,1.62 -0.4,0.4533 -0.8933,0.82 -1.48,1.1 -0.5733,0.2667 -1.2267,0.4 -1.96,0.4 -0.68,0 -1.3067,-0.14 -1.88,-0.42 -0.56,-0.28 -0.9933,-0.66 -1.3,-1.14 h -0.04 v 6.08 h -2.4 V 12.4 Z m 5.6,4.76 c 0,-0.3733 -0.06,-0.74 -0.18,-1.1 -0.1066,-0.3733 -0.2733,-0.7067 -0.5,-1 -0.2267,-0.2933 -0.5133,-0.5267 -0.86,-0.7 -0.3467,-0.1867 -0.7533,-0.28 -1.22,-0.28 -0.44,0 -0.8333,0.0933 -1.18,0.28 -0.3467,0.1867 -0.6467,0.4267 -0.9,0.72 -0.24,0.2933 -0.4267,0.6267 -0.56,1 -0.12,0.3733 -0.18,0.7467 -0.18,1.12 0,0.3733 0.06,0.7467 0.18,1.12 0.1333,0.36 0.32,0.6867 0.56,0.98 0.2533,0.2933 0.5533,0.5333 0.9,0.72 0.3467,0.1733 0.74,0.26 1.18,0.26 0.4667,0 0.8733,-0.0933 1.22,-0.28 0.3467,-0.1867 0.6333,-0.4267 0.86,-0.72 0.2267,-0.2933 0.3934,-0.6267 0.5,-1 0.12,-0.3733 0.18,-0.7467 0.18,-1.12 z m 3.9563,0 c 0,-0.76 0.1333,-1.4467 0.4,-2.06 0.28,-0.6267 0.6533,-1.16 1.12,-1.6 0.4666,-0.44 1.02,-0.78 1.66,-1.02 0.64,-0.24 1.32,-0.36 2.04,-0.36 0.72,0 1.4,0.12 2.04,0.36 0.6402,0.24 1.1932,0.58 1.6602,1.02 0.466,0.44 0.833,0.9733 1.1,1.6 0.28,0.6133 0.42,1.3 0.42,2.06 0,0.76 -0.14,1.4533 -0.42,2.08 -0.267,0.6267 -0.634,1.1667 -1.1,1.62 -0.467,0.44 -1.02,0.7867 -1.6602,1.04 -0.64,0.2533 -1.32,0.38 -2.04,0.38 -0.72,0 -1.4,-0.1267 -2.04,-0.38 -0.64,-0.2533 -1.1934,-0.6 -1.66,-1.04 -0.4667,-0.4533 -0.84,-0.9933 -1.12,-1.62 -0.2667,-0.6267 -0.4,-1.32 -0.4,-2.08 z m 2.44,0 c 0,0.3733 0.0533,0.7467 0.16,1.12 0.12,0.3733 0.2933,0.7067 0.52,1 0.2266,0.2933 0.5133,0.5333 0.86,0.72 0.3466,0.1867 0.76,0.28 1.24,0.28 0.48,0 0.8933,-0.0933 1.24,-0.28 0.3466,-0.1867 0.6333,-0.4267 0.86,-0.72 0.2266,-0.2933 0.3933,-0.6267 0.5,-1 0.1202,-0.3733 0.1802,-0.7467 0.1802,-1.12 0,-0.3733 -0.06,-0.74 -0.1802,-1.1 -0.1067,-0.3733 -0.2734,-0.7067 -0.5,-1 -0.2267,-0.2933 -0.5134,-0.5267 -0.86,-0.7 -0.3467,-0.1867 -0.76,-0.28 -1.24,-0.28 -0.48,0 -0.8934,0.0933 -1.24,0.28 -0.3467,0.1733 -0.6334,0.4067 -0.86,0.7 -0.2267,0.2933 -0.4,0.6267 -0.52,1 -0.1067,0.36 -0.16,0.7267 -0.16,1.1 z M 104.662,12.4 h 2.3 V 14 h 0.04 c 0.266,-0.56 0.64,-1.0133 1.12,-1.36 0.48,-0.3467 1.04,-0.52 1.68,-0.52 0.093,0 0.193,0.0067 0.3,0.02 0.106,0 0.2,0.0133 0.28,0.04 v 2.2 c -0.16,-0.04 -0.3,-0.0667 -0.42,-0.08 -0.107,-0.0133 -0.214,-0.02 -0.32,-0.02 -0.547,0 -0.987,0.1 -1.32,0.3 -0.334,0.2 -0.594,0.44 -0.78,0.72 -0.187,0.28 -0.314,0.5667 -0.38,0.86 -0.067,0.2933 -0.1,0.5267 -0.1,0.7 V 22 h -2.4 z m 5.431,1.92 V 12.4 h 1.68 V 9.62 h 2.36 v 2.78 h 2.4 v 1.92 h -2.4 v 4.46 c 0,0.4267 0.073,0.78 0.22,1.06 0.16,0.28 0.506,0.42 1.04,0.42 0.16,0 0.333,-0.0133 0.52,-0.04 0.186,-0.04 0.353,-0.0933 0.5,-0.16 l 0.08,1.88 c -0.214,0.08 -0.467,0.14 -0.76,0.18 -0.294,0.0533 -0.574,0.08 -0.84,0.08 -0.64,0 -1.16,-0.0867 -1.56,-0.26 -0.4,-0.1867 -0.72,-0.4333 -0.96,-0.74 -0.227,-0.32 -0.387,-0.68 -0.48,-1.08 -0.08,-0.4133 -0.12,-0.8533 -0.12,-1.32 v -4.48 z m 13.896,6.46 h -0.06 c -0.24,0.4267 -0.626,0.78 -1.16,1.06 -0.533,0.2667 -1.14,0.4 -1.82,0.4 -0.386,0 -0.793,-0.0533 -1.22,-0.16 -0.413,-0.0933 -0.8,-0.2533 -1.16,-0.48 -0.346,-0.24 -0.64,-0.5467 -0.88,-0.92 -0.226,-0.3867 -0.34,-0.86 -0.34,-1.42 0,-0.72 0.2,-1.2933 0.6,-1.72 0.414,-0.4267 0.94,-0.7533 1.58,-0.98 0.64,-0.2267 1.347,-0.3733 2.12,-0.44 0.787,-0.08 1.554,-0.12 2.3,-0.12 v -0.24 c 0,-0.6 -0.22,-1.04 -0.66,-1.32 -0.426,-0.2933 -0.94,-0.44 -1.54,-0.44 -0.506,0 -0.993,0.1067 -1.46,0.32 -0.466,0.2133 -0.853,0.4733 -1.16,0.78 l -1.24,-1.46 c 0.547,-0.5067 1.174,-0.8867 1.88,-1.14 0.72,-0.2533 1.447,-0.38 2.18,-0.38 0.854,0 1.554,0.12 2.1,0.36 0.56,0.24 1,0.5533 1.32,0.94 0.32,0.3867 0.54,0.82 0.66,1.3 0.134,0.48 0.2,0.96 0.2,1.44 V 22 h -2.24 z m -0.04,-3.16 h -0.54 c -0.386,0 -0.793,0.02 -1.22,0.06 -0.426,0.0267 -0.82,0.1 -1.18,0.22 -0.36,0.1067 -0.66,0.2667 -0.9,0.48 -0.24,0.2 -0.36,0.48 -0.36,0.84 0,0.2267 0.047,0.42 0.14,0.58 0.107,0.1467 0.24,0.2667 0.4,0.36 0.16,0.0933 0.34,0.16 0.54,0.2 0.2,0.04 0.4,0.06 0.6,0.06 0.827,0 1.454,-0.22 1.88,-0.66 0.427,-0.44 0.64,-1.04 0.64,-1.8 z m 4.837,-5.22 h 2.3 V 14 h 0.04 c 0.266,-0.56 0.64,-1.0133 1.12,-1.36 0.48,-0.3467 1.04,-0.52 1.68,-0.52 0.093,0 0.193,0.0067 0.3,0.02 0.106,0 0.2,0.0133 0.28,0.04 v 2.2 c -0.16,-0.04 -0.3,-0.0667 -0.42,-0.08 -0.107,-0.0133 -0.214,-0.02 -0.32,-0.02 -0.547,0 -0.987,0.1 -1.32,0.3 -0.334,0.2 -0.594,0.44 -0.78,0.72 -0.187,0.28 -0.314,0.5667 -0.38,0.86 -0.067,0.2933 -0.1,0.5267 -0.1,0.7 V 22 h -2.4 z"
     id="path16"
     clip-path="url(#clipPath842)"
     inkscape:connector-curvature="0"
     style="fill:#3ea635"
     transform="translate(-14.997687,-2.6989634)" />
  <path
     d="M 8,2 H 166 V -2 H 8 Z m 164,6 v 16 h 4 V 8 Z m -6,22 H 8 v 4 H 166 Z M 2,24 V 8 h -4 v 16 z m 6,6 C 4.68629,30 2,27.3137 2,24 h -4 c 0,5.5228 4.47715,10 10,10 z m 164,-6 c 0,3.3137 -2.686,6 -6,6 v 4 c 5.523,0 10,-4.4772 10,-10 z M 166,2 c 3.314,0 6,2.68629 6,6 h 4 C 176,2.47715 171.523,-2 166,-2 Z M 8,-2 C 2.47715,-2 -2,2.47715 -2,8 H 2 C 2,4.68629 4.68629,2 8,2 Z"
     id="path18"
     clip-path="url(#clipPath838)"
     inkscape:connector-curvature="0"
     style="fill:#3ea635"
     transform="translate(-14.997687,-2.6989634)" />
  <defs
     id="defs23">
    <clipPath
       id="clip0">
      <rect
         width="24"
         height="24"
         transform="translate(16,4)"
         id="rect20"
         x="0"
         y="0"
         style="fill:#ffffff" />
    </clipPath>
    <clipPath
       clipPathUnits="userSpaceOnUse"
       id="clipPath838">
      <rect
         id="rect840"
         width="26.384819"
         height="26.037651"
         x="14.997687"
         y="2.6989634"
         ry="0.10906" />
    </clipPath>
    <clipPath
       clipPathUnits="userSpaceOnUse"
       id="clipPath842">
      <rect
         id="rect844"
         width="26.384819"
         height="26.037651"
         x="14.997687"
         y="2.6989634"
         ry="0.10906" />
    </clipPath>
  </defs>
</svg>
