<?xml version="1.0" encoding="UTF-8" standalone="no"?>
<svg
   xmlns:dc="http://purl.org/dc/elements/1.1/"
   xmlns:cc="http://creativecommons.org/ns#"
   xmlns:rdf="http://www.w3.org/1999/02/22-rdf-syntax-ns#"
   xmlns:svg="http://www.w3.org/2000/svg"
   xmlns="http://www.w3.org/2000/svg"
   xmlns:sodipodi="http://sodipodi.sourceforge.net/DTD/sodipodi-0.dtd"
   xmlns:inkscape="http://www.inkscape.org/namespaces/inkscape"
   width="34.838699"
   height="40"
   viewBox="0 0 34.838699 40"
   version="1.1"
   id="svg15"
   sodipodi:docname="inactivo_web.svg"
   style="fill:none"
   inkscape:version="0.92.5 (2060ec1f9f, 2020-04-08)">
  <metadata
     id="metadata19">
    <rdf:RDF>
      <cc:Work
         rdf:about="">
        <dc:format>image/svg+xml</dc:format>
        <dc:type
           rdf:resource="http://purl.org/dc/dcmitype/StillImage" />
        <dc:title></dc:title>
      </cc:Work>
    </rdf:RDF>
  </metadata>
  <sodipodi:namedview
     pagecolor="#ffffff"
     bordercolor="#666666"
     borderopacity="1"
     objecttolerance="10"
     gridtolerance="10"
     guidetolerance="10"
     inkscape:pageopacity="0"
     inkscape:pageshadow="2"
     inkscape:window-width="893"
     inkscape:window-height="480"
     id="namedview17"
     showgrid="false"
     fit-margin-top="0"
     fit-margin-left="0"
     fit-margin-right="0"
     fit-margin-bottom="0"
     inkscape:zoom="2.3439153"
     inkscape:cx="94.5"
     inkscape:cy="20"
     inkscape:window-x="72"
     inkscape:window-y="27"
     inkscape:window-maximized="0"
     inkscape:current-layer="svg15" />
  <g
     clip-path="url(#clip0)"
     id="g8"
     transform="translate(0,-4)">
    <path
       d="m 26.0645,24.2581 c -1.9355,-1.1613 -3.871,-1.9355 -5.8064,-2.3226 l -2.3226,-0.5161 2.1935,-0.7742 c 2.0645,-0.7742 3.871,-2.1936 4.7742,-4.2581 0.6452,-1.1613 0.9033,-2.4516 0.9033,-3.871 0,-1.0322 -0.2581,-2.0645 -0.6452,-3.09675 0,0 0,-0.12903 -0.129,-0.12903 -0.1291,-0.25806 -0.3871,-0.38709 -0.7742,-0.38709 -0.3871,0 -0.7742,0.38709 -0.7742,0.77419 0,0.12903 0,0.12903 0,0.25806 0,0 0,0 0,0.12902 v 0.129 C 23.871,10.9677 24,11.7419 24,12.6452 c 0,1.0322 -0.2581,2.1935 -0.7742,3.0967 -1.1613,2.3226 -3.6129,3.871 -6.1935,3.871 -2.7097,0 -5.0323,-1.4194 -6.1936,-3.871 -0.129,-1.0322 -0.3871,-2.0645 -0.3871,-3.2258 0,-3.87094 3.0968,-6.96771 6.9678,-6.96771 1.8064,0 3.6129,0.90322 4.9032,1.93548 0.129,0.25807 0.3871,0.3871 0.5161,0.3871 0.3871,0 0.7742,-0.3871 0.7742,-0.7742 0,-0.12903 -0.129,-0.38709 -0.129,-0.51612 0,-0.12904 -0.1291,-0.12904 -0.2581,-0.25807 C 21.6774,4.90323 19.6129,4 17.4194,4 12.6452,4 8.77419,7.87097 8.77419,12.5161 c 0,1.2904 0.25806,2.5807 0.90323,3.871 1.03228,1.9355 2.70968,3.4839 4.77418,4.2581 l 2.1936,0.7742 -2.3226,0.5161 c -1.9355,0.3871 -3.871,1.1613 -5.80647,2.3226 -2.19355,1.2903 -3.87097,2.8387 -5.1613,4.7742 0,0.129 -0.12903,0.129 -0.12903,0.258 -0.12903,0.2581 -0.12903,0.5162 0,0.6452 0.12903,0.129 0.25807,0.3871 0.51613,0.3871 0.25807,0.129 0.64516,0 0.7742,-0.2581 0.12903,-0.129 0.12903,-0.2581 0.25806,-0.3871 0.12903,-0.129 0.12903,-0.258 0.25806,-0.3871 0.12904,-0.258 0.3871,-0.5161 0.51613,-0.6451 0.3871,-0.3871 0.7742,-0.7742 1.16129,-1.1613 0.3871,-0.3871 0.7742,-0.6452 1.16129,-1.0323 0.3871,-0.2581 0.7742,-0.5161 1.16129,-0.7742 0.12904,-0.129 0.25807,-0.129 0.25807,-0.129 C 10.1935,25.0323 11.0968,24.5161 12.129,24.129 L 12.6452,24 16,28.3871 13.8064,37.4194 c 0,0.258 0,0.5161 0.1291,0.6451 l 2.8387,3.3549 c 0.129,0.129 0.3871,0.258 0.6452,0.258 0.258,0 0.5161,-0.129 0.6451,-0.258 l 2.7097,-3.4839 c 0.129,-0.2581 0.2581,-0.5161 0.129,-0.6452 L 18.7097,28.3871 22.0645,24 l 0.5161,0.129 c 0.9033,0.3871 1.9355,0.9033 2.8388,1.4194 3.8709,2.3226 7.8709,6.3226 7.8709,17.5484 0,0.3871 0.3871,0.7742 0.7742,0.7742 0.3871,0 0.7742,-0.3871 0.7742,-0.7742 0,-9.4194 -2.7097,-15.2258 -8.7742,-18.8387 z m -6.1935,13.2903 -2.5807,3.3548 -2.3226,-3.3548 2.0646,-9.0323 h 0.7741 z M 17.5484,27.871 h -0.6452 l -2.9677,-4.2581 3.3548,-0.9032 3.3549,0.9032 z"
       id="path4"
       inkscape:connector-curvature="0"
       style="fill:#cccccc" />
    <path
       d="M 2.96774,30.8387 C 2.32258,30.8387 2.06452,31.6129 1.80645,32 1.67742,32.5162 1.41935,33.1613 1.29032,33.6775 0.903226,34.9678 0.645161,36.2581 0.387097,37.5484 0.129032,39.3549 0,41.2904 0,43.2258 0,43.6129 0.387097,44 0.774194,44 1.16129,44 1.54839,43.6129 1.54839,43.2258 c 0,-2.7096 0.25806,-5.5483 0.90322,-8.129 0.12904,-0.6452 0.3871,-1.1613 0.64516,-1.8064 C 3.35484,32.7742 3.6129,32.1291 3.6129,31.6129 3.74194,31.0968 3.48387,30.8387 2.96774,30.8387 Z"
       id="path6"
       inkscape:connector-curvature="0"
       style="fill:#cccccc" />
  </g>
  <defs
     id="defs13">
    <clipPath
       id="clip0">
      <rect
         width="34.838699"
         height="40"
         transform="translate(0,4)"
         id="rect10"
         x="0"
         y="0"
         style="fill:#ffffff" />
    </clipPath>
  </defs>
</svg>
