<?xml version="1.0" encoding="UTF-8" standalone="no"?>
<svg
   xmlns:dc="http://purl.org/dc/elements/1.1/"
   xmlns:cc="http://creativecommons.org/ns#"
   xmlns:rdf="http://www.w3.org/1999/02/22-rdf-syntax-ns#"
   xmlns:svg="http://www.w3.org/2000/svg"
   xmlns="http://www.w3.org/2000/svg"
   xmlns:sodipodi="http://sodipodi.sourceforge.net/DTD/sodipodi-0.dtd"
   xmlns:inkscape="http://www.inkscape.org/namespaces/inkscape"
   width="39.997925"
   height="40"
   viewBox="0 0 39.997925 40"
   version="1.1"
   id="svg65"
   sodipodi:docname="inactivo_web-1.svg"
   style="fill:none"
   inkscape:version="0.92.5 (2060ec1f9f, 2020-04-08)">
  <metadata
     id="metadata69">
    <rdf:RDF>
      <cc:Work
         rdf:about="">
        <dc:format>image/svg+xml</dc:format>
        <dc:type
           rdf:resource="http://purl.org/dc/dcmitype/StillImage" />
        <dc:title></dc:title>
      </cc:Work>
    </rdf:RDF>
  </metadata>
  <sodipodi:namedview
     pagecolor="#ffffff"
     bordercolor="#666666"
     borderopacity="1"
     objecttolerance="10"
     gridtolerance="10"
     guidetolerance="10"
     inkscape:pageopacity="0"
     inkscape:pageshadow="2"
     inkscape:window-width="1848"
     inkscape:window-height="1043"
     id="namedview67"
     showgrid="false"
     fit-margin-top="0"
     fit-margin-left="0"
     fit-margin-right="0"
     fit-margin-bottom="0"
     inkscape:zoom="9.3125"
     inkscape:cx="41.389335"
     inkscape:cy="28.198313"
     inkscape:window-x="72"
     inkscape:window-y="0"
     inkscape:window-maximized="1"
     inkscape:current-layer="svg65" />
  <g
     clip-path="url(#clip0)"
     id="g58"
     transform="translate(-0.0020752,-4)">
    <path
       d="m 19.8136,30.0852 c -1.12,0 -2.0311,0.9112 -2.0311,2.0312 0,1.12 0.9112,2.0312 2.0311,2.0312 1.12,0 2.0312,-0.9112 2.0312,-2.0312 0,-1.12 -0.9111,-2.0312 -2.0312,-2.0312 z m 0,2.4999 c -0.2585,0 -0.4687,-0.2102 -0.4687,-0.4687 0,-0.2585 0.2102,-0.4688 0.4687,-0.4688 0.2586,0 0.4688,0.2103 0.4688,0.4688 0,0.2585 -0.2102,0.4687 -0.4688,0.4687 z"
       id="path50"
       inkscape:connector-curvature="0"
       style="fill:#cccccc" />
    <path
       d="m 26.0842,27.4962 c -0.1453,-0.1453 -0.3469,-0.229 -0.5523,-0.229 -0.2055,0 -0.4071,0.0836 -0.5524,0.229 -0.1461,0.1452 -0.2289,0.3468 -0.2289,0.5523 0,0.2055 0.0828,0.4071 0.2289,0.5523 0.1453,0.1454 0.3469,0.2289 0.5524,0.2289 0.2054,0 0.407,-0.0835 0.5523,-0.2289 0.1453,-0.1452 0.2289,-0.3468 0.2289,-0.5523 0,-0.2055 -0.0836,-0.4071 -0.2289,-0.5523 z"
       id="path52"
       inkscape:connector-curvature="0"
       style="fill:#cccccc" />
    <path
       d="M 36.0948,15.249 H 35.2525 L 24.2326,4.22905 c -0.3051,-0.30508 -0.7998,-0.30508 -1.1048,0 L 20.3047,7.05225 9.01371,4.02686 C 8.59692,3.91506 8.16848,4.16248 8.05684,4.57928 L 5.19809,15.249 H 3.28325 c -1.80922,0 -3.2811748,1.4718 -3.2811748,3.2811 0,0.0434 0.00164062,0.0864 0.00328124,0.1294 C 0.00355957,18.681 0.0020752,18.7026 0.0020752,18.7245 V 40.0939 C 0.0020752,42.2477 1.75442,44 3.90825,44 H 31.8761 c 0.0121,0 0.024,-8e-4 0.0361,-9e-4 h 4.1825 c 2.1539,0 3.9061,-1.7523 3.9061,-3.9062 V 19.1551 c 1e-4,-2.1539 -1.7522,-3.9061 -3.906,-3.9061 z m -0.698,1.5624 h 0.698 c 1.2923,0 2.3437,1.0514 2.3437,2.3437 v 6.2611 c 0,1.0211 -0.8307,1.8517 -1.8517,1.8517 h -0.8045 v -3.113 c 0,-2.1266 -1.7085,-3.8605 -3.8249,-3.9041 z M 21.0906,8.476 c 10e-5,-8e-5 10e-5,-2.3e-4 2e-4,-3.1e-4 l 2.5895,-2.58946 10.2161,10.21607 -4.1211,4.1211 h -1.4292 l 1.8693,-1.8694 c 0.3051,-0.3051 0.3051,-0.7998 0,-1.1049 -0.6324,-0.6324 -0.6324,-1.6613 0,-2.2937 0.3051,-0.3051 0.3051,-0.7998 0,-1.1049 L 25.932,9.56717 c -0.3051,-0.30508 -0.7998,-0.30508 -1.1049,0 -0.6325,0.63253 -1.6614,0.63253 -2.2938,0 -0.3051,-0.30508 -0.7998,-0.30508 -1.1048,0 L 10.7722,20.2235 H 9.34301 Z m -2.2992,8.8123 c -1.7834,0 -3.2776,1.2593 -3.6421,2.9352 h -2.1675 l 9.0676,-9.0677 c 1.0009,0.5966 2.2607,0.5966 3.2616,0 l 3.3157,3.3157 c -0.5965,1.0008 -0.5965,2.2608 0,3.2616 l -2.4904,2.4904 H 22.4336 C 22.0691,18.5476 20.575,17.2883 18.7914,17.2883 Z m 2.0146,2.9352 h -4.0288 c 0.3171,-0.8029 1.1003,-1.3727 2.0144,-1.3727 0.9141,0 1.6973,0.5698 2.0144,1.3727 z M 8.51731,18.8395 10.5862,11.1182 c 0.5673,0.0091 1.1316,-0.1357 1.637,-0.4277 0.5054,-0.2918 0.9122,-0.70669 1.1888,-1.2038 l 3.516,0.9421 -5.1024,5.1024 z M 9.36395,5.73827 19.0289,8.32795 18.2038,9.15311 13.1546,7.80014 C 12.9543,7.74647 12.7411,7.77459 12.5618,7.87819 12.3823,7.98178 12.2514,8.15241 12.1978,8.35256 12.0856,8.771 11.8172,9.12077 11.4421,9.33741 11.0668,9.55405 10.6297,9.61155 10.2112,9.49944 9.79457,9.38772 9.36606,9.63506 9.25442,10.0519 L 6.52207,20.2488 H 5.47582 Z M 3.28325,16.8114 h 1.49601 l -0.92109,3.4374 h -0.575 c -0.94774,0 -1.71867,-0.771 -1.71867,-1.7187 7e-5,-0.9477 0.77117,-1.7187 1.71875,-1.7187 z M 38.4385,40.0929 c 0,1.2923 -1.0514,2.3437 -2.3437,2.3437 h -1.0952 c 0.4912,-0.6532 0.7827,-1.4645 0.7827,-2.3428 v -3.1387 h 0.4688 c 0.8159,0 1.5711,-0.2628 2.1874,-0.707 z m 0,-6.8877 c 0,1.2062 -0.9814,2.1874 -2.1874,2.1874 H 19.8453 c -1.8092,0 -3.2812,-1.4718 -3.2812,-3.2811 0,-1.8093 1.4719,-3.2812 3.2812,-3.2812 h 2.3676 c 0.4315,0 0.7813,-0.3498 0.7813,-0.7812 0,-0.4315 -0.3498,-0.7813 -0.7813,-0.7813 h -2.3676 c -2.6708,0 -4.8436,2.1728 -4.8436,4.8436 0,2.6708 2.1728,4.8436 4.8436,4.8436 h 14.3746 v 3.1387 c 0,1.2803 -1.032,2.3243 -2.3076,2.3437 H 5.31442 v -8.7976 c 0,-0.4314 -0.34977,-0.7812 -0.78125,-0.7812 -0.43149,0 -0.78125,0.3498 -0.78125,0.7812 v 8.7919 C 2.53223,42.351 1.5645,41.3336 1.5645,40.0939 V 21.3236 c 0.50023,0.3089 1.0889,0.4876 1.71867,0.4876 H 31.8761 c 1.2923,0 2.3436,1.0514 2.3436,2.3437 v 3.113 h -5.6486 c -0.4315,0 -0.7813,0.3498 -0.7813,0.7812 0,0.4314 0.3498,0.7813 0.7813,0.7813 h 8.0157 c 0.6823,0 1.3179,-0.202 1.8517,-0.5481 z"
       id="path54"
       inkscape:connector-curvature="0"
       style="fill:#cccccc" />
    <path
       d="M 5.08408,30.0404 C 4.93877,29.8952 4.7372,29.8115 4.53174,29.8115 c -0.20547,0 -0.40703,0.0836 -0.55235,0.2289 -0.14531,0.1453 -0.2289,0.3469 -0.2289,0.5524 0,0.2054 0.08359,0.407 0.2289,0.5523 0.14532,0.1453 0.34688,0.2289 0.55235,0.2289 0.20546,0 0.40703,-0.0836 0.55234,-0.2289 0.14531,-0.1453 0.2289,-0.3469 0.2289,-0.5523 -7e-5,-0.2055 -0.08367,-0.4071 -0.2289,-0.5524 z"
       id="path56"
       inkscape:connector-curvature="0"
       style="fill:#cccccc" />
  </g>
  <defs
     id="defs63">
    <clipPath
       id="clip0">
      <rect
         width="40"
         height="40"
         transform="translate(0,4)"
         id="rect60"
         x="0"
         y="0"
         style="fill:#ffffff" />
    </clipPath>
  </defs>
</svg>
