<?xml version="1.0" encoding="UTF-8" standalone="no"?>
<svg
   xmlns:dc="http://purl.org/dc/elements/1.1/"
   xmlns:cc="http://creativecommons.org/ns#"
   xmlns:rdf="http://www.w3.org/1999/02/22-rdf-syntax-ns#"
   xmlns:svg="http://www.w3.org/2000/svg"
   xmlns="http://www.w3.org/2000/svg"
   xmlns:sodipodi="http://sodipodi.sourceforge.net/DTD/sodipodi-0.dtd"
   xmlns:inkscape="http://www.inkscape.org/namespaces/inkscape"
   width="45.547264"
   height="44.087673"
   viewBox="0 0 45.547264 44.087673"
   version="1.1"
   id="svg128"
   sodipodi:docname="inactivo_web-4.svg"
   style="fill:none"
   inkscape:version="0.92.5 (2060ec1f9f, 2020-04-08)">
  <metadata
     id="metadata134">
    <rdf:RDF>
      <cc:Work
         rdf:about="">
        <dc:format>image/svg+xml</dc:format>
        <dc:type
           rdf:resource="http://purl.org/dc/dcmitype/StillImage" />
        <dc:title></dc:title>
      </cc:Work>
    </rdf:RDF>
  </metadata>
  <defs
     id="defs132">
    <clipPath
       clipPathUnits="userSpaceOnUse"
       id="clipPath3668">
      <rect
         id="rect3670"
         width="45.027985"
         height="40.088806"
         x="-0.027265096"
         y="3.9668624"
         ry="0.10906" />
    </clipPath>
  </defs>
  <sodipodi:namedview
     pagecolor="#ffffff"
     bordercolor="#666666"
     borderopacity="1"
     objecttolerance="10"
     gridtolerance="10"
     guidetolerance="10"
     inkscape:pageopacity="0"
     inkscape:pageshadow="2"
     inkscape:window-width="1848"
     inkscape:window-height="1043"
     id="namedview130"
     showgrid="false"
     fit-margin-top="0"
     fit-margin-left="0"
     fit-margin-right="0"
     fit-margin-bottom="0"
     inkscape:zoom="8"
     inkscape:cx="44.802637"
     inkscape:cy="6.1982953"
     inkscape:window-x="72"
     inkscape:window-y="0"
     inkscape:window-maximized="1"
     inkscape:current-layer="svg128" />
  <path
     d="M 66.656,27.976 H 72.72 V 29 H 65.504 V 17.672 h 7.024 v 1.024 H 66.656 V 22.6 h 5.488 v 1.008 h -5.488 z m 11.9968,-4.688 c -0.16,-0.3093 -0.4054,-0.56 -0.736,-0.752 -0.32,-0.2027 -0.688,-0.304 -1.104,-0.304 -0.192,0 -0.384,0.0213 -0.576,0.064 -0.192,0.0427 -0.3627,0.112 -0.512,0.208 -0.1494,0.096 -0.272,0.2187 -0.368,0.368 -0.0854,0.1493 -0.128,0.3253 -0.128,0.528 0,0.352 0.144,0.624 0.432,0.816 0.288,0.1813 0.7413,0.336 1.36,0.464 0.8853,0.1813 1.536,0.448 1.952,0.8 0.4266,0.3413 0.64,0.8053 0.64,1.392 0,0.4267 -0.0854,0.7893 -0.256,1.088 -0.16,0.288 -0.3734,0.528 -0.64,0.72 -0.2667,0.1813 -0.5707,0.3093 -0.912,0.384 -0.3307,0.0853 -0.6667,0.128 -1.008,0.128 -0.5654,0 -1.1147,-0.1173 -1.648,-0.352 -0.5334,-0.2347 -0.9707,-0.6027 -1.312,-1.104 l 0.864,-0.64 c 0.192,0.3307 0.4746,0.608 0.848,0.832 0.3733,0.224 0.784,0.336 1.232,0.336 0.2346,0 0.4586,-0.0213 0.672,-0.064 0.2133,-0.0427 0.4,-0.1173 0.56,-0.224 0.16,-0.1067 0.288,-0.24 0.384,-0.4 0.096,-0.1707 0.144,-0.3787 0.144,-0.624 0,-0.3947 -0.192,-0.688 -0.576,-0.88 -0.3734,-0.2027 -0.9174,-0.3893 -1.632,-0.56 -0.224,-0.0533 -0.464,-0.1173 -0.72,-0.192 -0.2454,-0.0853 -0.4747,-0.2027 -0.688,-0.352 -0.2134,-0.16 -0.3894,-0.3573 -0.528,-0.592 -0.1387,-0.2347 -0.208,-0.528 -0.208,-0.88 0,-0.384 0.0746,-0.7093 0.224,-0.976 0.1493,-0.2773 0.3466,-0.5013 0.592,-0.672 0.256,-0.1813 0.544,-0.3147 0.864,-0.4 0.32,-0.0853 0.6506,-0.128 0.992,-0.128 0.5226,0 1.0293,0.1173 1.52,0.352 0.4906,0.2347 0.8586,0.5653 1.104,0.992 z m 6.2613,-0.864 h -2.112 v 4.368 c 0,0.2773 0.0267,0.5067 0.08,0.688 0.0534,0.1813 0.128,0.3253 0.224,0.432 0.1067,0.096 0.2294,0.1653 0.368,0.208 0.1387,0.032 0.288,0.048 0.448,0.048 0.1494,0 0.304,-0.0213 0.464,-0.064 0.1707,-0.0427 0.3307,-0.1013 0.48,-0.176 l 0.048,0.944 c -0.192,0.0747 -0.3946,0.128 -0.608,0.16 -0.2026,0.0427 -0.4266,0.064 -0.672,0.064 -0.2026,0 -0.416,-0.0267 -0.64,-0.08 -0.224,-0.0533 -0.432,-0.1547 -0.624,-0.304 -0.192,-0.1493 -0.352,-0.352 -0.48,-0.608 -0.1173,-0.256 -0.176,-0.592 -0.176,-1.008 v -4.672 h -1.552 v -0.912 h 1.552 V 19.4 h 1.088 v 2.112 h 2.112 z m 6.1822,1.744 c 0,-0.6507 -0.1707,-1.136 -0.512,-1.456 -0.3414,-0.32 -0.8374,-0.48 -1.488,-0.48 -0.448,0 -0.864,0.08 -1.248,0.24 -0.384,0.16 -0.7094,0.3733 -0.976,0.64 l -0.608,-0.72 c 0.3093,-0.3093 0.7146,-0.5653 1.216,-0.768 0.512,-0.2027 1.088,-0.304 1.728,-0.304 0.4053,0 0.784,0.0587 1.136,0.176 0.352,0.1067 0.6613,0.272 0.928,0.496 0.2666,0.224 0.4746,0.5067 0.624,0.848 0.1493,0.3413 0.224,0.7413 0.224,1.2 v 3.28 c 0,0.288 0.0106,0.5867 0.032,0.896 0.0213,0.3093 0.0533,0.5707 0.096,0.784 h -0.976 c -0.032,-0.1813 -0.0587,-0.3787 -0.08,-0.592 -0.0214,-0.2133 -0.032,-0.4213 -0.032,-0.624 h -0.032 c -0.3414,0.5013 -0.7307,0.864 -1.168,1.088 -0.4267,0.2133 -0.944,0.32 -1.552,0.32 -0.288,0 -0.5867,-0.0427 -0.896,-0.128 -0.2987,-0.0747 -0.576,-0.2027 -0.832,-0.384 -0.2454,-0.1813 -0.4534,-0.416 -0.624,-0.704 -0.16,-0.288 -0.24,-0.64 -0.24,-1.056 0,-0.576 0.144,-1.0293 0.432,-1.36 0.2986,-0.3413 0.6933,-0.592 1.184,-0.752 0.4906,-0.1707 1.0506,-0.2773 1.68,-0.32 0.64,-0.0533 1.3013,-0.08 1.984,-0.08 z m -0.32,1.088 c -0.448,0 -0.9014,0.0213 -1.36,0.064 -0.448,0.032 -0.8587,0.1067 -1.232,0.224 -0.3627,0.1067 -0.6614,0.2667 -0.896,0.48 -0.2347,0.2133 -0.352,0.496 -0.352,0.848 0,0.2667 0.048,0.4907 0.144,0.672 0.1066,0.1813 0.2453,0.3307 0.416,0.448 0.1706,0.1067 0.3573,0.1867 0.56,0.24 0.2133,0.0427 0.4266,0.064 0.64,0.064 0.384,0 0.7253,-0.064 1.024,-0.192 0.2986,-0.1387 0.5493,-0.32 0.752,-0.544 0.2026,-0.2347 0.3573,-0.5013 0.464,-0.8 0.1066,-0.2987 0.16,-0.6133 0.16,-0.944 v -0.56 z m 10.0667,2.48 c -0.32,0.48 -0.736,0.8427 -1.2479,1.088 -0.512,0.2453 -1.04,0.368 -1.584,0.368 -0.5866,0 -1.12,-0.1013 -1.6,-0.304 -0.4693,-0.2027 -0.8746,-0.48 -1.216,-0.832 -0.3306,-0.352 -0.592,-0.768 -0.784,-1.248 -0.1813,-0.48 -0.272,-0.9973 -0.272,-1.552 0,-0.5547 0.0907,-1.072 0.272,-1.552 0.192,-0.48 0.4534,-0.896 0.784,-1.248 0.3414,-0.352 0.7467,-0.6293 1.216,-0.832 0.48,-0.2027 1.0134,-0.304 1.6,-0.304 0.544,0 1.072,0.128 1.584,0.384 0.5119,0.2453 0.9279,0.6133 1.2479,1.104 h 0.032 v -5.904 h 1.088 V 29 h -1.088 v -1.264 z m -5.5519,-2.48 c 0,0.416 0.064,0.8107 0.192,1.184 0.128,0.3627 0.3094,0.6827 0.544,0.96 0.2454,0.2667 0.544,0.48 0.896,0.64 0.352,0.1493 0.752,0.224 1.2,0.224 0.416,0 0.8,-0.0747 1.152,-0.224 0.352,-0.16 0.656,-0.3733 0.9119,-0.64 0.256,-0.2667 0.453,-0.5813 0.592,-0.944 0.149,-0.3733 0.224,-0.7733 0.224,-1.2 0,-0.4267 -0.075,-0.8213 -0.224,-1.184 -0.139,-0.3733 -0.336,-0.6933 -0.592,-0.96 -0.2559,-0.2773 -0.5599,-0.4907 -0.9119,-0.64 -0.352,-0.16 -0.736,-0.24 -1.152,-0.24 -0.448,0 -0.848,0.08 -1.2,0.24 -0.352,0.16 -0.6506,0.3787 -0.896,0.656 -0.2346,0.2667 -0.416,0.5867 -0.544,0.96 -0.128,0.3627 -0.192,0.752 -0.192,1.168 z M 105.735,29 h -1.088 v -7.488 h 1.088 z m 0.224,-10.368 c 0,0.224 -0.08,0.4107 -0.24,0.56 -0.16,0.1387 -0.336,0.208 -0.528,0.208 -0.192,0 -0.368,-0.0693 -0.528,-0.208 -0.16,-0.1493 -0.24,-0.336 -0.24,-0.56 0,-0.224 0.08,-0.4053 0.24,-0.544 0.16,-0.1493 0.336,-0.224 0.528,-0.224 0.192,0 0.368,0.0747 0.528,0.224 0.16,0.1387 0.24,0.32 0.24,0.544 z m 6.416,4.656 c -0.16,-0.3093 -0.406,-0.56 -0.736,-0.752 -0.32,-0.2027 -0.688,-0.304 -1.104,-0.304 -0.192,0 -0.384,0.0213 -0.576,0.064 -0.192,0.0427 -0.363,0.112 -0.512,0.208 -0.15,0.096 -0.272,0.2187 -0.368,0.368 -0.086,0.1493 -0.128,0.3253 -0.128,0.528 0,0.352 0.144,0.624 0.432,0.816 0.288,0.1813 0.741,0.336 1.36,0.464 0.885,0.1813 1.536,0.448 1.952,0.8 0.426,0.3413 0.64,0.8053 0.64,1.392 0,0.4267 -0.086,0.7893 -0.256,1.088 -0.16,0.288 -0.374,0.528 -0.64,0.72 -0.267,0.1813 -0.571,0.3093 -0.912,0.384 -0.331,0.0853 -0.667,0.128 -1.008,0.128 -0.566,0 -1.115,-0.1173 -1.648,-0.352 -0.534,-0.2347 -0.971,-0.6027 -1.312,-1.104 l 0.864,-0.64 c 0.192,0.3307 0.474,0.608 0.848,0.832 0.373,0.224 0.784,0.336 1.232,0.336 0.234,0 0.458,-0.0213 0.672,-0.064 0.213,-0.0427 0.4,-0.1173 0.56,-0.224 0.16,-0.1067 0.288,-0.24 0.384,-0.4 0.096,-0.1707 0.144,-0.3787 0.144,-0.624 0,-0.3947 -0.192,-0.688 -0.576,-0.88 -0.374,-0.2027 -0.918,-0.3893 -1.632,-0.56 -0.224,-0.0533 -0.464,-0.1173 -0.72,-0.192 -0.246,-0.0853 -0.475,-0.2027 -0.688,-0.352 -0.214,-0.16 -0.39,-0.3573 -0.528,-0.592 -0.139,-0.2347 -0.208,-0.528 -0.208,-0.88 0,-0.384 0.074,-0.7093 0.224,-0.976 0.149,-0.2773 0.346,-0.5013 0.592,-0.672 0.256,-0.1813 0.544,-0.3147 0.864,-0.4 0.32,-0.0853 0.65,-0.128 0.992,-0.128 0.522,0 1.029,0.1173 1.52,0.352 0.49,0.2347 0.858,0.5653 1.104,0.992 z m 6.261,-0.864 h -2.112 v 4.368 c 0,0.2773 0.027,0.5067 0.08,0.688 0.053,0.1813 0.128,0.3253 0.224,0.432 0.107,0.096 0.229,0.1653 0.368,0.208 0.139,0.032 0.288,0.048 0.448,0.048 0.149,0 0.304,-0.0213 0.464,-0.064 0.171,-0.0427 0.331,-0.1013 0.48,-0.176 l 0.048,0.944 c -0.192,0.0747 -0.395,0.128 -0.608,0.16 -0.203,0.0427 -0.427,0.064 -0.672,0.064 -0.203,0 -0.416,-0.0267 -0.64,-0.08 -0.224,-0.0533 -0.432,-0.1547 -0.624,-0.304 -0.192,-0.1493 -0.352,-0.352 -0.48,-0.608 -0.117,-0.256 -0.176,-0.592 -0.176,-1.008 v -4.672 h -1.552 v -0.912 h 1.552 V 19.4 h 1.088 v 2.112 h 2.112 z M 121.202,29 h -1.088 v -7.488 h 1.088 z m 0.224,-10.368 c 0,0.224 -0.08,0.4107 -0.24,0.56 -0.16,0.1387 -0.336,0.208 -0.528,0.208 -0.192,0 -0.368,-0.0693 -0.528,-0.208 -0.16,-0.1493 -0.24,-0.336 -0.24,-0.56 0,-0.224 0.08,-0.4053 0.24,-0.544 0.16,-0.1493 0.336,-0.224 0.528,-0.224 0.192,0 0.368,0.0747 0.528,0.224 0.16,0.1387 0.24,0.32 0.24,0.544 z m 7.824,4.592 c -0.181,-0.288 -0.448,-0.5227 -0.8,-0.704 -0.341,-0.192 -0.715,-0.288 -1.12,-0.288 -0.437,0 -0.832,0.08 -1.184,0.24 -0.352,0.1493 -0.656,0.3627 -0.912,0.64 -0.245,0.2667 -0.437,0.5867 -0.576,0.96 -0.128,0.3627 -0.192,0.7573 -0.192,1.184 0,0.4267 0.064,0.8213 0.192,1.184 0.139,0.3627 0.331,0.6827 0.576,0.96 0.245,0.2667 0.544,0.48 0.896,0.64 0.352,0.1493 0.747,0.224 1.184,0.224 0.48,0 0.885,-0.0907 1.216,-0.272 0.331,-0.1813 0.603,-0.416 0.816,-0.704 l 0.816,0.608 c -0.32,0.3947 -0.715,0.7093 -1.184,0.944 -0.459,0.2347 -1.013,0.352 -1.664,0.352 -0.608,0 -1.157,-0.096 -1.648,-0.288 -0.491,-0.2027 -0.912,-0.48 -1.264,-0.832 -0.341,-0.352 -0.608,-0.768 -0.8,-1.248 -0.192,-0.48 -0.288,-1.0027 -0.288,-1.568 0,-0.5653 0.096,-1.088 0.288,-1.568 0.192,-0.48 0.459,-0.896 0.8,-1.248 0.352,-0.352 0.773,-0.624 1.264,-0.816 0.491,-0.2027 1.04,-0.304 1.648,-0.304 0.501,0 1.008,0.112 1.52,0.336 0.523,0.2133 0.944,0.5333 1.264,0.96 z m 7.088,0.944 c 0,-0.6507 -0.171,-1.136 -0.512,-1.456 -0.341,-0.32 -0.837,-0.48 -1.488,-0.48 -0.448,0 -0.864,0.08 -1.248,0.24 -0.384,0.16 -0.709,0.3733 -0.976,0.64 l -0.608,-0.72 c 0.309,-0.3093 0.715,-0.5653 1.216,-0.768 0.512,-0.2027 1.088,-0.304 1.728,-0.304 0.405,0 0.784,0.0587 1.136,0.176 0.352,0.1067 0.661,0.272 0.928,0.496 0.267,0.224 0.475,0.5067 0.624,0.848 0.149,0.3413 0.224,0.7413 0.224,1.2 v 3.28 c 0,0.288 0.011,0.5867 0.032,0.896 0.021,0.3093 0.053,0.5707 0.096,0.784 h -0.976 c -0.032,-0.1813 -0.059,-0.3787 -0.08,-0.592 -0.021,-0.2133 -0.032,-0.4213 -0.032,-0.624 h -0.032 c -0.341,0.5013 -0.731,0.864 -1.168,1.088 -0.427,0.2133 -0.944,0.32 -1.552,0.32 -0.288,0 -0.587,-0.0427 -0.896,-0.128 -0.299,-0.0747 -0.576,-0.2027 -0.832,-0.384 -0.245,-0.1813 -0.453,-0.416 -0.624,-0.704 -0.16,-0.288 -0.24,-0.64 -0.24,-1.056 0,-0.576 0.144,-1.0293 0.432,-1.36 0.299,-0.3413 0.693,-0.592 1.184,-0.752 0.491,-0.1707 1.051,-0.2773 1.68,-0.32 0.64,-0.0533 1.301,-0.08 1.984,-0.08 z m -0.32,1.088 c -0.448,0 -0.901,0.0213 -1.36,0.064 -0.448,0.032 -0.859,0.1067 -1.232,0.224 -0.363,0.1067 -0.661,0.2667 -0.896,0.48 -0.235,0.2133 -0.352,0.496 -0.352,0.848 0,0.2667 0.048,0.4907 0.144,0.672 0.107,0.1813 0.245,0.3307 0.416,0.448 0.171,0.1067 0.357,0.1867 0.56,0.24 0.213,0.0427 0.427,0.064 0.64,0.064 0.384,0 0.725,-0.064 1.024,-0.192 0.299,-0.1387 0.549,-0.32 0.752,-0.544 0.203,-0.2347 0.357,-0.5013 0.464,-0.8 0.107,-0.2987 0.16,-0.6133 0.16,-0.944 v -0.56 z m 7.891,-1.968 c -0.16,-0.3093 -0.405,-0.56 -0.736,-0.752 -0.32,-0.2027 -0.688,-0.304 -1.104,-0.304 -0.192,0 -0.384,0.0213 -0.576,0.064 -0.192,0.0427 -0.363,0.112 -0.512,0.208 -0.149,0.096 -0.272,0.2187 -0.368,0.368 -0.085,0.1493 -0.128,0.3253 -0.128,0.528 0,0.352 0.144,0.624 0.432,0.816 0.288,0.1813 0.741,0.336 1.36,0.464 0.885,0.1813 1.536,0.448 1.952,0.8 0.427,0.3413 0.64,0.8053 0.64,1.392 0,0.4267 -0.085,0.7893 -0.256,1.088 -0.16,0.288 -0.373,0.528 -0.64,0.72 -0.267,0.1813 -0.571,0.3093 -0.912,0.384 -0.331,0.0853 -0.667,0.128 -1.008,0.128 -0.565,0 -1.115,-0.1173 -1.648,-0.352 -0.533,-0.2347 -0.971,-0.6027 -1.312,-1.104 l 0.864,-0.64 c 0.192,0.3307 0.475,0.608 0.848,0.832 0.373,0.224 0.784,0.336 1.232,0.336 0.235,0 0.459,-0.0213 0.672,-0.064 0.213,-0.0427 0.4,-0.1173 0.56,-0.224 0.16,-0.1067 0.288,-0.24 0.384,-0.4 0.096,-0.1707 0.144,-0.3787 0.144,-0.624 0,-0.3947 -0.192,-0.688 -0.576,-0.88 -0.373,-0.2027 -0.917,-0.3893 -1.632,-0.56 -0.224,-0.0533 -0.464,-0.1173 -0.72,-0.192 -0.245,-0.0853 -0.475,-0.2027 -0.688,-0.352 -0.213,-0.16 -0.389,-0.3573 -0.528,-0.592 -0.139,-0.2347 -0.208,-0.528 -0.208,-0.88 0,-0.384 0.075,-0.7093 0.224,-0.976 0.149,-0.2773 0.347,-0.5013 0.592,-0.672 0.256,-0.1813 0.544,-0.3147 0.864,-0.4 0.32,-0.0853 0.651,-0.128 0.992,-0.128 0.523,0 1.029,0.1173 1.52,0.352 0.491,0.2347 0.859,0.5653 1.104,0.992 z"
     id="path110"
     clip-path="url(#clipPath3668)"
     inkscape:connector-curvature="0"
     style="fill:#cccccc"
     transform="translate(0.0272651,-3.9668624)" />
  <path
     d="m 8.1522651,40.033138 h -6.25 c -1,0 -1.875,-0.875 -1.875,-1.875 v -14.125 c 0,-0.375 0.25,-0.625 0.625,-0.625 0.375,0 0.625,0.25 0.625,0.625 v 14.125 c 0,0.375 0.25,0.625 0.625,0.625 h 6.25 c 0.375,0 0.625,-0.25 0.625,-0.625 V 1.9081376 c 0,-0.375 -0.25,-0.625 -0.625,-0.625 h -6.25 c -0.375,0 -0.625,0.25 -0.625,0.625 V 17.033138 c 0,0.375 -0.25,0.625 -0.625,0.625 -0.375,0 -0.625,-0.25 -0.625,-0.625 V 1.9081376 c 0,-1.00000004 0.875,-1.87500004 1.875,-1.87500004 h 6.25 c 1,0 1.8749999,0.875 1.8749999,1.87500004 V 38.158138 c 0,1 -0.8749999,1.875 -1.8749999,1.875 z"
     id="path112"
     inkscape:connector-curvature="0"
     style="fill:#cccccc" />
  <path
     d="m 19.902265,40.033138 -4.125,-0.125 c -0.375,0 -0.625,-0.25 -0.625,-0.625 0,-0.375 0.375,-0.625 0.625,-0.625 l 4.125,0.125 c 0.375,0 0.625,-0.25 0.625,-0.625 v -16.875 c 0,-0.375 -0.25,-0.625 -0.625,-0.625 h -6.25 c -0.375,0 -0.625,0.25 -0.625,0.625 v 14 c 0,0.375 -0.25,0.625 -0.625,0.625 -0.375,0 -0.625,-0.25 -0.625,-0.625 v -14 c 0,-1 0.875,-1.875 1.875,-1.875 h 6.25 c 1,0 1.875,0.875 1.875,1.875 v 16.875 c 0,1 -0.875,1.875 -1.875,1.875 z"
     id="path114"
     inkscape:connector-curvature="0"
     style="fill:#cccccc" />
  <path
     d="m 31.152265,40.033138 h -6.25 c -1,0 -1.875,-0.875 -1.875,-1.875 V 9.9081376 c 0,-1 0.875,-1.875 1.875,-1.875 h 6.25 c 1,0 1.875,0.875 1.875,1.875 v 3.1250004 c 0,0.375 -0.25,0.625 -0.625,0.625 -0.375,0 -0.625,-0.25 -0.625,-0.625 V 9.9081376 c 0,-0.375 -0.25,-0.625 -0.625,-0.625 h -6.25 c -0.375,0 -0.625,0.25 -0.625,0.625 V 38.158138 c 0,0.375 0.25,0.625 0.625,0.625 h 6.25 c 0.375,0 0.625,-0.25 0.625,-0.625 v -18.125 c 0,-0.375 0.25,-0.625 0.625,-0.625 0.375,0 0.625,0.25 0.625,0.625 v 18.125 c 0,1 -0.75,1.875 -1.875,1.875 z"
     id="path116"
     inkscape:connector-curvature="0"
     style="fill:#cccccc" />
  <path
     d="m 43.152265,40.033138 h -6.25 c -1,0 -1.875,-0.875 -1.875,-1.875 v -5.375 c 0,-0.375 0.25,-0.625 0.625,-0.625 0.375,0 0.625,0.25 0.625,0.625 v 5.375 c 0,0.375 0.25,0.625 0.625,0.625 h 6.25 c 0.375,0 0.625,-0.25 0.625,-0.625 v -7.125 c 0,-0.375 -0.25,-0.625 -0.625,-0.625 h -4.375 c -0.375,0 -0.625,-0.25 -0.625,-0.625 0,-0.375 0.25,-0.625 0.625,-0.625 h 4.375 c 1,0 1.875,0.875 1.875,1.875 v 7.125 c 0,1 -0.875,1.875 -1.875,1.875 z"
     id="path118"
     inkscape:connector-curvature="0"
     style="fill:#cccccc" />
  <path
     d="m 35.652265,30.408138 c 0.3452,0 0.625,-0.2798 0.625,-0.625 0,-0.3452 -0.2798,-0.625 -0.625,-0.625 -0.3452,0 -0.625,0.2798 -0.625,0.625 0,0.3452 0.2798,0.625 0.625,0.625 z"
     id="path120"
     inkscape:connector-curvature="0"
     style="fill:#cccccc" />
  <path
     d="m 32.402265,17.033138 c 0.3452,0 0.625,-0.2798 0.625,-0.625 0,-0.3452 -0.2798,-0.625 -0.625,-0.625 -0.3452,0 -0.625,0.2798 -0.625,0.625 0,0.3452 0.2798,0.625 0.625,0.625 z"
     id="path122"
     inkscape:connector-curvature="0"
     style="fill:#cccccc" />
  <path
     d="m 12.277265,39.408138 c 0.3452,0 0.625,-0.2798 0.625,-0.625 0,-0.3452 -0.2798,-0.625 -0.625,-0.625 -0.3452,0 -0.625,0.2798 -0.625,0.625 0,0.3452 0.2798,0.625 0.625,0.625 z"
     id="path124"
     inkscape:connector-curvature="0"
     style="fill:#cccccc" />
  <path
     d="m 0.6522651,21.283138 c 0.345178,0 0.625,-0.2798 0.625,-0.625 0,-0.3452 -0.279822,-0.625 -0.625,-0.625 -0.345178,0 -0.625,0.2798 -0.625,0.625 0,0.3452 0.279822,0.625 0.625,0.625 z"
     id="path126"
     inkscape:connector-curvature="0"
     style="fill:#cccccc" />
  <rect
     id="rect3656"
     width="45.069206"
     height="44.087673"
     x="0"
     y="0"
     ry="0.1090604" />
  <rect
     id="rect3662"
     width="1.1821941"
     height="1.1932427"
     x="44.36507"
     y="39.602673"
     ry="0.10906" />
  <rect
     id="rect3664"
     width="45.027985"
     height="40.088806"
     x="0"
     y="0"
     ry="0.10906" />
</svg>
