<?xml version="1.0" encoding="UTF-8" standalone="no"?>
<svg
   xmlns:dc="http://purl.org/dc/elements/1.1/"
   xmlns:cc="http://creativecommons.org/ns#"
   xmlns:rdf="http://www.w3.org/1999/02/22-rdf-syntax-ns#"
   xmlns:svg="http://www.w3.org/2000/svg"
   xmlns="http://www.w3.org/2000/svg"
   xmlns:sodipodi="http://sodipodi.sourceforge.net/DTD/sodipodi-0.dtd"
   xmlns:inkscape="http://www.inkscape.org/namespaces/inkscape"
   width="39.993946"
   height="40.000198"
   viewBox="0 0 39.993946 40.000198"
   version="1.1"
   id="svg104"
   sodipodi:docname="inactivo_web-3.svg"
   style="fill:none"
   inkscape:version="0.92.5 (2060ec1f9f, 2020-04-08)">
  <metadata
     id="metadata108">
    <rdf:RDF>
      <cc:Work
         rdf:about="">
        <dc:format>image/svg+xml</dc:format>
        <dc:type
           rdf:resource="http://purl.org/dc/dcmitype/StillImage" />
        <dc:title></dc:title>
      </cc:Work>
    </rdf:RDF>
  </metadata>
  <sodipodi:namedview
     pagecolor="#ffffff"
     bordercolor="#666666"
     borderopacity="1"
     objecttolerance="10"
     gridtolerance="10"
     guidetolerance="10"
     inkscape:pageopacity="0"
     inkscape:pageshadow="2"
     inkscape:window-width="1848"
     inkscape:window-height="1043"
     id="namedview106"
     showgrid="false"
     fit-margin-top="0"
     fit-margin-left="0"
     fit-margin-right="0"
     fit-margin-bottom="0"
     inkscape:zoom="13.169864"
     inkscape:cx="23.698157"
     inkscape:cy="19.742846"
     inkscape:window-x="72"
     inkscape:window-y="0"
     inkscape:window-maximized="1"
     inkscape:current-layer="svg104" />
  <path
     d="m 72.04,27.176 c -0.192,0.288 -0.4267,0.56 -0.704,0.816 -0.2667,0.256 -0.5813,0.48 -0.944,0.672 -0.352,0.192 -0.7467,0.3413 -1.184,0.448 -0.4267,0.1173 -0.896,0.176 -1.408,0.176 -0.8533,0 -1.6427,-0.1493 -2.368,-0.448 -0.7253,-0.2987 -1.3493,-0.7093 -1.872,-1.232 -0.5227,-0.5333 -0.9333,-1.1627 -1.232,-1.888 -0.288,-0.7253 -0.432,-1.52 -0.432,-2.384 0,-0.864 0.1493,-1.6587 0.448,-2.384 0.2987,-0.7253 0.7093,-1.3493 1.232,-1.872 0.5333,-0.5333 1.1573,-0.9493 1.872,-1.248 0.7253,-0.2987 1.5093,-0.448 2.352,-0.448 0.416,0 0.8213,0.0427 1.216,0.128 0.4053,0.0853 0.784,0.208 1.136,0.368 0.352,0.1493 0.672,0.336 0.96,0.56 0.288,0.2133 0.528,0.4587 0.72,0.736 l -0.96,0.704 c -0.1173,-0.1813 -0.2773,-0.3627 -0.48,-0.544 -0.192,-0.1813 -0.4213,-0.3413 -0.688,-0.48 -0.2667,-0.1387 -0.56,-0.2507 -0.88,-0.336 -0.3093,-0.0853 -0.6453,-0.128 -1.008,-0.128 -0.736,0 -1.3973,0.1333 -1.984,0.4 -0.576,0.2667 -1.0667,0.6293 -1.472,1.088 -0.4053,0.448 -0.7147,0.9707 -0.928,1.568 -0.2133,0.5973 -0.32,1.2267 -0.32,1.888 0,0.6613 0.1067,1.2907 0.32,1.888 0.224,0.5973 0.5387,1.1253 0.944,1.584 0.4053,0.448 0.896,0.8053 1.472,1.072 0.5867,0.2667 1.2427,0.4 1.968,0.4 0.6507,0 1.2693,-0.1333 1.856,-0.4 0.5867,-0.2667 1.0773,-0.6933 1.472,-1.28 z m 8.9281,-1.92 c 0,0.5653 -0.1013,1.088 -0.304,1.568 -0.192,0.48 -0.464,0.896 -0.816,1.248 -0.352,0.352 -0.7733,0.6293 -1.264,0.832 -0.4906,0.192 -1.0293,0.288 -1.616,0.288 -0.576,0 -1.1093,-0.096 -1.6,-0.288 -0.4906,-0.2027 -0.912,-0.48 -1.264,-0.832 -0.352,-0.352 -0.6293,-0.768 -0.832,-1.248 -0.192,-0.48 -0.288,-1.0027 -0.288,-1.568 0,-0.5653 0.096,-1.088 0.288,-1.568 0.2027,-0.48 0.48,-0.896 0.832,-1.248 0.352,-0.352 0.7734,-0.624 1.264,-0.816 0.4907,-0.2027 1.024,-0.304 1.6,-0.304 0.5867,0 1.1254,0.1013 1.616,0.304 0.4907,0.192 0.912,0.464 1.264,0.816 0.352,0.352 0.624,0.768 0.816,1.248 0.2027,0.48 0.304,1.0027 0.304,1.568 z m -1.152,0 c 0,-0.416 -0.0693,-0.8053 -0.208,-1.168 -0.128,-0.3733 -0.3146,-0.6933 -0.56,-0.96 -0.2453,-0.2773 -0.544,-0.496 -0.896,-0.656 -0.352,-0.16 -0.7466,-0.24 -1.184,-0.24 -0.4373,0 -0.832,0.08 -1.184,0.24 -0.3413,0.16 -0.6346,0.3787 -0.88,0.656 -0.2453,0.2667 -0.4373,0.5867 -0.576,0.96 -0.128,0.3627 -0.192,0.752 -0.192,1.168 0,0.416 0.064,0.8107 0.192,1.184 0.1387,0.3627 0.3307,0.6827 0.576,0.96 0.2454,0.2667 0.5387,0.48 0.88,0.64 0.352,0.1493 0.7467,0.224 1.184,0.224 0.4374,0 0.832,-0.0747 1.184,-0.224 0.352,-0.16 0.6507,-0.3733 0.896,-0.64 0.2454,-0.2773 0.432,-0.5973 0.56,-0.96 0.1387,-0.3733 0.208,-0.768 0.208,-1.184 z m 4.2293,-3.744 c 0.0213,0.2027 0.0373,0.4267 0.048,0.672 0.0106,0.2453 0.016,0.448 0.016,0.608 h 0.032 c 0.2133,-0.4373 0.56,-0.7893 1.04,-1.056 0.48,-0.2773 0.9866,-0.416 1.52,-0.416 0.9493,0 1.6586,0.2827 2.128,0.848 0.48,0.5653 0.72,1.312 0.72,2.24 V 29 h -1.088 v -4.144 c 0,-0.3947 -0.032,-0.752 -0.096,-1.072 -0.064,-0.32 -0.176,-0.592 -0.336,-0.816 -0.1494,-0.2347 -0.3574,-0.416 -0.624,-0.544 -0.256,-0.128 -0.5814,-0.192 -0.976,-0.192 -0.288,0 -0.5707,0.0587 -0.848,0.176 -0.2667,0.1173 -0.5067,0.2987 -0.72,0.544 -0.2134,0.2347 -0.384,0.5387 -0.512,0.912 -0.128,0.3627 -0.192,0.7947 -0.192,1.296 V 29 h -1.088 v -5.84 c 0,-0.2027 -0.0054,-0.464 -0.016,-0.784 -0.0107,-0.32 -0.0267,-0.608 -0.048,-0.864 z m 11.4569,0.912 h -2.112 v 4.368 c 0,0.2773 0.0266,0.5067 0.08,0.688 0.0533,0.1813 0.128,0.3253 0.224,0.432 0.1066,0.096 0.2293,0.1653 0.368,0.208 0.1386,0.032 0.288,0.048 0.448,0.048 0.1493,0 0.304,-0.0213 0.464,-0.064 0.1706,-0.0427 0.3306,-0.1013 0.48,-0.176 l 0.048,0.944 c -0.192,0.0747 -0.3947,0.128 -0.608,0.16 -0.2027,0.0427 -0.4267,0.064 -0.672,0.064 -0.2027,0 -0.416,-0.0267 -0.64,-0.08 -0.224,-0.0533 -0.432,-0.1547 -0.624,-0.304 -0.192,-0.1493 -0.352,-0.352 -0.48,-0.608 -0.1174,-0.256 -0.176,-0.592 -0.176,-1.008 v -4.672 h -1.552 v -0.912 h 1.552 V 19.4 h 1.088 v 2.112 h 2.112 z m 6.1817,1.744 c 0,-0.6507 -0.17,-1.136 -0.512,-1.456 -0.341,-0.32 -0.837,-0.48 -1.4876,-0.48 -0.448,0 -0.864,0.08 -1.248,0.24 -0.384,0.16 -0.7094,0.3733 -0.976,0.64 l -0.608,-0.72 c 0.3093,-0.3093 0.7146,-0.5653 1.216,-0.768 0.512,-0.2027 1.088,-0.304 1.728,-0.304 0.4056,0 0.7836,0.0587 1.1356,0.176 0.352,0.1067 0.662,0.272 0.928,0.496 0.267,0.224 0.475,0.5067 0.624,0.848 0.15,0.3413 0.224,0.7413 0.224,1.2 v 3.28 c 0,0.288 0.011,0.5867 0.032,0.896 0.022,0.3093 0.054,0.5707 0.096,0.784 h -0.976 c -0.032,-0.1813 -0.058,-0.3787 -0.08,-0.592 -0.021,-0.2133 -0.032,-0.4213 -0.032,-0.624 h -0.032 c -0.341,0.5013 -0.73,0.864 -1.168,1.088 -0.426,0.2133 -0.9436,0.32 -1.5516,0.32 -0.288,0 -0.5867,-0.0427 -0.896,-0.128 -0.2987,-0.0747 -0.576,-0.2027 -0.832,-0.384 -0.2454,-0.1813 -0.4534,-0.416 -0.624,-0.704 -0.16,-0.288 -0.24,-0.64 -0.24,-1.056 0,-0.576 0.144,-1.0293 0.432,-1.36 0.2986,-0.3413 0.6933,-0.592 1.184,-0.752 0.4906,-0.1707 1.0506,-0.2773 1.68,-0.32 0.6396,-0.0533 1.3016,-0.08 1.9836,-0.08 z m -0.32,1.088 c -0.448,0 -0.901,0.0213 -1.36,0.064 -0.4476,0.032 -0.8583,0.1067 -1.2316,0.224 -0.3627,0.1067 -0.6614,0.2667 -0.896,0.48 -0.2347,0.2133 -0.352,0.496 -0.352,0.848 0,0.2667 0.048,0.4907 0.144,0.672 0.1066,0.1813 0.2453,0.3307 0.416,0.448 0.1706,0.1067 0.3573,0.1867 0.56,0.24 0.2133,0.0427 0.4266,0.064 0.64,0.064 0.384,0 0.7256,-0.064 1.0236,-0.192 0.299,-0.1387 0.55,-0.32 0.752,-0.544 0.203,-0.2347 0.358,-0.5013 0.464,-0.8 0.107,-0.2987 0.16,-0.6133 0.16,-0.944 v -0.56 z m 9.299,-2.032 c -0.181,-0.288 -0.448,-0.5227 -0.8,-0.704 -0.341,-0.192 -0.714,-0.288 -1.12,-0.288 -0.437,0 -0.832,0.08 -1.184,0.24 -0.352,0.1493 -0.656,0.3627 -0.912,0.64 -0.245,0.2667 -0.437,0.5867 -0.576,0.96 -0.128,0.3627 -0.192,0.7573 -0.192,1.184 0,0.4267 0.064,0.8213 0.192,1.184 0.139,0.3627 0.331,0.6827 0.576,0.96 0.246,0.2667 0.544,0.48 0.896,0.64 0.352,0.1493 0.747,0.224 1.184,0.224 0.48,0 0.886,-0.0907 1.216,-0.272 0.331,-0.1813 0.603,-0.416 0.816,-0.704 l 0.816,0.608 c -0.32,0.3947 -0.714,0.7093 -1.184,0.944 -0.458,0.2347 -1.013,0.352 -1.664,0.352 -0.608,0 -1.157,-0.096 -1.648,-0.288 -0.49,-0.2027 -0.912,-0.48 -1.264,-0.832 -0.341,-0.352 -0.608,-0.768 -0.8,-1.248 -0.192,-0.48 -0.288,-1.0027 -0.288,-1.568 0,-0.5653 0.096,-1.088 0.288,-1.568 0.192,-0.48 0.459,-0.896 0.8,-1.248 0.352,-0.352 0.774,-0.624 1.264,-0.816 0.491,-0.2027 1.04,-0.304 1.648,-0.304 0.502,0 1.008,0.112 1.52,0.336 0.523,0.2133 0.944,0.5333 1.264,0.96 z m 5.744,-0.8 h -2.112 v 4.368 c 0,0.2773 0.027,0.5067 0.08,0.688 0.054,0.1813 0.128,0.3253 0.224,0.432 0.107,0.096 0.23,0.1653 0.368,0.208 0.139,0.032 0.288,0.048 0.448,0.048 0.15,0 0.304,-0.0213 0.464,-0.064 0.171,-0.0427 0.331,-0.1013 0.48,-0.176 l 0.048,0.944 c -0.192,0.0747 -0.394,0.128 -0.608,0.16 -0.202,0.0427 -0.426,0.064 -0.672,0.064 -0.202,0 -0.416,-0.0267 -0.64,-0.08 -0.224,-0.0533 -0.432,-0.1547 -0.624,-0.304 -0.192,-0.1493 -0.352,-0.352 -0.48,-0.608 -0.117,-0.256 -0.176,-0.592 -0.176,-1.008 v -4.672 h -1.552 v -0.912 h 1.552 V 19.4 h 1.088 v 2.112 h 2.112 z m 8.902,2.832 c 0,0.5653 -0.101,1.088 -0.304,1.568 -0.192,0.48 -0.464,0.896 -0.816,1.248 -0.352,0.352 -0.773,0.6293 -1.264,0.832 -0.49,0.192 -1.029,0.288 -1.616,0.288 -0.576,0 -1.109,-0.096 -1.6,-0.288 -0.49,-0.2027 -0.912,-0.48 -1.264,-0.832 -0.352,-0.352 -0.629,-0.768 -0.832,-1.248 -0.192,-0.48 -0.288,-1.0027 -0.288,-1.568 0,-0.5653 0.096,-1.088 0.288,-1.568 0.203,-0.48 0.48,-0.896 0.832,-1.248 0.352,-0.352 0.774,-0.624 1.264,-0.816 0.491,-0.2027 1.024,-0.304 1.6,-0.304 0.587,0 1.126,0.1013 1.616,0.304 0.491,0.192 0.912,0.464 1.264,0.816 0.352,0.352 0.624,0.768 0.816,1.248 0.203,0.48 0.304,1.0027 0.304,1.568 z m -1.152,0 c 0,-0.416 -0.069,-0.8053 -0.208,-1.168 -0.128,-0.3733 -0.314,-0.6933 -0.56,-0.96 -0.245,-0.2773 -0.544,-0.496 -0.896,-0.656 -0.352,-0.16 -0.746,-0.24 -1.184,-0.24 -0.437,0 -0.832,0.08 -1.184,0.24 -0.341,0.16 -0.634,0.3787 -0.88,0.656 -0.245,0.2667 -0.437,0.5867 -0.576,0.96 -0.128,0.3627 -0.192,0.752 -0.192,1.168 0,0.416 0.064,0.8107 0.192,1.184 0.139,0.3627 0.331,0.6827 0.576,0.96 0.246,0.2667 0.539,0.48 0.88,0.64 0.352,0.1493 0.747,0.224 1.184,0.224 0.438,0 0.832,-0.0747 1.184,-0.224 0.352,-0.16 0.651,-0.3733 0.896,-0.64 0.246,-0.2773 0.432,-0.5973 0.56,-0.96 0.139,-0.3733 0.208,-0.768 0.208,-1.184 z"
     id="path83"
     clip-path="url(#clipPath3690)"
     inkscape:connector-curvature="0"
     style="fill:#cccccc"
     transform="translate(-0.0030525,-4)" />
  <g
     clip-path="url(#clipPath3686)"
     id="g97"
     transform="translate(-0.0030525,-4)">
    <path
       d="m 12.6008,31.5782 c -0.1453,-0.1453 -0.3469,-0.229 -0.5523,-0.229 -0.2055,0 -0.4071,0.0836 -0.5524,0.229 -0.1453,0.1453 -0.2289,0.3468 -0.2289,0.5523 0,0.2055 0.0836,0.4071 0.2289,0.5523 0.1453,0.1454 0.3469,0.2289 0.5524,0.2289 0.2054,0 0.407,-0.0835 0.5523,-0.2289 0.1453,-0.1452 0.2289,-0.3468 0.2289,-0.5523 0,-0.2055 -0.0836,-0.407 -0.2289,-0.5523 z"
       id="path85"
       inkscape:connector-curvature="0"
       style="fill:#cccccc" />
    <path
       d="m 38.6898,32.4418 -5.648,-5.6481 c -0.843,-0.8429 -1.9637,-1.3072 -3.1559,-1.3072 -1.1922,0 -2.3128,0.4643 -3.1558,1.3072 l -1.9696,1.9696 c 0,0 -10e-5,10e-5 -2e-4,2e-4 -10e-5,10e-5 -2e-4,10e-5 -2e-4,2e-4 l -0.7868,0.7867 -9.5315,-9.5314 2.7568,-2.7568 c 1.7401,-1.7401 1.7401,-4.5715 0,-6.3117 L 11.5554,5.30738 c -1.7401,-1.73992 -4.57151,-1.73992 -6.31166,0 L 3.75522,6.79582 c -5.00289,5.00298 -5.00289,13.14338 0,18.14638 l 5.48844,5.4884 c 0.30508,0.305 0.79974,0.305 1.10494,0 0.3051,-0.3051 0.3051,-0.7998 0,-1.1049 L 4.86014,23.8372 C 0.816704,19.7939 0.494595,13.4169 3.89342,9.00137 l 5.93289,5.93293 c 0.15258,0.1525 0.35249,0.2289 0.55239,0.2289 0.2,0 0.4,-0.0764 0.5525,-0.2289 0.305,-0.305 0.3051,-0.7997 0,-1.1049 L 4.93131,7.82949 6.34858,6.41223 c 1.13094,-1.13078 2.97102,-1.13094 4.10192,0 l 5.6432,5.64317 c 1.1309,1.1309 1.1309,2.971 0,4.1019 l -3.3093,3.3092 c -0.1464,0.1465 -0.2288,0.3452 -0.2288,0.5524 0,0.2072 0.0824,0.4058 0.2288,0.5524 l 10.6364,10.6364 c 0.3052,0.3052 0.7999,0.3051 1.1049,0 l 0.787,-0.7869 9.6836,9.6836 c -1.9602,1.5131 -4.351,2.3333 -6.8681,2.3333 -3.01,0 -5.8399,-1.1722 -7.9683,-3.3006 l -5.5666,-5.5666 c -0.305,-0.305 -0.7997,-0.305 -1.1048,0 -0.3051,0.3051 -0.3051,0.7998 0,1.1049 l 5.5666,5.5666 c 2.4235,2.4235 5.6457,3.7582 9.0731,3.7582 3.4274,0 6.6497,-1.3347 9.0732,-3.7582 l 1.4884,-1.4885 c 0.843,-0.8429 1.3072,-1.9637 1.3072,-3.1559 0,-1.1921 -0.4642,-2.3128 -1.3072,-3.1558 z m -1.1048,5.2068 -1.4174,1.4173 -9.75,-9.75 1.4174,-1.4173 c 0.5478,-0.5479 1.2762,-0.8496 2.0509,-0.8496 0.7748,0 1.5032,0.3017 2.051,0.8496 l 5.648,5.6481 c 0.5479,0.5478 0.8496,1.2762 0.8496,2.0509 0,0.7748 -0.3016,1.5032 -0.8495,2.051 z"
       id="path87"
       inkscape:connector-curvature="0"
       style="fill:#cccccc" />
    <path
       d="m 12.8282,15.7265 c -0.1453,-0.1461 -0.3469,-0.2289 -0.5523,-0.2289 -0.2055,0 -0.4071,0.0828 -0.5524,0.2289 -0.1453,0.1453 -0.2289,0.3461 -0.2289,0.5523 0,0.2055 0.0836,0.407 0.2289,0.5523 0.1453,0.1454 0.3469,0.229 0.5524,0.229 0.2054,0 0.407,-0.0836 0.5523,-0.229 0.1453,-0.1453 0.2289,-0.3468 0.2289,-0.5523 0,-0.2055 -0.0836,-0.407 -0.2289,-0.5523 z"
       id="path89"
       inkscape:connector-curvature="0"
       style="fill:#cccccc" />
    <path
       d="M 32.9333,9.64333 C 32.8411,8.30365 31.7613,7.22388 30.4216,7.13154 29.6618,7.0799 28.938,7.33544 28.3833,7.85326 27.8363,8.3638 27.5226,9.0856 27.5226,9.83372 c 0,0.43138 0.3497,0.78128 0.7812,0.78128 0.4315,0 0.7813,-0.3499 0.7813,-0.78128 0,-0.32117 0.1294,-0.6189 0.3644,-0.8382 0.2346,-0.21906 0.5413,-0.32711 0.8647,-0.30508 0.5656,0.03891 1.0214,0.49485 1.0603,1.06039 0.0395,0.57177 -0.3354,1.07707 -0.8911,1.20147 -0.6085,0.136 -1.0335,0.665 -1.0335,1.2863 v 1.4072 c 0,0.4314 0.3498,0.7813 0.7813,0.7813 0.4315,0 0.7812,-0.3499 0.7812,-0.7813 v -1.2177 c 1.2105,-0.3611 2.0093,-1.5023 1.9209,-2.78477 z"
       id="path91"
       inkscape:connector-curvature="0"
       style="fill:#cccccc" />
    <path
       d="m 30.7837,15.8736 c -0.1453,-0.1453 -0.3469,-0.2281 -0.5524,-0.2281 -0.2054,0 -0.407,0.0829 -0.5523,0.2281 -0.1453,0.1461 -0.2289,0.3469 -0.2289,0.5532 0,0.2054 0.0836,0.407 0.2289,0.5523 0.1453,0.1453 0.3469,0.2289 0.5523,0.2289 0.2055,0 0.4071,-0.0835 0.5524,-0.2289 0.1453,-0.1454 0.2289,-0.3469 0.2289,-0.5523 0,-0.2063 -0.0836,-0.4071 -0.2289,-0.5532 z"
       id="path93"
       inkscape:connector-curvature="0"
       style="fill:#cccccc" />
    <path
       d="M 36.0907,4 H 24.372 c -2.154,0 -3.9063,1.75234 -3.9063,3.90625 v 8.90415 c 0,2.1539 1.7523,3.9062 3.9063,3.9062 h 2.9628 l 2.287,2.978 C 29.7697,23.8872 29.9987,24 30.2414,24 c 5e-4,0 9e-4,0 0.0014,0 0.2433,-5e-4 0.4724,-0.1142 0.6199,-0.3077 l 2.2682,-2.9757 h 2.9597 c 2.1539,0 3.9063,-1.7523 3.9063,-3.9062 V 7.90625 C 39.997,5.75234 38.2447,4 36.0907,4 Z m 2.3439,12.8104 h -1e-4 c 0,1.2923 -1.0514,2.3437 -2.3438,2.3437 h -3.3466 c -0.2437,0 -0.4736,0.1138 -0.6213,0.3077 L 30.2392,21.933 28.3397,19.4595 C 28.1918,19.267 27.9628,19.1541 27.7201,19.1541 h -3.348 c -1.2923,0 -2.3437,-1.0514 -2.3437,-2.3437 V 7.90625 c 0,-1.29234 1.0514,-2.34375 2.3437,-2.34375 h 11.7188 c 1.2923,0 2.3437,1.05141 2.3437,2.34375 z"
       id="path95"
       inkscape:connector-curvature="0"
       style="fill:#cccccc" />
  </g>
  <defs
     id="defs102">
    <clipPath
       id="clip0">
      <rect
         width="40"
         height="40"
         transform="translate(0,4)"
         id="rect99"
         x="0"
         y="0"
         style="fill:#ffffff" />
    </clipPath>
    <clipPath
       clipPathUnits="userSpaceOnUse"
       id="clipPath3686">
      <rect
         id="rect3688"
         width="42.900974"
         height="43.35656"
         x="-0.45558557"
         y="2.0617876"
         ry="0.10906" />
    </clipPath>
    <clipPath
       clipPathUnits="userSpaceOnUse"
       id="clipPath3690">
      <rect
         id="rect3692"
         width="42.900974"
         height="43.35656"
         x="-0.45558557"
         y="2.0617876"
         ry="0.10906" />
    </clipPath>
  </defs>
</svg>
