<?xml version="1.0" encoding="UTF-8" standalone="no"?>
<svg
   xmlns:dc="http://purl.org/dc/elements/1.1/"
   xmlns:cc="http://creativecommons.org/ns#"
   xmlns:rdf="http://www.w3.org/1999/02/22-rdf-syntax-ns#"
   xmlns:svg="http://www.w3.org/2000/svg"
   xmlns="http://www.w3.org/2000/svg"
   xmlns:sodipodi="http://sodipodi.sourceforge.net/DTD/sodipodi-0.dtd"
   xmlns:inkscape="http://www.inkscape.org/namespaces/inkscape"
   width="38.480595"
   height="39.999699"
   viewBox="0 0 38.480595 39.999699"
   version="1.1"
   id="svg42"
   sodipodi:docname="inactivo_web.svg"
   style="fill:none"
   inkscape:version="0.92.5 (2060ec1f9f, 2020-04-08)">
  <metadata
     id="metadata46">
    <rdf:RDF>
      <cc:Work
         rdf:about="">
        <dc:format>image/svg+xml</dc:format>
        <dc:type
           rdf:resource="http://purl.org/dc/dcmitype/StillImage" />
        <dc:title></dc:title>
      </cc:Work>
    </rdf:RDF>
  </metadata>
  <sodipodi:namedview
     pagecolor="#ffffff"
     bordercolor="#666666"
     borderopacity="1"
     objecttolerance="10"
     gridtolerance="10"
     guidetolerance="10"
     inkscape:pageopacity="0"
     inkscape:pageshadow="2"
     inkscape:window-width="1848"
     inkscape:window-height="1043"
     id="namedview44"
     showgrid="false"
     fit-margin-top="0"
     fit-margin-left="0"
     fit-margin-right="0"
     fit-margin-bottom="0"
     inkscape:zoom="6.5849319"
     inkscape:cx="7.9407137"
     inkscape:cy="19.732591"
     inkscape:window-x="72"
     inkscape:window-y="0"
     inkscape:window-maximized="1"
     inkscape:current-layer="svg42" />
  <path
     d="m 73.704,23.336 c 0,0.864 -0.1493,1.6587 -0.448,2.384 -0.2987,0.7253 -0.7147,1.3547 -1.248,1.888 -0.5227,0.5227 -1.1467,0.9333 -1.872,1.232 -0.7147,0.2987 -1.4933,0.448 -2.336,0.448 -0.8427,0 -1.6267,-0.1493 -2.352,-0.448 -0.7147,-0.2987 -1.3387,-0.7093 -1.872,-1.232 -0.5227,-0.5333 -0.9333,-1.1627 -1.232,-1.888 -0.2987,-0.7253 -0.448,-1.52 -0.448,-2.384 0,-0.864 0.1493,-1.6587 0.448,-2.384 0.2987,-0.7253 0.7093,-1.3493 1.232,-1.872 0.5333,-0.5333 1.1573,-0.9493 1.872,-1.248 0.7253,-0.2987 1.5093,-0.448 2.352,-0.448 0.8427,0 1.6213,0.1493 2.336,0.448 0.7253,0.2987 1.3493,0.7147 1.872,1.248 0.5333,0.5227 0.9493,1.1467 1.248,1.872 0.2987,0.7253 0.448,1.52 0.448,2.384 z m -1.216,0 c 0,-0.6613 -0.1067,-1.2907 -0.32,-1.888 -0.2133,-0.5973 -0.5227,-1.12 -0.928,-1.568 -0.4053,-0.4587 -0.9013,-0.8213 -1.488,-1.088 -0.576,-0.2667 -1.2267,-0.4 -1.952,-0.4 -0.7253,0 -1.3813,0.1333 -1.968,0.4 -0.576,0.2667 -1.0667,0.6293 -1.472,1.088 -0.4053,0.448 -0.7147,0.9707 -0.928,1.568 -0.2133,0.5973 -0.32,1.2267 -0.32,1.888 0,0.6613 0.1067,1.2907 0.32,1.888 0.2133,0.5973 0.5227,1.12 0.928,1.568 0.4053,0.448 0.896,0.8053 1.472,1.072 0.5867,0.2667 1.2427,0.4 1.968,0.4 0.7253,0 1.376,-0.1333 1.952,-0.4 0.5867,-0.2667 1.0827,-0.624 1.488,-1.072 0.4053,-0.448 0.7147,-0.9707 0.928,-1.568 0.2133,-0.5973 0.32,-1.2267 0.32,-1.888 z m 6.4738,-0.912 h -1.76 V 29 h -1.088 v -6.576 h -1.568 v -0.912 h 1.568 v -2.048 c 0,-0.8533 0.208,-1.5253 0.624,-2.016 0.416,-0.4907 1.056,-0.736 1.92,-0.736 0.1386,0 0.288,0.0107 0.448,0.032 0.16,0.0107 0.3093,0.0373 0.448,0.08 l -0.192,0.96 c -0.1174,-0.032 -0.2347,-0.0587 -0.352,-0.08 -0.1174,-0.0213 -0.2507,-0.032 -0.4,-0.032 -0.288,0 -0.528,0.048 -0.72,0.144 -0.1814,0.096 -0.3254,0.2347 -0.432,0.416 -0.096,0.1707 -0.1654,0.3733 -0.208,0.608 -0.032,0.2347 -0.048,0.4853 -0.048,0.752 v 1.92 h 1.76 z m 7.0227,2.256 c -0.032,-0.704 -0.2613,-1.2853 -0.688,-1.744 -0.416,-0.4693 -1.0133,-0.704 -1.792,-0.704 -0.3627,0 -0.6987,0.0693 -1.008,0.208 -0.3093,0.128 -0.5813,0.3093 -0.816,0.544 -0.2347,0.224 -0.4213,0.4853 -0.56,0.784 -0.1387,0.288 -0.2187,0.592 -0.24,0.912 z m 1.104,0.352 c 0,0.0747 0,0.1547 0,0.24 0,0.0853 -0.0053,0.176 -0.016,0.272 h -6.208 c 0.0107,0.3733 0.0853,0.7253 0.224,1.056 0.1387,0.3307 0.3307,0.6187 0.576,0.864 0.2453,0.2453 0.5333,0.4427 0.864,0.592 0.3307,0.1387 0.688,0.208 1.072,0.208 0.5653,0 1.0507,-0.128 1.456,-0.384 0.416,-0.2667 0.7307,-0.5707 0.944,-0.912 l 0.816,0.64 c -0.448,0.5653 -0.944,0.9707 -1.488,1.216 -0.5333,0.2453 -1.1093,0.368 -1.728,0.368 -0.5547,0 -1.072,-0.096 -1.552,-0.288 -0.4693,-0.2027 -0.8747,-0.48 -1.216,-0.832 -0.3413,-0.352 -0.6133,-0.768 -0.816,-1.248 -0.192,-0.48 -0.288,-1.0027 -0.288,-1.568 0,-0.5653 0.096,-1.088 0.288,-1.568 0.192,-0.48 0.4587,-0.896 0.8,-1.248 0.3413,-0.352 0.7413,-0.624 1.2,-0.816 0.4587,-0.2027 0.9547,-0.304 1.488,-0.304 0.5867,0 1.104,0.1013 1.552,0.304 0.448,0.192 0.8213,0.4587 1.12,0.8 0.2987,0.3307 0.5227,0.72 0.672,1.168 0.16,0.448 0.24,0.928 0.24,1.44 z m 2.1003,-1.872 c 0,-0.2027 -0.0054,-0.464 -0.016,-0.784 -0.0107,-0.32 -0.0267,-0.608 -0.048,-0.864 h 1.04 c 0.0213,0.2027 0.0373,0.4267 0.048,0.672 0.0106,0.2453 0.016,0.448 0.016,0.608 h 0.032 c 0.2133,-0.4373 0.5333,-0.7893 0.96,-1.056 0.4266,-0.2773 0.9066,-0.416 1.44,-0.416 0.1386,0 0.2613,0.0053 0.368,0.016 0.1173,0.0107 0.2346,0.032 0.352,0.064 l -0.144,1.024 c -0.064,-0.0213 -0.1707,-0.0427 -0.32,-0.064 -0.1494,-0.0213 -0.2987,-0.032 -0.448,-0.032 -0.288,0 -0.5654,0.0533 -0.832,0.16 -0.2667,0.1067 -0.5014,0.2773 -0.704,0.512 -0.192,0.224 -0.352,0.5173 -0.48,0.88 -0.1174,0.352 -0.176,0.7787 -0.176,1.28 V 29 h -1.088 z m 8.7141,-0.736 h -2.112 v 4.368 c 0,0.2773 0.0266,0.5067 0.08,0.688 0.0533,0.1813 0.128,0.3253 0.224,0.432 0.1066,0.096 0.2293,0.1653 0.368,0.208 0.1386,0.032 0.288,0.048 0.448,0.048 0.1493,0 0.304,-0.0213 0.464,-0.064 0.1706,-0.0427 0.3306,-0.1013 0.48,-0.176 l 0.048,0.944 c -0.192,0.0747 -0.3947,0.128 -0.608,0.16 -0.2027,0.0427 -0.4267,0.064 -0.672,0.064 -0.2027,0 -0.416,-0.0267 -0.64,-0.08 -0.224,-0.0533 -0.432,-0.1547 -0.624,-0.304 -0.192,-0.1493 -0.352,-0.352 -0.48,-0.608 -0.1174,-0.256 -0.176,-0.592 -0.176,-1.008 v -4.672 h -1.552 v -0.912 h 1.552 V 19.4 h 1.088 v 2.112 h 2.112 z m 6.1821,1.744 c 0,-0.6507 -0.171,-1.136 -0.512,-1.456 -0.341,-0.32 -0.837,-0.48 -1.488,-0.48 -0.448,0 -0.864,0.08 -1.248,0.24 -0.384,0.16 -0.709,0.3733 -0.976,0.64 l -0.608,-0.72 c 0.3093,-0.3093 0.7147,-0.5653 1.216,-0.768 0.512,-0.2027 1.088,-0.304 1.728,-0.304 0.405,0 0.784,0.0587 1.136,0.176 0.352,0.1067 0.661,0.272 0.928,0.496 0.267,0.224 0.475,0.5067 0.624,0.848 0.149,0.3413 0.224,0.7413 0.224,1.2 v 3.28 c 0,0.288 0.011,0.5867 0.032,0.896 0.021,0.3093 0.053,0.5707 0.096,0.784 h -0.976 c -0.032,-0.1813 -0.059,-0.3787 -0.08,-0.592 -0.021,-0.2133 -0.032,-0.4213 -0.032,-0.624 h -0.032 c -0.341,0.5013 -0.731,0.864 -1.168,1.088 -0.427,0.2133 -0.944,0.32 -1.552,0.32 -0.288,0 -0.587,-0.0427 -0.896,-0.128 -0.299,-0.0747 -0.576,-0.2027 -0.832,-0.384 -0.2453,-0.1813 -0.4533,-0.416 -0.624,-0.704 -0.16,-0.288 -0.24,-0.64 -0.24,-1.056 0,-0.576 0.144,-1.0293 0.432,-1.36 0.2987,-0.3413 0.6933,-0.592 1.184,-0.752 0.491,-0.1707 1.051,-0.2773 1.68,-0.32 0.64,-0.0533 1.301,-0.08 1.984,-0.08 z m -0.32,1.088 c -0.448,0 -0.901,0.0213 -1.36,0.064 -0.448,0.032 -0.859,0.1067 -1.232,0.224 -0.363,0.1067 -0.661,0.2667 -0.896,0.48 -0.235,0.2133 -0.352,0.496 -0.352,0.848 0,0.2667 0.048,0.4907 0.144,0.672 0.107,0.1813 0.245,0.3307 0.416,0.448 0.171,0.1067 0.357,0.1867 0.56,0.24 0.213,0.0427 0.427,0.064 0.64,0.064 0.384,0 0.725,-0.064 1.024,-0.192 0.299,-0.1387 0.549,-0.32 0.752,-0.544 0.203,-0.2347 0.357,-0.5013 0.464,-0.8 0.107,-0.2987 0.16,-0.6133 0.16,-0.944 v -0.56 z m 7.891,-1.968 c -0.16,-0.3093 -0.405,-0.56 -0.736,-0.752 -0.32,-0.2027 -0.688,-0.304 -1.104,-0.304 -0.192,0 -0.384,0.0213 -0.576,0.064 -0.192,0.0427 -0.363,0.112 -0.512,0.208 -0.149,0.096 -0.272,0.2187 -0.368,0.368 -0.085,0.1493 -0.128,0.3253 -0.128,0.528 0,0.352 0.144,0.624 0.432,0.816 0.288,0.1813 0.741,0.336 1.36,0.464 0.885,0.1813 1.536,0.448 1.952,0.8 0.427,0.3413 0.64,0.8053 0.64,1.392 0,0.4267 -0.085,0.7893 -0.256,1.088 -0.16,0.288 -0.373,0.528 -0.64,0.72 -0.267,0.1813 -0.571,0.3093 -0.912,0.384 -0.331,0.0853 -0.667,0.128 -1.008,0.128 -0.565,0 -1.115,-0.1173 -1.648,-0.352 -0.533,-0.2347 -0.971,-0.6027 -1.312,-1.104 l 0.864,-0.64 c 0.192,0.3307 0.475,0.608 0.848,0.832 0.373,0.224 0.784,0.336 1.232,0.336 0.235,0 0.459,-0.0213 0.672,-0.064 0.213,-0.0427 0.4,-0.1173 0.56,-0.224 0.16,-0.1067 0.288,-0.24 0.384,-0.4 0.096,-0.1707 0.144,-0.3787 0.144,-0.624 0,-0.3947 -0.192,-0.688 -0.576,-0.88 -0.373,-0.2027 -0.917,-0.3893 -1.632,-0.56 -0.224,-0.0533 -0.464,-0.1173 -0.72,-0.192 -0.245,-0.0853 -0.475,-0.2027 -0.688,-0.352 -0.213,-0.16 -0.389,-0.3573 -0.528,-0.592 -0.139,-0.2347 -0.208,-0.528 -0.208,-0.88 0,-0.384 0.075,-0.7093 0.224,-0.976 0.149,-0.2773 0.347,-0.5013 0.592,-0.672 0.256,-0.1813 0.544,-0.3147 0.864,-0.4 0.32,-0.0853 0.651,-0.128 0.992,-0.128 0.523,0 1.029,0.1173 1.52,0.352 0.491,0.2347 0.859,0.5653 1.104,0.992 z"
     id="path23"
     clip-path="url(#clipPath3674)"
     inkscape:connector-curvature="0"
     style="fill:#cccccc"
     transform="translate(-0.44543451,-4.0000006)" />
  <g
     clip-path="url(#clip0)"
     id="g35"
     transform="translate(-0.44543451,-4.0000006)">
    <path
       d="m 29.104,24.7388 c -0.4325,-0.8174 -1.1913,-1.4682 -1.8609,-2.0424 -0.5819,-0.4991 -1.2413,-1.0648 -1.2413,-1.4377 0,-0.3285 -0.2662,-0.5949 -0.5947,-0.5949 -0.3246,0 -0.5885,0.2599 -0.5946,0.5831 0,0.0039 -10e-5,0.0077 -10e-5,0.0116 -0.0144,0.2267 -0.8304,0.8077 -1.2689,1.1199 -1.2073,0.8596 -2.7099,1.9296 -2.7099,3.6052 0,0.3285 0.2662,0.5947 0.5947,0.5947 0.3285,0 0.5947,-0.2662 0.5947,-0.5947 0,-1.0625 1.1743,-1.8986 2.2104,-2.6363 0.4055,-0.2888 0.7875,-0.5607 1.0919,-0.8423 0.3072,0.377 0.7195,0.7306 1.1436,1.0942 1.498,1.2849 2.3408,2.1745 1.4148,3.6907 -0.171,0.2804 -0.0827,0.6463 0.1976,0.8175 0.0968,0.0591 0.2037,0.0872 0.3094,0.0872 0.2003,0 0.396,-0.1012 0.508,-0.2848 0.6694,-1.0962 0.7385,-2.1631 0.2053,-3.171 z"
       id="path25"
       inkscape:connector-curvature="0"
       style="fill:#cccccc" />
    <path
       d="M 8.30831,28.2535 C 8.0316,28.0766 7.66394,28.1574 7.48691,28.4342 6.40488,30.1267 4.92878,31.5777 3.21808,32.6304 l -2.489532,1.532 c -0.279687,0.1721 -0.366953,0.5384 -0.194843,0.8181 0.112343,0.1825 0.307344,0.2831 0.507105,0.2831 0.10633,0 0.21391,-0.0285 0.31118,-0.0883 l 2.48945,-1.532 c 1.86242,-1.1461 3.46953,-2.726 4.64758,-4.5685 0.17679,-0.2767 0.09594,-0.6443 -0.18071,-0.8213 z"
       id="path27"
       inkscape:connector-curvature="0"
       style="fill:#cccccc" />
    <path
       d="m 38.4886,31.3431 c -0.7875,-1.2345 -2.4083,-1.6464 -3.6899,-0.9379 l -8.199,4.5329 c -0.5157,0.2852 -1.1195,0.3881 -1.7008,0.2896 L 16.8416,33.863 c -0.5646,-0.0956 -0.9664,-0.6174 -0.9147,-1.1878 0.0279,-0.3083 0.1781,-0.5826 0.4227,-0.7724 0.2447,-0.1898 0.5476,-0.2669 0.8534,-0.2172 l 7.022,1.1411 c 1.2373,0.201 2.4427,-0.5944 2.7445,-1.8107 0.1611,-0.6494 0.0526,-1.3183 -0.3056,-1.8836 -0.3582,-0.5651 -0.9168,-0.9489 -1.5727,-1.0804 L 13.9504,25.8186 c -0.4497,-0.0901 -0.9102,-0.1401 -1.3685,-0.1485 -1.0081,-0.0191 -2.014,0.2301 -2.90842,0.719 -0.28821,0.1575 -0.39414,0.5188 -0.23664,0.807 0.1575,0.2881 0.5189,0.3941 0.80706,0.2366 0.7133,-0.3898 1.5126,-0.5879 2.3163,-0.5735 0.3873,0.0071 0.7764,0.0493 1.1564,0.1256 l 11.1409,2.2334 c 0.3345,0.0671 0.6193,0.2627 0.8019,0.5509 0.1826,0.2881 0.2379,0.6293 0.1557,0.9603 -0.1538,0.6202 -0.7683,1.0258 -1.3993,0.9233 l -7.022,-1.1411 c -0.626,-0.1019 -1.2721,0.0628 -1.7731,0.4514 -0.5009,0.3886 -0.8211,0.9734 -0.8782,1.6048 -0.1074,1.185 0.7275,2.2691 1.9006,2.4678 l 8.0572,1.3647 c 0.8455,0.1433 1.7245,-0.0064 2.475,-0.4213 l 8.199,-4.533 c 0.7333,-0.4054 1.6609,-0.1697 2.1118,0.5368 0.2293,0.3595 0.3043,0.7866 0.2115,1.2028 -0.093,0.4161 -0.3426,0.7707 -0.7031,0.9986 l -10.5964,6.6964 c -0.9439,0.5965 -2.0717,0.8334 -3.1762,0.6664 L 10.7071,39.6563 C 9.91699,39.537 9.11395,39.7131 8.44605,40.1522 l -4.19062,2.7559 c -0.27445,0.1805 -0.35055,0.5492 -0.17016,0.8236 0.1143,0.1738 0.30391,0.268 0.49743,0.268 0.1121,0 0.22562,-0.0316 0.32617,-0.0979 l 4.19062,-2.7559 c 0.42235,-0.2778 0.93001,-0.3892 1.42981,-0.3136 l 12.5148,1.8907 c 1.3869,0.2094 2.8036,-0.0877 3.9892,-0.837 l 10.5964,-6.6965 c 0.6299,-0.3981 1.0661,-1.0178 1.2285,-1.745 0.1623,-0.727 0.0311,-1.4734 -0.3696,-2.1014 z"
       id="path29"
       inkscape:connector-curvature="0"
       style="fill:#cccccc" />
    <path
       d="m 34.7774,18.6431 c -0.076,-0.3195 -0.3962,-0.5169 -0.7161,-0.4411 -0.3196,0.0759 -0.5171,0.3966 -0.4411,0.7161 0.3826,1.6094 0.4566,3.1984 0.2199,4.7227 -0.478,3.0793 -2.7563,5.5979 -5.8042,6.4162 -0.3173,0.0851 -0.5054,0.4114 -0.4202,0.7285 0.0713,0.2656 0.3116,0.4407 0.574,0.4407 0.0511,0 0.103,-0.0066 0.1546,-0.0205 3.5024,-0.9404 6.121,-3.8382 6.6711,-7.3825 0.2604,-1.6771 0.1803,-3.42 -0.238,-5.1801 z"
       id="path31"
       inkscape:connector-curvature="0"
       style="fill:#cccccc" />
    <path
       d="m 33.9872,16.2051 c -1.3067,-3.1831 -3.2223,-5.2452 -3.3031,-5.3314 -0.1668,-0.1779 -0.4254,-0.2358 -0.6525,-0.1461 -0.2268,0.0897 -0.3758,0.3089 -0.3758,0.5529 0,1.8632 -0.9953,3.6683 -1.8816,4.9064 C 27.9484,13.7527 27.4204,11.1413 26.2103,8.5178 25.0239,5.94569 23.6177,4.27889 23.5584,4.2092 23.3835,4.00342 23.0917,3.94178 22.8481,4.05866 c -0.2436,0.11687 -0.3776,0.38359 -0.3265,0.6489 0.0125,0.06539 1.2154,6.59254 -2.768,10.57594 -0.7497,0.7498 -1.3992,1.5961 -1.9302,2.5154 -1.3817,2.3915 -1.5959,5.2423 -0.5877,7.8216 0.0917,0.2348 0.3163,0.3783 0.554,0.3783 0.072,0 0.1452,-0.0131 0.2164,-0.041 0.3059,-0.1196 0.4569,-0.4645 0.3374,-0.7704 -0.8758,-2.2407 -0.6901,-4.7169 0.5097,-6.7937 0.4791,-0.8293 1.065,-1.5929 1.7413,-2.2693 1.8432,-1.8431 2.9622,-4.4439 3.2363,-7.52129 0.0604,-0.67844 0.0741,-1.30867 0.0631,-1.86203 1.4696,2.35734 3.5738,6.77352 2.367,11.34262 -0.0682,0.2582 0.0441,0.5303 0.2747,0.6651 0.2303,0.1348 0.5227,0.0995 0.7145,-0.0865 0.1276,-0.1238 2.7494,-2.7013 3.433,-5.9012 0.6406,0.8695 1.517,2.2229 2.2036,3.8957 0.1247,0.3037 0.472,0.4491 0.776,0.3243 0.3039,-0.1248 0.4491,-0.4721 0.3245,-0.776 z"
       id="path33"
       inkscape:connector-curvature="0"
       style="fill:#cccccc" />
  </g>
  <defs
     id="defs40">
    <clipPath
       id="clip0">
      <rect
         width="40"
         height="40"
         transform="translate(0,4)"
         id="rect37"
         x="0"
         y="0"
         style="fill:#ffffff" />
    </clipPath>
    <clipPath
       clipPathUnits="userSpaceOnUse"
       id="clipPath3674">
      <rect
         id="rect3676"
         width="38.624035"
         height="40.162003"
         x="0.44907174"
         y="3.913604"
         ry="0.10906" />
    </clipPath>
  </defs>
</svg>
