<svg width="185" height="168" viewBox="0 0 185 168" fill="none" xmlns="http://www.w3.org/2000/svg">
<path d="M27.0493 153.868C63.1128 172.711 121.592 172.711 157.655 153.868C193.719 135.026 193.723 104.478 157.655 85.6357C121.587 66.7933 63.1128 66.7933 27.0493 85.6357C-9.01428 104.478 -9.01857 135.026 27.0493 153.868Z" fill="#F5F5F5"/>
<path d="M120.546 149.101C131.421 149.101 140.237 144.899 140.237 139.716C140.237 134.533 131.421 130.331 120.546 130.331C109.67 130.331 100.854 134.533 100.854 139.716C100.854 144.899 109.67 149.101 120.546 149.101Z" fill="#EBEBEB"/>
<path d="M155.428 127.696C163.819 127.696 170.62 124.455 170.62 120.456C170.62 116.458 163.819 113.216 155.428 113.216C147.038 113.216 140.236 116.458 140.236 120.456C140.236 124.455 147.038 127.696 155.428 127.696Z" fill="#EBEBEB"/>
<path d="M47.1435 118.429C46.2857 113.9 43.146 107.444 39.3157 103.846C35.6313 100.389 30.1626 99.1834 27.9837 100.779C25.8048 102.375 27.2331 105.823 31.4622 110.026C36.2361 114.766 45.4021 127.917 47.1435 135.367V118.429Z" fill="#3EA635"/>
<g opacity="0.2">
<path opacity="0.2" d="M47.1435 118.429C46.2857 113.9 43.146 107.444 39.3157 103.846C35.6313 100.389 30.1626 99.1834 27.9837 100.779C25.8048 102.375 27.2331 105.823 31.4622 110.026C36.2361 114.766 45.4021 127.917 47.1435 135.367V118.429Z" fill="black"/>
</g>
<path d="M47.1343 129.328C47.0805 129.327 47.029 129.307 46.9894 129.27C46.9498 129.234 46.9251 129.184 46.9198 129.131C45.8389 117.721 37.861 104.897 30.1919 102.225C30.1384 102.205 30.0946 102.166 30.0697 102.114C30.0449 102.063 30.041 102.004 30.059 101.95C30.0784 101.897 30.118 101.853 30.1692 101.828C30.2205 101.803 30.2794 101.799 30.3335 101.817C38.2857 104.584 46.2421 117.331 47.3573 129.092C47.3621 129.149 47.3447 129.205 47.3087 129.249C47.2726 129.293 47.2208 129.322 47.1643 129.328H47.1343Z" fill="white"/>
<path d="M47.1438 140.845C47.1438 140.845 45.6597 142.029 40.71 141.566C35.7602 141.103 33.2082 137.564 33.2082 136.046C33.2082 134.527 37.759 134.266 38.7455 130.5C37.742 131.575 36.4071 132.283 34.9539 132.511C32.3804 132.996 30.313 132.172 29.7253 127.484C30.9937 127.67 32.2878 127.563 33.5084 127.171C35.5458 126.515 36.0305 125.395 35.4986 125.155C34.9667 124.915 32.1273 125.155 30.3087 124.465C28.4901 123.774 29.8798 114.304 31.0722 113.63C32.2646 112.957 37.9048 114.544 39.0029 115.393C39.9808 116.148 41.3534 117.456 40.7186 120.223C41.4705 119.52 42.0566 118.658 42.4342 117.701C42.9661 116.414 43.3521 116.714 44.1499 117.207C44.629 117.478 45.0448 117.847 45.3695 118.291C45.6943 118.734 45.9204 119.243 46.0329 119.781C46.2259 120.982 45.9128 125.125 44.2228 126.472C44.2228 126.472 45.8441 126.678 47.1695 123.941C47.1695 123.941 49.743 124.979 50.3264 126.661C50.9097 128.342 51.5445 136.573 47.1438 140.845Z" fill="#3EA635"/>
<path d="M47.5736 141.78C47.5212 141.779 47.4707 141.76 47.4313 141.725C47.3919 141.691 47.3663 141.643 47.3591 141.591C46.2268 132.322 39.1796 120.145 32.2698 115.573C32.222 115.541 32.1888 115.491 32.1775 115.435C32.1663 115.379 32.1779 115.32 32.2097 115.273C32.2416 115.225 32.2911 115.192 32.3474 115.18C32.4037 115.169 32.4622 115.181 32.5099 115.213C39.5056 119.866 46.6643 132.168 47.7838 141.54C47.7911 141.596 47.7758 141.653 47.7412 141.698C47.7066 141.743 47.6556 141.772 47.5993 141.78H47.5736Z" fill="white"/>
<path d="M48.0048 143.076C47.7489 142.898 47.538 142.664 47.3891 142.39C47.2401 142.117 47.1572 141.813 47.147 141.502V39.0284C47.1645 38.7059 47.2579 38.3921 47.4197 38.1126C47.5814 37.8331 47.8069 37.5958 48.0777 37.4199L112.416 0.266896C112.685 0.0982228 112.994 0.0060472 113.312 0.000287515C113.629 -0.00547217 113.942 0.0754009 114.217 0.234207C114.492 0.393012 114.718 0.623742 114.871 0.901573C115.025 1.1794 115.1 1.49382 115.088 1.81101L49.8063 143.041C49.5299 143.188 49.2227 143.268 48.9096 143.274C48.5966 143.28 48.2866 143.212 48.0048 143.076Z" fill="#E0E0E0"/>
<path d="M48.8728 40.9757L75.0068 23.8747L73.2654 22.8667L48.0621 37.4199C47.7912 37.5958 47.5658 37.8331 47.404 38.1126C47.2423 38.3922 47.1489 38.7059 47.1313 39.0284V39.9677L48.8728 40.9757Z" fill="#37474F"/>
<path opacity="0.2" d="M48.8728 40.9757L75.0068 23.8747L73.2654 22.8667L48.0621 37.4199C47.7912 37.5958 47.5658 37.8331 47.404 38.1126C47.2423 38.3922 47.1489 38.7059 47.1313 39.0284V39.9677L48.8728 40.9757Z" fill="#37474F"/>
<path d="M57.6014 43.9913L47.4017 38.1237C47.2355 38.4003 47.1425 38.7147 47.1314 39.0373V141.493C47.1204 141.81 47.1958 142.124 47.3496 142.401C47.5034 142.678 47.7298 142.908 48.0045 143.067C48.2792 143.225 48.5917 143.306 48.9087 143.3C49.2257 143.294 49.535 143.202 49.8036 143.033L57.6014 138.551V43.9913Z" fill="#263238"/>
<path opacity="0.4" d="M57.6014 43.9913L47.4017 38.1237C47.2355 38.4003 47.1425 38.7147 47.1314 39.0373V141.493C47.1204 141.81 47.1958 142.124 47.3496 142.401C47.5034 142.678 47.7298 142.908 48.0045 143.067C48.2792 143.225 48.5917 143.306 48.9087 143.3C49.2257 143.294 49.535 143.202 49.8036 143.033L57.6014 138.551V43.9913Z" fill="#263238"/>
<path d="M49.7999 143.041L114.138 105.888C114.409 105.712 114.634 105.475 114.796 105.196C114.958 104.916 115.051 104.602 115.069 104.28V1.81105C115.069 1.21914 114.64 0.978948 114.138 1.2749L49.7999 38.4279C49.529 38.6037 49.3036 38.8411 49.1418 39.1206C48.9801 39.4001 48.8866 39.7139 48.8691 40.0363V142.505C48.8691 143.097 49.2852 143.337 49.7999 143.041Z" fill="#455A64"/>
<path opacity="0.1" d="M49.7999 143.041L114.138 105.888C114.409 105.712 114.634 105.475 114.796 105.196C114.958 104.916 115.051 104.602 115.069 104.28V1.81105C115.069 1.21914 114.64 0.978948 114.138 1.2749L49.7999 38.4279C49.529 38.6037 49.3036 38.8411 49.1418 39.1206C48.9801 39.4001 48.8866 39.7139 48.8691 40.0363V142.505C48.8691 143.097 49.2852 143.337 49.7999 143.041Z" fill="#455A64"/>
<path d="M54.221 63.7034L69.6621 54.7819C70.6872 54.19 71.5193 54.6104 71.5193 55.7213C71.4735 56.345 71.2815 56.9492 70.9588 57.4849C70.6362 58.0207 70.192 58.473 69.6621 58.8052L54.221 67.7267C53.1916 68.3186 52.3638 67.8983 52.3638 66.7874C52.4086 66.1634 52.6002 65.5588 52.9229 65.0229C53.2457 64.487 53.6904 64.0349 54.221 63.7034Z" fill="#3EA635"/>
<path d="M54.221 70.0346L64.4421 64.1326C65.4673 63.5407 66.2994 63.9611 66.2994 65.072C66.2535 65.6957 66.0615 66.2999 65.7389 66.8356C65.4162 67.3714 64.972 67.8237 64.4421 68.1559L54.221 74.0578C53.1916 74.6497 52.3638 74.2294 52.3638 73.1185C52.4086 72.4945 52.6002 71.8899 52.9229 71.354C53.2457 70.8181 53.6904 70.366 54.221 70.0346Z" fill="#3EA635"/>
<path d="M53.1058 80.8691L55.1046 79.7153C55.5335 79.4794 55.8466 79.6724 55.8466 80.1442V82.4518C55.8327 82.7095 55.7582 82.9603 55.6293 83.1838C55.5004 83.4074 55.3206 83.5974 55.1046 83.7386L53.1058 84.8752C52.6769 85.1154 52.3638 84.9224 52.3638 84.4463V82.1387C52.3806 81.8841 52.4565 81.6368 52.5852 81.4165C52.714 81.1962 52.8922 81.0088 53.1058 80.8691Z" fill="#3EA635"/>
<path opacity="0.2" d="M53.1058 80.8691L55.1046 79.7153C55.5335 79.4794 55.8466 79.6724 55.8466 80.1442V82.4518C55.8327 82.7095 55.7582 82.9603 55.6293 83.1838C55.5004 83.4074 55.3206 83.5974 55.1046 83.7386L53.1058 84.8752C52.6769 85.1154 52.3638 84.9224 52.3638 84.4463V82.1387C52.3806 81.8841 52.4565 81.6368 52.5852 81.4165C52.714 81.1962 52.8922 81.0088 53.1058 80.8691Z" fill="black"/>
<path d="M53.1058 88.9213L55.1046 87.7675C55.5335 87.5273 55.8466 87.7203 55.8466 88.1964V90.504C55.8317 90.7615 55.7568 91.0119 55.628 91.2353C55.4992 91.4587 55.3199 91.6489 55.1046 91.7908L53.1058 92.9446C52.6769 93.1805 52.3638 92.9875 52.3638 92.5157V90.2081C52.377 89.9502 52.4512 89.6992 52.5801 89.4755C52.7091 89.2519 52.8893 89.0619 53.1058 88.9213Z" fill="#3EA635"/>
<g opacity="0.2">
<path opacity="0.2" d="M53.1058 88.9213L55.1046 87.7675C55.5335 87.5273 55.8466 87.7203 55.8466 88.1964V90.504C55.8317 90.7615 55.7568 91.0119 55.628 91.2353C55.4992 91.4587 55.3199 91.6489 55.1046 91.7908L53.1058 92.9446C52.6769 93.1805 52.3638 92.9875 52.3638 92.5157V90.2081C52.377 89.9502 52.4512 89.6992 52.5801 89.4755C52.7091 89.2519 52.8893 89.0619 53.1058 88.9213Z" fill="black"/>
</g>
<path d="M58.5079 86.8018L70.5863 79.8233C71.101 79.5273 71.517 79.7375 71.517 80.2951C71.4937 80.6068 71.3973 80.9087 71.2356 81.1762C71.0739 81.4437 70.8514 81.6694 70.5863 81.8349L58.5079 88.8134C57.9932 89.1094 57.5771 88.8992 57.5771 88.3416C57.6005 88.0299 57.6969 87.728 57.8586 87.4605C58.0203 87.193 58.2427 86.9673 58.5079 86.8018Z" fill="#3EA635"/>
<path opacity="0.2" d="M58.5079 86.8018L70.5863 79.8233C71.101 79.5273 71.517 79.7375 71.517 80.2951C71.4937 80.6068 71.3973 80.9087 71.2356 81.1762C71.0739 81.4437 70.8514 81.6694 70.5863 81.8349L58.5079 88.8134C57.9932 89.1094 57.5771 88.8992 57.5771 88.3416C57.6005 88.0299 57.6969 87.728 57.8586 87.4605C58.0203 87.193 58.2427 86.9673 58.5079 86.8018Z" fill="black"/>
<path d="M53.1058 96.9664L55.1046 95.8126C55.5335 95.5724 55.8466 95.7654 55.8466 96.2415V98.5491C55.832 98.8066 55.7573 99.0571 55.6284 99.2806C55.4996 99.5041 55.3202 99.6942 55.1046 99.8358L53.1058 100.99C52.6769 101.226 52.3638 101.033 52.3638 100.561V98.2531C52.377 97.9953 52.4512 97.7442 52.5801 97.5206C52.7091 97.2969 52.8893 97.107 53.1058 96.9664Z" fill="#E0E0E0"/>
<path d="M58.5079 94.8492L70.5863 87.8793C71.101 87.5833 71.517 87.7935 71.517 88.3511C71.4944 88.663 71.3983 88.9651 71.2365 89.2327C71.0747 89.5004 70.8519 89.7259 70.5863 89.8909L58.5079 96.8695C57.9932 97.1654 57.5771 96.9552 57.5771 96.3976C57.5991 96.0844 57.6949 95.7809 57.8567 95.5117C58.0185 95.2426 58.2416 95.0156 58.5079 94.8492Z" fill="#F0F0F0"/>
<path d="M53.1058 105.034L55.1046 103.88C55.5335 103.64 55.8466 103.833 55.8466 104.309V106.616C55.832 106.874 55.7573 107.124 55.6284 107.348C55.4996 107.571 55.3202 107.761 55.1046 107.903L53.1058 109.057C52.6769 109.293 52.3638 109.1 52.3638 108.628V106.32C52.377 106.063 52.4512 105.811 52.5801 105.588C52.7091 105.364 52.8893 105.174 53.1058 105.034Z" fill="#E0E0E0"/>
<path d="M58.5079 102.917L70.5863 95.9426C71.101 95.6424 71.517 95.8568 71.517 96.4101C71.4944 96.7226 71.3983 97.0253 71.2365 97.2936C71.0748 97.5619 70.852 97.7883 70.5863 97.9542L58.5079 104.928C57.9932 105.224 57.5771 105.014 57.5771 104.457C57.6005 104.145 57.6969 103.843 57.8586 103.576C58.0203 103.308 58.2427 103.082 58.5079 102.917Z" fill="#F0F0F0"/>
<path d="M53.1058 113.082L55.1046 111.928C55.5335 111.688 55.8466 111.881 55.8466 112.357V114.665C55.832 114.922 55.7573 115.173 55.6284 115.396C55.4996 115.62 55.3202 115.81 55.1046 115.951L53.1058 117.105C52.6769 117.341 52.3638 117.148 52.3638 116.676V114.369C52.377 114.111 52.4512 113.86 52.5801 113.636C52.7091 113.412 52.8893 113.222 53.1058 113.082Z" fill="#E0E0E0"/>
<path d="M58.5079 110.962L70.5863 103.988C71.101 103.687 71.517 103.902 71.517 104.455C71.4944 104.768 71.3983 105.07 71.2365 105.339C71.0748 105.607 70.852 105.833 70.5863 105.999L58.5079 112.974C57.9932 113.269 57.5771 113.059 57.5771 112.502C57.6005 112.19 57.6969 111.888 57.8586 111.621C58.0203 111.353 58.2427 111.127 58.5079 110.962Z" fill="#F0F0F0"/>
<path d="M53.2902 121L61.8686 116.038C62.3833 115.742 62.7994 115.952 62.7994 116.509C62.7761 116.821 62.6796 117.123 62.5179 117.391C62.3562 117.658 62.1338 117.884 61.8686 118.049L53.2902 123.012C52.7798 123.308 52.3638 123.098 52.3638 122.544C52.3863 122.232 52.4819 121.93 52.6428 121.662C52.8038 121.394 53.0255 121.167 53.2902 121Z" fill="#3EA635"/>
<path d="M53.2902 125.023L70.5971 115.034C71.1118 114.738 71.5279 114.948 71.5279 115.501C71.5052 115.814 71.4091 116.116 71.2474 116.385C71.0857 116.653 70.8629 116.879 70.5971 117.045L53.2902 127.035C52.7798 127.331 52.3638 127.121 52.3638 126.567C52.3863 126.255 52.4819 125.953 52.6428 125.685C52.8038 125.417 53.0255 125.19 53.2902 125.023Z" fill="#3EA635"/>
<path opacity="0.8" d="M53.2902 125.023L70.5971 115.034C71.1118 114.738 71.5279 114.948 71.5279 115.501C71.5052 115.814 71.4091 116.116 71.2474 116.385C71.0857 116.653 70.8629 116.879 70.5971 117.045L53.2902 127.035C52.7798 127.331 52.3638 127.121 52.3638 126.567C52.3863 126.255 52.4819 125.953 52.6428 125.685C52.8038 125.417 53.0255 125.19 53.2902 125.023Z" fill="white"/>
<path d="M53.2902 125.023L65.3729 118.049C65.8833 117.753 66.2994 117.963 66.2994 118.521C66.2762 118.832 66.1803 119.134 66.0194 119.401C65.8585 119.668 65.637 119.894 65.3729 120.061L53.2902 127.035C52.7798 127.331 52.3638 127.121 52.3638 126.567C52.3863 126.255 52.4819 125.953 52.6428 125.685C52.8038 125.417 53.0255 125.19 53.2902 125.023Z" fill="#3EA635"/>
<path d="M53.2902 129.053L61.8686 124.09C62.3833 123.795 62.7994 124.005 62.7994 124.562C62.7761 124.874 62.6796 125.176 62.5179 125.443C62.3562 125.711 62.1338 125.937 61.8686 126.102L53.2902 131.065C52.7798 131.361 52.3638 131.151 52.3638 130.597C52.3863 130.285 52.4819 129.983 52.6428 129.715C52.8038 129.446 53.0255 129.22 53.2902 129.053Z" fill="#3EA635"/>
<path d="M58.5079 78.7493L70.5863 71.7751C71.101 71.4791 71.517 71.6893 71.517 72.2469C71.4937 72.5586 71.3973 72.8604 71.2356 73.128C71.0739 73.3955 70.8514 73.6211 70.5863 73.7867L58.5079 80.7609C57.9932 81.0569 57.5771 80.8467 57.5771 80.2934C57.5998 79.9809 57.6959 79.6782 57.8576 79.4099C58.0194 79.1416 58.2422 78.9152 58.5079 78.7493Z" fill="#3EA635"/>
<path opacity="0.2" d="M58.5079 78.7493L70.5863 71.7751C71.101 71.4791 71.517 71.6893 71.517 72.2469C71.4937 72.5586 71.3973 72.8604 71.2356 73.128C71.0739 73.3955 70.8514 73.6211 70.5863 73.7867L58.5079 80.7609C57.9932 81.0569 57.5771 80.8467 57.5771 80.2934C57.5998 79.9809 57.6959 79.6782 57.8576 79.4099C58.0194 79.1416 58.2422 78.9152 58.5079 78.7493Z" fill="black"/>
<path d="M53.2902 129.053L61.8686 124.09C62.3833 123.795 62.7994 124.005 62.7994 124.562C62.7761 124.874 62.6796 125.176 62.5179 125.443C62.3562 125.711 62.1338 125.937 61.8686 126.102L53.2902 131.065C52.7798 131.361 52.3638 131.151 52.3638 130.597C52.3863 130.285 52.4819 129.983 52.6428 129.715C52.8038 129.446 53.0255 129.22 53.2902 129.053Z" fill="#3EA635"/>
<path d="M53.2902 133.065L70.5971 123.075C71.1118 122.78 71.5279 122.99 71.5279 123.543C71.5052 123.855 71.4091 124.158 71.2474 124.426C71.0857 124.695 70.8629 124.921 70.5971 125.087L53.2902 135.059C52.7798 135.36 52.3638 135.145 52.3638 134.592C52.3889 134.283 52.4857 133.984 52.6465 133.719C52.8074 133.454 53.0278 133.23 53.2902 133.065Z" fill="#3EA635"/>
<path opacity="0.8" d="M53.2902 133.065L70.5971 123.075C71.1118 122.78 71.5279 122.99 71.5279 123.543C71.5052 123.855 71.4091 124.158 71.2474 124.426C71.0857 124.695 70.8629 124.921 70.5971 125.087L53.2902 135.059C52.7798 135.36 52.3638 135.145 52.3638 134.592C52.3889 134.283 52.4857 133.984 52.6465 133.719C52.8074 133.454 53.0278 133.23 53.2902 133.065Z" fill="white"/>
<path d="M53.2902 133.065L68.8557 124.058C69.3704 123.762 69.7865 123.972 69.7865 124.53C69.7632 124.842 69.6668 125.144 69.505 125.411C69.3433 125.679 69.1209 125.904 68.8557 126.07L53.2902 135.077C52.7798 135.377 52.3638 135.163 52.3638 134.61C52.3863 134.298 52.4819 133.995 52.6428 133.727C52.8038 133.459 53.0255 133.232 53.2902 133.065Z" fill="#3EA635"/>
<path d="M114.153 1.27431L75.0098 23.8741V128.487L114.153 105.892C114.424 105.716 114.649 105.479 114.811 105.199C114.973 104.92 115.066 104.606 115.084 104.284V1.81046C115.079 1.23571 114.651 0.978356 114.153 1.27431Z" fill="#EBEBEB"/>
<path opacity="0.6" d="M114.153 1.27431L75.0098 23.8741V128.487L114.153 105.892C114.424 105.716 114.649 105.479 114.811 105.199C114.973 104.92 115.066 104.606 115.084 104.284V1.81046C115.079 1.23571 114.651 0.978356 114.153 1.27431Z" fill="#FAFAFA"/>
<path d="M75.0014 27.8967V35.9432L71.5186 39.9665H75.0014V48.013L111.588 26.8888V6.77246L75.0014 27.8967Z" fill="#3EA635"/>
<g opacity="0.6">
<path opacity="0.6" d="M79.7863 28.1779L94.6097 19.5995C95.326 19.1706 95.8965 19.5223 95.8965 20.3501C95.8728 20.7999 95.7442 21.2379 95.5207 21.629C95.2972 22.02 94.9852 22.3533 94.6097 22.602L79.7863 31.1589C79.0657 31.5878 78.4995 31.2361 78.4995 30.4083C78.5254 29.962 78.6553 29.5279 78.8787 29.1407C79.1021 28.7534 79.4129 28.4238 79.7863 28.1779Z" fill="white"/>
</g>
<path d="M78.952 34.6932L107.642 18.1283C107.9 17.9825 108.106 18.0854 108.106 18.3642C108.095 18.5203 108.047 18.6715 107.966 18.8057C107.886 18.9398 107.775 19.0531 107.642 19.1363L78.952 35.6797C78.6946 35.8256 78.4888 35.7226 78.4888 35.4438C78.5031 35.2915 78.5523 35.1446 78.6327 35.0144C78.713 34.8842 78.8223 34.7743 78.952 34.6932Z" fill="#3EA635"/>
<path d="M78.952 34.6932L107.642 18.1283C107.9 17.9825 108.106 18.0854 108.106 18.3642C108.095 18.5203 108.047 18.6715 107.966 18.8057C107.886 18.9398 107.775 19.0531 107.642 19.1363L78.952 35.6797C78.6946 35.8256 78.4888 35.7226 78.4888 35.4438C78.5031 35.2915 78.5523 35.1446 78.6327 35.0144C78.713 34.8842 78.8223 34.7743 78.952 34.6932Z" fill="#3EA635"/>
<path opacity="0.6" d="M78.952 34.6932L107.642 18.1283C107.9 17.9825 108.106 18.0854 108.106 18.3642C108.095 18.5203 108.047 18.6715 107.966 18.8057C107.886 18.9398 107.775 19.0531 107.642 19.1363L78.952 35.6797C78.6946 35.8256 78.4888 35.7226 78.4888 35.4438C78.5031 35.2915 78.5523 35.1446 78.6327 35.0144C78.713 34.8842 78.8223 34.7743 78.952 34.6932Z" fill="white"/>
<path d="M78.952 37.6945L107.642 21.1296C107.9 20.9795 108.106 21.0867 108.106 21.3655C108.095 21.521 108.047 21.6716 107.966 21.8051C107.886 21.9385 107.775 22.051 107.642 22.1333L78.952 38.6982C78.6946 38.8483 78.4888 38.7411 78.4888 38.4623C78.4998 38.3068 78.5476 38.1562 78.6281 38.0227C78.7086 37.8893 78.8196 37.7768 78.952 37.6945Z" fill="#3EA635"/>
<path opacity="0.6" d="M78.952 37.6945L107.642 21.1296C107.9 20.9795 108.106 21.0867 108.106 21.3655C108.095 21.521 108.047 21.6716 107.966 21.8051C107.886 21.9385 107.775 22.051 107.642 22.1333L78.952 38.6982C78.6946 38.8483 78.4888 38.7411 78.4888 38.4623C78.4998 38.3068 78.5476 38.1562 78.6281 38.0227C78.7086 37.8893 78.8196 37.7768 78.952 37.6945Z" fill="white"/>
<path opacity="0.6" d="M78.952 40.6976L107.642 24.1327C107.9 23.9869 108.106 24.0898 108.106 24.3686C108.095 24.5247 108.047 24.6759 107.966 24.8101C107.886 24.9442 107.775 25.0575 107.642 25.1407L78.952 41.7056C78.6946 41.8514 78.4888 41.7485 78.4888 41.4697C78.4999 41.3136 78.5476 41.1624 78.6281 41.0282C78.7086 40.8941 78.8195 40.7808 78.952 40.6976Z" fill="white"/>
<path d="M80.0338 49.1469L82.0455 47.9888C82.4744 47.7486 82.7875 47.9417 82.7875 48.4178V50.7253C82.7733 50.983 82.6987 51.2336 82.5698 51.4571C82.4409 51.6806 82.2613 51.8707 82.0455 52.0121L80.0467 53.1659C79.6178 53.4018 79.3047 53.2088 79.3047 52.737V50.4337C79.3165 50.177 79.3887 49.9267 79.5154 49.7031C79.6421 49.4795 79.8197 49.289 80.0338 49.1469Z" fill="#3EA635"/>
<path opacity="0.2" d="M80.0338 49.1469L82.0455 47.9888C82.4744 47.7486 82.7875 47.9417 82.7875 48.4178V50.7253C82.7733 50.983 82.6987 51.2336 82.5698 51.4571C82.4409 51.6806 82.2613 51.8707 82.0455 52.0121L80.0467 53.1659C79.6178 53.4018 79.3047 53.2088 79.3047 52.737V50.4337C79.3165 50.177 79.3887 49.9267 79.5154 49.7031C79.6421 49.4795 79.8197 49.289 80.0338 49.1469Z" fill="white"/>
<path d="M85.4542 47.0265L97.5326 40.048C98.0473 39.752 98.4633 39.9622 98.4633 40.5198C98.44 40.8315 98.3436 41.1334 98.1819 41.4009C98.0202 41.6684 97.7977 41.8941 97.5326 42.0596L85.4542 49.0382C84.9395 49.3341 84.5234 49.1239 84.5234 48.5663C84.5467 48.2546 84.6432 47.9528 84.8049 47.6852C84.9666 47.4177 85.189 47.1921 85.4542 47.0265Z" fill="#3EA635"/>
<path opacity="0.8" d="M85.4542 47.0265L97.5326 40.048C98.0473 39.752 98.4633 39.9622 98.4633 40.5198C98.44 40.8315 98.3436 41.1334 98.1819 41.4009C98.0202 41.6684 97.7977 41.8941 97.5326 42.0596L85.4542 49.0382C84.9395 49.3341 84.5234 49.1239 84.5234 48.5663C84.5467 48.2546 84.6432 47.9528 84.8049 47.6852C84.9666 47.4177 85.189 47.1921 85.4542 47.0265Z" fill="white"/>
<path d="M79.7577 56.3525L110.211 38.7668C110.468 38.6167 110.674 38.7239 110.674 38.9984C110.663 39.1546 110.616 39.3059 110.535 39.4401C110.455 39.5743 110.344 39.6875 110.211 39.7705L79.7577 57.3562C79.5003 57.5063 79.2944 57.3991 79.2944 57.1203C79.3055 56.9648 79.3533 56.8142 79.4338 56.6807C79.5143 56.5473 79.6253 56.4348 79.7577 56.3525Z" fill="#3EA635"/>
<path d="M79.7577 59.3674L110.211 41.7817C110.468 41.6358 110.674 41.7388 110.674 42.0176C110.663 42.1736 110.615 42.3248 110.535 42.459C110.454 42.5931 110.343 42.7064 110.211 42.7896L79.7577 60.3753C79.5003 60.5212 79.2944 60.4182 79.2944 60.1394C79.3055 59.9834 79.3532 59.8321 79.4337 59.698C79.5142 59.5639 79.6252 59.4506 79.7577 59.3674Z" fill="#3EA635"/>
<path d="M79.7577 62.3863L110.211 44.8006C110.468 44.6505 110.674 44.7578 110.674 45.0323C110.663 45.1884 110.616 45.3397 110.535 45.4739C110.455 45.6081 110.344 45.7214 110.211 45.8043L79.7577 63.39C79.5003 63.5401 79.2944 63.4329 79.2944 63.1584C79.3052 63.0023 79.3528 62.8509 79.4333 62.7167C79.5138 62.5825 79.625 62.4693 79.7577 62.3863Z" fill="#3EA635"/>
<path d="M79.7577 65.4119L110.211 47.8262C110.468 47.6804 110.674 47.7833 110.674 48.0621C110.663 48.2182 110.615 48.3694 110.535 48.5035C110.454 48.6377 110.343 48.751 110.211 48.8342L79.7577 66.4199C79.5003 66.5657 79.2944 66.4628 79.2944 66.184C79.3055 66.0279 79.3532 65.8767 79.4337 65.7426C79.5142 65.6084 79.6252 65.4951 79.7577 65.4119Z" fill="#3EA635"/>
<path d="M79.7577 56.3525L110.211 38.7668C110.468 38.6167 110.674 38.7239 110.674 38.9984C110.663 39.1546 110.616 39.3059 110.535 39.4401C110.455 39.5743 110.344 39.6875 110.211 39.7705L79.7577 57.3562C79.5003 57.5063 79.2944 57.3991 79.2944 57.1203C79.3055 56.9648 79.3533 56.8142 79.4338 56.6807C79.5143 56.5473 79.6253 56.4348 79.7577 56.3525Z" fill="#E0E0E0"/>
<path d="M79.7577 59.3674L110.211 41.7817C110.468 41.6358 110.674 41.7388 110.674 42.0176C110.663 42.1736 110.615 42.3248 110.535 42.459C110.454 42.5931 110.343 42.7064 110.211 42.7896L79.7577 60.3753C79.5003 60.5212 79.2944 60.4182 79.2944 60.1394C79.3055 59.9834 79.3532 59.8321 79.4337 59.698C79.5142 59.5639 79.6252 59.4506 79.7577 59.3674Z" fill="#E0E0E0"/>
<path d="M79.7577 62.3863L110.211 44.8006C110.468 44.6505 110.674 44.7578 110.674 45.0323C110.663 45.1884 110.616 45.3397 110.535 45.4739C110.455 45.6081 110.344 45.7214 110.211 45.8043L79.7577 63.39C79.5003 63.5401 79.2944 63.4329 79.2944 63.1584C79.3052 63.0023 79.3528 62.8509 79.4333 62.7167C79.5138 62.5825 79.625 62.4693 79.7577 62.3863Z" fill="#E0E0E0"/>
<path d="M79.7577 65.4119L110.211 47.8262C110.468 47.6804 110.674 47.7833 110.674 48.0621C110.663 48.2182 110.615 48.3694 110.535 48.5035C110.454 48.6377 110.343 48.751 110.211 48.8342L79.7577 66.4199C79.5003 66.5657 79.2944 66.4628 79.2944 66.184C79.3055 66.0279 79.3532 65.8767 79.4337 65.7426C79.5142 65.6084 79.6252 65.4951 79.7577 65.4119Z" fill="#E0E0E0"/>
<path opacity="0.8" d="M79.7577 56.3525L110.211 38.7668C110.468 38.6167 110.674 38.7239 110.674 38.9984C110.663 39.1546 110.616 39.3059 110.535 39.4401C110.455 39.5743 110.344 39.6875 110.211 39.7705L79.7577 57.3562C79.5003 57.5063 79.2944 57.3991 79.2944 57.1203C79.3055 56.9648 79.3533 56.8142 79.4338 56.6807C79.5143 56.5473 79.6253 56.4348 79.7577 56.3525Z" fill="#E0E0E0"/>
<path opacity="0.8" d="M79.7577 59.3674L110.211 41.7817C110.468 41.6358 110.674 41.7388 110.674 42.0176C110.663 42.1736 110.615 42.3248 110.535 42.459C110.454 42.5931 110.343 42.7064 110.211 42.7896L79.7577 60.3753C79.5003 60.5212 79.2944 60.4182 79.2944 60.1394C79.3055 59.9834 79.3532 59.8321 79.4337 59.698C79.5142 59.5639 79.6252 59.4506 79.7577 59.3674Z" fill="#E0E0E0"/>
<path opacity="0.8" d="M79.7577 62.3863L110.211 44.8006C110.468 44.6505 110.674 44.7578 110.674 45.0323C110.663 45.1884 110.616 45.3397 110.535 45.4739C110.455 45.6081 110.344 45.7214 110.211 45.8043L79.7577 63.39C79.5003 63.5401 79.2944 63.4329 79.2944 63.1584C79.3052 63.0023 79.3528 62.8509 79.4333 62.7167C79.5138 62.5825 79.625 62.4693 79.7577 62.3863Z" fill="#E0E0E0"/>
<path opacity="0.8" d="M79.7577 65.4119L110.211 47.8262C110.468 47.6804 110.674 47.7833 110.674 48.0621C110.663 48.2182 110.615 48.3694 110.535 48.5035C110.454 48.6377 110.343 48.751 110.211 48.8342L79.7577 66.4199C79.5003 66.5657 79.2944 66.4628 79.2944 66.184C79.3055 66.0279 79.3532 65.8767 79.4337 65.7426C79.5142 65.6084 79.6252 65.4951 79.7577 65.4119Z" fill="#E0E0E0"/>
<path d="M79.7577 78.228L110.211 60.6423C110.468 60.4922 110.674 60.5994 110.674 60.8739C110.663 61.0301 110.616 61.1814 110.535 61.3156C110.455 61.4498 110.344 61.563 110.211 61.646L79.7577 79.2317C79.5003 79.3818 79.2944 79.2746 79.2944 78.9958C79.3055 78.8403 79.3533 78.6897 79.4338 78.5562C79.5143 78.4228 79.6253 78.3103 79.7577 78.228Z" fill="#E0E0E0"/>
<path d="M79.7577 81.2428L110.211 63.6571C110.468 63.5113 110.674 63.6143 110.674 63.8931C110.663 64.0491 110.615 64.2003 110.535 64.3345C110.454 64.4686 110.343 64.5819 110.211 64.6651L79.7577 82.2508C79.5003 82.3966 79.2944 82.2937 79.2944 82.0149C79.3055 81.8589 79.3532 81.7076 79.4337 81.5735C79.5142 81.4393 79.6252 81.3261 79.7577 81.2428Z" fill="#E0E0E0"/>
<path d="M79.7577 84.2626L110.211 66.6769C110.468 66.5267 110.674 66.634 110.674 66.9085C110.663 67.0646 110.616 67.216 110.535 67.3502C110.455 67.4844 110.344 67.5976 110.211 67.6805L79.7577 85.2662C79.5003 85.4164 79.2944 85.3091 79.2944 85.0346C79.3052 84.8785 79.3528 84.7271 79.4333 84.5929C79.5138 84.4587 79.625 84.3455 79.7577 84.2626Z" fill="#E0E0E0"/>
<path d="M79.7577 87.2875L110.211 69.7018C110.468 69.556 110.674 69.6589 110.674 69.9377C110.663 70.0938 110.615 70.245 110.535 70.3791C110.454 70.5133 110.343 70.6266 110.211 70.7098L79.7577 88.2955C79.5003 88.4413 79.2944 88.3384 79.2944 88.0596C79.3055 87.9035 79.3532 87.7523 79.4337 87.6182C79.5142 87.484 79.6252 87.3707 79.7577 87.2875Z" fill="#E0E0E0"/>
<path opacity="0.8" d="M79.7577 78.228L110.211 60.6423C110.468 60.4922 110.674 60.5994 110.674 60.8739C110.663 61.0301 110.616 61.1814 110.535 61.3156C110.455 61.4498 110.344 61.563 110.211 61.646L79.7577 79.2317C79.5003 79.3818 79.2944 79.2746 79.2944 78.9958C79.3055 78.8403 79.3533 78.6897 79.4338 78.5562C79.5143 78.4228 79.6253 78.3103 79.7577 78.228Z" fill="#E0E0E0"/>
<path opacity="0.8" d="M79.7577 81.2428L110.211 63.6571C110.468 63.5113 110.674 63.6143 110.674 63.8931C110.663 64.0491 110.615 64.2003 110.535 64.3345C110.454 64.4686 110.343 64.5819 110.211 64.6651L79.7577 82.2508C79.5003 82.3966 79.2944 82.2937 79.2944 82.0149C79.3055 81.8589 79.3532 81.7076 79.4337 81.5735C79.5142 81.4393 79.6252 81.3261 79.7577 81.2428Z" fill="#E0E0E0"/>
<path opacity="0.8" d="M79.7577 84.2626L110.211 66.6769C110.468 66.5267 110.674 66.634 110.674 66.9085C110.663 67.0646 110.616 67.216 110.535 67.3502C110.455 67.4844 110.344 67.5976 110.211 67.6805L79.7577 85.2662C79.5003 85.4164 79.2944 85.3091 79.2944 85.0346C79.3052 84.8785 79.3528 84.7271 79.4333 84.5929C79.5138 84.4587 79.625 84.3455 79.7577 84.2626Z" fill="#E0E0E0"/>
<path opacity="0.8" d="M79.7577 87.2875L110.211 69.7018C110.468 69.556 110.674 69.6589 110.674 69.9377C110.663 70.0938 110.615 70.245 110.535 70.3791C110.454 70.5133 110.343 70.6266 110.211 70.7098L79.7577 88.2955C79.5003 88.4413 79.2944 88.3384 79.2944 88.0596C79.3055 87.9035 79.3532 87.7523 79.4337 87.6182C79.5142 87.484 79.6252 87.3707 79.7577 87.2875Z" fill="#E0E0E0"/>
<path d="M79.7577 100.531L110.211 82.9448C110.468 82.7947 110.674 82.9019 110.674 83.1764C110.663 83.3326 110.616 83.4839 110.535 83.6181C110.455 83.7523 110.344 83.8655 110.211 83.9485L79.7577 101.534C79.5003 101.684 79.2944 101.577 79.2944 101.298C79.3055 101.143 79.3533 100.992 79.4338 100.859C79.5143 100.725 79.6253 100.613 79.7577 100.531Z" fill="#E0E0E0"/>
<path d="M79.7577 103.545L110.211 85.9596C110.468 85.8138 110.674 85.9167 110.674 86.1955C110.663 86.3516 110.615 86.5028 110.535 86.637C110.454 86.7711 110.343 86.8844 110.211 86.9676L79.7577 104.553C79.5003 104.699 79.2944 104.596 79.2944 104.317C79.3055 104.161 79.3532 104.01 79.4337 103.876C79.5142 103.742 79.6252 103.629 79.7577 103.545Z" fill="#E0E0E0"/>
<path d="M79.7577 106.567L110.211 88.9817C110.468 88.8316 110.674 88.9388 110.674 89.2133C110.663 89.3694 110.616 89.5208 110.535 89.655C110.455 89.7892 110.344 89.9024 110.211 89.9854L79.7577 107.571C79.5003 107.721 79.2944 107.614 79.2944 107.339C79.3052 107.183 79.3528 107.032 79.4333 106.898C79.5138 106.764 79.625 106.65 79.7577 106.567Z" fill="#E0E0E0"/>
<path d="M79.7577 109.59L110.211 92.0041C110.468 91.8582 110.674 91.9612 110.674 92.24C110.663 92.396 110.615 92.5472 110.535 92.6814C110.454 92.8155 110.343 92.9288 110.211 93.012L79.7577 110.598C79.5003 110.744 79.2944 110.641 79.2944 110.362C79.3055 110.206 79.3532 110.055 79.4337 109.92C79.5142 109.786 79.6252 109.673 79.7577 109.59Z" fill="#E0E0E0"/>
<path opacity="0.8" d="M79.7577 100.531L110.211 82.9448C110.468 82.7947 110.674 82.9019 110.674 83.1764C110.663 83.3326 110.616 83.4839 110.535 83.6181C110.455 83.7523 110.344 83.8655 110.211 83.9485L79.7577 101.534C79.5003 101.684 79.2944 101.577 79.2944 101.298C79.3055 101.143 79.3533 100.992 79.4338 100.859C79.5143 100.725 79.6253 100.613 79.7577 100.531Z" fill="#E0E0E0"/>
<path opacity="0.8" d="M79.7577 103.545L110.211 85.9596C110.468 85.8138 110.674 85.9167 110.674 86.1955C110.663 86.3516 110.615 86.5028 110.535 86.637C110.454 86.7711 110.343 86.8844 110.211 86.9676L79.7577 104.553C79.5003 104.699 79.2944 104.596 79.2944 104.317C79.3055 104.161 79.3532 104.01 79.4337 103.876C79.5142 103.742 79.6252 103.629 79.7577 103.545Z" fill="#E0E0E0"/>
<path opacity="0.8" d="M79.7577 106.567L110.211 88.9817C110.468 88.8316 110.674 88.9388 110.674 89.2133C110.663 89.3694 110.616 89.5208 110.535 89.655C110.455 89.7892 110.344 89.9024 110.211 89.9854L79.7577 107.571C79.5003 107.721 79.2944 107.614 79.2944 107.339C79.3052 107.183 79.3528 107.032 79.4333 106.898C79.5138 106.764 79.625 106.65 79.7577 106.567Z" fill="#E0E0E0"/>
<path opacity="0.8" d="M79.7577 109.59L110.211 92.0041C110.468 91.8582 110.674 91.9612 110.674 92.24C110.663 92.396 110.615 92.5472 110.535 92.6814C110.454 92.8155 110.343 92.9288 110.211 93.012L79.7577 110.598C79.5003 110.744 79.2944 110.641 79.2944 110.362C79.3055 110.206 79.3532 110.055 79.4337 109.92C79.5142 109.786 79.6252 109.673 79.7577 109.59Z" fill="#E0E0E0"/>
<path d="M80.0338 71.2736L82.0455 70.1198C82.4744 69.8839 82.7875 70.077 82.7875 70.5488V72.8649C82.7743 73.1228 82.7001 73.3738 82.5711 73.5975C82.4422 73.8212 82.262 74.0111 82.0455 74.1517L80.0467 75.3055C79.6178 75.5414 79.3047 75.3527 79.3047 74.8766V72.569C79.3155 72.3109 79.3872 72.059 79.5139 71.8339C79.6406 71.6087 79.8188 71.4168 80.0338 71.2736Z" fill="#3EA635"/>
<path opacity="0.2" d="M80.0338 71.2736L82.0455 70.1198C82.4744 69.8839 82.7875 70.077 82.7875 70.5488V72.8649C82.7743 73.1228 82.7001 73.3738 82.5711 73.5975C82.4422 73.8212 82.262 74.0111 82.0455 74.1517L80.0467 75.3055C79.6178 75.5414 79.3047 75.3527 79.3047 74.8766V72.569C79.3155 72.3109 79.3872 72.059 79.5139 71.8339C79.6406 71.6087 79.8188 71.4168 80.0338 71.2736Z" fill="white"/>
<path d="M85.4542 69.1569L97.5326 62.1826C98.0473 61.8867 98.4633 62.0969 98.4633 62.6502C98.4407 62.9626 98.3446 63.2654 98.1828 63.5337C98.0211 63.802 97.7983 64.0283 97.5326 64.1943L85.4542 71.1514C84.9395 71.4473 84.5234 71.2371 84.5234 70.6838C84.5487 70.3743 84.646 70.0751 84.8077 69.8099C84.9693 69.5448 85.1907 69.3211 85.4542 69.1569Z" fill="#3EA635"/>
<path opacity="0.8" d="M85.4542 69.1569L97.5326 62.1826C98.0473 61.8867 98.4633 62.0969 98.4633 62.6502C98.4407 62.9626 98.3446 63.2654 98.1828 63.5337C98.0211 63.802 97.7983 64.0283 97.5326 64.1943L85.4542 71.1514C84.9395 71.4473 84.5234 71.2371 84.5234 70.6838C84.5487 70.3743 84.646 70.0751 84.8077 69.8099C84.9693 69.5448 85.1907 69.3211 85.4542 69.1569Z" fill="white"/>
<path d="M80.0338 93.4056L82.0455 92.2518C82.4744 92.0116 82.7875 92.2046 82.7875 92.6807V94.9883C82.7739 95.246 82.6996 95.497 82.5707 95.7206C82.4417 95.9442 82.2618 96.1342 82.0455 96.275L80.0467 97.4288C79.6178 97.6647 79.3047 97.4717 79.3047 96.9999V94.6923C79.3165 94.4356 79.3887 94.1853 79.5154 93.9617C79.6421 93.7382 79.8197 93.5476 80.0338 93.4056Z" fill="#3EA635"/>
<path opacity="0.2" d="M80.0338 93.4056L82.0455 92.2518C82.4744 92.0116 82.7875 92.2046 82.7875 92.6807V94.9883C82.7739 95.246 82.6996 95.497 82.5707 95.7206C82.4417 95.9442 82.2618 96.1342 82.0455 96.275L80.0467 97.4288C79.6178 97.6647 79.3047 97.4717 79.3047 96.9999V94.6923C79.3165 94.4356 79.3887 94.1853 79.5154 93.9617C79.6421 93.7382 79.8197 93.5476 80.0338 93.4056Z" fill="white"/>
<path d="M85.4542 91.3105L97.5326 84.3319C98.0473 84.036 98.4633 84.2462 98.4633 84.8038C98.4403 85.1161 98.3441 85.4187 98.1824 85.687C98.0207 85.9552 97.7981 86.1816 97.5326 86.3479L85.4542 93.3221C84.9395 93.618 84.5234 93.4079 84.5234 92.8503C84.5467 92.5386 84.6432 92.2367 84.8049 91.9692C84.9666 91.7017 85.189 91.476 85.4542 91.3105Z" fill="#3EA635"/>
<path opacity="0.8" d="M85.4542 91.3105L97.5326 84.3319C98.0473 84.036 98.4633 84.2462 98.4633 84.8038C98.4403 85.1161 98.3441 85.4187 98.1824 85.687C98.0207 85.9552 97.7981 86.1816 97.5326 86.3479L85.4542 93.3221C84.9395 93.618 84.5234 93.4079 84.5234 92.8503C84.5467 92.5386 84.6432 92.2367 84.8049 91.9692C84.9666 91.7017 85.189 91.476 85.4542 91.3105Z" fill="white"/>
<path d="M82.8856 112.889L84.8844 111.735C85.3133 111.499 85.6307 111.692 85.6307 112.164V114.472C85.6166 114.73 85.5417 114.981 85.412 115.205C85.2822 115.428 85.1014 115.618 84.8844 115.758L82.8856 116.912C82.4781 117.152 82.1436 116.959 82.1436 116.483V114.176C82.1585 113.918 82.2333 113.668 82.3622 113.444C82.491 113.221 82.6702 113.031 82.8856 112.889Z" fill="#3EA635"/>
<path d="M79.7577 120.73L88.0058 115.969C88.2631 115.823 88.469 115.926 88.469 116.205C88.4579 116.361 88.4102 116.512 88.3297 116.646C88.2492 116.781 88.1382 116.894 88.0058 116.977L79.7577 121.738C79.5003 121.884 79.2944 121.781 79.2944 121.502C79.3055 121.346 79.3532 121.195 79.4337 121.061C79.5142 120.927 79.6252 120.813 79.7577 120.73Z" fill="#E0E0E0"/>
<path d="M93.9782 106.48L95.977 105.326C96.3845 105.09 96.7191 105.283 96.7191 105.755V108.063C96.7051 108.32 96.6307 108.571 96.5018 108.795C96.3728 109.018 96.1931 109.208 95.977 109.349L93.9782 110.503C93.5493 110.739 93.2319 110.55 93.2319 110.074V107.767C93.2463 107.509 93.3214 107.257 93.4511 107.034C93.5808 106.81 93.7614 106.62 93.9782 106.48Z" fill="#3EA635"/>
<path d="M90.846 114.32L99.0942 109.559C99.3515 109.409 99.5574 109.516 99.5574 109.795C99.5463 109.951 99.4986 110.101 99.418 110.235C99.3375 110.368 99.2265 110.481 99.0942 110.563L90.846 115.328C90.5887 115.478 90.3828 115.371 90.3828 115.097C90.3929 114.94 90.4402 114.788 90.5207 114.653C90.6013 114.518 90.7128 114.404 90.846 114.32Z" fill="#E0E0E0"/>
<path d="M105.066 100.071L107.065 98.9172C107.472 98.677 107.807 98.87 107.807 99.3461V101.654C107.792 101.911 107.718 102.162 107.589 102.385C107.46 102.609 107.281 102.799 107.065 102.94L105.066 104.094C104.637 104.33 104.324 104.137 104.324 103.665V101.358C104.337 101.1 104.412 100.849 104.541 100.625C104.67 100.402 104.85 100.212 105.066 100.071Z" fill="#3EA635"/>
<path opacity="0.2" d="M82.8856 112.889L84.8844 111.735C85.3133 111.499 85.6307 111.692 85.6307 112.164V114.472C85.6166 114.73 85.5417 114.981 85.412 115.205C85.2822 115.428 85.1014 115.618 84.8844 115.758L82.8856 116.912C82.4781 117.152 82.1436 116.959 82.1436 116.483V114.176C82.1585 113.918 82.2333 113.668 82.3622 113.444C82.491 113.221 82.6702 113.031 82.8856 112.889Z" fill="white"/>
<path opacity="0.2" d="M93.9782 106.48L95.977 105.326C96.3845 105.09 96.7191 105.283 96.7191 105.755V108.063C96.7051 108.32 96.6307 108.571 96.5018 108.795C96.3728 109.018 96.1931 109.208 95.977 109.349L93.9782 110.503C93.5493 110.739 93.2319 110.55 93.2319 110.074V107.767C93.2463 107.509 93.3214 107.257 93.4511 107.034C93.5808 106.81 93.7614 106.62 93.9782 106.48Z" fill="white"/>
<path opacity="0.2" d="M105.066 100.071L107.065 98.9172C107.472 98.677 107.807 98.87 107.807 99.3461V101.654C107.792 101.911 107.718 102.162 107.589 102.385C107.46 102.609 107.281 102.799 107.065 102.94L105.066 104.094C104.637 104.33 104.324 104.137 104.324 103.665V101.358C104.337 101.1 104.412 100.849 104.541 100.625C104.67 100.402 104.85 100.212 105.066 100.071Z" fill="white"/>
<path d="M101.948 107.914L110.196 103.153C110.454 103.003 110.659 103.11 110.659 103.385C110.649 103.541 110.601 103.692 110.521 103.826C110.44 103.961 110.329 104.074 110.196 104.157L101.948 108.918C101.695 109.068 101.485 108.961 101.485 108.682C101.497 108.527 101.545 108.377 101.626 108.243C101.706 108.11 101.816 107.997 101.948 107.914Z" fill="#E0E0E0"/>
<path d="M61.0751 36.3487C56.2626 39.0594 52.3638 45.8149 52.3638 51.4338C52.3638 57.0526 56.2626 59.3602 61.0751 56.5808C65.8876 53.8014 69.7865 47.0502 69.7865 41.4914C69.7865 35.9326 65.8833 33.6336 61.0751 36.3487Z" fill="#FAFAFA"/>
<path d="M65.3038 53.664L58.3296 55.5341C58.2095 55.5733 58.0815 55.5819 57.9573 55.5591C57.833 55.5363 57.7164 55.4829 57.618 55.4037C57.5196 55.3245 57.4426 55.2219 57.3938 55.1054C57.345 54.9889 57.3261 54.862 57.3388 54.7363V42.8638C57.3634 41.8811 57.6916 40.9301 58.2784 40.1414C58.8651 39.3527 59.6816 38.7649 60.6157 38.4588L63.0005 37.8197C64.8148 37.3351 66.286 38.5189 66.286 40.4619V52.3387C66.2783 52.6337 66.1798 52.9192 66.0041 53.1563C65.8283 53.3935 65.5838 53.5707 65.3038 53.664Z" fill="#37474F"/>
<path d="M65.6394 56.7343L64.9059 53.496C64.9059 53.496 64.906 49.1253 64.284 48.7221C63.6621 48.319 63.4819 48.2417 63.4819 48.2417C64.2797 47.9672 65.9611 47.7614 66.4844 49.2969C66.9862 50.7466 67.7368 54.3195 68.0928 56.0781L65.6394 56.7343Z" fill="#F28F8F"/>
<path d="M65.5756 56.7508L63.0879 48.2796C64.1902 47.8507 65.6056 47.4947 66.2919 48.6314C66.9096 49.6522 67.8961 55.0008 68.0891 56.0774L65.5756 56.7508Z" fill="#3EA635"/>
<g opacity="0.4">
<path opacity="0.4" d="M65.5756 56.7508L63.0879 48.2796C64.1902 47.8507 65.6056 47.4947 66.2919 48.6314C66.9096 49.6522 67.8961 55.0008 68.0891 56.0774L65.5756 56.7508Z" fill="black"/>
</g>
<path d="M65.9165 56.6605L63.4717 57.3168C63.5701 56.6146 63.8016 55.9377 64.1537 55.3223C64.643 54.6172 65.3471 54.0891 66.161 53.8168C65.9848 54.7542 65.9029 55.7068 65.9165 56.6605Z" fill="#3EA635"/>
<path d="M65.9165 56.6605L63.4717 57.3168C63.5701 56.6146 63.8016 55.9377 64.1537 55.3223C64.643 54.6172 65.3471 54.0891 66.161 53.8168C65.9848 54.7542 65.9029 55.7068 65.9165 56.6605Z" fill="#3EA635"/>
<g opacity="0.7">
<path opacity="0.7" d="M65.9165 56.6605L63.4717 57.3168C63.5701 56.6146 63.8016 55.9377 64.1537 55.3223C64.643 54.6172 65.3471 54.0891 66.161 53.8168C65.9848 54.7542 65.9029 55.7068 65.9165 56.6605Z" fill="black"/>
</g>
<path d="M65.3804 56.804L58.5177 58.6355L57.7628 56.2979C57.7628 56.2979 59.7659 51.6098 57.291 50.4045C57.6041 50.1686 60.242 49.1392 60.242 49.1392L63.0771 48.2814C63.6176 48.1355 65.8008 49.1049 66.3541 51.2538C66.5514 52.013 66.4828 52.695 65.3719 56.6496C65.3847 56.7011 65.3804 56.7525 65.3804 56.804Z" fill="#3EA635"/>
<path d="M64.8257 39.2764C65.2975 39.4479 65.8809 40.5631 65.8251 43.2525C65.7779 45.5343 65.0916 46.2549 64.7485 46.5294C64.2346 46.7867 63.6676 46.9204 63.0929 46.9197V48.2794C63.0929 48.2794 63.985 49.1372 63.9293 49.7892C63.8735 50.4411 62.6425 50.9044 61.8104 50.5183C61.2026 50.1757 60.6771 49.7043 60.2706 49.1372V46.0061C60.2079 46.0783 60.1315 46.1373 60.0459 46.1797C59.9602 46.2221 59.8669 46.247 59.7715 46.253C59.6761 46.259 59.5805 46.2459 59.4901 46.2146C59.3998 46.1832 59.3167 46.1342 59.2455 46.0704C59.1115 45.9788 58.9973 45.8611 58.9096 45.7245C58.8219 45.5879 58.7625 45.4351 58.735 45.2751C58.7074 45.1152 58.7121 44.9513 58.749 44.7932C58.7858 44.6351 58.854 44.486 58.9495 44.3548C59.3784 43.7929 60.129 43.7114 60.4207 44.2733C60.7838 43.392 61.4336 42.659 62.2651 42.193C63.6204 41.3695 64.3582 40.636 64.8257 39.2764Z" fill="#FFA8A7"/>
<path d="M63.4602 43.3183C63.4621 43.3996 63.4388 43.4795 63.3935 43.5471C63.3482 43.6146 63.2831 43.6666 63.2072 43.6957C63.1749 43.7069 63.1404 43.71 63.1067 43.7049C63.073 43.6997 63.041 43.6865 63.0135 43.6662C62.9861 43.6459 62.964 43.6193 62.9492 43.5885C62.9343 43.5578 62.9272 43.5239 62.9283 43.4898C62.9265 43.4085 62.9498 43.3286 62.9951 43.261C63.0404 43.1935 63.1055 43.1416 63.1814 43.1124C63.2137 43.1012 63.2481 43.0981 63.2819 43.1032C63.3156 43.1084 63.3476 43.1217 63.375 43.1419C63.4025 43.1622 63.4246 43.1888 63.4394 43.2196C63.4543 43.2503 63.4614 43.2842 63.4602 43.3183Z" fill="#37474F"/>
<path d="M63.5263 45.2217L64.144 45.2646C64.1259 45.3587 64.0768 45.4441 64.0045 45.5071C63.9322 45.5701 63.8408 45.607 63.7451 45.612C63.5735 45.5991 63.4749 45.4147 63.5263 45.2217Z" fill="#F28F8F"/>
<path d="M65.6465 41.8604L65.1104 41.6073C65.1423 41.5244 65.2037 41.4562 65.2829 41.4158C65.3621 41.3754 65.4534 41.3657 65.5393 41.3886C65.5776 41.4122 65.6109 41.4433 65.6371 41.4799C65.6633 41.5165 65.682 41.558 65.6919 41.602C65.7019 41.6459 65.7031 41.6914 65.6953 41.7358C65.6874 41.7801 65.6709 41.8225 65.6465 41.8604Z" fill="#37474F"/>
<path d="M62.6959 42.8618L63.2321 42.3171C63.2036 42.2882 63.1694 42.2656 63.1316 42.2509C63.0938 42.2361 63.0533 42.2295 63.0128 42.2316C62.9723 42.2336 62.9327 42.2442 62.8965 42.2626C62.8604 42.281 62.8286 42.3069 62.8032 42.3385C62.7287 42.4008 62.6776 42.4864 62.6581 42.5815C62.6387 42.6765 62.652 42.7753 62.6959 42.8618Z" fill="#37474F"/>
<path d="M65.5136 42.5635C65.5161 42.6449 65.4931 42.7251 65.4477 42.7928C65.4023 42.8605 65.3369 42.9123 65.2606 42.9409C65.228 42.9522 65.1931 42.9554 65.159 42.95C65.1249 42.9447 65.0927 42.931 65.0651 42.9102C65.0375 42.8894 65.0155 42.8622 65.001 42.8309C64.9865 42.7996 64.9799 42.7652 64.9818 42.7308C64.9805 42.6496 65.0041 42.5699 65.0493 42.5025C65.0945 42.435 65.1592 42.383 65.2348 42.3533C65.2674 42.342 65.3023 42.3389 65.3364 42.3442C65.3705 42.3496 65.4027 42.3632 65.4303 42.384C65.4579 42.4048 65.4799 42.432 65.4944 42.4633C65.5089 42.4946 65.5155 42.529 65.5136 42.5635Z" fill="#37474F"/>
<path d="M64.2583 42.7352L64.2969 44.438L65.1419 43.9319L64.2583 42.7352Z" fill="#F28F8F"/>
<path d="M63.0877 46.9188C62.41 47.0046 61.0117 46.9489 60.793 46.417C60.8723 46.6782 61.0468 46.9002 61.2819 47.0389C61.7109 47.3134 63.0877 47.3735 63.0877 47.3735V46.9188Z" fill="#F28F8F"/>
<path d="M58.5574 58.6297L58.27 57.6089L59.0249 58.5053L58.5574 58.6297Z" fill="#3EA635"/>
<path d="M57.9964 58.7801C57.6884 57.3127 57.2712 55.8704 56.7482 54.4651C56.0277 52.4878 56.834 50.7807 57.3187 50.4033C57.8034 50.0258 60.2697 49.1379 60.2697 49.1379C61.1618 51.6771 61.4063 55.0785 61.4278 57.8622L57.9964 58.7801Z" fill="#3EA635"/>
<path opacity="0.4" d="M57.9964 58.7801C57.6884 57.3127 57.2712 55.8704 56.7482 54.4651C56.0277 52.4878 56.834 50.7807 57.3187 50.4033C57.8034 50.0258 60.2697 49.1379 60.2697 49.1379C61.1618 51.6771 61.4063 55.0785 61.4278 57.8622L57.9964 58.7801Z" fill="black"/>
<path d="M56.7837 59.1066L54.3346 59.7628C54.2662 59.7167 54.2016 59.6651 54.1416 59.6084C54.1416 59.6084 55.2997 55.1391 55.6686 53.655C56.0374 52.171 56.3205 51.1501 57.3156 50.4038C59.1042 51.5662 58.2764 54.7959 58.2764 54.7959L56.7837 59.1066Z" fill="#3EA635"/>
<path opacity="0.4" d="M56.7837 59.1066L54.3346 59.7628C54.2662 59.7167 54.2016 59.6651 54.1416 59.6084C54.1416 59.6084 55.2997 55.1391 55.6686 53.655C56.0374 52.171 56.3205 51.1501 57.3156 50.4038C59.1042 51.5662 58.2764 54.7959 58.2764 54.7959L56.7837 59.1066Z" fill="black"/>
<path d="M21.1142 30.543V22.0461C21.0885 20.3991 22.1608 18.7477 24.3354 17.4953C28.6246 15.0118 35.5988 15.0118 39.8966 17.4953C42.0712 18.7477 43.1435 20.3991 43.1178 22.0461V30.513C43.1178 32.1515 42.0627 35.081 39.8966 36.3291C35.6074 38.8126 28.6332 38.8126 24.3354 36.3291C22.1908 35.0938 21.1185 32.1858 21.1142 30.5602V30.543Z" fill="#EBEBEB"/>
<path d="M32.1191 11.5046L50.2752 21.9874L32.1191 32.4702L13.9629 21.9874L32.1191 11.5046Z" fill="#F5F5F5"/>
<path d="M23.041 27.2255L31.984 22.1214C32.0209 22.1003 32.0616 22.0866 32.1037 22.0812C32.1459 22.0758 32.1887 22.0788 32.2297 22.0899C32.2708 22.1011 32.3092 22.1202 32.3428 22.1462C32.3765 22.1722 32.4046 22.2046 32.4258 22.2415C32.4469 22.2784 32.4605 22.3191 32.4659 22.3613C32.4713 22.4034 32.4684 22.4462 32.4572 22.4873C32.4461 22.5283 32.4269 22.5667 32.4009 22.6003C32.3749 22.634 32.3426 22.6622 32.3057 22.6833L23.6801 27.5944L23.041 27.2255Z" fill="#E0E0E0"/>
<path d="M50.286 21.9869V22.7375L32.1299 33.216V32.4697L50.286 21.9869Z" fill="#E6E6E6"/>
<path d="M13.9629 21.9869V22.7375L32.1191 33.216V32.4697L13.9629 21.9869Z" fill="#F0F0F0"/>
<path d="M22.583 27.7147L23.1363 28.0321C23.22 27.8954 23.3364 27.7819 23.4752 27.7018L23.6682 27.5903L23.0377 27.23C22.8514 27.3551 22.696 27.5208 22.583 27.7147Z" fill="#E0E0E0"/>
<path d="M43.1531 26.8567L32.1299 34.3413L21.1367 26.8738L32.1299 33.2176L43.1531 26.8567Z" fill="#E0E0E0"/>
<path d="M21.8773 36.5416C22.0312 36.621 22.2018 36.6624 22.3749 36.6624C22.548 36.6624 22.7186 36.621 22.8724 36.5416L23.6916 41.8302C23.6916 42.8296 21.0967 42.8296 21.0967 41.8302L21.8773 36.5416Z" fill="#F5F5F5"/>
<path d="M21.8291 39.5603L21.6661 42.4598C21.6126 42.4436 21.5609 42.422 21.5117 42.3955L21.8291 39.5603Z" fill="#EBEBEB"/>
<path d="M23.0614 42.4798L22.7183 37.7617L23.2287 42.4112C23.1743 42.4374 23.1185 42.4603 23.0614 42.4798Z" fill="#EBEBEB"/>
<path d="M22.477 42.5738H22.314L22.3998 38.8293L22.477 42.5738Z" fill="#EBEBEB"/>
<path d="M22.3796 36.9834C22.5697 36.9787 22.7539 36.9158 22.9072 36.8033C22.9724 36.7551 23.0167 36.6839 23.031 36.6042C23.0454 36.5244 23.0287 36.4422 22.9844 36.3743C22.9376 36.3076 22.8666 36.2617 22.7865 36.2465C22.7064 36.2313 22.6235 36.2479 22.5555 36.2929C22.5147 36.3324 22.46 36.3546 22.4032 36.3546C22.3464 36.3546 22.2917 36.3324 22.2509 36.2929C22.2176 36.2632 22.1784 36.2407 22.1359 36.227C22.0934 36.2133 22.0485 36.2085 22.0041 36.2131C21.9596 36.2177 21.9167 36.2315 21.8778 36.2536C21.839 36.2757 21.8052 36.3056 21.7786 36.3415C21.752 36.3774 21.7332 36.4184 21.7233 36.4619C21.7134 36.5055 21.7127 36.5506 21.7212 36.5945C21.7298 36.6383 21.7473 36.6799 21.7728 36.7166C21.7983 36.7533 21.8311 36.7843 21.8692 36.8076C22.0168 36.918 22.1953 36.9795 22.3796 36.9834Z" fill="#E0E0E0"/>
<path d="M22.3957 36.1602C22.4377 36.1608 22.4795 36.153 22.5185 36.1373C22.5575 36.1216 22.593 36.0983 22.6229 36.0688C22.6528 36.0393 22.6766 36.0041 22.6928 35.9653C22.709 35.9265 22.7174 35.8849 22.7174 35.8428V28.3453C22.7178 28.1768 22.7624 28.0112 22.8467 27.8652C22.931 27.7192 23.052 27.5979 23.1978 27.5132L32.3037 22.3233C32.3761 22.2819 32.4292 22.2137 32.4517 22.1334C32.4741 22.0532 32.4641 21.9673 32.4238 21.8944C32.4037 21.8581 32.3766 21.8263 32.3441 21.8006C32.3116 21.7749 32.2744 21.7559 32.2345 21.7448C32.1946 21.7336 32.1528 21.7304 32.1117 21.7355C32.0706 21.7406 32.0309 21.7538 31.9949 21.7743L22.8675 26.9728C22.6242 27.1133 22.4221 27.3152 22.2813 27.5583C22.1405 27.8014 22.0661 28.0773 22.0654 28.3582V35.8557C22.0671 35.8974 22.0769 35.9384 22.0944 35.9762C22.1119 36.0141 22.1367 36.0482 22.1674 36.0764C22.1981 36.1047 22.234 36.1267 22.2732 36.1411C22.3124 36.1554 22.354 36.162 22.3957 36.1602Z" fill="#FAFAFA"/>
<path d="M23.0919 35.8409C23.0928 35.7016 23.0522 35.5652 22.9754 35.4489C22.8987 35.3327 22.7891 35.2419 22.6607 35.188C22.5322 35.1341 22.3906 35.1195 22.2539 35.1462C22.1172 35.1728 21.9914 35.2395 21.8926 35.3377C21.7938 35.4359 21.7264 35.5612 21.6989 35.6978C21.6714 35.8344 21.6851 35.976 21.7382 36.1048C21.7913 36.2336 21.8815 36.3437 21.9972 36.4212C22.113 36.4987 22.2492 36.54 22.3885 36.54C22.4806 36.5406 22.572 36.5229 22.6573 36.4881C22.7427 36.4532 22.8202 36.4018 22.8856 36.3368C22.951 36.2718 23.0029 36.1945 23.0383 36.1094C23.0737 36.0243 23.0919 35.9331 23.0919 35.8409Z" fill="#F5F5F5"/>
<path d="M21.6945 35.8809C21.7238 35.9535 21.7684 36.0189 21.8253 36.0727C21.8821 36.1264 21.9499 36.1673 22.024 36.1926C22.098 36.2178 22.1767 36.2268 22.2545 36.2189C22.3324 36.211 22.4076 36.1864 22.4751 36.1468C22.5613 36.095 22.6326 36.0217 22.682 35.9341C22.7315 35.8466 22.7575 35.7477 22.7575 35.6472C22.7575 35.5466 22.7315 35.4477 22.682 35.3602C22.6326 35.2726 22.5613 35.1993 22.4751 35.1475C22.6064 35.1656 22.7297 35.2206 22.8309 35.3061C22.9321 35.3916 23.0068 35.5041 23.0466 35.6304C23.0863 35.7568 23.0893 35.8918 23.0552 36.0198C23.0211 36.1479 22.9514 36.2635 22.8541 36.3535C22.7569 36.4434 22.6361 36.5038 22.5058 36.5277C22.3755 36.5516 22.2411 36.538 22.1182 36.4885C21.9954 36.439 21.8891 36.3556 21.8118 36.248C21.7345 36.1405 21.6894 36.0131 21.6816 35.8809H21.6945Z" fill="#EBEBEB"/>
<path d="M146.652 31.7027L143.336 29.794L145.159 29.408L146.974 30.6733L146.652 31.7027Z" fill="#E0E0E0"/>
<path d="M140.854 14.6169C140.854 9.46982 137.701 7.08074 133.828 9.31541L128.106 12.6181C124.246 14.8528 121.085 20.8748 121.085 26.039C121.085 26.2491 121.085 26.4679 121.085 26.6523C121.085 26.7681 121.085 26.8668 121.085 26.9783C121.085 27.0898 121.106 27.1799 121.115 27.2785C121.124 27.3772 121.141 27.5059 121.158 27.6174C121.244 28.2269 121.397 28.8252 121.613 29.4017C121.703 29.6162 121.797 29.8306 121.9 30.0108C121.947 30.1102 122.002 30.2063 122.063 30.2981L122.119 30.3882C122.214 30.5419 122.325 30.6856 122.449 30.8171C122.518 30.8943 122.582 30.9758 122.655 31.0487L122.878 31.2632C122.955 31.3233 123.028 31.3962 123.109 31.4562C123.186 31.5183 123.268 31.5742 123.354 31.6235L123.607 31.7693C123.935 31.9463 124.29 32.0666 124.658 32.1253C124.686 32.1184 124.715 32.1184 124.744 32.1253C124.842 32.1253 124.932 32.1468 125.031 32.1468C125.135 32.1554 125.24 32.1554 125.344 32.1468C125.62 32.1498 125.895 32.1195 126.163 32.0567C126.324 32.0248 126.483 31.9847 126.639 31.9366C127.141 31.7831 127.622 31.5699 128.072 31.3018L133.794 27.9991C134.186 27.7714 134.561 27.5163 134.918 27.2357C134.918 27.167 134.918 27.107 134.918 27.0426C134.918 26.9783 134.918 26.841 134.918 26.7638C134.918 26.5923 134.918 26.4164 134.918 26.2406C134.905 21.8527 137.547 16.6757 140.854 14.6169Z" fill="#E0E0E0"/>
<path d="M141.815 10.9099L138.491 8.99695C138.513 8.99695 138.83 11.3088 138.83 11.3088L141.296 11.6005L141.815 10.9099Z" fill="#E0E0E0"/>
<path d="M126.458 33.3865L123.387 31.6451L125.235 30.8516L126.458 33.3865Z" fill="#E0E0E0"/>
<path d="M128.109 31.3535C128.088 32.6246 127.679 33.8589 126.939 34.8921C126.801 35.0722 127.011 35.2309 127.166 35.1494C127.867 34.7856 128.488 34.2855 128.993 33.6782C129.963 32.5317 130.642 31.1676 130.97 29.7021L128.109 31.3535Z" fill="#E0E0E0"/>
<path d="M126.974 35.1433L130.298 37.0563C130.298 37.0563 132.164 35.4821 132.164 32.2953L128.556 32.0508C128.556 32.0508 128.471 34.1268 126.974 35.1433Z" fill="#E0E0E0"/>
<path d="M135.828 25.766C135.828 25.9262 135.828 26.0806 135.828 26.2293C135.828 26.315 135.828 26.388 135.828 26.4694C135.828 26.5509 135.828 26.6196 135.853 26.6968C135.879 26.774 135.853 26.8683 135.883 26.9541C135.933 27.3341 136.022 27.7078 136.149 28.0693C136.168 28.1352 136.191 28.1997 136.218 28.2623C136.249 28.3485 136.285 28.433 136.325 28.5154C136.359 28.5951 136.397 28.6725 136.441 28.747C136.475 28.8217 136.515 28.8935 136.561 28.9615L136.604 29.0301C136.68 29.1483 136.763 29.2614 136.853 29.3689C136.9 29.4315 136.951 29.4903 137.007 29.5448L137.17 29.7035C137.226 29.7557 137.284 29.8044 137.346 29.8493C137.405 29.8947 137.466 29.9363 137.53 29.9737C137.595 30.0123 137.655 30.0509 137.723 30.0852L137.921 30.1796L138.127 30.2525C138.252 30.2905 138.38 30.322 138.508 30.3469H138.573C138.644 30.3534 138.716 30.3534 138.787 30.3469C138.864 30.3556 138.942 30.3556 139.019 30.3469C139.203 30.3468 139.387 30.3281 139.568 30.2911C139.713 30.2666 139.856 30.2336 139.997 30.1925C140.373 30.0771 140.735 29.9173 141.073 29.7164L145.363 27.2372C145.745 27.0164 146.106 26.7593 146.439 26.4694C146.559 26.3665 146.679 26.255 146.799 26.1435C147.016 25.9421 147.22 25.7287 147.413 25.5044L147.687 25.2556C147.76 25.1698 147.829 25.0797 147.902 24.9897C147.919 24.9585 147.941 24.9297 147.966 24.9039C148.252 24.5263 148.515 24.1324 148.755 23.7244C148.82 23.6171 148.88 23.5056 148.944 23.3941C149.008 23.2826 149.068 23.1711 149.128 23.0553C149.188 22.9394 149.244 22.8236 149.304 22.7121L149.467 22.3604C149.523 22.2446 149.575 22.1202 149.626 22.0087C149.716 21.8028 149.798 21.5798 149.87 21.3825C149.87 21.3439 149.9 21.3053 149.913 21.2667C149.961 21.1466 149.999 21.0265 150.038 20.9064C150.115 20.6748 150.184 20.4431 150.252 20.2029C150.403 19.6392 150.516 19.066 150.591 18.4873C150.591 18.3886 150.612 18.2943 150.625 18.1956C150.638 18.0969 150.625 18.0283 150.647 17.9425C150.668 17.8568 150.647 17.771 150.647 17.6852C150.647 17.5251 150.647 17.3664 150.647 17.2091C150.647 13.3488 148.283 11.5431 145.375 13.2201L141.086 15.7036C138.191 17.3721 135.828 21.8886 135.828 25.766Z" fill="#E0E0E0"/>
<path d="M152.193 14.8684L148.895 12.9725L147.651 13.8518L151.498 16.1808L152.193 14.8684Z" fill="#E0E0E0"/>
<path d="M140.871 31.8838L137.555 29.9751L140.154 29.1987L140.871 31.8838Z" fill="#E0E0E0"/>
<path d="M144.739 27.6519C144.739 28.3381 145.597 29.2732 146.579 29.449C146.712 29.4748 146.678 29.7664 146.519 29.8779C145.934 30.1959 145.258 30.3077 144.602 30.1953C144.175 30.1826 143.76 30.0568 143.398 29.8307C143.036 29.6046 142.741 29.2863 142.543 28.9086L144.739 27.6519Z" fill="#3EA635"/>
<path d="M137.152 11.2244L131.426 14.5314C127.566 16.7661 124.409 22.7881 124.409 27.948C124.409 28.1625 124.409 28.3769 124.409 28.5656C124.409 28.6815 124.409 28.7801 124.409 28.8916C124.409 29.0031 124.431 29.0889 124.443 29.1876C124.456 29.2862 124.469 29.4235 124.486 29.5307C124.564 30.138 124.708 30.7349 124.915 31.3107C125.005 31.5295 125.1 31.7397 125.203 31.9241C125.25 32.0223 125.304 32.1169 125.366 32.2072C125.384 32.2385 125.404 32.2686 125.426 32.2972C125.519 32.4593 125.628 32.6116 125.752 32.7519C125.82 32.8291 125.889 32.9149 125.962 32.9835L126.181 33.198C126.258 33.258 126.335 33.3309 126.412 33.391C126.49 33.4521 126.572 33.508 126.657 33.5583L126.914 33.7041C127.241 33.8804 127.594 34.0007 127.961 34.0601C127.988 34.0506 128.019 34.0506 128.046 34.0601C128.145 34.0601 128.239 34.0601 128.334 34.0601C128.438 34.0665 128.543 34.0665 128.647 34.0601C128.923 34.0613 129.197 34.0311 129.466 33.97C129.627 33.9381 129.786 33.898 129.942 33.8499C130.442 33.6951 130.923 33.4835 131.375 33.2194C131.354 34.49 130.943 35.7235 130.2 36.7537C130.062 36.9382 130.272 37.0969 130.431 37.0154C131.133 36.6512 131.755 36.1494 132.258 35.5399C133.226 34.3933 133.904 33.0312 134.236 31.5681L133.807 31.804L137.079 29.9167C137.396 29.7342 137.701 29.5323 137.993 29.312C137.968 29.2031 137.949 29.0928 137.937 28.9817C137.937 28.9088 137.912 28.8016 137.903 28.69C137.887 28.5949 137.877 28.499 137.873 28.4027V28.3512C137.869 28.2798 137.869 28.2082 137.873 28.1367C137.873 27.9737 137.873 27.8022 137.873 27.6306C137.873 23.2899 140.446 18.396 143.758 16.4787L144.122 16.2642C144.088 11.3016 140.97 9.0198 137.152 11.2244Z" fill="#F0F0F0"/>
<path d="M148.704 15.1218L144.415 17.601C141.511 19.2823 139.144 23.7988 139.144 27.6763C139.144 27.835 139.144 27.9894 139.144 28.1395C139.144 28.2896 139.144 28.2982 139.144 28.3797C139.144 28.4612 139.144 28.5298 139.165 28.607C139.172 28.6919 139.183 28.7764 139.199 28.8601C139.246 29.2419 139.336 29.6174 139.465 29.9796C139.482 30.046 139.505 30.1107 139.534 30.1726C139.563 30.2576 139.597 30.3407 139.637 30.4214C139.671 30.502 139.71 30.5808 139.753 30.6573C139.788 30.7321 139.83 30.8039 139.877 30.8717C139.887 30.8961 139.9 30.9191 139.916 30.9404C139.997 31.0605 140.079 31.172 140.164 31.2792C140.214 31.3408 140.267 31.3995 140.323 31.4551L140.486 31.6138C140.542 31.6659 140.6 31.7146 140.662 31.7596C140.718 31.8059 140.779 31.8475 140.842 31.884C140.906 31.9226 140.966 31.9612 141.035 31.9955L141.232 32.0899L141.438 32.1628C141.564 32.2008 141.691 32.2323 141.82 32.2571H141.884C141.956 32.2637 142.027 32.2637 142.099 32.2571C142.177 32.268 142.256 32.268 142.335 32.2571C142.519 32.2582 142.703 32.241 142.884 32.2057C143.028 32.1808 143.172 32.1478 143.313 32.107C143.69 31.9933 144.051 31.8333 144.389 31.6309L145.839 30.7988C146.04 31.1726 146.336 31.4864 146.698 31.7087C147.06 31.9309 147.474 32.0535 147.898 32.0641C148.555 32.1748 149.23 32.0615 149.815 31.7424C149.969 31.6438 150.008 31.3521 149.871 31.3135C148.889 31.1377 148.035 30.2026 148.035 29.5163L148.687 29.1389C149.069 28.9171 149.429 28.66 149.764 28.3711C149.884 28.2682 150.004 28.1567 150.12 28.0452C150.337 27.8438 150.543 27.6304 150.737 27.4061C150.814 27.316 150.892 27.2302 150.969 27.1273C151.046 27.0243 151.11 26.9557 151.183 26.8656L151.248 26.7798C151.533 26.4022 151.797 26.0084 152.037 25.6003L152.23 25.27C152.294 25.1585 152.354 25.047 152.414 24.9312C152.474 24.8154 152.526 24.6996 152.586 24.5881L152.753 24.2363C152.809 24.1162 152.856 23.9962 152.908 23.8846C152.998 23.6788 153.083 23.4557 153.156 23.2584L153.195 23.1426C153.242 23.0225 153.285 22.9024 153.319 22.7823C153.401 22.5464 153.465 22.3191 153.538 22.0789C153.689 21.5151 153.802 20.942 153.877 20.3632C153.877 20.2645 153.898 20.1702 153.907 20.0715C153.916 19.9729 153.907 19.9 153.928 19.8185C153.95 19.737 153.928 19.6469 153.928 19.5611C153.928 19.4024 153.928 19.2394 153.928 19.0807C153.976 15.2333 151.608 13.4447 148.704 15.1218Z" fill="#F0F0F0"/>
<path d="M114.249 71.8583C112.627 71.3522 110.963 72.6647 109.874 75.3154C108.784 77.9661 106.498 84.7088 106.159 86.5059C105.821 88.3031 113.49 92.2148 113.275 92.1119C113.061 92.009 114.249 71.8583 114.249 71.8583Z" fill="#263238"/>
<path d="M110.684 134.249C110.452 134.335 110.397 134.773 110.362 135.639C110.336 136.295 110.195 137.44 110.963 137.668C111.73 137.895 112.859 137.779 113.352 137.162C113.965 136.39 114.381 135.712 115.256 134.768C116.02 133.953 116.839 133.19 117.148 132.045C117.427 131.007 117.195 130.561 116.487 130.26C115.518 129.831 113.991 131.195 113.232 131.41C112.575 131.594 110.911 134.163 110.684 134.249Z" fill="#263238"/>
<path d="M110.68 133.446V134.509C111.079 134.765 111.54 134.906 112.014 134.919C112.488 134.932 112.956 134.816 113.369 134.582C113.416 134.479 113.648 133.06 113.648 133.06L110.68 133.446Z" fill="#FFA8A7"/>
<path d="M119.298 140.381C119.298 140.381 118.993 141.307 118.83 142.097C118.697 142.74 118.513 143.812 118.736 144.301C118.959 144.79 119.843 145.099 121.202 145.086C122.086 145.086 123.463 145.682 124.402 146.206C125.341 146.729 127.405 146.965 128.43 146.845C129.639 146.703 130.896 145.987 131.093 145.498C131.291 145.009 131.029 144.473 128.172 143.255C128.147 143.255 124.201 141.968 122.815 140.437L119.298 140.381Z" fill="#263238"/>
<path d="M119.296 139.231C119.296 139.231 119.296 140.021 119.296 140.471C119.296 140.921 119.828 141.595 121.209 141.548C122.178 141.513 122.852 141.252 122.813 140.454V139.3L119.296 139.231Z" fill="#FFA8A7"/>
<path d="M109.983 119.321C110.22 117.436 110.641 115.579 111.239 113.776C111.239 113.776 110.862 108.993 110.678 104.459C110.48 99.5612 110.678 93.4019 110.596 92.1837C110.596 92.1837 126.402 88.984 126.685 94.6457C126.968 100.307 126.059 114.719 125.874 117.207C125.69 119.695 125.257 121.895 124.742 125.927C124.227 129.959 122.812 139.301 122.812 139.301C122.265 139.579 121.658 139.719 121.045 139.707C120.431 139.695 119.83 139.532 119.295 139.232C119.295 139.232 118.184 127.908 118.299 125.039C118.39 122.908 118.756 120.797 119.389 118.76L118.827 110.031C118.561 105.969 118.282 104.026 118.218 102.255L117.879 102.083C117.879 102.083 117.532 109.092 117.347 111.579C117.163 114.067 116.764 116.452 116.061 121.071C115.434 125.078 113.577 133.557 113.577 133.557C111.771 134.535 110.695 133.433 110.695 133.433C110.695 133.433 109.502 122.796 109.983 119.321Z" fill="#455A64"/>
<path d="M118.223 102.269C118.223 102.269 114.389 100.378 112.472 98.6749C112.472 98.6749 114.252 101.184 116.594 102.299C116.594 102.299 117.426 111.002 117.421 110.83L117.902 102.252L118.223 102.269Z" fill="#37474F"/>
<path d="M121.643 70.0641L120.708 75.2111L116.058 74.8723L117.032 69.0347L121.643 70.0641Z" fill="#FFA8A7"/>
<path d="M111.146 74.4966C111.605 73.0983 113.381 71.5756 115.157 71.9231C117.798 72.3699 120.4 73.0194 122.942 73.8661C124.567 74.4451 126.047 75.852 126.184 81.2049L127.008 97.1435L125.039 97.5724L124.353 93.9609L124.035 97.5724C121.976 98.0871 118.404 97.6625 116.057 97.1435C111.168 96.0755 110.58 94.0467 110.58 94.0467C110.58 94.0467 110.516 85.078 110.662 81.2049C110.799 77.8936 110.829 75.4402 111.146 74.4966Z" fill="#37474F"/>
<path d="M125.083 63.9653C125.083 63.9653 126.211 65.6338 126.065 65.8097C125.804 65.9854 125.513 66.1119 125.207 66.1828L125.083 63.9653Z" fill="#FFA8A7"/>
<path d="M121.642 58.6815C122.727 59.2306 124.602 60.2428 125.117 64.2103C125.648 68.2851 124.949 69.5975 124.4 70.138C124.027 70.5026 122.003 70.524 120.99 70.2195C119.704 69.8377 116.864 68.7526 115.56 66.6595C114.025 64.1975 113.682 60.8991 115.414 59.5866C117.846 57.7422 120.724 58.2183 121.642 58.6815Z" fill="#FFA8A7"/>
<path d="M125.335 60.0463C124.979 61.0242 124.379 63.4176 121.882 64.417C121.882 64.417 121.526 62.89 120.244 63.053C118.961 63.216 118.743 64.8502 119.532 65.8667C120.321 66.8833 121.084 66.5144 121.084 66.5144C121.084 66.5144 121.256 68.7019 119.798 69.6927C119.798 69.6927 118.035 70.8079 116.169 69.95C115.311 69.564 114.14 67.5524 113.445 65.901C111.97 62.4096 111.76 59.6088 113.986 58.7252C114.26 57.1382 114.977 56.542 116.413 56.2461C119.506 55.607 121.844 57.6401 124.443 57.2841C125.803 57.0953 125.742 58.9311 125.335 60.0463Z" fill="#37474F"/>
<path d="M113.937 59.2557L112.479 58.355C112.535 58.2539 112.611 58.1654 112.703 58.0946C112.795 58.0239 112.9 57.9724 113.012 57.9434C113.124 57.9143 113.241 57.9082 113.355 57.9255C113.47 57.9428 113.579 57.983 113.678 58.0439C113.776 58.1047 113.862 58.1849 113.928 58.2795C113.995 58.3742 114.042 58.4813 114.066 58.5945C114.09 58.7078 114.091 58.8247 114.069 58.9383C114.047 59.052 114.002 59.1599 113.937 59.2557Z" fill="#37474F"/>
<path d="M121.3 71.939L121.832 73.4789C121.832 73.4789 121.442 74.1651 119.782 74.1995C118.122 74.2338 116.351 73.7062 115.802 72.9985C115.677 72.8599 115.584 72.6953 115.531 72.5165C115.477 72.3377 115.464 72.1492 115.493 71.9648C115.493 71.9648 116.153 70.5065 116.78 70.5708L116.677 71.2056C116.677 71.2056 116.818 71.7246 118.324 72.1235C120.666 72.7454 121.3 71.939 121.3 71.939Z" fill="#455A64"/>
<path d="M134.631 82.1744C135.3 81.4066 135.558 79.7038 136.45 78.5372C137.342 77.3705 137.672 76.5169 138.024 77.0274C138.492 77.7008 137.436 79.0519 137.672 79.1719C137.908 79.292 138.779 81.0849 138.869 82.0714C138.959 83.058 136.343 85.5457 136.343 85.5457L134.631 82.1744Z" fill="#FFA8A7"/>
<path d="M121.3 71.9393C121.408 71.9372 121.515 71.9644 121.608 72.018C121.702 72.0717 121.779 72.1497 121.832 72.2439C122.094 72.7175 122.329 73.2059 122.536 73.7065L121.832 73.4791L121.3 71.9393Z" fill="#455A64"/>
<path d="M137.597 79.0335C137.597 79.0335 140.758 78.759 141.217 79.0335C141.676 79.308 141.538 80.6763 141.217 81.5169C140.895 82.3576 139.282 82.9024 137.785 83.9146C137.785 83.7602 137.597 79.0335 137.597 79.0335Z" fill="#FFA8A7"/>
<path d="M122.533 73.7236C123.893 74.1997 125.081 74.7445 126.35 77.1293C127.98 80.1917 131.069 85.09 131.069 85.09L134.624 81.9546C134.624 81.9546 135.16 81.4356 136.16 83.0869C136.453 83.5315 136.638 84.0381 136.701 84.5666C136.765 85.0951 136.704 85.6312 136.524 86.1323C136.524 86.1323 132.42 90.949 131.635 91.6825C130.85 92.4159 129.55 91.8455 128.705 90.6917C127.86 89.5379 122.52 82.8682 122.52 82.8682C122.52 82.8682 119.621 79.0165 122.533 73.7236Z" fill="#37474F"/>
<path d="M159.202 65.7147H149.076C148.693 65.7147 148.327 65.5629 148.057 65.2926C147.786 65.0223 147.634 64.6558 147.634 64.2736V48.1848C147.634 46.9187 148.137 45.7044 149.033 44.8092C149.928 43.9139 151.142 43.4109 152.408 43.4109H155.883C157.146 43.4143 158.357 43.9188 159.25 44.8137C160.142 45.7086 160.644 46.9209 160.644 48.1848V64.2736C160.644 64.6558 160.492 65.0223 160.221 65.2926C159.951 65.5629 159.585 65.7147 159.202 65.7147Z" fill="#37474F"/>
<path d="M147.378 60.2249C146.396 63.1201 144.749 71.4497 144.749 71.4497C144.749 71.4497 141.318 75.6446 140.198 76.6611C139.585 77.2273 138.204 78.2438 138.204 78.2438L140.713 80.0882C142.978 78.3456 145.106 76.4313 147.078 74.3621C147.516 73.8955 147.824 73.3214 147.97 72.6979L149.686 65.3376C149.686 65.3376 149.686 59.4185 150.591 58.6422C151.496 57.8658 151.757 57.7029 151.757 57.7029C150.595 57.6171 148.15 57.9473 147.378 60.2249Z" fill="#F28F8F"/>
<path d="M152.285 57.6178C150.685 57.4334 148.635 57.4677 147.635 59.2563C146.636 61.0449 144.972 70.2924 144.972 70.2924C144.972 70.2924 146.546 71.5148 148.244 71.4934L152.285 57.6178Z" fill="#3EA635"/>
<path d="M147.839 66.2351C148.127 67.6136 148.238 69.0233 148.169 70.4299C148.045 72.2829 146.767 75.5169 146.767 75.5169C146.767 75.5169 147.766 76.615 150.584 76.1732C152.879 75.8172 152.068 68.8815 150.751 67.5519C149.983 66.7585 148.942 66.2876 147.839 66.2351Z" fill="#3EA635"/>
<path opacity="0.3" d="M147.839 66.2351C148.127 67.6136 148.238 69.0233 148.169 70.4299C148.045 72.2829 146.767 75.5169 146.767 75.5169C146.767 75.5169 147.766 76.615 150.584 76.1732C152.879 75.8172 152.068 68.8815 150.751 67.5519C149.983 66.7585 148.942 66.2876 147.839 66.2351Z" fill="black"/>
<path d="M153.139 115.218C153.157 115.535 153.078 115.849 152.912 116.119C152.487 116.82 151.988 117.473 151.423 118.066C150.63 118.924 149.442 119.932 148.588 120.674C148.116 121.103 148.099 121.712 148.777 121.931C150.04 122.238 151.373 122.053 152.504 121.412C153.362 120.957 154.554 118.838 155.258 118.538C156.069 118.173 156.519 117.993 156.793 117.62C157.001 117.408 157.13 117.132 157.161 116.837C157.191 116.541 157.121 116.245 156.961 115.995C156.579 115.283 156.004 114.189 155.768 114.313L155.841 114.536C155.657 115.115 154.078 115.789 153.268 115.63L153.139 115.218Z" fill="#37474F"/>
<path d="M161.406 91.0177C161.771 87.1574 162.817 80.9466 161.745 76.3486L147.505 77.1035C147.11 81.6372 146.647 95.7916 147.145 97.4129C147.719 99.3259 152.854 112.567 153.149 115.23C153.17 115.543 153.09 115.854 152.922 116.118C152.498 116.821 151.999 117.475 151.434 118.07C151.048 118.499 150.576 118.927 150.078 119.356C150.037 119.418 150.012 119.488 150.006 119.562C150.006 119.991 151.086 120.124 151.721 119.94C152.513 119.66 153.195 119.136 153.668 118.443C154.033 117.958 154.852 117.027 155.384 116.328C155.562 116.112 155.713 115.876 155.835 115.625C155.977 115.311 156.001 114.956 155.903 114.625L155.869 114.518C155.59 113.65 155.418 112.751 155.354 111.842C155.157 108.921 154.655 102.174 154.192 100.377C153.87 99.0671 153.381 97.8043 152.738 96.6194L154.363 83.9705C154.363 83.9705 154.535 95.1224 155.041 97.9662C155.44 100.244 155.594 103.092 156.062 106.999C156.491 110.739 156.988 117.328 156.988 117.328C157.001 117.33 157.014 117.33 157.027 117.328V120.476H159.691V118.649C159.691 117.824 159.759 117 159.896 116.187C160.325 113.699 161.217 108.007 161.402 106.081C161.694 103.027 160.591 99.1886 160.591 99.1886C160.591 99.1886 161.05 94.7836 161.406 91.0177Z" fill="#FFA8A7"/>
<path d="M156.39 57.7507C156.39 57.7507 160.22 58.1797 160.679 58.3984C157.085 60.9247 159.997 66.5479 159.997 66.5479L158.62 70.8671C160.151 72.8272 161.472 73.9939 162.292 76.1428C163.201 78.5447 164.007 82.1176 163.793 89.4393C160.362 92.0128 149.922 91.734 145.855 89.4393C145.855 89.4393 146.542 82.9755 147.352 77.9528C147.889 74.6373 149.154 71.0258 148.939 69.8034C147.327 64.8451 147.224 63.9529 147.515 62.8463C148.317 59.7323 151.491 57.6263 152.272 57.6263L156.39 57.7507Z" fill="#3EA635"/>
<path opacity="0.6" d="M156.39 57.7507C156.39 57.7507 160.22 58.1797 160.679 58.3984C157.085 60.9247 159.997 66.5479 159.997 66.5479L158.62 70.8671C160.151 72.8272 161.472 73.9939 162.292 76.1428C163.201 78.5447 164.007 82.1176 163.793 89.4393C160.362 92.0128 149.922 91.734 145.855 89.4393C145.855 89.4393 146.542 82.9755 147.352 77.9528C147.889 74.6373 149.154 71.0258 148.939 69.8034C147.327 64.8451 147.224 63.9529 147.515 62.8463C148.317 59.7323 151.491 57.6263 152.272 57.6263L156.39 57.7507Z" fill="white"/>
<path d="M157.007 119.142V118.76C156.672 120.043 156.003 121.214 155.068 122.153C154.21 122.929 153.052 123.83 152.752 124.701C152.451 125.572 154.129 125.962 155.235 125.85C156.307 125.719 157.295 125.203 158.015 124.396C158.718 123.59 158.705 123.041 159.031 122.595C159.357 122.149 160.116 121.66 160.292 121.145C160.347 120.665 160.294 120.178 160.138 119.721C160.013 119.245 159.876 118.717 159.709 118.76V119.056C159.323 119.36 158.844 119.522 158.353 119.515C157.98 119.524 157.002 119.442 157.007 119.142Z" fill="#37474F"/>
<path d="M159.69 119.047C159.304 119.351 158.826 119.513 158.335 119.506C157.94 119.506 156.979 119.442 156.984 119.142V118.76C156.649 120.042 155.98 121.213 155.045 122.153L154.397 122.732C153.943 123.238 154.071 123.68 155.139 123.77C156.207 123.86 157.147 123.216 157.953 122.226C158.64 121.229 159.223 120.164 159.69 119.047Z" fill="#FFA8A7"/>
<path d="M149.775 46.0408C149.089 46.4482 148.24 48.1854 148.321 51.7969C148.394 54.8679 149.389 55.6271 149.891 55.8459C150.393 56.0646 151.354 55.9317 152.289 55.7772V57.6173C152.289 57.6173 151.002 59.1228 151.075 59.9678C151.148 60.8127 152.945 61.0101 154.159 60.1865C155.035 59.507 155.79 58.6831 156.389 57.7503L156.368 53.5168C156.368 53.5168 156.921 54.0487 157.856 53.2337C158.628 52.5603 158.886 51.4194 158.285 50.8104C158.129 50.6638 157.941 50.5566 157.735 50.4977C157.529 50.4389 157.312 50.4301 157.102 50.472C156.892 50.514 156.696 50.6055 156.528 50.739C156.361 50.8725 156.228 51.044 156.141 51.2393C156.141 51.2393 155.622 49.7938 153.464 49.0947C151.517 48.447 150.457 47.7136 149.775 46.0408Z" fill="#FFA8A7"/>
<path d="M151.754 51.0285C151.754 51.1041 151.777 51.178 151.818 51.241C151.86 51.3041 151.919 51.3535 151.989 51.3832C152.059 51.4128 152.135 51.4214 152.21 51.4078C152.284 51.3943 152.353 51.3592 152.407 51.3069C152.462 51.2546 152.5 51.1874 152.517 51.1137C152.534 51.04 152.528 50.963 152.502 50.8922C152.475 50.8215 152.428 50.7601 152.367 50.7157C152.306 50.6713 152.233 50.6458 152.158 50.6424C152.106 50.6413 152.054 50.6504 152.006 50.6692C151.958 50.6879 151.913 50.7161 151.876 50.7519C151.839 50.7878 151.809 50.8306 151.788 50.8781C151.767 50.9255 151.756 50.9766 151.754 51.0285Z" fill="#37474F"/>
<path d="M151.654 53.6285L150.758 53.9159C150.774 53.9758 150.801 54.0318 150.839 54.0806C150.877 54.1295 150.925 54.1702 150.979 54.2002C151.033 54.2303 151.092 54.2491 151.154 54.2555C151.216 54.2619 151.278 54.2558 151.337 54.2376C151.458 54.1963 151.558 54.11 151.617 53.9966C151.677 53.8832 151.69 53.7514 151.654 53.6285Z" fill="#F28F8F"/>
<path d="M148.582 49.8424L149.363 49.302C149.33 49.2492 149.287 49.2037 149.236 49.1682C149.184 49.1327 149.127 49.108 149.066 49.0956C149.005 49.0831 148.942 49.0832 148.881 49.0958C148.82 49.1085 148.762 49.1334 148.711 49.169C148.607 49.2427 148.535 49.3541 148.511 49.4797C148.487 49.6053 148.512 49.7354 148.582 49.8424Z" fill="#37474F"/>
<path d="M152.876 50.1337L152.091 49.5932C152.124 49.5406 152.168 49.4951 152.219 49.4596C152.27 49.424 152.327 49.3991 152.388 49.3863C152.449 49.3735 152.512 49.373 152.573 49.385C152.634 49.397 152.692 49.4211 152.743 49.456C152.847 49.5311 152.919 49.6428 152.943 49.7686C152.968 49.8944 152.944 50.0249 152.876 50.1337Z" fill="#37474F"/>
<path d="M148.773 50.7468C148.772 50.8226 148.794 50.8969 148.835 50.9606C148.876 51.0242 148.935 51.0742 149.005 51.1046C149.074 51.1349 149.151 51.144 149.226 51.131C149.3 51.1179 149.369 51.0832 149.424 51.0311C149.479 50.9789 149.518 50.9118 149.535 50.838C149.552 50.7642 149.547 50.6869 149.521 50.6159C149.494 50.5449 149.447 50.4832 149.386 50.4386C149.325 50.394 149.252 50.3685 149.176 50.3651C149.072 50.3628 148.972 50.4016 148.896 50.4731C148.821 50.5445 148.776 50.6429 148.773 50.7468Z" fill="#37474F"/>
<path d="M150.586 50.5281L150.526 52.8528L149.303 52.4754L150.586 50.5281Z" fill="#F28F8F"/>
<path d="M152.282 55.778C153.269 55.6451 155.285 55.0617 155.619 54.2596C155.492 54.6659 155.243 55.0236 154.907 55.2848C154.298 55.8038 152.282 56.3914 152.282 56.3914V55.778Z" fill="#F28F8F"/>
<path d="M159.289 68.5125L156.583 72.1754L158.624 70.8672L159.289 68.5125Z" fill="#3EA635"/>
<path d="M137.962 78.2444C137.383 78.9907 137.027 80.4404 136.722 80.9294C136.418 81.4184 136.053 81.843 136.722 81.9331C137.391 82.0231 138.369 80.7149 138.734 79.9214C138.919 79.4739 139.267 79.1135 139.708 78.9135C139.395 78.8063 139.557 77.5495 139.339 77.3737C139.339 77.3737 138.198 77.8412 137.962 78.2444Z" fill="#F28F8F"/>
<path d="M137.796 83.9068C138.401 83.4565 138.422 82.9032 138.538 82.0239C138.654 81.1446 141.077 80.1924 141.154 80.8486C141.232 81.5049 141.45 82.0539 140.725 82.8517C140.001 83.6495 138.903 84.4987 137.796 83.9068Z" fill="#F28F8F"/>
<path d="M156.391 57.7505C156.391 57.7505 159.977 58.0636 160.68 58.3982C161.384 58.7327 162.555 60.7572 161.508 63.6953C160.462 66.6334 159.51 70.0905 159.617 70.7854C159.724 71.4802 162.225 75.0746 162.225 75.0746C161.535 75.5838 160.755 75.9578 159.926 76.1769L158.639 73.3803L158.939 76.3527C157.647 76.667 156.319 76.8112 154.989 76.7817C154.989 76.7817 153.775 65.3638 156.391 57.7505Z" fill="#3EA635"/>
<path d="M165.226 71.7551C165.514 70.0651 165.226 69.5118 164.634 67.8562L161.632 69.7992C161.878 70.4242 162.023 71.0844 162.061 71.7551C162.035 72.244 161.37 77.0908 160.748 78.7808C160.636 79.0813 160.416 79.3291 160.131 79.4756C159.512 79.8533 158.952 80.3185 158.466 80.8567C158.008 81.2857 157.639 81.3629 157.686 81.5087C157.757 81.6668 157.883 81.7932 158.042 81.8636C158.2 81.9341 158.379 81.9436 158.544 81.8904C158.917 81.7691 159.276 81.605 159.612 81.4015C159.314 82.0323 158.917 82.6115 158.436 83.1171C157.334 84.2924 157.235 85.0559 159.294 85.2146C160.581 85.3132 161.658 84.5926 162.82 81.8261C163.18 80.8119 163.477 79.7762 163.708 78.725C164.334 76.3274 164.943 73.4579 165.226 71.7551Z" fill="#FFA8A7"/>
<path d="M160.673 58.3992C162.119 59.0468 162.531 60.325 163.067 62.2037C163.603 64.0823 165.284 69.7184 165.284 69.7184C165.284 69.7184 163.843 71.434 161.853 70.9536L159.279 64.7043C159.279 64.7043 158.078 60.6253 160.673 58.3992Z" fill="#3EA635"/>
</svg>
