<svg width="185" height="172" viewBox="0 0 185 172" fill="none" xmlns="http://www.w3.org/2000/svg">
<path d="M92.3523 171.308C143.357 171.308 184.705 147.435 184.705 117.986C184.705 88.5371 143.357 64.6641 92.3523 64.6641C41.3475 64.6641 0 88.5371 0 117.986C0 147.435 41.3475 171.308 92.3523 171.308Z" fill="#F5F5F5"/>
<path d="M25.7307 151.721L24.4748 150.981C24.2668 150.843 24.0938 150.659 23.9695 150.443C23.8452 150.228 23.773 149.985 23.7588 149.737V56.6484C23.7736 56.4004 23.8461 56.1591 23.9703 55.9439C24.0946 55.7287 24.2673 55.5454 24.4748 55.4085L82.2324 22.0578C82.4552 21.946 82.7011 21.8877 82.9504 21.8877C83.1997 21.8877 83.4456 21.946 83.6684 22.0578L84.9243 22.7858C85.1325 22.9222 85.306 23.1054 85.431 23.3206C85.556 23.5359 85.629 23.7773 85.6443 24.0258V117.13C85.6296 117.379 85.5569 117.621 85.4319 117.837C85.3068 118.053 85.133 118.237 84.9243 118.374L27.1667 151.721C26.9439 151.833 26.698 151.891 26.4487 151.891C26.1994 151.891 25.9535 151.833 25.7307 151.721Z" fill="#37474F"/>
<path d="M85.6363 23.9098C85.5843 23.5418 85.2843 23.4058 84.9243 23.6138L27.1667 56.9604C26.9544 57.0911 26.7794 57.2743 26.6587 57.4924L23.9668 55.9405C24.0887 55.7232 24.2634 55.5402 24.4748 55.4085L82.2325 22.0578C82.4552 21.946 82.7011 21.8877 82.9504 21.8877C83.1997 21.8877 83.4456 21.946 83.6684 22.0578L84.9243 22.7858C85.1167 22.9111 85.2799 23.0763 85.4027 23.2703C85.5256 23.4642 85.6052 23.6823 85.6363 23.9098Z" fill="#455A64"/>
<path d="M27.0387 151.781C27.0255 151.784 27.0118 151.784 26.9987 151.781L26.9227 151.809H26.8947C26.8507 151.809 26.8067 151.833 26.7627 151.845C26.4781 151.9 26.1839 151.878 25.9107 151.781C25.8556 151.761 25.8021 151.737 25.7507 151.709L24.4748 150.981C24.2668 150.843 24.0938 150.659 23.9695 150.443C23.8452 150.227 23.773 149.985 23.7588 149.737V56.6484C23.7676 56.3987 23.8391 56.1552 23.9668 55.9404L26.6587 57.4924C26.5285 57.7063 26.4555 57.9501 26.4467 58.2003V151.309C26.4403 151.442 26.4782 151.575 26.5547 151.685C26.6034 151.74 26.6665 151.781 26.7371 151.803C26.8078 151.825 26.883 151.827 26.9547 151.809L27.0387 151.781Z" fill="#263238"/>
<path d="M47.2896 52.9124C47.271 52.8147 47.2269 52.7236 47.1617 52.6484L47.1137 52.6084C47.0759 52.58 47.0315 52.5614 46.9847 52.5544C46.9379 52.5474 46.8901 52.5522 46.8457 52.5684C46.81 52.577 46.7761 52.5919 46.7457 52.6124C46.568 52.7348 46.4292 52.9055 46.3457 53.1044C46.2388 53.3296 46.1815 53.5751 46.1777 53.8244C46.1616 54.0107 46.219 54.1958 46.3377 54.3404C46.3903 54.3912 46.459 54.4222 46.532 54.428C46.6049 54.4338 46.6776 54.4142 46.7377 54.3724C46.8233 54.3207 46.8991 54.2544 46.9617 54.1764C47.0187 54.102 47.0696 54.0231 47.1137 53.9404C47.2365 53.6997 47.3035 53.4345 47.3096 53.1644C47.3119 53.0799 47.3052 52.9955 47.2896 52.9124ZM56.6813 31.9253C56.4728 31.8028 56.2351 31.7392 55.9933 31.7413C55.5344 31.7627 55.0885 31.9003 54.6974 32.1412C53.6056 32.8094 52.7627 33.8167 52.2974 35.0091C52.2215 35.1771 52.1495 35.3531 52.0855 35.5251C52.0215 35.6971 51.9535 35.8731 51.8975 36.0531C51.8415 36.2331 51.7775 36.4131 51.7255 36.5931C51.7055 36.6531 51.6895 36.7171 51.6695 36.7731L51.5655 37.137C51.5672 37.1543 51.5672 37.1718 51.5655 37.189C51.5055 37.409 51.4495 37.637 51.3855 37.861C51.3535 37.985 51.3255 38.101 51.2935 38.221L51.2015 38.577C51.0735 39.053 50.9455 39.5089 50.8015 39.9449L50.7095 40.2089C50.6655 40.3329 50.6215 40.4569 50.5735 40.5769C50.5255 40.6969 50.4975 40.7609 50.4615 40.8449C50.4015 40.9929 50.3375 41.1329 50.2695 41.2689C50.2015 41.4049 50.1855 41.4409 50.1415 41.5249C49.1296 43.4688 47.8936 44.2288 47.1777 45.2287C46.5497 46.1007 46.3777 46.7967 45.5297 48.1766C45.2617 48.6166 44.9257 49.1246 44.4858 49.7325C43.2658 51.4125 42.8298 52.2444 42.6818 52.7484C42.6802 52.7617 42.6802 52.7751 42.6818 52.7884C42.6818 52.8284 42.6818 52.8644 42.6538 52.9004C42.6524 52.9124 42.6524 52.9245 42.6538 52.9364C42.6522 52.9684 42.6522 53.0004 42.6538 53.0324C42.6399 53.1304 42.6332 53.2294 42.6338 53.3284V57.0642L43.9778 57.8402V54.1004C43.9744 53.9051 44.0028 53.7106 44.0618 53.5244C44.2098 53.0204 44.6418 52.1924 45.8657 50.5125C46.3057 49.9005 46.6417 49.3925 46.9097 48.9526C47.7496 47.5766 47.9296 46.8767 48.5576 46.0127C49.2736 45.0087 50.5095 44.2528 51.5215 42.3048C51.6674 42.0055 51.7969 41.6983 51.9095 41.3849C52.5574 39.7849 52.8494 37.629 53.6454 35.8171C54.1098 34.6263 54.9532 33.6213 56.0453 32.9572C56.8653 32.4852 57.4652 32.4452 57.9252 32.6612L56.6813 31.9253ZM62.573 36.7011C62.4613 36.6374 62.3416 36.589 62.2171 36.5571C61.7091 36.4371 60.9531 36.7331 60.1931 36.6451C61.2611 38.025 62.745 37.137 63.561 37.333C63.6879 37.3634 63.8094 37.4133 63.921 37.481L62.573 36.7011ZM65.4209 41.8329C65.381 41.8573 65.3435 41.8854 65.3089 41.9169L65.2529 41.9728L65.2009 42.0328C64.9766 42.3228 64.853 42.6782 64.8489 43.0448C64.8356 43.2289 64.8912 43.4114 65.0049 43.5568C65.0201 43.5711 65.0361 43.5844 65.0529 43.5968C65.09 43.6252 65.1336 43.6438 65.1798 43.6508C65.2259 43.6578 65.2731 43.653 65.3169 43.6368C65.3538 43.628 65.389 43.6131 65.4209 43.5928C65.4609 43.5688 65.4969 43.5368 65.5369 43.5088C65.595 43.4544 65.6473 43.394 65.6929 43.3288C65.8833 43.0504 65.9876 42.7221 65.9929 42.3848C65.9929 41.9009 65.7369 41.6489 65.4209 41.8329ZM66.3009 38.453C65.8692 38.2122 65.3999 38.0459 64.9129 37.961C64.7049 37.913 64.513 37.861 64.357 37.809C64.8921 38.2853 65.548 38.605 66.2529 38.733C66.6807 38.8162 67.097 38.9505 67.4928 39.133L66.3009 38.453Z" fill="#3EA635"/>
<path d="M67.6005 39.201L67.4926 39.137C67.0967 38.9545 66.6804 38.8202 66.2526 38.737C65.5475 38.6098 64.8913 38.29 64.3567 37.813C64.2228 37.6893 64.0767 37.5794 63.9207 37.4851C63.8087 37.419 63.6873 37.3704 63.5607 37.3411C62.7607 37.1451 61.2608 38.033 60.1968 36.6531L60.1608 36.6091C59.4169 35.6051 59.1449 33.3652 58.0289 32.7092L57.9169 32.6452C57.457 32.4293 56.857 32.4693 56.037 32.9412C53.0811 34.6492 52.9811 38.705 51.9172 41.3729C50.8532 44.0408 49.3413 44.8768 48.5213 46.0247C47.7013 47.1727 47.6453 48.0246 45.8254 50.5285C44.0055 53.0324 43.9375 53.6484 43.9375 54.1284V57.8642L68.1445 43.8648V40.1289C68.1591 39.9373 68.1149 39.7457 68.0176 39.5799C67.9204 39.4141 67.7749 39.2819 67.6005 39.201ZM46.7454 54.3724C46.4294 54.5564 46.1774 54.3124 46.1774 53.8244C46.1742 53.5943 46.2238 53.3665 46.3222 53.1585C46.4207 52.9506 46.5654 52.7679 46.7454 52.6244C47.0614 52.4405 47.3134 52.6884 47.3134 53.1764C47.3165 53.4059 47.2669 53.6331 47.1685 53.8405C47.07 54.0478 46.9253 54.2298 46.7454 54.3724ZM56.037 43.1168C55.8854 43.2322 55.7085 43.3098 55.5209 43.3433C55.3333 43.3767 55.1404 43.365 54.9583 43.3091C54.7761 43.2532 54.6099 43.1547 54.4734 43.0218C54.3368 42.8889 54.2339 42.7254 54.1731 42.5448C53.9641 42.0718 53.8643 41.5578 53.8811 41.0409C53.8811 39.205 54.8451 37.1611 56.037 36.4731C56.198 36.377 56.3736 36.3081 56.557 36.2691C57.5009 36.0811 58.1929 36.9851 58.1929 38.549C58.1929 40.3849 57.229 42.4289 56.037 43.1168ZM65.4206 43.5888C65.1046 43.7728 64.8487 43.5288 64.8487 43.0448C64.8463 42.8145 64.8966 42.5866 64.9957 42.3786C65.0948 42.1707 65.2402 41.9881 65.4206 41.8449C65.7366 41.6649 65.9926 41.9089 65.9926 42.3969C65.995 42.6261 65.9446 42.8528 65.8454 43.0594C65.7463 43.2661 65.6009 43.4472 65.4206 43.5888Z" fill="#3EA635"/>
<path opacity="0.1" d="M67.6005 39.201L67.4926 39.137C67.0967 38.9545 66.6804 38.8202 66.2526 38.737C65.5475 38.6098 64.8913 38.29 64.3567 37.813C64.2228 37.6893 64.0767 37.5794 63.9207 37.4851C63.8087 37.419 63.6873 37.3704 63.5607 37.3411C62.7607 37.1451 61.2608 38.033 60.1968 36.6531L60.1608 36.6091C59.4169 35.6051 59.1449 33.3652 58.0289 32.7092L57.9169 32.6452C57.457 32.4293 56.857 32.4693 56.037 32.9412C53.0811 34.6492 52.9811 38.705 51.9172 41.3729C50.8532 44.0408 49.3413 44.8768 48.5213 46.0247C47.7013 47.1727 47.6453 48.0246 45.8254 50.5285C44.0055 53.0324 43.9375 53.6484 43.9375 54.1284V57.8642L68.1445 43.8648V40.1289C68.1591 39.9373 68.1149 39.7457 68.0176 39.5799C67.9204 39.4141 67.7749 39.2819 67.6005 39.201ZM46.7454 54.3724C46.4294 54.5564 46.1774 54.3124 46.1774 53.8244C46.1742 53.5943 46.2238 53.3665 46.3222 53.1585C46.4207 52.9506 46.5654 52.7679 46.7454 52.6244C47.0614 52.4405 47.3134 52.6884 47.3134 53.1764C47.3165 53.4059 47.2669 53.6331 47.1685 53.8405C47.07 54.0478 46.9253 54.2298 46.7454 54.3724ZM56.037 43.1168C55.8854 43.2322 55.7085 43.3098 55.5209 43.3433C55.3333 43.3767 55.1404 43.365 54.9583 43.3091C54.7761 43.2532 54.6099 43.1547 54.4734 43.0218C54.3368 42.8889 54.2339 42.7254 54.1731 42.5448C53.9641 42.0718 53.8643 41.5578 53.8811 41.0409C53.8811 39.205 54.8451 37.1611 56.037 36.4731C56.198 36.377 56.3736 36.3081 56.557 36.2691C57.5009 36.0811 58.1929 36.9851 58.1929 38.549C58.1929 40.3849 57.229 42.4289 56.037 43.1168ZM65.4206 43.5888C65.1046 43.7728 64.8487 43.5288 64.8487 43.0448C64.8463 42.8145 64.8966 42.5866 64.9957 42.3786C65.0948 42.1707 65.2402 41.9881 65.4206 41.8449C65.7366 41.6649 65.9926 41.9089 65.9926 42.3969C65.995 42.6261 65.9446 42.8528 65.8454 43.0594C65.7463 43.2661 65.6009 43.4472 65.4206 43.5888Z" fill="black"/>
<path opacity="0.25" d="M44.0217 53.5406C43.9627 53.7268 43.9344 53.9213 43.9377 54.1166V57.8564L42.5938 57.0805V53.3446C42.5931 53.2456 42.5998 53.1467 42.6138 53.0486C42.6122 53.0167 42.6122 52.9846 42.6138 52.9526C42.6123 52.9407 42.6123 52.9286 42.6138 52.9166C42.6138 52.8806 42.6138 52.8446 42.6418 52.8046V52.7646L44.0217 53.5406Z" fill="black"/>
<path opacity="0.25" d="M48.5182 46.0293C47.8902 46.8932 47.7182 47.5932 46.8702 48.9692L45.5303 48.1852C46.3702 46.8052 46.5502 46.1093 47.1782 45.2373L48.5182 46.0293Z" fill="black"/>
<path opacity="0.25" d="M53.6535 35.7856C52.8535 37.5976 52.5655 39.7335 51.9175 41.3534C51.7916 41.6773 51.6474 41.9938 51.4855 42.3014L50.1416 41.5294C50.1856 41.4454 50.2296 41.3574 50.2696 41.2734C50.3096 41.1894 50.4016 40.9974 50.4616 40.8494C50.4976 40.7654 50.5376 40.6734 50.5736 40.5815C50.6096 40.4895 50.6656 40.3375 50.7096 40.2135L50.8016 39.9495C50.9456 39.5135 51.0736 39.0575 51.2016 38.5815L51.2936 38.2255C51.3256 38.1055 51.3536 37.9896 51.3856 37.8656C51.4495 37.6416 51.5055 37.4136 51.5655 37.1936C51.5673 37.1763 51.5673 37.1589 51.5655 37.1416L51.6695 36.7776C51.6895 36.7216 51.7055 36.6576 51.7255 36.5976C51.7775 36.4176 51.8375 36.2376 51.8975 36.0576C51.9575 35.8776 52.0175 35.7056 52.0855 35.5297C52.1535 35.3537 52.2215 35.1817 52.2975 35.0137L53.6535 35.7856Z" fill="black"/>
<path d="M46.3415 53.1043C46.2346 53.3295 46.1773 53.575 46.1736 53.8243C46.1575 54.0106 46.2149 54.1957 46.3335 54.3402C46.2185 54.194 46.1628 54.0098 46.1776 53.8243C46.182 53.5755 46.2378 53.3304 46.3415 53.1043ZM47.3175 53.1643C47.3171 53.0795 47.3077 52.9951 47.2895 52.9123C47.3064 52.9952 47.3144 53.0797 47.3135 53.1643C47.3088 53.4341 47.2431 53.6994 47.1215 53.9403C47.2444 53.6996 47.3114 53.4344 47.3175 53.1643ZM65.0528 43.5967C65.0898 43.6251 65.1335 43.6437 65.1796 43.6507C65.2258 43.6577 65.273 43.6529 65.3168 43.6367C65.2726 43.6505 65.2259 43.6541 65.1802 43.6472C65.1344 43.6403 65.0909 43.623 65.0528 43.5967Z" fill="#3EA635"/>
<path d="M58.1977 38.5496C58.1977 40.3855 57.2297 42.4294 56.0378 43.1174C55.885 43.2286 55.7085 43.3028 55.5222 43.3341C55.336 43.3655 55.1449 43.3531 54.9642 43.298C54.7835 43.243 54.618 43.1467 54.4809 43.0168C54.3437 42.8869 54.2386 42.7269 54.1738 42.5494C54.3588 42.5097 54.5359 42.4394 54.6978 42.3414C55.8978 41.6495 56.8537 39.6095 56.8537 37.7736C56.8712 37.2563 56.77 36.7418 56.5577 36.2697C57.5097 36.0817 58.1977 36.9856 58.1977 38.5496Z" fill="#3EA635"/>
<path opacity="0.3" d="M58.1977 38.5496C58.1977 40.3855 57.2297 42.4294 56.0378 43.1174C55.885 43.2286 55.7085 43.3028 55.5222 43.3341C55.336 43.3655 55.1449 43.3531 54.9642 43.298C54.7835 43.243 54.618 43.1467 54.4809 43.0168C54.3437 42.8869 54.2386 42.7269 54.1738 42.5494C54.3588 42.5097 54.5359 42.4394 54.6978 42.3414C55.8978 41.6495 56.8537 39.6095 56.8537 37.7736C56.8712 37.2563 56.77 36.7418 56.5577 36.2697C57.5097 36.0817 58.1977 36.9856 58.1977 38.5496Z" fill="black"/>
<path d="M47.1094 53.9402C47.0691 54.0241 47.0194 54.1033 46.9614 54.1762C46.8989 54.2542 46.8231 54.3205 46.7374 54.3722C46.6774 54.414 46.6047 54.4336 46.5317 54.4278C46.4588 54.422 46.3901 54.391 46.3375 54.3402C46.2188 54.1957 46.1614 54.0105 46.1775 53.8242C46.1812 53.5749 46.2385 53.3294 46.3455 53.1042C46.429 52.9053 46.5678 52.7346 46.7454 52.6122C46.7759 52.5917 46.8097 52.5768 46.8454 52.5682C46.9002 52.5492 46.9593 52.5466 47.0154 52.5608C47.0716 52.575 47.1224 52.6054 47.1614 52.6482C47.2266 52.7234 47.2708 52.8145 47.2894 52.9122C47.3076 52.995 47.317 53.0795 47.3174 53.1642C47.3112 53.4358 47.2399 53.7019 47.1094 53.9402Z" fill="#37474F"/>
<path d="M65.9935 42.3848C65.9883 42.722 65.884 43.0503 65.6936 43.3287C65.6479 43.394 65.5957 43.4543 65.5376 43.5087C65.4976 43.5367 65.4616 43.5687 65.4216 43.5927C65.3896 43.6131 65.3545 43.6279 65.3176 43.6367C65.2634 43.6549 65.2051 43.6571 65.1497 43.6429C65.0944 43.6287 65.0443 43.5987 65.0056 43.5567C64.8919 43.4113 64.8363 43.2288 64.8496 43.0447C64.8536 42.6781 64.9772 42.3228 65.2016 42.0328L65.2536 41.9728L65.3096 41.9168C65.3442 41.8853 65.3817 41.8572 65.4216 41.8328C65.7376 41.6488 65.9935 41.9008 65.9935 42.3848Z" fill="#37474F"/>
<path d="M30.9144 65.6679L81.1764 36.649C81.3098 36.5819 81.457 36.5469 81.6064 36.5469C81.7557 36.5469 81.903 36.5819 82.0364 36.649L82.5203 36.929C82.6456 37.0115 82.7498 37.1221 82.8248 37.2519C82.8998 37.3818 82.9434 37.5273 82.9523 37.677V114.354C82.9438 114.503 82.9002 114.648 82.8252 114.777C82.7501 114.907 82.6457 115.016 82.5203 115.098L32.2584 144.117C32.1255 144.186 31.9781 144.222 31.8284 144.222C31.6787 144.222 31.5312 144.186 31.3984 144.117L30.9144 143.837C30.7888 143.756 30.6842 143.646 30.6092 143.517C30.5341 143.387 30.4907 143.242 30.4824 143.093V66.4158C30.4904 66.2659 30.5336 66.12 30.6087 65.99C30.6838 65.8601 30.7885 65.7497 30.9144 65.6679Z" fill="#F5F5F5"/>
<path d="M82.9363 37.5449C82.8803 37.3689 82.7163 37.3129 82.5363 37.4249L32.2583 66.4438C32.1309 66.524 32.0262 66.6355 31.9543 66.7677L30.6104 65.9918C30.6797 65.8587 30.785 65.7478 30.9143 65.6718L81.1763 36.6529C81.3084 36.5839 81.4553 36.5479 81.6043 36.5479C81.7534 36.5479 81.9002 36.5839 82.0323 36.6529L82.5203 36.9289C82.6271 36.9988 82.7189 37.0893 82.7903 37.195C82.8617 37.3008 82.9113 37.4197 82.9363 37.5449Z" fill="#FAFAFA"/>
<path d="M32.1584 144.181C32.1067 144.2 32.053 144.214 31.9984 144.221H31.9144C31.828 144.231 31.7408 144.231 31.6544 144.221C31.5996 144.214 31.5459 144.201 31.4944 144.181L31.3984 144.133L30.9144 143.853C30.7884 143.772 30.6834 143.663 30.6083 143.533C30.5332 143.404 30.49 143.259 30.4824 143.109V66.4162C30.4866 66.266 30.5308 66.1196 30.6104 65.9922L31.9544 66.7682C31.8786 66.8971 31.836 67.0427 31.8304 67.1921V143.869C31.8304 144.105 31.9664 144.221 32.1584 144.181Z" fill="#E0E0E0"/>
<path d="M52.0138 48.0566L51.9458 48.1686C51.7854 48.4305 51.6692 48.717 51.6018 49.0166C51.6018 49.0406 51.6018 49.0526 51.6018 49.0646C51.6009 49.0712 51.6009 49.078 51.6018 49.0846L50.7818 53.7004L50.5258 55.1764C50.5258 55.2364 50.4978 55.2964 50.4818 55.3604C50.4662 55.4199 50.4475 55.4787 50.4258 55.5363C50.4258 55.5763 50.3978 55.6163 50.3818 55.6563L51.7258 56.4323C51.79 56.2779 51.8369 56.117 51.8658 55.9523L52.1298 54.4764L52.9297 49.8606C52.9905 49.4907 53.1341 49.1392 53.3497 48.8326L52.0138 48.0566Z" fill="#3EA635"/>
<path d="M42.7583 62.9481C42.6223 63.1641 42.4944 63.3801 42.3584 63.5961C42.3024 63.7001 42.2464 63.8041 42.1944 63.9081C42.1424 64.0121 42.0664 64.1761 42.0104 64.3081C41.9544 64.4401 41.8824 64.6041 41.8264 64.7561C41.7704 64.9081 41.7144 65.0601 41.6624 65.2121C41.6104 65.364 41.5464 65.568 41.4984 65.748C41.4664 65.864 41.4344 65.98 41.4024 66.104C41.3277 66.3867 41.2597 66.6747 41.1984 66.968C41.1984 67.068 41.1544 67.172 41.1384 67.272C41.1224 67.372 41.0864 67.52 41.0664 67.6399C41.0664 67.6399 41.0664 67.64 41.0664 67.6599C41.0664 67.7559 41.0664 67.8199 41.1144 67.8479C41.1207 67.8508 41.1275 67.8523 41.1344 67.8523C41.1413 67.8523 41.1481 67.8508 41.1544 67.8479L42.3104 66.944L42.4983 66.796L42.5903 66.728L42.6903 66.648L42.7703 66.588L42.8383 66.532C43.1759 65.3092 43.7389 64.1602 44.4983 63.1441L43.1543 62.3682C43.0223 62.5602 42.8863 62.7561 42.7583 62.9481Z" fill="#3EA635"/>
<path d="M57.3014 37.9014C57.2374 38.0054 57.1814 38.1094 57.1254 38.2134C57.0887 38.2707 57.0566 38.3309 57.0294 38.3933C56.9814 38.4773 56.9414 38.5653 56.8974 38.6533C56.8534 38.7413 56.8254 38.7933 56.7934 38.8653C56.7254 39.0013 56.6654 39.1373 56.6094 39.2653C56.5534 39.3933 56.4814 39.5613 56.4254 39.7093C56.3695 39.8413 56.3255 39.9733 56.2815 40.1093C56.2095 40.3093 56.1495 40.5093 56.0935 40.7133C56.0615 40.8213 56.0375 40.9252 56.0095 41.0292C56.0102 41.0372 56.0102 41.0453 56.0095 41.0532C56.0095 41.1092 55.9815 41.1612 55.9735 41.2172C55.9415 41.3412 55.9175 41.4692 55.8975 41.5932C55.8775 41.7172 55.8575 41.7892 55.8295 41.8892C55.8015 41.9892 55.7775 42.0972 55.7455 42.2012C55.7135 42.3052 55.6815 42.3972 55.6495 42.4972C55.6495 42.4972 55.6495 42.4972 55.6495 42.5252C55.6095 42.6332 55.5655 42.7452 55.5175 42.8572C55.4695 42.9692 55.4295 43.0772 55.3735 43.1932C55.3598 43.2231 55.3478 43.2538 55.3375 43.2852C55.2975 43.3691 55.2535 43.4531 55.2135 43.5411L55.0015 43.9411C54.9535 44.0371 54.9055 44.1251 54.8535 44.2171L56.2015 44.9931C56.6858 44.1758 57.0394 43.2877 57.2494 42.3612C57.5037 41.0515 57.9828 39.7957 58.6654 38.6493L57.3014 37.9014Z" fill="#3EA635"/>
<path d="M65.2971 40.8933C65.2303 40.8528 65.155 40.8282 65.0771 40.8213C65.2076 41.0296 65.3831 41.206 65.5908 41.3376C65.7985 41.4691 66.033 41.5524 66.2771 41.5813C66.3928 41.5827 66.507 41.6072 66.6131 41.6533L65.2971 40.8933Z" fill="#3EA635"/>
<path opacity="0.4" d="M65.2971 40.8933C65.2303 40.8528 65.155 40.8282 65.0771 40.8213C65.2076 41.0296 65.3831 41.206 65.5908 41.3376C65.7985 41.4691 66.033 41.5524 66.2771 41.5813C66.3928 41.5827 66.507 41.6072 66.6131 41.6533L65.2971 40.8933Z" fill="white"/>
<path d="M70.3086 46.737C70.0975 46.6338 69.8645 46.5835 69.6296 46.5905C69.3948 46.5974 69.1652 46.6615 68.9606 46.777C67.3967 47.465 66.7207 47.7769 65.9127 48.1129C65.7567 49.1529 66.3687 49.2489 66.6727 49.1249C67.8087 48.6769 68.3886 48.4009 70.3086 47.557C70.5114 47.4431 70.7387 47.3797 70.9712 47.3721C71.2037 47.3644 71.4346 47.4127 71.6445 47.513L70.3086 46.737Z" fill="#3EA635"/>
<path opacity="0.4" d="M70.3086 46.737C70.0975 46.6338 69.8645 46.5835 69.6296 46.5905C69.3948 46.5974 69.1652 46.6615 68.9606 46.777C67.3967 47.465 66.7207 47.7769 65.9127 48.1129C65.7567 49.1529 66.3687 49.2489 66.6727 49.1249C67.8087 48.6769 68.3886 48.4009 70.3086 47.557C70.5114 47.4431 70.7387 47.3797 70.9712 47.3721C71.2037 47.3644 71.4346 47.4127 71.6445 47.513L70.3086 46.737Z" fill="white"/>
<path d="M51.7179 56.4322C51.4284 57.0658 51.0212 57.6386 50.5179 58.1202L46.3101 61.284C45.6374 61.8319 45.0307 62.456 44.5021 63.1439L43.1582 62.368C43.6856 61.6778 44.2924 61.0522 44.9661 60.5041L49.182 57.3442C49.6762 56.8593 50.0763 56.287 50.3619 55.6562L51.7179 56.4322Z" fill="#3EA635"/>
<path opacity="0.4" d="M51.7179 56.4322C51.4284 57.0658 51.0212 57.6386 50.5179 58.1202L46.3101 61.284C45.6374 61.8319 45.0307 62.456 44.5021 63.1439L43.1582 62.368C43.6856 61.6778 44.2924 61.0522 44.9661 60.5041L49.182 57.3442C49.6762 56.8593 50.0763 56.287 50.3619 55.6562L51.7179 56.4322Z" fill="white"/>
<path d="M56.1815 45.025C55.6011 46.0982 54.886 47.0929 54.0536 47.9849C53.7915 48.2414 53.5582 48.5258 53.3576 48.8328L52.0137 48.0569C52.2109 47.7474 52.4446 47.4627 52.7096 47.2089C53.5406 46.3166 54.2544 45.322 54.8336 44.249L56.1815 45.025Z" fill="#3EA635"/>
<path opacity="0.4" d="M56.1815 45.025C55.6011 46.0982 54.886 47.0929 54.0536 47.9849C53.7915 48.2414 53.5582 48.5258 53.3576 48.8328L52.0137 48.0569C52.2109 47.7474 52.4446 47.4627 52.7096 47.2089C53.5406 46.3166 54.2544 45.322 54.8336 44.249L56.1815 45.025Z" fill="white"/>
<path d="M63.7736 35.0938C63.2776 34.8338 62.6176 34.8778 61.8417 35.2858C60.6897 35.8897 59.5298 37.1697 58.6418 38.6816L57.2979 37.8817C58.1778 36.3697 59.3378 35.0818 60.4977 34.4858C60.8747 34.273 61.2971 34.1537 61.7297 34.1378C61.9886 34.1345 62.2437 34.1993 62.4696 34.3258L63.7736 35.0938Z" fill="#3EA635"/>
<path opacity="0.4" d="M63.7736 35.0938C63.2776 34.8338 62.6176 34.8778 61.8417 35.2858C60.6897 35.8897 59.5298 37.1697 58.6418 38.6816L57.2979 37.8817C58.1778 36.3697 59.3378 35.0818 60.4977 34.4858C60.8747 34.273 61.2971 34.1537 61.7297 34.1378C61.9886 34.1345 62.2437 34.1993 62.4696 34.3258L63.7736 35.0938Z" fill="white"/>
<path opacity="0.15" d="M44.5141 63.1439C43.7547 64.16 43.1917 65.309 42.8542 66.5318L42.7862 66.5878L42.7062 66.6478L42.6062 66.7278L42.5142 66.7958L42.3262 66.9438L41.1862 67.8558C41.18 67.8586 41.1731 67.8601 41.1662 67.8601C41.1593 67.8601 41.1525 67.8586 41.1462 67.8558C41.1022 67.8278 41.0822 67.7638 41.0982 67.6678C41.0982 67.6678 41.0982 67.6678 41.0982 67.6478C41.0982 67.5278 41.1422 67.4038 41.1702 67.2798C41.1982 67.1558 41.2102 67.0758 41.2302 66.9758C41.2916 66.6851 41.3596 66.3972 41.4342 66.1118C41.4662 65.9878 41.4982 65.8718 41.5302 65.7558C41.5782 65.5758 41.6342 65.3999 41.6942 65.2199C41.7542 65.0399 41.7982 64.9159 41.8582 64.7639C41.9182 64.6119 41.9742 64.4639 42.0422 64.3159C42.1102 64.1679 42.1622 64.0399 42.2262 63.9159C42.2902 63.7919 42.3342 63.7079 42.3902 63.6039C42.5062 63.3879 42.6342 63.1719 42.7902 62.956C42.9462 62.74 43.0542 62.556 43.1902 62.376L44.5141 63.1439Z" fill="black"/>
<path opacity="0.15" d="M53.3575 48.8326C53.1419 49.1392 52.9983 49.4907 52.9376 49.8606L52.1376 54.4764L51.8736 55.9523C51.8447 56.117 51.7978 56.2779 51.7336 56.4323L50.3896 55.6563C50.3896 55.6163 50.4216 55.5763 50.4336 55.5363C50.4554 55.4787 50.4741 55.4199 50.4896 55.3604C50.4896 55.2964 50.5216 55.2364 50.5336 55.1764L50.7896 53.7004L51.6096 49.0846C51.6087 49.078 51.6087 49.0712 51.6096 49.0646C51.6096 49.0646 51.6096 49.0406 51.6096 49.0166C51.677 48.717 51.7932 48.4305 51.9536 48.1686L52.0216 48.0566L53.3575 48.8326Z" fill="black"/>
<path opacity="0.15" d="M58.6458 38.6816C57.9633 39.8279 57.4842 41.0837 57.2299 42.3934C57.0199 43.32 56.6663 44.208 56.1819 45.0253L54.834 44.2493C54.886 44.1573 54.934 44.0693 54.982 43.9734L55.194 43.5734C55.234 43.4854 55.278 43.4014 55.318 43.3174C55.3282 43.2861 55.3402 43.2553 55.354 43.2254C55.406 43.1134 55.454 42.9974 55.498 42.8894C55.542 42.7814 55.59 42.6654 55.63 42.5574C55.63 42.5574 55.63 42.5374 55.63 42.5294C55.662 42.4294 55.6979 42.3334 55.7259 42.2334C55.7539 42.1334 55.7859 42.0254 55.8099 41.9214C55.8339 41.8174 55.8579 41.7214 55.8779 41.6254C55.8979 41.5295 55.9219 41.3735 55.9539 41.2495C55.9539 41.1935 55.9779 41.1415 55.9899 41.0855C55.9906 41.0775 55.9906 41.0695 55.9899 41.0615C56.0179 40.9575 56.0419 40.8535 56.0739 40.7455C56.1299 40.5415 56.1899 40.3455 56.2619 40.1415C56.3059 40.0055 56.3499 39.8735 56.4059 39.7415C56.4619 39.5935 56.5259 39.4455 56.5899 39.2975C56.6539 39.1495 56.7059 39.0255 56.7739 38.8976C56.8059 38.8256 56.8419 38.7576 56.8779 38.6856C56.9139 38.6136 56.9619 38.5096 57.0099 38.4256C57.0371 38.3631 57.0692 38.3029 57.1059 38.2456C57.1619 38.1416 57.2179 38.0376 57.2819 37.9336L58.6458 38.6816Z" fill="black"/>
<path d="M41.1738 67.8563L42.3098 66.9443C41.8578 67.3083 41.2418 67.7843 41.1738 67.8563Z" fill="#3EA635"/>
<path d="M71.6489 47.5209C71.4384 47.4207 71.2071 47.3721 70.9741 47.379C70.7411 47.386 70.5131 47.4483 70.3089 47.5609C68.393 48.4089 67.813 48.6849 66.6771 49.1369C66.3731 49.2569 65.7611 49.1609 65.9171 48.1209C65.9155 48.0983 65.9155 48.0755 65.9171 48.0529L66.1771 46.577L66.9051 42.5531C66.9051 42.5531 67.0691 41.9172 66.6491 41.6812H66.6171C66.514 41.6304 66.4 41.6057 66.2851 41.6092C66.0404 41.5791 65.8055 41.4945 65.5978 41.3616C65.3902 41.2286 65.215 41.0508 65.0851 40.8412C64.8605 40.5072 64.7049 40.1318 64.6273 39.7368C64.5496 39.3419 64.5517 38.9354 64.6332 38.5413C64.9412 36.8134 64.6052 35.6054 63.8332 35.1574L63.7732 35.1174C63.2772 34.8574 62.6172 34.9014 61.8413 35.3094C59.7974 36.3814 57.7334 39.5613 57.2295 42.4171C56.9135 44.2171 55.1016 46.989 54.0536 48.0169C53.0056 49.0449 52.9376 49.8928 52.9376 49.8928L52.1377 54.5087L51.8737 55.9846C51.6817 57.0885 50.5497 58.1565 50.5497 58.1565L46.3099 61.2844C44.6277 62.6226 43.4135 64.46 42.842 66.5322C42.842 66.5322 41.2421 67.7561 41.1621 67.8561L41.7021 67.5481L70.7889 50.8248C70.7889 50.8248 71.1249 50.6448 71.1889 50.5968C71.2529 50.5488 72.4329 49.4449 72.4329 49.4449C72.4129 48.4929 72.1369 47.8129 71.6489 47.5209ZM63.2492 39.0373C62.9372 40.7932 61.6733 42.7491 60.4173 43.4091C59.5494 43.8611 58.9134 43.5811 58.7014 42.7811C58.6084 42.3326 58.6084 41.8697 58.7014 41.4212C59.0094 39.6652 60.2813 37.7093 61.5373 37.0534C61.6535 36.9901 61.7753 36.9379 61.9013 36.8974C62.9292 36.5854 63.5092 37.4613 63.2412 39.0373H63.2492Z" fill="#3EA635"/>
<path d="M41.1782 67.8596L70.8091 50.8283L71.209 50.6003C71.281 50.5563 72.453 49.4443 72.453 49.4443L42.8542 66.5317C42.8542 66.5317 41.0623 67.9236 41.1782 67.8596Z" fill="#3EA635"/>
<path opacity="0.3" d="M41.1782 67.8596L70.8091 50.8283L71.209 50.6003C71.281 50.5563 72.453 49.4443 72.453 49.4443L42.8542 66.5317C42.8542 66.5317 41.0623 67.9236 41.1782 67.8596Z" fill="black"/>
<path d="M61.9093 36.8976C61.7834 36.9381 61.6615 36.9903 61.5453 37.0536C60.2894 37.7095 59.0174 39.6655 58.7094 41.4214C58.6164 41.8699 58.6164 42.3328 58.7094 42.7813C58.9214 43.5813 59.5574 43.8613 60.4254 43.4093C61.6813 42.7493 62.9453 40.7934 63.2572 39.0375C63.5092 37.4615 62.9293 36.5856 61.9093 36.8976ZM58.7894 42.7493C58.701 42.3165 58.701 41.8702 58.7894 41.4374C59.0974 39.7015 60.3494 37.7695 61.5893 37.1256C61.6924 37.0711 61.7993 37.0243 61.9093 36.9856C61.9912 37.4083 61.9912 37.8428 61.9093 38.2655C61.6013 40.0214 60.3334 41.9774 59.0734 42.6373C58.9819 42.6856 58.887 42.727 58.7894 42.7613V42.7493Z" fill="#3EA635"/>
<path opacity="0.4" d="M61.9093 36.8976C61.7834 36.9381 61.6615 36.9903 61.5453 37.0536C60.2894 37.7095 59.0174 39.6655 58.7094 41.4214C58.6164 41.8699 58.6164 42.3328 58.7094 42.7813C58.9214 43.5813 59.5574 43.8613 60.4254 43.4093C61.6813 42.7493 62.9453 40.7934 63.2572 39.0375C63.5092 37.4615 62.9293 36.5856 61.9093 36.8976ZM58.7894 42.7493C58.701 42.3165 58.701 41.8702 58.7894 41.4374C59.0974 39.7015 60.3494 37.7695 61.5893 37.1256C61.6924 37.0711 61.7993 37.0243 61.9093 36.9856C61.9912 37.4083 61.9912 37.8428 61.9093 38.2655C61.6013 40.0214 60.3334 41.9774 59.0734 42.6373C58.9819 42.6856 58.887 42.727 58.7894 42.7613V42.7493Z" fill="black"/>
<path d="M38.5783 90.4595C38.5151 90.4597 38.453 90.4432 38.3983 90.4115C38.3325 90.369 38.2797 90.3092 38.2459 90.2386C38.212 90.168 38.1983 90.0894 38.2064 90.0115V88.3036C38.2123 88.1501 38.2555 88.0004 38.3321 87.8673C38.4088 87.7342 38.5166 87.6218 38.6463 87.5396L40.1383 86.6796C40.2001 86.6387 40.2722 86.6158 40.3463 86.6135C40.4204 86.6111 40.4937 86.6295 40.5581 86.6664C40.6224 86.7033 40.6752 86.7574 40.7105 86.8226C40.7459 86.8878 40.7624 86.9616 40.7583 87.0356V88.7595C40.753 88.9132 40.7101 89.0631 40.6334 89.1963C40.5567 89.3295 40.4485 89.4418 40.3183 89.5235L38.8263 90.3875C38.7514 90.4328 38.6659 90.4576 38.5783 90.4595ZM40.3863 86.9636C40.3626 86.9702 40.3398 86.9796 40.3183 86.9916L38.8263 87.8516C38.7514 87.9021 38.689 87.9691 38.6439 88.0474C38.5988 88.1257 38.5723 88.2134 38.5663 88.3036V90.0275C38.5597 90.051 38.5597 90.076 38.5663 90.0995C38.5902 90.0955 38.6132 90.0874 38.6343 90.0755L40.1263 89.2115C40.2012 89.161 40.2637 89.094 40.3087 89.0157C40.3538 88.9374 40.3803 88.8497 40.3863 88.7595V87.0356C40.3883 87.0183 40.3883 87.0009 40.3863 86.9836V86.9636Z" fill="#455A64"/>
<path d="M42.0258 86.4317L47.9056 83.0359C48.1016 82.9239 48.2576 83.0119 48.2576 83.2358V83.6958C48.2505 83.8171 48.215 83.935 48.1539 84.0399C48.0927 84.1449 48.0076 84.2339 47.9056 84.2998L42.0258 87.6957C41.8338 87.8077 41.6738 87.7197 41.6738 87.4957V87.0357C41.6808 86.9144 41.7164 86.7965 41.7775 86.6916C41.8387 86.5866 41.9238 86.4976 42.0258 86.4317Z" fill="#E0E0E0"/>
<path d="M53.1495 82.0474C53.0862 82.0481 53.024 82.0315 52.9695 81.9994C52.9029 81.9575 52.8493 81.8979 52.8147 81.8272C52.7801 81.7566 52.7658 81.6777 52.7735 81.5994V79.8755C52.7802 79.7217 52.8241 79.5719 52.9015 79.4389C52.9788 79.3058 53.0872 79.1935 53.2175 79.1115L54.7094 78.2516C54.7711 78.2074 54.8441 78.1816 54.9199 78.1774C54.9957 78.1731 55.0711 78.1905 55.1374 78.2276C55.2019 78.2664 55.2542 78.3227 55.2882 78.3899C55.3221 78.4571 55.3364 78.5326 55.3294 78.6075V80.3315C55.3241 80.4851 55.2812 80.6351 55.2045 80.7682C55.1278 80.9014 55.0196 81.0138 54.8894 81.0954L53.3975 81.9594C53.3241 82.0104 53.2385 82.0407 53.1495 82.0474ZM54.9534 78.5515C54.9315 78.5595 54.9101 78.5689 54.8894 78.5795L53.3975 79.4395C53.322 79.4898 53.2589 79.5566 53.2132 79.635C53.1675 79.7133 53.1402 79.801 53.1335 79.8915V81.6154C53.1256 81.6388 53.1256 81.6641 53.1335 81.6874C53.1572 81.6828 53.1801 81.6747 53.2015 81.6634L54.6934 80.7995C54.7688 80.7494 54.8315 80.6825 54.8767 80.6041C54.9218 80.5257 54.9481 80.4378 54.9534 80.3475V78.6235C54.9605 78.6001 54.9605 78.575 54.9534 78.5515Z" fill="#455A64"/>
<path d="M56.5971 78.0196L62.4769 74.6237C62.6729 74.5117 62.8289 74.5997 62.8289 74.8237V75.2837C62.8218 75.405 62.7863 75.5229 62.7251 75.6278C62.664 75.7328 62.5789 75.8218 62.4769 75.8877L56.5971 79.2836C56.4011 79.3955 56.2451 79.3076 56.2451 79.0836V78.6236C56.2542 78.5028 56.2907 78.3857 56.3516 78.2811C56.4126 78.1765 56.4965 78.0871 56.5971 78.0196Z" fill="#E0E0E0"/>
<path d="M67.7166 73.6357C67.6534 73.6359 67.5913 73.6194 67.5366 73.5877C67.4714 73.5446 67.4191 73.4847 67.3853 73.4142C67.3515 73.3438 67.3374 73.2655 67.3446 73.1877V71.4638C67.3509 71.3104 67.3942 71.1608 67.4708 71.0278C67.5474 70.8948 67.6551 70.7822 67.7846 70.6998L69.2765 69.8398C69.3387 69.7975 69.4116 69.7736 69.4867 69.7708C69.5619 69.768 69.6363 69.7864 69.7015 69.824C69.7666 69.8616 69.8199 69.9168 69.8551 69.9833C69.8903 70.0498 69.906 70.1248 69.9005 70.1998V71.9198C69.8944 72.0737 69.8508 72.2237 69.7734 72.3569C69.696 72.4901 69.5872 72.6023 69.4565 72.6837L67.9646 73.5477C67.8914 73.599 67.8057 73.6294 67.7166 73.6357ZM67.9646 71.0278C67.8902 71.0789 67.8283 71.1461 67.7833 71.2243C67.7383 71.3025 67.7114 71.3898 67.7046 71.4798V73.2037C67.6967 73.227 67.6967 73.2524 67.7046 73.2757C67.7276 73.2731 67.7496 73.2649 67.7686 73.2517L69.2605 72.3877C69.336 72.3375 69.399 72.2706 69.4448 72.1923C69.4905 72.1139 69.5178 72.0262 69.5245 71.9358V70.2158C69.532 70.191 69.532 70.1646 69.5245 70.1398C69.5245 70.1398 69.5005 70.1398 69.4565 70.1678L67.9646 71.0278Z" fill="#455A64"/>
<path d="M71.1694 69.6075L77.0491 66.2116C77.2411 66.0996 77.4011 66.1876 77.4011 66.4116V66.8716C77.392 66.9924 77.3556 67.1095 77.2946 67.2141C77.2336 67.3187 77.1497 67.4081 77.0491 67.4756L71.1694 70.8714C70.9734 70.9834 70.8174 70.8954 70.8174 70.6715V70.2115C70.8244 70.0902 70.8599 69.9723 70.9211 69.8674C70.9823 69.7624 71.0673 69.6734 71.1694 69.6075Z" fill="#E0E0E0"/>
<path d="M42.042 78.0154V78.6874C42.042 79.0554 42.298 79.2034 42.614 79.0194L77.0126 59.1762C77.1794 59.0667 77.318 58.9195 77.4174 58.7465C77.5168 58.5734 77.574 58.3795 77.5846 58.1802V57.5043C77.5846 57.1403 77.3286 56.9923 77.0126 57.1723L42.614 77.0195C42.4472 77.129 42.3085 77.2762 42.2092 77.4492C42.1098 77.6222 42.0525 77.8162 42.042 78.0154Z" fill="#E0E0E0"/>
<path d="M39.4219 72.7674V73.4394C39.4219 73.8074 39.6779 73.9553 39.9979 73.7714L74.3765 53.9282C74.5444 53.8196 74.6842 53.6726 74.7844 53.4995C74.8845 53.3264 74.9421 53.1319 74.9524 52.9322V52.2562C74.9524 51.8922 74.6965 51.7442 74.3765 51.9242L39.9979 71.7834C39.8315 71.8909 39.6927 72.0359 39.5926 72.2068C39.4926 72.3777 39.4341 72.5697 39.4219 72.7674Z" fill="#455A64"/>
<path d="M42.042 82.0837V82.7597C42.042 83.1237 42.298 83.2717 42.614 83.0917L77.0126 63.2485C77.1794 63.1389 77.318 62.9917 77.4174 62.8187C77.5168 62.6457 77.574 62.4517 77.5846 62.2525V61.5765C77.5846 61.2125 77.3286 61.0646 77.0126 61.2445L42.614 81.0918C42.4477 81.2009 42.3094 81.3475 42.21 81.5197C42.1107 81.692 42.0532 81.8852 42.042 82.0837Z" fill="#E0E0E0"/>
<path d="M38.2739 82.4311C39.1739 81.5391 39.3979 81.1591 39.3979 80.8311C39.3979 80.5031 39.2659 80.3271 38.8619 80.5591C38.6872 80.6607 38.5369 80.7993 38.4215 80.9651C38.3061 81.1309 38.2284 81.32 38.1939 81.5191L37.21 81.7391C37.2956 81.2236 37.4901 80.7322 37.7805 80.2977C38.0708 79.8632 38.4504 79.4956 38.8939 79.2192C39.8779 78.6512 40.4498 79.0752 40.4498 80.0192C40.3949 80.9381 39.9949 81.8024 39.3299 82.4391V83.219L38.2739 83.827V82.4311Z" fill="#455A64"/>
<path d="M38.2618 85.0229C38.2601 84.8307 38.3087 84.6414 38.4027 84.4737C38.4967 84.306 38.6329 84.1658 38.7977 84.0669C39.1497 83.8629 39.3297 84.0429 39.3297 84.4069C39.3328 84.6 39.2853 84.7906 39.1919 84.9596C39.0986 85.1287 38.9627 85.2705 38.7977 85.3709C38.4418 85.5749 38.2618 85.3829 38.2618 85.0229Z" fill="#455A64"/>
<path d="M38.8102 88.3032L39.2501 88.6352L38.8501 89.3952C38.8157 89.4414 38.7971 89.4975 38.7971 89.5551C38.7971 89.6128 38.8157 89.6689 38.8501 89.7151C38.9261 89.7711 39.0341 89.7151 39.0981 89.5951L39.4981 88.8392L39.9381 89.1712C40.0021 89.2192 40.0981 89.1712 40.1541 89.0672C40.1837 89.0272 40.1996 88.9789 40.1996 88.9292C40.1996 88.8795 40.1837 88.8311 40.1541 88.7912L39.7141 88.4592L40.1141 87.6992C40.1485 87.653 40.1671 87.5969 40.1671 87.5392C40.1671 87.4816 40.1485 87.4255 40.1141 87.3792C40.0381 87.3232 39.9301 87.3792 39.8661 87.4992L39.4661 88.2592L39.0261 87.9272C38.9621 87.8792 38.8661 87.9272 38.8102 88.0272C38.7806 88.0672 38.7646 88.1155 38.7646 88.1652C38.7646 88.2149 38.7806 88.2633 38.8102 88.3032Z" fill="#3EA635"/>
<path d="M38.5783 105.646C38.5155 105.648 38.4533 105.633 38.3983 105.602C38.3325 105.56 38.2797 105.5 38.2459 105.429C38.212 105.359 38.1983 105.28 38.2064 105.202V103.478C38.2116 103.325 38.2545 103.175 38.3312 103.042C38.4079 102.908 38.5161 102.796 38.6463 102.714L40.1383 101.854C40.2001 101.814 40.2722 101.791 40.3463 101.788C40.4204 101.786 40.4937 101.804 40.5581 101.841C40.6224 101.878 40.6752 101.932 40.7105 101.997C40.7459 102.063 40.7624 102.136 40.7583 102.21V103.934C40.753 104.088 40.7101 104.238 40.6334 104.371C40.5567 104.504 40.4485 104.617 40.3183 104.698L38.8263 105.558C38.753 105.609 38.6674 105.64 38.5783 105.646ZM40.3863 102.154C40.3619 102.159 40.3387 102.168 40.3183 102.182L38.8263 103.042C38.7514 103.093 38.689 103.16 38.6439 103.238C38.5988 103.317 38.5723 103.404 38.5663 103.494V105.218C38.5597 105.242 38.5597 105.267 38.5663 105.29C38.5902 105.286 38.6132 105.278 38.6343 105.266L40.1263 104.402C40.2012 104.352 40.2637 104.285 40.3087 104.207C40.3538 104.128 40.3803 104.041 40.3863 103.95V102.226C40.3901 102.203 40.3901 102.178 40.3863 102.154Z" fill="#455A64"/>
<path d="M42.0258 101.618L47.9056 98.2263C48.1016 98.1143 48.2576 98.2023 48.2576 98.4263V98.8823C48.2512 99.0042 48.2159 99.1229 48.1547 99.2286C48.0935 99.3343 48.0082 99.424 47.9056 99.4902L42.0258 102.886C41.8338 102.998 41.6738 102.906 41.6738 102.682V102.226C41.6805 102.104 41.7159 101.986 41.7771 101.88C41.8382 101.774 41.9235 101.685 42.0258 101.618Z" fill="#E0E0E0"/>
<path d="M53.1495 97.2348C53.0866 97.2369 53.0243 97.2217 52.9695 97.1908C52.9029 97.1489 52.8493 97.0893 52.8147 97.0186C52.7801 96.948 52.7658 96.8691 52.7735 96.7908V95.0669C52.7796 94.913 52.8232 94.7629 52.9006 94.6298C52.978 94.4966 53.0868 94.3844 53.2175 94.3029L54.7094 93.443C54.7711 93.3988 54.8441 93.373 54.9199 93.3688C54.9957 93.3645 55.0711 93.3819 55.1374 93.419C55.2019 93.4578 55.2542 93.5141 55.2882 93.5813C55.3221 93.6485 55.3364 93.724 55.3294 93.799V95.5229C55.3241 95.6765 55.2812 95.8265 55.2045 95.9596C55.1278 96.0928 55.0196 96.2052 54.8894 96.2869L53.3975 97.1468C53.3241 97.1978 53.2385 97.2281 53.1495 97.2348ZM54.9534 93.7429C54.9306 93.7486 54.909 93.7581 54.8894 93.7709L53.3975 94.6309C53.322 94.6812 53.2589 94.748 53.2132 94.8264C53.1675 94.9047 53.1402 94.9924 53.1335 95.0829V96.8068C53.1256 96.8302 53.1256 96.8555 53.1335 96.8788C53.1572 96.8742 53.1801 96.8661 53.2015 96.8548L54.6934 95.9909C54.7684 95.9404 54.8308 95.8734 54.8759 95.795C54.9209 95.7167 54.9475 95.6291 54.9534 95.5389V93.8149C54.9605 93.7915 54.9605 93.7664 54.9534 93.7429Z" fill="#455A64"/>
<path d="M56.5971 93.207L62.4769 89.8151C62.6729 89.7032 62.8289 89.7911 62.8289 90.0151V90.4711C62.8225 90.5931 62.7872 90.7118 62.726 90.8175C62.6648 90.9232 62.5794 91.0128 62.4769 91.0791L56.5971 94.475C56.4011 94.587 56.2451 94.475 56.2451 94.271V93.815C56.2537 93.6935 56.2898 93.5757 56.3508 93.4703C56.4118 93.3649 56.496 93.2749 56.5971 93.207Z" fill="#E0E0E0"/>
<path d="M67.7166 88.8229C67.6537 88.8246 67.5916 88.8094 67.5366 88.7789C67.4714 88.7358 67.4191 88.6759 67.3853 88.6054C67.3515 88.535 67.3374 88.4567 67.3446 88.3789V86.655C67.3509 86.5016 67.3942 86.352 67.4708 86.219C67.5474 86.086 67.6551 85.9734 67.7846 85.891L69.2765 85.031C69.3384 84.989 69.4109 84.9652 69.4856 84.9622C69.5604 84.9593 69.6345 84.9774 69.6995 85.0145C69.7645 85.0516 69.8178 85.1061 69.8533 85.172C69.8889 85.2378 69.9052 85.3123 69.9005 85.387V87.111C69.8944 87.2649 69.8508 87.4149 69.7734 87.5481C69.696 87.6813 69.5872 87.7935 69.4565 87.8749L67.9646 88.7349C67.8914 88.7862 67.8057 88.8166 67.7166 88.8229ZM67.9646 86.219C67.8902 86.2701 67.8283 86.3373 67.7833 86.4155C67.7383 86.4937 67.7114 86.581 67.7046 86.671V88.3949C67.6967 88.4183 67.6967 88.4436 67.7046 88.4669C67.7269 88.4618 67.7484 88.4537 67.7686 88.4429L69.2605 87.5789C69.336 87.5287 69.399 87.4618 69.4448 87.3835C69.4905 87.3052 69.5178 87.2174 69.5245 87.127V85.403C69.5316 85.3796 69.5316 85.3545 69.5245 85.331C69.5006 85.3369 69.4777 85.3464 69.4565 85.359L67.9646 86.219Z" fill="#455A64"/>
<path d="M71.1694 84.7949L77.0491 81.403C77.2411 81.291 77.4011 81.379 77.4011 81.603V82.059C77.3926 82.1805 77.3564 82.2983 77.2954 82.4037C77.2344 82.5091 77.1502 82.5991 77.0491 82.667L71.1694 86.0628C70.9734 86.1748 70.8174 86.0829 70.8174 85.8589V85.4029C70.8238 85.2809 70.859 85.1622 70.9202 85.0565C70.9814 84.9508 71.0668 84.8612 71.1694 84.7949Z" fill="#E0E0E0"/>
<path d="M42.042 93.2028V93.8788C42.042 94.2428 42.298 94.3908 42.614 94.2108L77.0126 74.3676C77.1794 74.2581 77.318 74.1109 77.4174 73.9379C77.5168 73.7648 77.574 73.5709 77.5846 73.3716V72.6957C77.5846 72.3317 77.3286 72.1837 77.0126 72.3637L42.614 92.2109C42.4477 92.32 42.3094 92.4666 42.21 92.6389C42.1107 92.8111 42.0532 93.0043 42.042 93.2028Z" fill="#E0E0E0"/>
<path d="M42.042 97.2747V97.9506C42.042 98.3146 42.298 98.4626 42.614 98.2826L77.0126 78.4354C77.1797 78.3272 77.3187 78.1809 77.4182 78.0084C77.5176 77.8359 77.5747 77.6423 77.5846 77.4434V76.7675C77.5846 76.3995 77.3286 76.2515 77.0126 76.4355L42.614 96.2827C42.4477 96.3918 42.3094 96.5384 42.21 96.7107C42.1107 96.8829 42.0532 97.0761 42.042 97.2747Z" fill="#E0E0E0"/>
<path d="M38.2739 97.6229C39.1739 96.7309 39.3979 96.3509 39.3979 96.0229C39.3979 95.6949 39.2659 95.5189 38.8619 95.7509C38.6872 95.8525 38.5369 95.991 38.4215 96.1569C38.3061 96.3227 38.2284 96.5118 38.1939 96.7109L37.21 96.9309C37.2956 96.4154 37.4901 95.924 37.7805 95.4895C38.0708 95.055 38.4504 94.6874 38.8939 94.411C39.8779 93.843 40.4498 94.267 40.4498 95.2309C40.3949 96.1499 39.9949 97.0142 39.3299 97.6509V98.4308L38.2739 99.0388V97.6229Z" fill="#455A64"/>
<path d="M38.2618 100.214C38.2601 100.022 38.3087 99.8328 38.4027 99.6651C38.4967 99.4974 38.6329 99.3572 38.7977 99.2583C39.1497 99.0543 39.3297 99.2343 39.3297 99.5983C39.3324 99.7914 39.2847 99.9817 39.1914 100.151C39.0981 100.32 38.9625 100.462 38.7977 100.562C38.4418 100.766 38.2618 100.582 38.2618 100.214Z" fill="#455A64"/>
<path d="M53.3815 95.0671L53.8215 95.3991L53.4215 96.1591C53.3871 96.2053 53.3685 96.2614 53.3685 96.3191C53.3685 96.3767 53.3871 96.4328 53.4215 96.4791C53.4935 96.535 53.6055 96.4791 53.6695 96.3591L54.0694 95.6031L54.5094 95.9351C54.5734 95.9831 54.6694 95.9351 54.7214 95.8311C54.751 95.7911 54.7669 95.7428 54.7669 95.6931C54.7669 95.6434 54.751 95.595 54.7214 95.5551L54.2814 95.2231L54.6814 94.4631C54.7137 94.415 54.7292 94.3576 54.7256 94.2998C54.722 94.2419 54.6994 94.1869 54.6614 94.1431C54.5894 94.0911 54.4774 94.1432 54.4134 94.2631L54.0134 95.0231L53.5735 94.6911C53.5135 94.6431 53.4175 94.6911 53.3615 94.7911C53.3341 94.8329 53.3212 94.8826 53.3248 94.9325C53.3284 94.9824 53.3483 95.0297 53.3815 95.0671Z" fill="#3EA635"/>
<path d="M38.5778 120.838C38.5146 120.839 38.4525 120.822 38.3978 120.79C38.3333 120.751 38.2811 120.695 38.2471 120.628C38.2131 120.561 38.1988 120.485 38.2058 120.41V118.686C38.2111 118.533 38.254 118.383 38.3307 118.25C38.4074 118.116 38.5156 118.004 38.6458 117.922L40.1378 117.062C40.1996 117.022 40.2717 116.999 40.3458 116.996C40.4199 116.994 40.4932 117.012 40.5576 117.049C40.6219 117.086 40.6747 117.14 40.71 117.205C40.7454 117.271 40.7619 117.344 40.7577 117.418V119.142C40.7525 119.296 40.7096 119.446 40.6329 119.579C40.5562 119.712 40.448 119.825 40.3178 119.906L38.8258 120.766C38.7509 120.812 38.6654 120.836 38.5778 120.838ZM40.3858 117.346C40.3614 117.351 40.3382 117.36 40.3178 117.374L38.8258 118.234C38.7509 118.285 38.6884 118.352 38.6434 118.43C38.5983 118.509 38.5718 118.596 38.5658 118.686V120.41C38.5597 120.434 38.5597 120.459 38.5658 120.482C38.5902 120.478 38.6134 120.468 38.6338 120.454L40.1258 119.594C40.2007 119.544 40.2631 119.477 40.3082 119.399C40.3533 119.32 40.3798 119.233 40.3858 119.142V117.418C40.3896 117.395 40.3896 117.37 40.3858 117.346Z" fill="#455A64"/>
<path d="M42.0258 116.81L47.9056 113.414C48.1016 113.302 48.2576 113.394 48.2576 113.618V114.074C48.2512 114.196 48.2159 114.315 48.1547 114.42C48.0935 114.526 48.0082 114.616 47.9056 114.682L42.0258 118.078C41.8338 118.19 41.6738 118.098 41.6738 117.874V117.418C41.6805 117.296 41.7159 117.177 41.7771 117.072C41.8382 116.966 41.9235 116.876 42.0258 116.81Z" fill="#E0E0E0"/>
<path d="M53.15 112.426C53.0867 112.427 53.0245 112.41 52.97 112.378C52.9047 112.34 52.8517 112.284 52.817 112.216C52.7823 112.149 52.7674 112.073 52.774 111.998V110.274C52.7801 110.12 52.8237 109.97 52.9011 109.837C52.9785 109.704 53.0873 109.592 53.218 109.51L54.7099 108.65C54.7723 108.608 54.8449 108.583 54.9201 108.578C54.9953 108.573 55.0705 108.588 55.1379 108.622C55.2031 108.665 55.2554 108.725 55.2892 108.796C55.323 108.866 55.3371 108.944 55.3299 109.022V110.746C55.3246 110.9 55.2817 111.05 55.205 111.183C55.1283 111.316 55.0201 111.428 54.8899 111.51L53.398 112.37C53.3215 112.41 53.2361 112.429 53.15 112.426ZM54.9539 108.934C54.9312 108.94 54.9095 108.949 54.8899 108.962L53.398 109.822C53.3225 109.872 53.2595 109.939 53.2137 110.018C53.168 110.096 53.1407 110.184 53.134 110.274V111.998C53.1269 112.022 53.1269 112.047 53.134 112.07C53.1582 112.065 53.1812 112.055 53.202 112.042L54.7099 111.182C54.7849 111.132 54.8473 111.065 54.8924 110.986C54.9374 110.908 54.9639 110.82 54.9699 110.73V109.006C54.9729 108.981 54.9672 108.956 54.9539 108.934Z" fill="#455A64"/>
<path d="M56.5971 108.398L62.4769 105.002C62.6729 104.894 62.8289 104.982 62.8289 105.206V105.662C62.8225 105.784 62.7872 105.903 62.726 106.008C62.6648 106.114 62.5794 106.204 62.4769 106.27L56.5971 109.666C56.4011 109.778 56.2451 109.686 56.2451 109.462V109.006C56.2537 108.884 56.2898 108.767 56.3508 108.661C56.4118 108.556 56.496 108.466 56.5971 108.398Z" fill="#E0E0E0"/>
<path d="M67.7175 104.014C67.6543 104.015 67.5922 103.998 67.5375 103.966C67.473 103.928 67.4207 103.871 67.3867 103.804C67.3528 103.737 67.3385 103.661 67.3455 103.586V101.862C67.3508 101.709 67.3937 101.559 67.4704 101.426C67.5471 101.292 67.6553 101.18 67.7855 101.098L69.2774 100.239C69.3385 100.195 69.4106 100.169 69.4855 100.165C69.5604 100.16 69.6351 100.177 69.7011 100.213C69.767 100.249 69.8215 100.302 69.8583 100.368C69.8952 100.433 69.9129 100.508 69.9094 100.582V102.306C69.9033 102.46 69.8597 102.61 69.7823 102.744C69.7049 102.877 69.5961 102.989 69.4654 103.07L67.9735 103.93C67.8976 103.982 67.809 104.011 67.7175 104.014ZM67.9655 101.41C67.8911 101.462 67.8292 101.529 67.7842 101.607C67.7392 101.685 67.7123 101.772 67.7055 101.862V103.586C67.6984 103.61 67.6984 103.635 67.7055 103.658C67.7282 103.653 67.7499 103.643 67.7695 103.63L69.2614 102.77C69.3369 102.72 69.3999 102.653 69.4457 102.575C69.4914 102.497 69.5187 102.409 69.5254 102.318V100.582C69.5325 100.559 69.5325 100.534 69.5254 100.511C69.5019 100.516 69.4791 100.524 69.4574 100.535L67.9655 101.41Z" fill="#455A64"/>
<path d="M71.1694 99.9863L77.0491 96.5905C77.2411 96.4825 77.4011 96.5905 77.4011 96.7944V97.2504C77.3926 97.3719 77.3564 97.4898 77.2954 97.5951C77.2344 97.7005 77.1502 97.7905 77.0491 97.8584L71.1694 101.254C70.9734 101.366 70.8174 101.274 70.8174 101.05V100.582C70.8256 100.462 70.8617 100.346 70.9228 100.243C70.9839 100.139 71.0684 100.051 71.1694 99.9863Z" fill="#E0E0E0"/>
<path d="M42.042 108.394V109.07C42.042 109.434 42.298 109.582 42.614 109.402L77.0126 89.5548C77.1797 89.4466 77.3187 89.3003 77.4182 89.1278C77.5176 88.9553 77.5747 88.7617 77.5846 88.5629V87.8869C77.5846 87.5229 77.3286 87.3709 77.0126 87.5549L42.614 107.402C42.4477 107.511 42.3094 107.658 42.21 107.83C42.1107 108.002 42.0532 108.196 42.042 108.394Z" fill="#E0E0E0"/>
<path d="M42.042 112.466V113.142C42.042 113.506 42.298 113.654 42.614 113.47L77.0126 93.6268C77.1793 93.5182 77.318 93.3717 77.4173 93.1993C77.5167 93.027 77.574 92.8336 77.5846 92.6349V91.9589C77.5846 91.5909 77.3286 91.4429 77.0126 91.6269L42.614 111.474C42.4473 111.583 42.3086 111.729 42.2092 111.902C42.1098 112.074 42.0525 112.267 42.042 112.466Z" fill="#E0E0E0"/>
<path d="M38.2739 112.814C39.1739 111.922 39.3979 111.542 39.3979 111.214C39.3979 110.886 39.2659 110.706 38.8619 110.942C38.6872 111.044 38.5369 111.182 38.4215 111.348C38.3061 111.514 38.2284 111.703 38.1939 111.902L37.21 112.118C37.2962 111.603 37.4909 111.113 37.7812 110.679C38.0715 110.245 38.4508 109.878 38.8939 109.602C39.8779 109.034 40.4498 109.458 40.4498 110.402C40.3949 111.321 39.9949 112.185 39.3299 112.822V113.602L38.2739 114.21V112.814Z" fill="#455A64"/>
<path d="M38.2618 115.406C38.2599 115.213 38.3083 115.023 38.4023 114.855C38.4963 114.687 38.6326 114.546 38.7978 114.446C39.1497 114.246 39.3297 114.426 39.3297 114.79C39.332 114.983 39.2841 115.173 39.1909 115.342C39.0977 115.511 38.9622 115.653 38.7978 115.754C38.4418 115.958 38.2618 115.782 38.2618 115.406Z" fill="#455A64"/>
<path d="M67.9531 101.846L68.3891 102.178L67.9891 102.938C67.9541 102.984 67.9351 103.04 67.9351 103.098C67.9351 103.156 67.9541 103.212 67.9891 103.258C68.0611 103.314 68.1731 103.258 68.2371 103.138L68.6371 102.378L69.0771 102.71C69.1411 102.758 69.2331 102.71 69.2891 102.61C69.3193 102.57 69.3356 102.522 69.3356 102.472C69.3356 102.422 69.3193 102.374 69.2891 102.334L68.8491 102.002L69.2491 101.242C69.2795 101.193 69.2939 101.136 69.2903 101.079C69.2867 101.022 69.2653 100.967 69.2291 100.922C69.1571 100.866 69.0451 100.922 68.9811 101.042L68.5811 101.802L68.1411 101.466C68.0771 101.418 67.9811 101.466 67.9291 101.57C67.9023 101.612 67.8901 101.662 67.8944 101.712C67.8987 101.762 67.9194 101.809 67.9531 101.846Z" fill="#3EA635"/>
<path d="M38.5778 136.029C38.5146 136.03 38.4525 136.013 38.3978 135.981C38.3333 135.943 38.2811 135.886 38.2471 135.819C38.2131 135.752 38.1988 135.676 38.2058 135.601V133.878C38.2111 133.724 38.254 133.574 38.3307 133.441C38.4074 133.308 38.5156 133.195 38.6458 133.114L40.1378 132.25C40.201 132.209 40.2736 132.186 40.3486 132.181C40.4236 132.177 40.4984 132.192 40.5657 132.226C40.6316 132.268 40.6844 132.328 40.7182 132.398C40.7521 132.469 40.7658 132.548 40.7577 132.626V134.349C40.7514 134.503 40.7081 134.652 40.6315 134.785C40.5549 134.919 40.4473 135.031 40.3178 135.113L38.8258 135.973C38.7494 136.013 38.6639 136.032 38.5778 136.029ZM40.3858 132.538C40.3619 132.542 40.3389 132.55 40.3178 132.562L38.8258 133.426C38.7509 133.476 38.6884 133.543 38.6434 133.621C38.5983 133.7 38.5718 133.787 38.5658 133.878V135.601C38.5597 135.625 38.5597 135.65 38.5658 135.673C38.5895 135.667 38.6123 135.657 38.6338 135.645L40.1258 134.785C40.2007 134.735 40.2631 134.668 40.3082 134.59C40.3533 134.511 40.3798 134.424 40.3858 134.333V132.61C40.3901 132.586 40.3901 132.561 40.3858 132.538Z" fill="#455A64"/>
<path d="M42.0258 132.001L47.9056 128.605C48.1016 128.493 48.2576 128.585 48.2576 128.809V129.265C48.2512 129.387 48.2159 129.506 48.1547 129.612C48.0935 129.717 48.0082 129.807 47.9056 129.873L42.0258 133.269C41.8338 133.381 41.6738 133.269 41.6738 133.065V132.609C41.6805 132.487 41.7159 132.369 41.7771 132.263C41.8382 132.157 41.9235 132.068 42.0258 132.001Z" fill="#E0E0E0"/>
<path d="M53.1492 127.617C53.0859 127.618 53.0237 127.601 52.9692 127.569C52.9005 127.53 52.8452 127.47 52.8103 127.399C52.7754 127.328 52.7625 127.248 52.7732 127.169V125.445C52.7792 125.292 52.8229 125.141 52.9002 125.008C52.9776 124.875 53.0864 124.763 53.2171 124.681L54.7091 123.817C54.7712 123.776 54.8437 123.753 54.9182 123.751C54.9927 123.749 55.0663 123.768 55.1308 123.805C55.1953 123.842 55.248 123.897 55.283 123.963C55.3181 124.029 55.334 124.103 55.3291 124.177V125.901C55.3238 126.055 55.2809 126.205 55.2042 126.338C55.1275 126.471 55.0193 126.584 54.8891 126.665L53.3971 127.525C53.3242 127.578 53.2386 127.609 53.1492 127.617ZM54.9531 124.125C54.9308 124.131 54.9092 124.139 54.8891 124.149L53.3971 125.013C53.3216 125.064 53.2586 125.131 53.2129 125.209C53.1671 125.287 53.1399 125.375 53.1331 125.465V127.189C53.126 127.213 53.126 127.238 53.1331 127.261C53.1566 127.254 53.1793 127.245 53.2011 127.233L54.6931 126.373C54.7681 126.323 54.8305 126.256 54.8755 126.178C54.9206 126.099 54.9471 126.012 54.9531 125.921V124.181C54.9578 124.163 54.9578 124.144 54.9531 124.125Z" fill="#455A64"/>
<path d="M56.5971 123.59L62.4769 120.194C62.6729 120.082 62.8289 120.194 62.8289 120.398V120.854C62.8225 120.976 62.7872 121.094 62.726 121.2C62.6648 121.306 62.5794 121.395 62.4769 121.462L56.5971 124.858C56.4011 124.97 56.2451 124.878 56.2451 124.654V124.182C56.256 124.063 56.2932 123.948 56.3541 123.846C56.415 123.743 56.4981 123.656 56.5971 123.59Z" fill="#E0E0E0"/>
<path d="M67.7175 119.206C67.6543 119.206 67.5922 119.19 67.5375 119.158C67.473 119.119 67.4207 119.063 67.3867 118.996C67.3528 118.929 67.3385 118.853 67.3455 118.778V117.054C67.3508 116.901 67.3937 116.751 67.4704 116.617C67.5471 116.484 67.6553 116.372 67.7855 116.29L69.2774 115.426C69.3414 115.386 69.4147 115.362 69.4903 115.358C69.5659 115.354 69.6413 115.369 69.7094 115.402C69.7746 115.445 69.8269 115.505 69.8607 115.576C69.8945 115.646 69.9085 115.724 69.9014 115.802V117.526C69.8946 117.68 69.8507 117.83 69.7734 117.963C69.6961 118.096 69.5877 118.208 69.4574 118.29L67.9655 119.15C67.8891 119.19 67.8036 119.21 67.7175 119.206ZM67.9655 116.602C67.8911 116.653 67.8292 116.721 67.7842 116.799C67.7392 116.877 67.7123 116.964 67.7055 117.054V118.778C67.6984 118.802 67.6984 118.827 67.7055 118.85C67.7274 118.842 67.7488 118.833 67.7695 118.822L69.2614 117.962C69.3369 117.912 69.3999 117.845 69.4457 117.767C69.4914 117.688 69.5187 117.601 69.5254 117.51V115.782C69.5333 115.759 69.5333 115.734 69.5254 115.71C69.5019 115.716 69.4791 115.724 69.4574 115.734L67.9655 116.602Z" fill="#455A64"/>
<path d="M71.1694 115.178L77.0491 111.782C77.2411 111.67 77.4011 111.762 77.4011 111.986V112.442C77.3926 112.564 77.3564 112.681 77.2954 112.787C77.2344 112.892 77.1502 112.982 77.0491 113.05L71.1694 116.446C70.9734 116.558 70.8174 116.446 70.8174 116.242V115.782C70.8244 115.661 70.8599 115.543 70.9211 115.438C70.9823 115.333 71.0673 115.244 71.1694 115.178Z" fill="#E0E0E0"/>
<path d="M42.042 123.586V124.262C42.042 124.626 42.298 124.774 42.614 124.59L77.0126 104.747C77.1793 104.638 77.318 104.492 77.4173 104.319C77.5167 104.147 77.574 103.954 77.5846 103.755V103.079C77.5846 102.711 77.3286 102.563 77.0126 102.747L42.614 122.594C42.4473 122.703 42.3086 122.849 42.2092 123.022C42.1098 123.194 42.0525 123.387 42.042 123.586Z" fill="#E0E0E0"/>
<path d="M42.042 127.657V128.333C42.042 128.697 42.298 128.845 42.614 128.661L77.0126 108.818C77.1788 108.709 77.3172 108.563 77.4165 108.39C77.5158 108.218 77.5734 108.025 77.5846 107.826V107.15C77.5846 106.782 77.3286 106.634 77.0126 106.818L42.614 126.666C42.4473 126.774 42.3086 126.921 42.2092 127.093C42.1098 127.265 42.0525 127.459 42.042 127.657Z" fill="#E0E0E0"/>
<path d="M38.2739 128.006C39.1739 127.114 39.3979 126.734 39.3979 126.406C39.3979 126.078 39.2659 125.898 38.8619 126.134C38.6877 126.235 38.5377 126.373 38.4223 126.538C38.3069 126.703 38.229 126.891 38.1939 127.09L37.21 127.31C37.2962 126.795 37.4909 126.304 37.7812 125.871C38.0715 125.437 38.4508 125.07 38.8939 124.794C39.8779 124.226 40.4498 124.65 40.4498 125.614C40.3949 126.533 39.9949 127.397 39.3299 128.034V128.814L38.2739 129.422V128.006Z" fill="#455A64"/>
<path d="M38.2618 130.582C38.2599 130.389 38.3083 130.199 38.4023 130.031C38.4963 129.862 38.6326 129.721 38.7978 129.622C39.1497 129.422 39.3297 129.598 39.3297 129.966C39.3325 130.158 39.2848 130.348 39.1915 130.516C39.0982 130.685 38.9624 130.826 38.7978 130.926C38.4418 131.15 38.2618 130.982 38.2618 130.582Z" fill="#455A64"/>
<path d="M67.9531 117.102L68.3891 117.434L67.9891 118.194C67.9541 118.24 67.9351 118.296 67.9351 118.354C67.9351 118.412 67.9541 118.468 67.9891 118.514C68.0611 118.57 68.1731 118.514 68.2371 118.394L68.6371 117.634L69.0771 117.97C69.1411 118.018 69.2331 117.97 69.2891 117.866C69.3193 117.826 69.3356 117.778 69.3356 117.728C69.3356 117.678 69.3193 117.63 69.2891 117.59L68.8491 117.258L69.2491 116.498C69.2795 116.449 69.2939 116.392 69.2903 116.335C69.2867 116.277 69.2653 116.223 69.2291 116.178C69.1571 116.122 69.0451 116.178 68.9811 116.298L68.5811 117.058L68.1411 116.722C68.0771 116.678 67.9811 116.722 67.9291 116.826C67.9023 116.868 67.8901 116.918 67.8944 116.968C67.8987 117.018 67.9194 117.065 67.9531 117.102Z" fill="#3EA635"/>
<path d="M106.919 52.3689L103.979 50.673L103.951 50.653C102.487 49.825 100.483 49.949 98.2636 51.233C96.1836 52.4329 94.2877 54.4329 92.8598 56.7408C91.2078 59.4047 90.1719 62.4845 90.1719 65.2484C90.1719 67.8283 91.0718 69.6482 92.5318 70.4842L95.5197 72.1921C96.9916 73.1321 99.0755 73.0481 101.383 71.7162C105.855 69.1323 109.479 62.8565 109.479 57.6967C109.475 55.0208 108.491 53.1689 106.919 52.3689Z" fill="#3EA635"/>
<path opacity="0.1" d="M95.4558 72.184L92.5279 70.5081C91.0679 69.6601 90.168 67.8482 90.168 65.2723C90.168 62.5084 91.2039 59.4285 92.8559 56.7646L95.9797 58.5686C94.3278 61.2285 93.2918 64.3083 93.2918 67.0682C93.2838 69.5161 94.1078 71.2801 95.4558 72.184Z" fill="black"/>
<path opacity="0.4" d="M106.859 52.337C105.419 51.637 103.495 51.813 101.379 53.033C99.2634 54.2529 97.4035 56.2328 95.9715 58.5528L92.8477 56.7488C94.2756 54.4329 96.1755 52.437 98.2514 51.241C100.471 49.9571 102.475 49.8371 103.939 50.6611L103.967 50.6811L106.859 52.337Z" fill="white"/>
<path d="M99.5919 59.9686C99.5976 60.2802 99.5312 60.5888 99.398 60.8705C99.2648 61.1521 99.0683 61.3993 98.824 61.5926C98.4 61.8366 98.056 61.5086 98.056 60.8566C98.0504 60.5451 98.1167 60.2364 98.2499 59.9548C98.3832 59.6731 98.5796 59.426 98.824 59.2327C99.248 58.9847 99.5919 59.3167 99.5919 59.9686Z" fill="#455A64"/>
<path d="M103.963 57.4445C103.969 57.7561 103.902 58.0647 103.769 58.3464C103.636 58.6281 103.439 58.8752 103.195 59.0685C102.771 59.3125 102.427 58.9845 102.427 58.3325C102.421 58.021 102.488 57.7124 102.621 57.4307C102.754 57.149 102.951 56.9019 103.195 56.7086C103.619 56.4646 103.963 56.7926 103.963 57.4445Z" fill="#455A64"/>
<path d="M96.98 69.7199C96.9495 69.7238 96.9186 69.7238 96.888 69.7199C96.8313 69.7084 96.7775 69.6859 96.7296 69.6535C96.6818 69.621 96.6408 69.5794 96.6092 69.531C96.5775 69.4827 96.5558 69.4285 96.5453 69.3716C96.5348 69.3148 96.5358 69.2564 96.548 69.1999C97.244 65.892 99.0159 62.9961 101.06 61.8162C101.476 61.5399 101.951 61.3649 102.447 61.3052C102.943 61.2455 103.446 61.3026 103.916 61.4722C104.88 61.8722 105.624 62.8361 106.008 64.2041C106.027 64.3129 106.005 64.4251 105.946 64.5186C105.887 64.6121 105.796 64.6803 105.689 64.7098C105.583 64.7393 105.469 64.728 105.37 64.6781C105.272 64.6282 105.195 64.5434 105.156 64.4401C104.852 63.3441 104.292 62.5801 103.584 62.2882C103.238 62.1748 102.871 62.1425 102.511 62.1938C102.151 62.2452 101.808 62.3787 101.508 62.5841C99.6999 63.6281 98.056 66.36 97.42 69.3839C97.3955 69.4814 97.3387 69.5678 97.2588 69.6288C97.1788 69.6899 97.0806 69.722 96.98 69.7199Z" fill="#455A64"/>
<path d="M106.919 26.7786L103.979 25.0827H103.951C102.487 24.2547 100.483 24.3787 98.2636 25.6627C96.1836 26.8626 94.2877 28.8625 92.8598 31.1704C91.2078 33.8343 90.1719 36.9142 90.1719 39.6781C90.1719 42.258 91.0718 44.0779 92.5318 44.9139L95.5197 46.6218C96.9916 47.5618 99.0755 47.4778 101.383 46.1458C105.855 43.562 109.479 37.2862 109.479 32.1464C109.475 29.4305 108.491 27.5786 106.919 26.7786Z" fill="#3EA635"/>
<path opacity="0.1" d="M95.4558 46.5854L92.5279 44.9095C91.0679 44.0615 90.168 42.2496 90.168 39.6737C90.168 36.9098 91.2039 33.8299 92.8559 31.166L95.9797 32.9699C94.3278 35.6298 93.2918 38.7097 93.2918 41.4696C93.2838 43.9255 94.1078 45.6894 95.4558 46.5854Z" fill="black"/>
<path opacity="0.4" d="M106.859 26.7462C105.419 26.0462 103.495 26.2222 101.379 27.4422C99.2634 28.6621 97.4035 30.642 95.9715 32.9619L92.8477 31.158C94.2756 28.8421 96.1755 26.8462 98.2514 25.6502C100.471 24.3663 102.475 24.2463 103.939 25.0702H103.967L106.859 26.7462Z" fill="white"/>
<path d="M99.5433 42.8616C99.1634 42.8626 98.787 42.7892 98.4353 42.6456C97.3914 42.2176 96.5914 41.1736 96.1794 39.6977C96.1516 39.5782 96.1709 39.4527 96.2334 39.3471C96.2959 39.2416 96.3967 39.1642 96.5149 39.1312C96.633 39.0982 96.7593 39.1121 96.8675 39.1699C96.9756 39.2278 97.0573 39.3251 97.0954 39.4417C97.4274 40.6417 98.0314 41.4416 98.7953 41.7656C99.1689 41.8903 99.5664 41.9266 99.9564 41.8718C100.346 41.817 100.718 41.6725 101.043 41.4496C102.991 40.3257 104.767 37.3738 105.443 34.1099C105.47 33.9868 105.544 33.8793 105.65 33.8104C105.755 33.7416 105.884 33.717 106.007 33.7419C106.068 33.7548 106.126 33.7796 106.178 33.8149C106.23 33.8502 106.274 33.8953 106.308 33.9477C106.342 34 106.366 34.0586 106.377 34.1201C106.389 34.1816 106.388 34.2447 106.375 34.3059C105.623 37.8738 103.711 41.0016 101.507 42.2776C100.914 42.6395 100.238 42.8407 99.5433 42.8616Z" fill="#455A64"/>
<path d="M99.4552 34.9417C99.461 35.2783 99.3894 35.6117 99.2458 35.9161C99.1022 36.2206 98.8906 36.488 98.6272 36.6976C98.1672 36.9616 97.7993 36.6056 97.7993 35.8977C97.7925 35.5615 97.8638 35.2284 98.0075 34.9244C98.1511 34.6205 98.3632 34.3539 98.6272 34.1457C99.0832 33.8817 99.4552 34.2377 99.4552 34.9417Z" fill="#455A64"/>
<path d="M104.176 32.2176C104.182 32.5536 104.11 32.8865 103.966 33.1903C103.823 33.4941 103.611 33.7608 103.348 33.9696C102.892 34.2336 102.52 33.8776 102.52 33.1696C102.514 32.8336 102.586 32.5008 102.729 32.197C102.873 31.8932 103.085 31.6265 103.348 31.4177C103.804 31.1537 104.176 31.5137 104.176 32.2176Z" fill="#455A64"/>
<path d="M112.936 98.8073L91.7367 111.047C91.5236 111.155 91.2879 111.212 91.0487 111.212C90.8096 111.212 90.5738 111.155 90.3608 111.047L89.2368 110.395C89.0354 110.263 88.868 110.086 88.7484 109.878C88.6288 109.669 88.5604 109.435 88.5488 109.195V84.7158C88.5604 84.4757 88.6288 84.2417 88.7484 84.0331C88.868 83.8245 89.0354 83.6472 89.2368 83.5159L110.436 71.2764C110.648 71.1679 110.883 71.1113 111.122 71.1113C111.36 71.1113 111.596 71.1679 111.808 71.2764L112.932 71.9324C113.134 72.0632 113.301 72.2403 113.421 72.449C113.541 72.6577 113.609 72.892 113.62 73.1323V97.6153C113.607 97.8538 113.539 98.0859 113.42 98.293C113.301 98.5001 113.135 98.6763 112.936 98.8073Z" fill="#455A64"/>
<path d="M91.6206 111.099C91.4189 111.18 91.2023 111.217 90.9851 111.208C90.7679 111.199 90.555 111.144 90.3607 111.047L89.2367 110.391C89.0354 110.26 88.8682 110.083 88.7493 109.874C88.6303 109.665 88.5629 109.431 88.5527 109.191V84.7122C88.5587 84.4719 88.6277 84.2375 88.7527 84.0322L91.2486 85.4842C91.1254 85.6887 91.0565 85.9214 91.0486 86.1601V110.639C91.0486 111.043 91.2926 111.227 91.6206 111.099Z" fill="#263238"/>
<path d="M112.936 98.8072L91.7368 111.047C91.3568 111.267 91.0488 111.091 91.0488 110.647V86.1837C91.0604 85.9436 91.1288 85.7096 91.2484 85.501C91.368 85.2924 91.5354 85.1151 91.7368 84.9838L112.936 72.7443C113.316 72.5243 113.624 72.7043 113.624 73.1443V97.6273C113.609 97.864 113.539 98.094 113.42 98.2989C113.3 98.5038 113.135 98.6779 112.936 98.8072Z" fill="#37474F"/>
<path fill-rule="evenodd" clip-rule="evenodd" d="M101.756 92.7078L95.9961 100.867C98.54 103.439 103.436 101.507 106.932 96.5516C109.032 93.5797 110.16 90.3719 110.16 87.376L103.188 91.3838C102.635 91.7352 102.149 92.1837 101.756 92.7078Z" fill="#3EA635"/>
<path opacity="0.3" fill-rule="evenodd" clip-rule="evenodd" d="M101.756 92.7078L95.9961 100.867C98.54 103.439 103.436 101.507 106.932 96.5516C109.032 93.5797 110.16 90.3719 110.16 87.376L103.188 91.3838C102.635 91.7352 102.149 92.1837 101.756 92.7078Z" fill="black"/>
<path d="M95.7045 100.659L101.464 92.4996C101.887 91.9379 102.411 91.4592 103.008 91.0877L109.98 87.0639C110.035 87.0322 110.097 87.0156 110.16 87.0156C110.223 87.0156 110.285 87.0323 110.34 87.0639C110.395 87.0955 110.44 87.141 110.472 87.1958C110.503 87.2505 110.52 87.3126 110.52 87.3758C110.52 90.4637 109.38 93.7116 107.228 96.7595C104.912 100.039 101.936 102.127 99.2683 102.359C98.6257 102.434 97.9747 102.362 97.3638 102.149C96.7529 101.937 96.1979 101.589 95.7404 101.131C95.6852 101.075 95.6498 101.003 95.6397 100.925C95.6296 100.847 95.6453 100.768 95.6845 100.699C95.6867 100.684 95.6937 100.67 95.7045 100.659ZM109.784 88.0078L103.384 91.7117C102.876 92.0291 102.429 92.4356 102.064 92.9116L96.4844 100.811C96.8633 101.122 97.3008 101.352 97.7709 101.49C98.241 101.627 98.7339 101.669 99.2203 101.611C101.644 101.411 104.492 99.3874 106.648 96.3275C107.016 95.8115 107.348 95.2875 107.652 94.7635C108.884 92.7104 109.614 90.396 109.784 88.0078Z" fill="white"/>
<path fill-rule="evenodd" clip-rule="evenodd" d="M102.016 90.956L99.908 84.6963C95.7961 88.6121 93.5442 95.0119 94.8802 98.9877C95.0949 99.6944 95.4763 100.339 95.9921 100.868L101.752 92.708C101.915 92.4503 102.023 92.1614 102.068 91.8598C102.114 91.5582 102.096 91.2504 102.016 90.956Z" fill="#3EA635"/>
<path d="M99.6644 84.4357C99.7075 84.3936 99.7605 84.363 99.8186 84.3469C99.8766 84.3308 99.9378 84.3297 99.9964 84.3437C100.055 84.3592 100.109 84.3888 100.154 84.4299C100.198 84.4711 100.232 84.5225 100.252 84.5797L102.356 90.8395C102.454 91.1875 102.477 91.5521 102.425 91.9097C102.373 92.2674 102.246 92.61 102.052 92.9154L96.3086 101.075C96.2774 101.117 96.2378 101.152 96.1923 101.177C96.1468 101.203 96.0965 101.218 96.0446 101.223C95.9919 101.229 95.9386 101.222 95.8887 101.204C95.8388 101.186 95.7937 101.157 95.7566 101.119C95.2039 100.557 94.7927 99.8714 94.5566 99.1192C93.5847 96.2273 94.4487 92.0914 96.5206 88.5036C97.3685 87.0042 98.4272 85.6343 99.6644 84.4357ZM101.464 92.4994C101.594 92.2873 101.68 92.051 101.715 91.8048C101.751 91.5586 101.737 91.3078 101.672 91.0675L99.7524 85.3557C96.0006 89.2036 93.9767 95.1553 95.2246 98.8752C95.3842 99.3866 95.6349 99.8649 95.9646 100.287L101.464 92.4994Z" fill="white"/>
<path fill-rule="evenodd" clip-rule="evenodd" d="M102.904 91.0837L108.664 82.924C106.632 80.8681 103.2 81.56 99.9121 84.6959L102.016 90.9557C102.188 91.4756 102.588 91.5316 102.904 91.0837Z" fill="#3EA635"/>
<path opacity="0.1" fill-rule="evenodd" clip-rule="evenodd" d="M102.904 91.0837L108.664 82.924C106.632 80.8681 103.2 81.56 99.9121 84.6959L102.016 90.9557C102.188 91.4756 102.588 91.5316 102.904 91.0837Z" fill="black"/>
<path d="M99.6644 84.436C103.104 81.1562 106.74 80.4642 108.92 82.6721C108.98 82.7319 109.016 82.8108 109.024 82.8948C109.031 82.9789 109.008 83.0629 108.96 83.1321L103.196 91.2918C103.125 91.4511 103.004 91.5828 102.851 91.6668C102.698 91.7508 102.522 91.7826 102.349 91.7572C102.177 91.7318 102.017 91.6507 101.895 91.5263C101.773 91.4018 101.695 91.2408 101.672 91.0678L99.5684 84.808C99.5527 84.7599 99.5474 84.7089 99.5529 84.6586C99.5584 84.6082 99.5746 84.5596 99.6004 84.516C99.616 84.4852 99.6378 84.458 99.6644 84.436ZM108.188 82.9841C106.32 81.3842 103.288 82.0681 100.324 84.808L102.356 90.8478C102.378 90.915 102.411 90.9785 102.452 91.0358C102.517 91.0005 102.571 90.9479 102.608 90.8838L108.188 82.9841Z" fill="white"/>
<path fill-rule="evenodd" clip-rule="evenodd" d="M103.188 91.3833L110.16 87.3835C110.16 85.3835 109.68 83.9636 108.664 82.9316L102.904 91.0913C102.588 91.5313 102.708 91.6713 103.188 91.3833Z" fill="#3EA635"/>
<path opacity="0.2" fill-rule="evenodd" clip-rule="evenodd" d="M103.188 91.3833L110.16 87.3835C110.16 85.3835 109.68 83.9636 108.664 82.9316L102.904 91.0913C102.588 91.5313 102.708 91.6713 103.188 91.3833Z" fill="black"/>
<path d="M102.608 90.8758L108.372 82.7161C108.402 82.6735 108.441 82.6382 108.487 82.6126C108.533 82.5871 108.583 82.5719 108.636 82.5681C108.688 82.5629 108.74 82.5696 108.789 82.5876C108.839 82.6056 108.883 82.6345 108.92 82.6721C110.011 83.776 110.519 85.272 110.519 87.3759C110.52 87.4391 110.503 87.5013 110.471 87.556C110.44 87.6108 110.394 87.6563 110.339 87.6879L103.372 91.7117C103.22 91.7997 102.764 92.0637 102.484 91.7557C102.406 91.6528 102.363 91.527 102.363 91.3977C102.363 91.2685 102.406 91.1427 102.484 91.0398L102.608 90.8758ZM108.708 83.5041L103.584 90.7638L109.808 87.1639C109.768 85.576 109.416 84.396 108.708 83.5041Z" fill="white"/>
<path d="M157.406 61.9839C157.036 61.8054 156.629 61.7164 156.219 61.7241C155.808 61.7317 155.405 61.8358 155.042 62.0279L118.587 83.0751C118.236 83.3084 117.944 83.6211 117.736 83.988C117.527 84.3548 117.408 84.7655 117.387 85.187V95.5866C117.372 96.0025 117.47 96.415 117.671 96.7794C117.872 97.1438 118.169 97.4464 118.529 97.6546C118.89 97.8628 119.3 97.9688 119.716 97.961C120.133 97.9532 120.539 97.832 120.891 97.6105L157.346 76.5633C157.697 76.33 157.989 76.0173 158.198 75.6504C158.406 75.2836 158.525 74.8728 158.546 74.4514V64.0518C158.531 63.6419 158.42 63.2411 158.222 62.8819C158.024 62.5227 157.745 62.2151 157.406 61.9839Z" fill="#263238"/>
<path d="M158.534 63.8327C158.434 63.2167 157.934 63.0008 157.334 63.3527L142.135 72.1244L120.879 84.3959C120.519 84.6199 120.221 84.9324 120.015 85.3039L117.728 83.9839C117.933 83.6124 118.229 83.2988 118.588 83.0719L155.042 62.0288C155.378 61.8159 155.763 61.6946 156.161 61.677C156.558 61.6595 156.952 61.7462 157.306 61.9287C157.659 62.1111 157.958 62.3829 158.174 62.717C158.389 63.0511 158.513 63.4357 158.534 63.8327Z" fill="#455A64"/>
<path d="M119.655 86.5076V96.9072C119.655 97.6831 120.203 97.9991 120.875 97.6111L157.33 76.564C157.681 76.3306 157.973 76.0179 158.181 75.6511C158.39 75.2842 158.509 74.8735 158.53 74.4521V64.0525C158.53 63.2765 157.986 62.9605 157.33 63.3485L142.13 72.1242L120.871 84.3957C120.517 84.6275 120.222 84.9395 120.011 85.3064C119.8 85.6733 119.678 86.0848 119.655 86.5076Z" fill="#37474F"/>
<path d="M125.855 84.9833L126.451 86.2472C126.457 86.2654 126.468 86.2819 126.482 86.2957C126.495 86.3095 126.512 86.3203 126.53 86.3275C126.548 86.3346 126.567 86.3379 126.587 86.3372C126.606 86.3365 126.625 86.3317 126.643 86.3232L127.975 85.8152C128.186 85.7312 128.27 86.0312 128.118 86.3192L127.155 88.1271C127.096 88.232 127.07 88.3515 127.079 88.4711L127.307 90.1111C127.343 90.371 127.123 90.711 126.935 90.687L125.735 90.539C125.686 90.5413 125.639 90.5552 125.597 90.5796C125.556 90.604 125.52 90.6381 125.495 90.679L124.295 92.203C124.107 92.443 123.895 92.355 123.923 92.055L124.151 90.1551C124.161 90.1088 124.159 90.0608 124.146 90.0154C124.132 89.97 124.108 89.9286 124.075 89.8951L123.111 89.1991C122.959 89.0871 123.043 88.6911 123.255 88.5311L124.587 87.5032C124.68 87.4252 124.747 87.3205 124.779 87.2032L125.375 85.2512C125.507 84.9433 125.759 84.7873 125.855 84.9833Z" fill="#3EA635"/>
<path d="M132.595 81.1274L133.191 82.3914C133.197 82.4099 133.207 82.4268 133.221 82.441C133.234 82.4552 133.251 82.4663 133.269 82.4735C133.287 82.4807 133.307 82.4839 133.326 82.4829C133.346 82.4818 133.365 82.4765 133.383 82.4674L134.714 81.9594C134.926 81.8754 135.01 82.1754 134.858 82.4634L133.906 84.2713C133.848 84.3775 133.822 84.4984 133.83 84.6193L134.058 86.2552C134.094 86.5152 133.874 86.8552 133.687 86.8312L132.487 86.6872C132.438 86.6876 132.391 86.7003 132.349 86.7241C132.307 86.7479 132.272 86.782 132.247 86.8232L131.047 88.3471C130.859 88.5871 130.647 88.5031 130.675 88.1991L130.903 86.2992C130.913 86.253 130.911 86.205 130.898 86.1596C130.884 86.1142 130.86 86.0728 130.827 86.0392L129.863 85.3432C129.711 85.2312 129.795 84.8393 130.007 84.6753L131.339 83.6473C131.432 83.5694 131.499 83.4647 131.531 83.3473L132.127 81.3954C132.227 81.0834 132.499 80.9274 132.595 81.1274Z" fill="#3EA635"/>
<path d="M139.334 77.2719L139.93 78.5358C139.937 78.554 139.948 78.5705 139.961 78.5843C139.975 78.5981 139.991 78.6089 140.009 78.6161C140.027 78.6232 140.047 78.6265 140.066 78.6258C140.086 78.6251 140.105 78.6203 140.122 78.6118L141.454 78.0998C141.666 78.0198 141.75 78.3158 141.598 78.6038L140.634 80.4118C140.576 80.5181 140.55 80.6389 140.558 80.7597L140.786 82.3957C140.822 82.6557 140.602 82.9996 140.414 82.9756L139.214 82.8277C139.166 82.8299 139.119 82.8438 139.077 82.8682C139.035 82.8926 139 82.9267 138.974 82.9676L137.774 84.4876C137.586 84.7316 137.374 84.6436 137.402 84.3436L137.63 82.4437C137.64 82.3968 137.638 82.3482 137.625 82.3022C137.612 82.2561 137.588 82.2141 137.554 82.1797L136.59 81.4837C136.438 81.3757 136.522 80.9797 136.734 80.8157L138.066 79.7878C138.159 79.7099 138.226 79.6051 138.258 79.4878L138.854 77.5359C138.966 77.2279 139.238 77.0679 139.334 77.2719Z" fill="#3EA635"/>
<path d="M146.073 73.4114L146.669 74.6754C146.676 74.6935 146.687 74.71 146.701 74.7239C146.714 74.7377 146.731 74.7485 146.749 74.7557C146.767 74.7628 146.786 74.7661 146.805 74.7654C146.825 74.7646 146.844 74.7599 146.861 74.7514L148.193 74.2394C148.405 74.1594 148.489 74.4554 148.337 74.7434L147.373 76.5513C147.315 76.6577 147.289 76.7784 147.297 76.8993L147.525 78.5352C147.561 78.7952 147.341 79.1392 147.153 79.1152L145.953 78.9672C145.905 78.9695 145.858 78.9834 145.816 79.0078C145.774 79.0321 145.739 79.0663 145.713 79.1072L144.513 80.6272C144.325 80.8711 144.113 80.7832 144.141 80.4832L144.369 78.5832C144.379 78.537 144.378 78.489 144.364 78.4436C144.351 78.3982 144.327 78.3568 144.293 78.3233L143.329 77.6273C143.177 77.5153 143.261 77.1193 143.473 76.9553L144.805 75.9313C144.897 75.852 144.964 75.7478 144.997 75.6314L145.593 73.6794C145.705 73.3835 145.977 73.2115 146.073 73.4114Z" fill="#3EA635"/>
<path d="M152.813 69.5518L153.409 70.8157C153.416 70.8339 153.427 70.8504 153.44 70.8642C153.454 70.878 153.47 70.8888 153.488 70.896C153.507 70.9031 153.526 70.9064 153.545 70.9057C153.565 70.905 153.584 70.9002 153.601 70.8917L154.933 70.3837C155.145 70.2997 155.229 70.5997 155.077 70.8877L154.113 72.6956C154.055 72.8005 154.029 72.92 154.037 73.0396L154.265 74.6796C154.301 74.9395 154.081 75.2795 153.893 75.2555L152.693 75.1075C152.645 75.1098 152.598 75.1237 152.556 75.1481C152.514 75.1724 152.479 75.2066 152.453 75.2475L151.253 76.7715C151.065 77.0115 150.853 76.9235 150.881 76.6235L151.109 74.7236C151.119 74.6773 151.118 74.6293 151.104 74.5839C151.091 74.5385 151.067 74.4971 151.033 74.4636L150.085 73.7836C149.933 73.6716 150.017 73.2756 150.229 73.1156L151.561 72.0877C151.655 72.0097 151.722 71.905 151.753 71.7877L152.349 69.8357C152.445 69.5078 152.705 69.3518 152.813 69.5518Z" fill="#3EA635"/>
<path d="M124.851 78.3314L122.851 77.1794C122.811 77.1617 122.778 77.1325 122.755 77.0954L122.387 76.4555L123.587 75.7715L123.551 75.8755L124.851 78.3314Z" fill="#3EA635"/>
<path opacity="0.2" d="M124.851 78.3314L122.851 77.1794C122.811 77.1617 122.778 77.1325 122.755 77.0954L122.387 76.4555L123.587 75.7715L123.551 75.8755L124.851 78.3314Z" fill="black"/>
<path d="M123.398 75.8675L124.782 78.2674C124.802 78.302 124.831 78.3302 124.866 78.3486C124.901 78.367 124.941 78.3748 124.98 78.371C125.02 78.3671 125.057 78.3519 125.088 78.3271C125.119 78.3023 125.142 78.269 125.154 78.2314L126.614 74.0195L123.398 75.8675Z" fill="#3EA635"/>
<path d="M158.305 42.4252C158.288 42.0908 158.191 41.7653 158.023 41.4754C157.856 41.1855 157.622 40.9394 157.341 40.7573C157.042 40.6074 156.712 40.5293 156.377 40.5293C156.042 40.5293 155.712 40.6074 155.413 40.7573L118.351 62.1444C118.07 62.3279 117.837 62.5748 117.669 62.8653C117.502 63.1558 117.405 63.4816 117.387 63.8164V76.0159C117.405 76.3506 117.502 76.6765 117.669 76.9669C117.837 77.2574 118.07 77.5043 118.351 77.6878C118.649 77.8396 118.98 77.9187 119.315 77.9187C119.65 77.9187 119.98 77.8396 120.279 77.6878L157.433 56.2407C158.301 55.7447 158.309 55.2487 158.309 54.6407L158.305 42.4252Z" fill="#3EA635"/>
<path opacity="0.2" d="M117.371 76.0118C117.389 76.3466 117.486 76.6724 117.653 76.9629C117.821 77.2533 118.054 77.5003 118.335 77.6838C118.606 77.822 118.904 77.9009 119.208 77.9154C119.512 77.9299 119.816 77.8796 120.099 77.7678C119.647 77.9397 119.299 77.6798 119.299 77.1278V64.9243C119.31 64.589 119.408 64.2624 119.583 63.9763L117.651 62.8604C117.479 63.1491 117.383 63.4765 117.371 63.8123V76.0118Z" fill="black"/>
<path opacity="0.4" d="M158.262 42.1532C158.15 41.7532 157.774 41.6132 157.33 41.8692L120.263 63.2563C119.977 63.4323 119.743 63.6806 119.583 63.9763L117.655 62.8603C117.818 62.5671 118.052 62.3196 118.335 62.1404L155.398 40.7572C155.696 40.6055 156.027 40.5264 156.362 40.5264C156.697 40.5264 157.027 40.6055 157.326 40.7572C157.569 40.9138 157.777 41.1184 157.938 41.3585C158.099 41.5985 158.209 41.869 158.262 42.1532Z" fill="white"/>
<path d="M121.907 65.1406L155.19 45.8854C155.514 45.7014 155.778 45.7854 155.778 46.0774C155.754 46.2573 155.688 46.4291 155.586 46.5791C155.484 46.7291 155.348 46.8532 155.19 46.9414L121.907 66.1846C121.587 66.3726 121.323 66.2886 121.323 65.9966C121.348 65.8187 121.414 65.649 121.515 65.5006C121.617 65.3521 121.751 65.229 121.907 65.1406Z" fill="white"/>
<path d="M121.907 70.5845L150.454 54.1052C150.778 53.9172 151.038 54.0012 151.038 54.2931C151.015 54.4732 150.95 54.6453 150.848 54.7959C150.747 54.9465 150.612 55.0715 150.454 55.1611L121.907 71.6364C121.587 71.8244 121.323 71.7364 121.323 71.4445C121.35 71.2665 121.416 71.0968 121.517 70.948C121.618 70.7991 121.752 70.6749 121.907 70.5845Z" fill="white"/>
<path d="M121.907 73.2315L154.51 54.3842C154.83 54.1963 155.094 54.2843 155.094 54.5762C155.068 54.7549 155.002 54.9254 154.901 55.075C154.8 55.2246 154.666 55.3494 154.51 55.4402L121.907 74.2834C121.587 74.4714 121.323 74.3874 121.323 74.0955C121.347 73.9161 121.413 73.7448 121.514 73.5949C121.615 73.4451 121.75 73.3207 121.907 73.2315Z" fill="white"/>
<path d="M121.907 67.7842L154.51 48.937C154.83 48.749 155.094 48.837 155.094 49.129C155.07 49.3082 155.004 49.4794 154.903 49.6292C154.802 49.7791 154.667 49.9035 154.51 49.9929L121.907 68.8562C121.587 69.0402 121.323 68.9562 121.323 68.6642C121.345 68.482 121.409 68.3075 121.51 68.1547C121.612 68.0019 121.748 67.875 121.907 67.7842Z" fill="white"/>
<path d="M157.406 21.4624C157.036 21.284 156.629 21.195 156.219 21.2026C155.808 21.2102 155.405 21.3143 155.042 21.5064L118.587 42.5496C118.236 42.7836 117.945 43.0965 117.737 43.4632C117.529 43.8299 117.409 44.2403 117.387 44.6615V55.0611C117.372 55.4771 117.47 55.8895 117.671 56.2539C117.872 56.6183 118.169 56.9209 118.529 57.1291C118.89 57.3374 119.3 57.4433 119.716 57.4355C120.133 57.4277 120.539 57.3065 120.891 57.085L157.346 36.0378C157.697 35.8045 157.989 35.4918 158.198 35.1249C158.406 34.7581 158.525 34.3474 158.546 33.9259V23.5263C158.531 23.1171 158.419 22.7171 158.221 22.3587C158.023 22.0002 157.744 21.6932 157.406 21.4624Z" fill="#263238"/>
<path d="M158.534 23.3103C158.434 22.6943 157.934 22.4783 157.334 22.8263L142.135 31.5979L120.879 43.8694C120.519 44.096 120.222 44.4097 120.015 44.7814L117.728 43.4615C117.932 43.0892 118.228 42.7752 118.588 42.5495L155.042 21.5063C155.378 21.2934 155.763 21.1721 156.161 21.1546C156.558 21.137 156.952 21.2238 157.306 21.4062C157.659 21.5887 157.958 21.8605 158.174 22.1945C158.389 22.5286 158.513 22.9133 158.534 23.3103Z" fill="#455A64"/>
<path d="M119.655 45.9851V56.3847C119.655 57.1607 120.203 57.4766 120.875 57.0887L157.33 36.0415C157.681 35.8082 157.973 35.4954 158.181 35.1286C158.39 34.7617 158.509 34.351 158.53 33.9296V23.53C158.53 22.754 157.986 22.4381 157.33 22.826L142.13 31.5977L120.871 43.8732C120.517 44.105 120.222 44.417 120.011 44.7839C119.8 45.1508 119.678 45.5623 119.655 45.9851Z" fill="#37474F"/>
<path d="M125.855 44.4643L126.451 45.7283C126.457 45.7464 126.468 45.7629 126.482 45.7767C126.495 45.7906 126.512 45.8014 126.53 45.8085C126.548 45.8157 126.567 45.819 126.587 45.8183C126.606 45.8175 126.625 45.8128 126.643 45.8043L127.975 45.2923C128.186 45.2123 128.27 45.5123 128.118 45.7963L127.155 47.6042C127.097 47.7106 127.07 47.8313 127.079 47.9522L127.307 49.5881C127.343 49.8481 127.123 50.1921 126.935 50.1681L125.735 50.0201C125.686 50.0224 125.639 50.0363 125.597 50.0606C125.556 50.085 125.52 50.1191 125.495 50.1601L124.295 51.68C124.107 51.924 123.895 51.836 123.923 51.536L124.151 49.6361C124.161 49.5899 124.159 49.5419 124.146 49.4965C124.132 49.4511 124.108 49.4097 124.075 49.3761L123.111 48.6802C122.959 48.5682 123.043 48.1722 123.255 48.0082L124.587 46.9842C124.679 46.9055 124.746 46.8011 124.779 46.6842L125.375 44.7323C125.507 44.4203 125.759 44.2643 125.855 44.4643Z" fill="#3EA635"/>
<path d="M132.595 40.605L133.191 41.8689C133.197 41.887 133.208 41.9035 133.222 41.9174C133.235 41.9312 133.252 41.942 133.27 41.9492C133.288 41.9563 133.307 41.9596 133.327 41.9589C133.346 41.9581 133.365 41.9534 133.383 41.9449L134.714 41.4369C134.926 41.3529 135.01 41.6529 134.858 41.9409L133.906 43.7488C133.848 43.8537 133.822 43.9732 133.83 44.0928L134.058 45.7327C134.094 45.9927 133.874 46.3327 133.687 46.3087L132.487 46.1607C132.438 46.163 132.391 46.1769 132.349 46.2013C132.308 46.2256 132.272 46.2598 132.247 46.3007L131.047 47.8247C130.859 48.0647 130.647 47.9807 130.675 47.6767L130.903 45.7767C130.913 45.7305 130.911 45.6825 130.898 45.6371C130.884 45.5917 130.86 45.5503 130.827 45.5168L129.863 44.8208C129.711 44.7088 129.795 44.3128 130.007 44.1528L131.339 43.1249C131.432 43.0469 131.499 42.9422 131.531 42.8249L132.127 40.8729C132.227 40.561 132.499 40.405 132.595 40.605Z" fill="#3EA635"/>
<path d="M139.334 36.7448L139.93 38.0127C139.937 38.0309 139.948 38.0474 139.961 38.0612C139.975 38.075 139.991 38.0859 140.009 38.093C140.027 38.1001 140.047 38.1035 140.066 38.1027C140.086 38.102 140.105 38.0972 140.122 38.0887L141.454 37.5768C141.666 37.4968 141.75 37.7928 141.598 38.0807L140.634 39.8887C140.576 39.9949 140.549 40.1158 140.558 40.2367L140.786 41.8726C140.822 42.1326 140.602 42.4726 140.414 42.4526L139.214 42.3046C139.166 42.305 139.118 42.3177 139.076 42.3415C139.034 42.3653 138.999 42.3994 138.974 42.4406L137.774 43.9645C137.586 44.2045 137.374 44.1205 137.402 43.8165L137.63 41.9166C137.64 41.8703 137.638 41.8224 137.625 41.7771C137.611 41.7318 137.587 41.6904 137.554 41.6566L136.59 40.9606C136.438 40.8526 136.522 40.4566 136.734 40.2927L138.066 39.2647C138.159 39.1868 138.226 39.082 138.258 38.9647L138.854 37.0128C138.966 36.7048 139.238 36.5448 139.334 36.7448Z" fill="#3EA635"/>
<path d="M146.074 32.8894L146.67 34.1534C146.677 34.1715 146.688 34.188 146.701 34.2018C146.715 34.2156 146.731 34.2265 146.749 34.2336C146.767 34.2408 146.787 34.2441 146.806 34.2434C146.825 34.2426 146.845 34.2379 146.862 34.2294L148.194 33.7174C148.406 33.6374 148.49 33.9334 148.338 34.2214L147.374 36.0293C147.316 36.1357 147.29 36.2564 147.298 36.3773L147.526 38.0132C147.562 38.2732 147.342 38.6172 147.154 38.5932L145.954 38.4452C145.906 38.4475 145.859 38.4614 145.817 38.4857C145.775 38.5101 145.74 38.5442 145.714 38.5852L144.514 40.1051C144.326 40.3491 144.114 40.2611 144.142 39.9611L144.37 38.0612C144.384 38.0136 144.385 37.9632 144.374 37.9149C144.363 37.8667 144.339 37.822 144.306 37.7852L143.342 37.0893C143.19 36.9813 143.274 36.5853 143.486 36.4213L144.818 35.3973C144.911 35.317 144.977 35.2113 145.01 35.0933L145.606 33.1414C145.706 32.8454 145.978 32.6854 146.074 32.8894Z" fill="#3EA635"/>
<path d="M152.814 29.0293L153.41 30.2932C153.416 30.3114 153.427 30.3279 153.441 30.3417C153.454 30.3555 153.471 30.3664 153.489 30.3735C153.507 30.3806 153.526 30.384 153.546 30.3832C153.565 30.3825 153.584 30.3777 153.602 30.3692L154.933 29.8573C155.145 29.7773 155.229 30.0773 155.077 30.3612L154.114 32.1852C154.056 32.2916 154.029 32.4123 154.038 32.5332L154.266 34.1691C154.302 34.4291 154.082 34.7731 153.894 34.7491L152.694 34.6011C152.645 34.6033 152.598 34.6172 152.556 34.6416C152.515 34.666 152.479 34.7001 152.454 34.7411L151.254 36.261C151.066 36.505 150.854 36.417 150.882 36.117L151.11 34.2171C151.12 34.1709 151.118 34.1229 151.105 34.0774C151.091 34.032 151.067 33.9907 151.034 33.9571L150.07 33.2611C149.918 33.1491 150.002 32.7531 150.214 32.5892L151.546 31.5652C151.639 31.4873 151.706 31.3825 151.738 31.2652L152.334 29.3133C152.446 28.9853 152.706 28.8293 152.814 29.0293Z" fill="#455A64"/>
<path d="M124.851 37.8089L122.851 36.657C122.811 36.6393 122.778 36.61 122.755 36.573L122.387 35.933L123.587 35.249L123.551 35.353L124.851 37.8089Z" fill="#3EA635"/>
<path opacity="0.2" d="M124.851 37.8089L122.851 36.657C122.811 36.6393 122.778 36.61 122.755 36.573L122.387 35.933L123.587 35.249L123.551 35.353L124.851 37.8089Z" fill="black"/>
<path d="M123.398 35.345L124.782 37.7449C124.802 37.7795 124.831 37.8078 124.866 37.8262C124.901 37.8446 124.941 37.8523 124.98 37.8485C125.02 37.8447 125.057 37.8294 125.088 37.8046C125.119 37.7799 125.142 37.7466 125.154 37.7089L126.614 33.4971L123.398 35.345Z" fill="#3EA635"/>
<path d="M158.305 1.9028C158.287 1.56801 158.191 1.24221 158.023 0.951749C157.856 0.66129 157.622 0.414335 157.341 0.230865C157.043 0.0791008 156.713 0 156.378 0C156.043 0 155.712 0.0791008 155.414 0.230865L118.335 21.618C118.054 21.8015 117.821 22.0484 117.653 22.3389C117.486 22.6294 117.389 22.9552 117.371 23.2899V35.4895C117.389 35.8242 117.486 36.15 117.653 36.4405C117.821 36.731 118.054 36.9779 118.335 37.1614C118.634 37.3131 118.964 37.3922 119.299 37.3922C119.634 37.3922 119.964 37.3131 120.263 37.1614L157.417 15.7102C158.285 15.2183 158.293 14.7223 158.293 14.1103L158.305 1.9028Z" fill="#3EA635"/>
<path opacity="0.2" d="M117.371 35.4894C117.389 35.8241 117.486 36.15 117.653 36.4404C117.821 36.7309 118.054 36.9778 118.335 37.1613C118.606 37.2999 118.904 37.3787 119.208 37.3925C119.513 37.4063 119.816 37.3547 120.099 37.2413C119.647 37.4133 119.299 37.1573 119.299 36.6053V24.4018C119.311 24.0654 119.408 23.7377 119.583 23.4498L117.651 22.3379C117.479 22.6267 117.383 22.9541 117.371 23.2899V35.4894Z" fill="black"/>
<path opacity="0.4" d="M158.262 1.63086C158.15 1.23087 157.774 1.09088 157.33 1.34687L120.263 22.734C119.977 22.91 119.743 23.1583 119.583 23.454L117.655 22.338C117.818 22.0448 118.052 21.7972 118.335 21.6181L155.398 0.230913C155.697 0.0809923 156.027 0.00292969 156.362 0.00292969C156.696 0.00292969 157.026 0.0809923 157.326 0.230913C157.569 0.387946 157.778 0.593183 157.939 0.83396C158.1 1.07474 158.21 1.34595 158.262 1.63086Z" fill="white"/>
<path d="M121.907 24.6142L155.19 5.36295C155.514 5.17895 155.778 5.26295 155.778 5.55494C155.754 5.73481 155.688 5.90661 155.586 6.05662C155.484 6.20663 155.348 6.33069 155.19 6.41891L121.907 25.6701C121.587 25.8581 121.323 25.7741 121.323 25.4821C121.349 25.3028 121.415 25.1315 121.516 24.9812C121.617 24.8308 121.751 24.7054 121.907 24.6142Z" fill="white"/>
<path d="M121.907 30.0581L150.454 13.5788C150.778 13.3908 151.038 13.4748 151.038 13.7668C151.015 13.9464 150.95 14.1181 150.849 14.2681C150.747 14.4181 150.612 14.5423 150.454 14.6307L121.907 31.1141C121.587 31.2981 121.323 31.2141 121.323 30.9221C121.348 30.7429 121.413 30.5717 121.514 30.4218C121.616 30.272 121.75 30.1475 121.907 30.0581Z" fill="white"/>
<path d="M121.907 32.7052L154.51 13.862C154.83 13.674 155.094 13.762 155.094 14.05C155.068 14.2293 155.003 14.4006 154.901 14.5509C154.8 14.7013 154.666 14.8267 154.51 14.9179L121.907 33.7612C121.587 33.9492 121.323 33.8652 121.323 33.5732C121.349 33.3938 121.415 33.2225 121.516 33.0722C121.617 32.9219 121.751 32.7964 121.907 32.7052Z" fill="white"/>
<path d="M121.907 27.2774L154.51 8.43015C154.83 8.24215 155.094 8.33015 155.094 8.62214C155.068 8.8008 155.002 8.97128 154.901 9.12088C154.8 9.27047 154.666 9.39531 154.51 9.4861L121.907 28.3293C121.587 28.5173 121.323 28.4333 121.323 28.1414C121.347 27.962 121.413 27.7907 121.514 27.6408C121.615 27.491 121.75 27.3666 121.907 27.2774Z" fill="white"/>
<path d="M135.738 100.783L149.758 98.0351C149.846 98.0205 149.937 98.0336 150.018 98.0725C150.099 98.1115 150.165 98.1744 150.209 98.2526C150.253 98.3309 150.271 98.4208 150.262 98.51C150.253 98.5991 150.216 98.6833 150.158 98.751L140.65 109.519L135.738 100.783Z" fill="#FFA8A7"/>
<path d="M150.165 98.751C150.224 98.6833 150.261 98.5991 150.27 98.51C150.279 98.4208 150.26 98.3309 150.217 98.2526C150.173 98.1744 150.106 98.1115 150.025 98.0725C149.945 98.0336 149.854 98.0205 149.765 98.0351L147.021 98.583C147.397 98.8158 147.701 99.1477 147.9 99.5422C148.099 99.9367 148.185 100.379 148.149 100.819V101.067L150.165 98.751Z" fill="#3EA635"/>
<path d="M88.3845 139.498L89.5284 138.838L90.9164 138.038L140.654 109.507C141.111 107.963 140.968 106.303 140.254 104.859C139.258 102.635 137.331 100.859 135.731 100.775L86.0326 129.302L83.3887 130.818C85.1566 129.93 90.1444 138.582 88.3845 139.498Z" fill="#37474F"/>
<path d="M92.7564 137.005L95.3163 135.534C96.0723 135.134 95.6403 133.274 94.7563 131.354C93.5844 128.802 91.2845 126.33 90.2805 126.862L88.3926 127.946L87.7246 128.346C88.7286 127.814 91.0325 130.282 92.2004 132.838C93.0444 134.678 93.4764 136.466 92.8324 136.953C92.8123 136.977 92.786 136.995 92.7564 137.005Z" fill="#EBEBEB"/>
<path d="M93.3916 136.634C95.1475 135.702 90.1197 127.034 88.3598 127.97L85.7959 129.434C87.5518 128.506 92.5956 137.166 90.8237 138.098L93.3916 136.634Z" fill="#3EA635"/>
<path d="M88.3845 139.497L90.9164 138.049C92.6483 137.145 87.8645 128.746 86.0326 129.302C85.9958 129.309 85.9605 129.322 85.9286 129.342L83.3887 130.818C85.1566 129.93 90.1444 138.581 88.3845 139.497Z" fill="#EBEBEB"/>
<path opacity="0.15" d="M150.23 98.2791L149.758 98.0352L139.586 103.599L86.9881 133.782C86.8881 133.626 86.8081 133.614 86.7441 133.722C88.2401 136.054 89.368 138.99 88.3841 139.501L89.528 138.842L90.916 138.042L140.654 109.511L150.162 98.7431C150.22 98.6828 150.259 98.6055 150.271 98.5221C150.283 98.4388 150.269 98.3538 150.23 98.2791Z" fill="black"/>
<path d="M77.6367 145.645L88.3842 139.497C89.1362 139.097 88.7202 137.265 87.8523 135.357C86.6883 132.801 84.3964 130.305 83.3884 130.817L72.5969 136.981C70.453 138.217 72.4249 142.865 74.8128 144.945C75.7007 145.741 76.7087 146.089 77.6367 145.645Z" fill="#F28F8F"/>
<path opacity="0.1" d="M78.2767 142.313C77.6608 139.889 75.7008 137.513 73.8969 137.005C73.632 136.911 73.3486 136.882 73.0702 136.921C72.7919 136.959 72.5267 137.063 72.297 137.225C70.697 138.725 72.565 142.989 74.8249 144.957C75.6928 145.725 76.6648 146.069 77.5928 145.665C78.3847 145.193 78.7087 143.953 78.2767 142.313Z" fill="black"/>
</svg>
