<svg width="185" height="179" viewBox="0 0 185 179" fill="none" xmlns="http://www.w3.org/2000/svg">
<path d="M27.0489 164.216C63.1162 183.057 121.588 183.057 157.656 164.216C193.723 145.376 193.719 114.827 157.656 95.986C121.593 77.1453 63.1162 77.1453 27.0489 95.986C-9.01844 114.827 -9.01414 145.376 27.0489 164.216Z" fill="#F0F0F0"/>
<path d="M165.455 113.337C159.988 115.92 151.125 115.92 145.654 113.337C140.183 110.755 140.188 106.511 145.654 103.902C151.121 101.294 159.98 101.298 165.455 103.902C170.93 106.506 170.917 110.733 165.455 113.337Z" fill="#E0E0E0"/>
<path d="M23.2742 128.42C23.2742 128.42 23.7047 122.075 21.4965 116.686C19.2883 111.297 15.595 107.509 11.6908 106.467C7.78666 105.425 3.91692 108.486 7.69626 111.77C11.4756 115.054 18.5436 118.984 20.2955 128.988L23.2742 128.42Z" fill="#3EA635"/>
<path opacity="0.2" d="M23.2742 128.42C23.2742 128.42 23.7047 122.075 21.4965 116.686C19.2883 111.297 15.595 107.509 11.6908 106.467C7.78666 105.425 3.91692 108.486 7.69626 111.77C11.4756 115.054 18.5436 118.984 20.2955 128.988L23.2742 128.42Z" fill="black"/>
<path d="M21.8323 128.897C21.7759 128.895 21.7227 128.871 21.6841 128.83C21.6455 128.789 21.6245 128.734 21.6257 128.678C21.8882 121.196 16.5033 110.573 9.17277 108.085C9.14592 108.076 9.12117 108.061 9.09993 108.042C9.07869 108.023 9.06138 108 9.04899 107.975C9.0366 107.949 9.02937 107.922 9.02771 107.893C9.02605 107.865 9.03 107.836 9.03933 107.809C9.04866 107.783 9.06318 107.758 9.08207 107.737C9.10096 107.715 9.12385 107.698 9.14943 107.686C9.17502 107.673 9.20279 107.666 9.23116 107.664C9.25954 107.663 9.28796 107.667 9.31482 107.676C16.8132 110.224 22.323 121.063 22.0561 128.691C22.055 128.719 22.0483 128.747 22.0365 128.772C22.0246 128.798 22.0078 128.821 21.987 128.84C21.9662 128.859 21.9419 128.874 21.9153 128.884C21.8888 128.894 21.8605 128.898 21.8323 128.897Z" fill="white"/>
<path d="M22.0905 143.658C21.4451 144.01 20.7248 144.202 19.99 144.218C19.1259 144.27 18.2605 144.139 17.4503 143.835C16.0126 143.292 14.8073 142.466 14.4372 140.908C14.1488 139.681 14.605 138.299 14.067 137.124C13.5289 135.949 11.9147 135.251 10.8257 134.903C10.0552 134.657 9.24594 134.537 8.48835 134.253C8.10105 134.131 7.74241 133.932 7.43395 133.668C7.12549 133.404 6.87359 133.08 6.69338 132.716C5.96592 130.934 7.95029 128.911 7.30032 127.094C6.97748 126.195 6.09506 125.64 5.29012 125.127C4.48518 124.615 3.62428 123.999 3.40045 123.07C3.32978 122.64 3.36583 122.199 3.50544 121.786C3.64504 121.373 3.88392 121.001 4.20108 120.702C5.64739 119.213 8.07512 119.067 10.0121 119.807C10.6094 120.078 11.2217 120.315 11.8459 120.517C14.2908 121.159 16.8907 119.557 19.3443 120.134C20.1341 120.332 20.8545 120.743 21.4268 121.322C21.9991 121.901 22.4014 122.626 22.5899 123.418C22.7061 123.952 22.7233 124.507 22.8481 125.041C23.1624 126.38 24.5699 126.664 24.9143 128.054C25.2199 129.294 24.8325 130.603 24.6173 131.829C24.2901 133.71 23.92 135.583 23.5282 137.451C23.3188 138.467 23.1021 139.483 22.8783 140.499C22.6716 141.428 22.9428 142.453 22.5253 143.309C22.3874 143.434 22.2422 143.551 22.0905 143.658Z" fill="#3EA635"/>
<path d="M22.7797 137.029C22.7282 137.028 22.6786 137.009 22.6399 136.975C22.6012 136.941 22.5759 136.895 22.5687 136.844C21.5357 130.159 12.1303 122.251 6.12558 121.451C6.0685 121.443 6.0167 121.414 5.98159 121.368C5.94647 121.322 5.93091 121.265 5.93834 121.208C5.94576 121.151 5.97555 121.099 6.02116 121.064C6.06677 121.028 6.12446 121.013 6.18154 121.02C12.324 121.843 21.936 129.935 22.9906 136.779C22.9955 136.807 22.9948 136.835 22.9885 136.863C22.9823 136.89 22.9706 136.916 22.9541 136.939C22.9377 136.962 22.9168 136.981 22.8927 136.996C22.8687 137.011 22.8419 137.02 22.8141 137.024L22.7797 137.029Z" fill="white"/>
<path d="M17.2863 127.878C17.2299 127.872 17.1779 127.845 17.1417 127.801C17.1054 127.758 17.0878 127.702 17.0926 127.645C17.4714 123.302 19.0382 121.641 19.1286 121.58C19.1477 121.558 19.1713 121.539 19.198 121.526C19.2246 121.513 19.2536 121.505 19.2832 121.504C19.3128 121.503 19.3424 121.508 19.3701 121.518C19.3978 121.529 19.423 121.545 19.4441 121.566C19.4652 121.587 19.4818 121.612 19.4928 121.639C19.5039 121.667 19.5091 121.696 19.5081 121.726C19.5072 121.756 19.5002 121.785 19.4874 121.811C19.4747 121.838 19.4566 121.862 19.4342 121.882C19.4342 121.882 17.9061 123.517 17.523 127.693C17.5145 127.748 17.4853 127.798 17.4413 127.832C17.3973 127.866 17.3419 127.883 17.2863 127.878Z" fill="white"/>
<path d="M10.602 131.364C10.5596 131.363 10.5184 131.35 10.4833 131.326C10.4481 131.303 10.4206 131.269 10.404 131.23C10.3928 131.205 10.3869 131.177 10.3867 131.148C10.3865 131.12 10.392 131.092 10.4029 131.066C10.4137 131.04 10.4297 131.016 10.4498 130.996C10.47 130.977 10.4939 130.961 10.5202 130.951C10.7182 130.865 15.4058 128.902 19.5037 130.012C19.5319 130.02 19.5585 130.032 19.5818 130.05C19.6051 130.068 19.6247 130.09 19.6395 130.115C19.6543 130.14 19.664 130.168 19.668 130.197C19.672 130.226 19.6703 130.255 19.6629 130.283C19.6556 130.312 19.6428 130.338 19.6252 130.362C19.6075 130.385 19.5855 130.404 19.5603 130.419C19.5352 130.434 19.5073 130.444 19.4784 130.448C19.4495 130.452 19.42 130.45 19.3918 130.443C15.4402 129.371 10.7354 131.342 10.6881 131.364C10.6595 131.368 10.6306 131.368 10.602 131.364Z" fill="white"/>
<path d="M22.4131 56.0574V143.899C22.4277 144.158 22.5027 144.409 22.632 144.633C22.7614 144.858 22.9414 145.048 23.1578 145.191L25.155 146.348C25.3859 146.465 25.641 146.526 25.8997 146.526C26.1585 146.526 26.4136 146.465 26.6444 146.348L119.583 92.6929C119.799 92.5508 119.979 92.36 120.108 92.1357C120.238 91.9115 120.313 91.66 120.327 91.4016V3.56419C120.302 2.9353 120.129 2.32114 119.823 1.77148C119.516 1.22182 119.084 0.752109 118.562 0.40039C117.998 0.126378 117.377 -0.0105813 116.749 0.000637663C116.121 0.0118566 115.505 0.170938 114.951 0.464958L24.2941 52.8291C23.7474 53.1798 23.2917 53.6554 22.9647 54.2167C22.6377 54.7779 22.4486 55.4088 22.4131 56.0574Z" fill="#455A64"/>
<path d="M27.643 56.9398L22.9555 54.2236C22.6213 54.7787 22.4346 55.4099 22.4131 56.0573V143.899C22.4277 144.158 22.5027 144.409 22.632 144.633C22.7614 144.857 22.9414 145.048 23.1578 145.19L25.155 146.348C25.3859 146.465 25.641 146.526 25.8997 146.526C26.1585 146.526 26.4136 146.465 26.6444 146.348L27.6473 145.767L27.643 56.9398Z" fill="#37474F"/>
<path d="M118.463 2.48805L27.772 54.8608C27.2292 55.2142 26.7775 55.6908 26.4536 56.2518C26.1297 56.8128 25.9429 57.4423 25.9082 58.0891V145.918C25.9082 146.391 26.244 146.585 26.6529 146.348L119.583 92.6929C119.799 92.5508 119.979 92.36 120.108 92.1357C120.238 91.9115 120.313 91.66 120.327 91.4016V3.56417C120.327 2.37613 119.492 1.91555 118.463 2.48805Z" fill="#37474F"/>
<path d="M118.463 2.48805L27.772 54.8608C27.2292 55.2142 26.7775 55.6908 26.4536 56.2518C26.1297 56.8128 25.9429 57.4423 25.9082 58.0891V145.918C25.9082 146.391 26.244 146.585 26.6529 146.348L119.583 92.6929C119.799 92.5508 119.979 92.36 120.108 92.1357C120.238 91.9115 120.313 91.66 120.327 91.4016V3.56417C120.327 2.37613 119.492 1.91555 118.463 2.48805Z" fill="#263238"/>
<path d="M120.327 7.46812V3.55964C120.327 2.37591 119.492 1.89381 118.463 2.48782L27.772 54.8605C27.2292 55.214 26.7775 55.6906 26.4536 56.2516C26.1297 56.8126 25.9429 57.4421 25.9082 58.0889V61.9931L120.327 7.46812Z" fill="#37474F"/>
<path d="M116.548 8.06713C116.526 8.07359 116.502 8.07359 116.479 8.06713C116.46 8.0588 116.443 8.04662 116.428 8.03135C116.414 8.01608 116.402 7.99803 116.395 7.9783C116.388 7.95857 116.385 7.93757 116.386 7.91658C116.387 7.8956 116.392 7.87505 116.402 7.85621L117.065 6.44864C117.086 6.41608 117.119 6.39242 117.157 6.38194C117.195 6.37146 117.235 6.37487 117.27 6.39155C117.306 6.40822 117.334 6.43706 117.35 6.47281C117.366 6.50856 117.369 6.54886 117.357 6.58639L116.694 7.99395C116.678 8.01762 116.656 8.03677 116.631 8.04958C116.605 8.06239 116.577 8.06843 116.548 8.06713Z" fill="#FAFAFA"/>
<path d="M116.505 8.15663C116.48 8.16237 116.453 8.16237 116.428 8.15663C116.4 8.14207 116.377 8.11948 116.363 8.09182C116.348 8.06416 116.342 8.03274 116.346 8.00167L116.41 7.08051C116.412 7.05957 116.418 7.03916 116.427 7.02045C116.437 7.00174 116.45 6.98511 116.466 6.97151C116.482 6.95791 116.5 6.9476 116.52 6.94119C116.54 6.93478 116.562 6.93239 116.582 6.93416C116.604 6.93576 116.625 6.94165 116.644 6.95147C116.663 6.96129 116.68 6.97484 116.693 6.99131C116.707 7.00778 116.717 7.02684 116.723 7.04734C116.729 7.06785 116.731 7.08937 116.729 7.11064L116.682 7.61857L116.931 7.41626C116.965 7.39079 117.008 7.37928 117.05 7.38408C117.093 7.38887 117.132 7.40961 117.159 7.44209C117.189 7.47262 117.206 7.51355 117.206 7.55616C117.206 7.59876 117.189 7.63969 117.159 7.67023L116.608 8.10067C116.596 8.11683 116.581 8.13018 116.563 8.13984C116.545 8.14949 116.525 8.15521 116.505 8.15663Z" fill="#FAFAFA"/>
<path d="M117.478 6.09482C117.455 6.09876 117.432 6.09876 117.409 6.09482C117.39 6.08604 117.372 6.07344 117.358 6.05778C117.343 6.04211 117.332 6.02369 117.325 6.00362C117.318 5.98354 117.314 5.96222 117.316 5.94091C117.317 5.91961 117.322 5.89876 117.332 5.8796L117.999 4.47633C118.007 4.45704 118.019 4.43964 118.035 4.42519C118.05 4.41075 118.068 4.39956 118.088 4.39232C118.107 4.38507 118.128 4.38191 118.149 4.38303C118.17 4.38416 118.191 4.38954 118.21 4.39885C118.229 4.40763 118.247 4.42023 118.261 4.4359C118.276 4.45157 118.287 4.46999 118.294 4.49006C118.301 4.51014 118.304 4.53146 118.303 4.55276C118.302 4.57407 118.297 4.59492 118.287 4.61408L117.624 6.01734C117.609 6.04243 117.588 6.06293 117.562 6.0766C117.536 6.09026 117.507 6.09657 117.478 6.09482Z" fill="#FAFAFA"/>
<path d="M118.102 5.48804C118.081 5.48644 118.06 5.48055 118.041 5.47073C118.022 5.46091 118.005 5.44736 117.991 5.43089C117.978 5.41441 117.967 5.39536 117.961 5.37485C117.955 5.35435 117.953 5.33282 117.956 5.31156L118.003 4.80363L117.753 5.00594C117.72 5.03334 117.676 5.04623 117.633 5.04179C117.59 5.03735 117.55 5.01594 117.523 4.98226C117.496 4.94858 117.483 4.9054 117.487 4.86221C117.492 4.81903 117.513 4.77937 117.547 4.75197L118.098 4.32152C118.124 4.30357 118.154 4.29395 118.186 4.29395C118.217 4.29395 118.248 4.30357 118.274 4.32152C118.302 4.33608 118.324 4.35868 118.339 4.38633C118.354 4.41399 118.36 4.44542 118.356 4.47649L118.266 5.35891C118.258 5.39609 118.237 5.42932 118.207 5.45289C118.177 5.47646 118.14 5.48889 118.102 5.48804Z" fill="#FAFAFA"/>
<path d="M30.2818 55.4165C30.0297 55.584 29.8204 55.8084 29.6709 56.0716C29.5213 56.3347 29.4357 56.6294 29.4209 56.9317C29.4209 57.4913 29.8126 57.7151 30.2818 57.4353C30.5338 57.2687 30.7431 57.0452 30.8927 56.7827C31.0422 56.5202 31.1279 56.2262 31.1427 55.9244C31.1556 55.3649 30.751 55.141 30.2818 55.4165Z" fill="#FAFAFA"/>
<path d="M33.7642 53.406C33.5121 53.5735 33.3028 53.7979 33.1533 54.0611C33.0038 54.3242 32.9181 54.6189 32.9033 54.9212C32.9033 55.4765 33.295 55.7046 33.7642 55.4248C34.0163 55.2573 34.2256 55.0329 34.3751 54.7698C34.5247 54.5066 34.6103 54.212 34.6251 53.9096C34.6509 53.3544 34.2592 53.1391 33.7642 53.406Z" fill="#FAFAFA"/>
<path d="M37.272 51.3911C37.0204 51.5591 36.8115 51.7836 36.662 52.0467C36.5125 52.3098 36.4266 52.6041 36.4111 52.9063C36.4111 53.4659 36.8028 53.6897 37.272 53.4099C37.5243 53.2436 37.7338 53.0201 37.8834 52.7576C38.0329 52.495 38.1185 52.2009 38.1329 51.899C38.1501 51.3395 37.7584 51.1156 37.272 51.3911Z" fill="#FAFAFA"/>
<path d="M149.641 59.7246H159.111C159.275 59.7246 159.438 59.6924 159.589 59.6296C159.741 59.5669 159.878 59.4749 159.994 59.359C160.11 59.2431 160.202 59.1055 160.265 58.954C160.327 58.8026 160.36 58.6403 160.36 58.4763V41.6286C160.36 40.0394 159.728 38.5154 158.605 37.3917C157.481 36.268 155.957 35.6367 154.368 35.6367C152.779 35.6367 151.255 36.268 150.131 37.3917C149.007 38.5154 148.376 40.0394 148.376 41.6286V58.4763C148.376 58.6417 148.409 58.8055 148.473 58.9581C148.536 59.1106 148.63 59.249 148.748 59.3652C148.865 59.4813 149.005 59.5729 149.159 59.6346C149.312 59.6963 149.476 59.7269 149.641 59.7246Z" fill="#263238"/>
<path d="M159.025 38.0004L160.475 37.2213C160.429 37.1235 160.363 37.0361 160.282 36.9645C160.201 36.8929 160.107 36.8385 160.004 36.8046C159.901 36.7708 159.793 36.7582 159.685 36.7677C159.577 36.7772 159.473 36.8085 159.377 36.8597C159.183 36.9673 159.037 37.1463 158.971 37.359C158.905 37.5716 158.924 37.8016 159.025 38.0004Z" fill="#263238"/>
<path d="M158.938 38.1632L160.479 38.74C160.523 38.6408 160.545 38.534 160.545 38.4259C160.546 38.3178 160.524 38.2107 160.482 38.1113C160.44 38.0118 160.378 37.922 160.299 37.8473C160.221 37.7726 160.129 37.7146 160.028 37.6768C159.818 37.6015 159.588 37.6102 159.385 37.7008C159.182 37.7915 159.022 37.9572 158.938 38.1632Z" fill="#263238"/>
<path d="M147.571 49.1531L143.171 49.0282C142.874 48.7786 138.251 43.5615 138.251 43.5615C138.251 43.5615 136.59 46.183 136.56 46.3508C136.53 46.5187 141.092 51.3957 141.544 51.8864C141.672 52.0505 141.835 52.1832 142.021 52.2742C142.208 52.3653 142.413 52.4122 142.62 52.4116C143.813 52.4847 148.277 52.799 148.277 52.799L147.571 49.1531Z" fill="#F28F8F"/>
<path d="M153.774 53.3713L146.495 53.057C145.849 52.1746 145.866 49.833 146.516 49.084L154.574 49.3035L153.774 53.3713Z" fill="#3EA635"/>
<path d="M153.774 53.3713L146.495 53.057C145.849 52.1746 145.866 49.833 146.516 49.084L154.574 49.3035L153.774 53.3713Z" fill="#3EA635"/>
<path opacity="0.1" d="M153.774 53.3713L146.495 53.057C145.849 52.1746 145.866 49.833 146.516 49.084L154.574 49.3035L153.774 53.3713Z" fill="black"/>
<path d="M136.728 41.8917C137.589 41.797 138.161 41.1599 138.355 41.3364C138.427 41.4212 138.468 41.5288 138.47 41.6405C138.471 41.7521 138.434 41.8608 138.363 41.9476C137.966 42.2494 137.532 42.4996 137.072 42.6923C136.964 43.1298 136.886 43.5742 136.84 44.0224C136.766 44.681 136.792 45.9939 136.228 46.4458C134.545 47.7931 134.115 45.6538 134.184 44.2161C134.287 42.4427 135.828 41.9907 136.728 41.8917Z" fill="#F28F8F"/>
<path d="M153.463 102.296C153.478 102.588 153.404 102.877 153.252 103.127C152.86 103.771 152.401 104.373 151.884 104.922C151.152 105.705 150.054 106.644 149.271 107.319C148.84 107.702 148.84 108.279 149.443 108.482C150.61 108.769 151.843 108.597 152.887 107.999C153.666 107.569 154.776 105.649 155.426 105.357C156.171 105.021 156.588 104.849 156.842 104.496C157.033 104.3 157.152 104.045 157.179 103.773C157.207 103.501 157.141 103.228 156.993 102.998C156.64 102.343 156.132 101.336 155.895 101.448L155.964 101.655C155.792 102.188 154.342 102.808 153.593 102.662L153.463 102.296Z" fill="#263238"/>
<path d="M152.805 99.722C153.091 100.564 153.31 101.428 153.459 102.305C153.479 102.594 153.407 102.882 153.252 103.127C152.86 103.772 152.399 104.374 151.879 104.922C151.526 105.305 151.083 105.722 150.631 106.123C150.593 106.181 150.571 106.247 150.566 106.316C150.566 106.721 151.561 106.833 152.142 106.661C152.871 106.403 153.499 105.92 153.937 105.283C154.273 104.853 155.026 103.992 155.504 103.333C155.672 103.136 155.816 102.919 155.934 102.688C156.064 102.396 156.085 102.068 155.994 101.762L155.964 101.668C155.706 100.868 155.547 100.04 155.491 99.2012" fill="#FFA8A7"/>
<path d="M159.701 103.187C159.576 103.936 159.512 104.695 159.512 105.455V107.138H157.019V104.272H156.985C156.985 104.272 156.942 103.708 156.873 102.825" fill="#FFA8A7"/>
<path d="M152.805 99.7217C151.428 95.2665 148.363 87.2903 147.941 85.8914C147.511 84.402 148.036 71.3637 148.397 67.1884L161.393 66.4824C162.383 70.718 161.418 76.4258 161.078 79.9942C160.751 83.4636 160.342 87.5185 160.342 87.5185C160.342 87.5185 161.358 91.0568 161.087 93.8719C160.915 95.6453 160.08 100.888 159.701 103.178C159.229 103.311 158.734 103.346 158.248 103.281C157.761 103.216 157.294 103.052 156.873 102.799C156.714 100.789 156.412 97.1261 156.128 94.7328C155.698 91.1342 155.556 88.5085 155.185 86.4079C154.725 83.7908 154.561 73.5203 154.561 73.5203L153.068 85.1682C153.657 86.2551 154.107 87.4121 154.406 88.6118C154.837 90.269 155.293 96.4847 155.478 99.175C154.679 99.6657 153.733 99.8592 152.805 99.7217Z" fill="#37474F"/>
<path d="M154.561 73.5289C154.561 73.5289 152.19 72.6938 150.838 71.4541C151.516 72.5129 152.48 73.3577 153.619 73.8904L153.64 80.7088L154.561 73.5289Z" fill="#263238"/>
<path d="M156.442 49.3594C156.442 49.3594 159.972 49.764 160.394 49.9534C158.241 52.308 160.531 54.2579 160.531 54.2579L158.491 61.4378C159.903 63.2457 161.112 64.6618 161.452 66.8184C159.937 69.4829 151.445 69.8531 148.328 67.8644C148.599 64.1453 149.189 61.4851 149.004 60.366C147.519 55.7989 147.984 54.8433 148.121 53.8016C148.393 51.7656 150.416 49.9878 151.565 49.2432H152.645L156.442 49.3594Z" fill="#3EA635"/>
<path d="M157.015 105.912V105.555C156.707 106.734 156.092 107.811 155.233 108.675C154.445 109.394 153.373 110.221 153.102 111.021C152.831 111.822 154.367 112.184 155.383 112.085C156.372 111.963 157.283 111.486 157.944 110.742C158.594 110.001 158.582 109.493 158.883 109.084C159.184 108.675 159.881 108.223 160.045 107.746C160.092 107.31 160.044 106.869 159.903 106.454C159.787 106.024 159.662 105.529 159.511 105.572V105.843C159.156 106.124 158.716 106.276 158.263 106.274C157.897 106.261 157.015 106.187 157.015 105.912Z" fill="#263238"/>
<path d="M159.511 105.826C159.156 106.107 158.716 106.259 158.263 106.256C157.897 106.256 157.014 106.196 157.014 105.921V105.563C156.707 106.743 156.092 107.82 155.232 108.684L154.634 109.218C154.204 109.683 154.333 110.079 155.318 110.174C156.304 110.268 157.165 109.666 157.901 108.753C158.538 107.836 159.078 106.855 159.511 105.826Z" fill="#FFA8A7"/>
<path d="M150.36 38.5723C149.727 38.9468 148.943 40.5394 149.021 43.8754C149.086 46.7034 150.002 47.4008 150.463 47.6031C150.924 47.8054 151.815 47.6806 152.675 47.5385V49.2345C152.675 49.2345 151.483 50.6205 151.556 51.3867C151.629 52.1529 153.278 52.3509 154.397 51.589C155.204 50.9624 155.9 50.2043 156.455 49.3464V45.4422C156.455 45.4422 156.963 45.9372 157.824 45.184C158.534 44.5598 158.775 43.5138 158.22 42.9499C158.076 42.8172 157.902 42.7204 157.714 42.6673C157.525 42.6143 157.327 42.6066 157.134 42.6447C156.942 42.6829 156.762 42.7659 156.608 42.887C156.454 43.0081 156.331 43.1639 156.248 43.3416C156.248 43.3416 155.77 42.0116 153.782 41.3616C151.965 40.7891 150.988 40.1133 150.36 38.5723Z" fill="#FFA8A7"/>
<path d="M152.181 43.1653C152.177 43.2125 152.183 43.2601 152.198 43.305C152.213 43.35 152.237 43.3915 152.268 43.4272C152.3 43.4628 152.338 43.4919 152.38 43.5127C152.423 43.5335 152.469 43.5456 152.516 43.5484C152.59 43.5552 152.664 43.5398 152.729 43.504C152.794 43.4683 152.847 43.414 152.88 43.348C152.914 43.282 152.927 43.2075 152.918 43.134C152.909 43.0605 152.878 42.9915 152.829 42.9358C152.78 42.8801 152.716 42.8403 152.644 42.8216C152.572 42.8029 152.497 42.8061 152.427 42.8308C152.357 42.8555 152.296 42.9006 152.253 42.9602C152.209 43.0198 152.184 43.0913 152.181 43.1653Z" fill="#263238"/>
<path d="M152.086 45.5625L151.276 45.8208C151.292 45.8759 151.318 45.9274 151.353 45.9723C151.389 46.0172 151.433 46.0546 151.483 46.0822C151.533 46.1099 151.588 46.1273 151.645 46.1334C151.702 46.1395 151.76 46.1342 151.814 46.1178C151.922 46.077 152.009 45.9969 152.06 45.8937C152.11 45.7906 152.119 45.6722 152.086 45.5625Z" fill="#F28F8F"/>
<path d="M149.262 42.0723L149.985 41.573C149.954 41.5257 149.914 41.485 149.867 41.4533C149.82 41.4216 149.767 41.3996 149.711 41.3884C149.656 41.3772 149.598 41.3771 149.543 41.3881C149.487 41.3991 149.434 41.421 149.387 41.4525C149.291 41.5203 149.225 41.6224 149.201 41.7376C149.178 41.8528 149.2 41.9726 149.262 42.0723Z" fill="#263238"/>
<path d="M153.214 42.335L152.495 41.8357C152.526 41.7884 152.567 41.7477 152.614 41.716C152.661 41.6843 152.714 41.6623 152.769 41.6511C152.825 41.6399 152.882 41.6398 152.938 41.6508C152.993 41.6618 153.046 41.6837 153.093 41.7152C153.19 41.783 153.256 41.8854 153.278 42.0009C153.301 42.1164 153.278 42.2361 153.214 42.335Z" fill="#263238"/>
<path d="M149.43 42.9071C149.426 42.9546 149.432 43.0023 149.447 43.0475C149.462 43.0928 149.486 43.1346 149.517 43.1706C149.548 43.2066 149.586 43.236 149.629 43.2573C149.672 43.2786 149.718 43.2912 149.765 43.2945C149.839 43.3013 149.913 43.2859 149.978 43.2503C150.042 43.2147 150.095 43.1606 150.129 43.0949C150.162 43.0292 150.176 42.9549 150.167 42.8816C150.158 42.8082 150.128 42.7392 150.079 42.6834C150.031 42.6276 149.967 42.5875 149.895 42.5683C149.824 42.5492 149.749 42.5518 149.679 42.5758C149.609 42.5999 149.548 42.6443 149.504 42.7033C149.459 42.7623 149.433 42.8333 149.43 42.9071Z" fill="#263238"/>
<path d="M151.109 42.7051L151.053 44.8444L149.925 44.4957L151.109 42.7051Z" fill="#F28F8F"/>
<path d="M152.676 47.5435C153.584 47.423 155.456 46.8849 155.749 46.1445C155.632 46.5202 155.402 46.8508 155.091 47.0915C154.535 47.5693 152.676 48.1117 152.676 48.1117V47.5435Z" fill="#F28F8F"/>
<path d="M159.412 58.2529L156.627 62.6478L158.504 61.4426L159.412 58.2529Z" fill="#3EA635"/>
<g opacity="0.2">
<path opacity="0.2" d="M159.412 58.2529L156.627 62.6478L158.504 61.4426L159.412 58.2529Z" fill="black"/>
</g>
<path d="M33.9063 151.393L33.648 151.247C33.4316 151.105 33.2516 150.914 33.1223 150.69C32.993 150.465 32.918 150.214 32.9033 149.955V76.9728C32.917 76.7141 32.9915 76.4623 33.1209 76.2379C33.2503 76.0135 33.4309 75.8228 33.648 75.6815L81.1136 48.2748C81.3315 48.1339 81.5129 47.9434 81.6431 47.719C81.7733 47.4946 81.8485 47.2425 81.8626 46.9834V42.6488C81.8769 42.3903 81.9517 42.1387 82.0811 41.9144C82.2104 41.6901 82.3907 41.4993 82.6073 41.3575L103.846 29.0983C104.076 28.9794 104.331 28.9173 104.59 28.9173C104.849 28.9173 105.105 28.9794 105.335 29.0983L105.593 29.2446C105.81 29.386 105.991 29.5767 106.12 29.8011C106.25 30.0255 106.324 30.2773 106.338 30.536V32.8518C106.338 33.3296 106.674 33.519 107.087 33.2822L126.578 22.0303C126.808 21.9134 127.064 21.8525 127.322 21.8525C127.581 21.8525 127.836 21.9134 128.067 22.0303L128.325 22.181C128.543 22.3221 128.723 22.5127 128.853 22.7371C128.982 22.9616 129.057 23.2135 129.07 23.4723V96.4506C129.057 96.7094 128.982 96.9613 128.853 97.1858C128.723 97.4103 128.543 97.6009 128.325 97.742L35.3956 151.393C35.1654 151.512 34.9101 151.574 34.6509 151.574C34.3918 151.574 34.1365 151.512 33.9063 151.393Z" fill="#E0E0E0"/>
<path d="M34.6514 150.962V77.9839C34.6653 77.7253 34.74 77.4736 34.8694 77.2492C34.9988 77.0249 35.1792 76.8342 35.396 76.6925L82.866 49.2859C83.0823 49.1437 83.2624 48.9529 83.3917 48.7286C83.521 48.5044 83.596 48.253 83.6106 47.9945V43.6685C83.6239 43.4097 83.6983 43.1578 83.8278 42.9333C83.9572 42.7089 84.138 42.5183 84.3553 42.3772L105.594 30.1137C106.024 29.8769 106.338 30.0706 106.338 30.5441V34.8787C106.338 35.3565 106.674 35.5459 107.087 35.3092L128.326 23.05C128.756 22.8089 129.07 23.0026 129.07 23.4804V96.4501C129.057 96.7089 128.983 96.9609 128.853 97.1853C128.724 97.4098 128.543 97.6004 128.326 97.7415L35.396 151.393C34.9871 151.634 34.6514 151.44 34.6514 150.962Z" fill="#F5F5F5"/>
<path d="M32.9033 81.5485V82.1812L34.6509 83.1928L129.07 28.6678V23.468C129.055 23.2096 128.98 22.9583 128.851 22.7341C128.721 22.5099 128.541 22.319 128.325 22.1767L128.067 22.0303C127.836 21.9134 127.581 21.8525 127.322 21.8525C127.064 21.8525 126.808 21.9134 126.578 22.0303L107.083 33.2822C106.674 33.519 106.338 33.3296 106.338 32.8518V30.536C106.324 30.2773 106.25 30.0255 106.12 29.8011C105.991 29.5767 105.81 29.386 105.593 29.2446L105.335 29.0983C105.105 28.9794 104.849 28.9173 104.59 28.9173C104.331 28.9173 104.076 28.9794 103.846 29.0983L82.6073 41.3575C82.3901 41.4991 82.2092 41.6898 82.0791 41.914C81.949 42.1383 81.8734 42.39 81.8583 42.6488V46.9834C81.845 47.2422 81.7706 47.4941 81.6411 47.7186C81.5117 47.9431 81.3309 48.1337 81.1136 48.2748L33.648 75.6815C33.4309 75.8228 33.2503 76.0135 33.1209 76.2379C32.9915 76.4623 32.917 76.7141 32.9033 76.9728V81.5485Z" fill="#37474F"/>
<path d="M32.9033 81.5485V82.1812L34.6509 83.1928L129.07 28.6678V23.468C129.055 23.2096 128.98 22.9583 128.851 22.7341C128.721 22.5099 128.541 22.319 128.325 22.1767L128.067 22.0303C127.836 21.9134 127.581 21.8525 127.322 21.8525C127.064 21.8525 126.808 21.9134 126.578 22.0303L107.083 33.2822C106.674 33.519 106.338 33.3296 106.338 32.8518V30.536C106.324 30.2773 106.25 30.0255 106.12 29.8011C105.991 29.5767 105.81 29.386 105.593 29.2446L105.335 29.0983C105.105 28.9794 104.849 28.9173 104.59 28.9173C104.331 28.9173 104.076 28.9794 103.846 29.0983L82.6073 41.3575C82.3901 41.4991 82.2092 41.6898 82.0791 41.914C81.949 42.1383 81.8734 42.39 81.8583 42.6488V46.9834C81.845 47.2422 81.7706 47.4941 81.6411 47.7186C81.5117 47.9431 81.3309 48.1337 81.1136 48.2748L33.648 75.6815C33.4309 75.8228 33.2503 76.0135 33.1209 76.2379C32.9915 76.4623 32.917 76.7141 32.9033 76.9728V81.5485Z" fill="#FAFAFA"/>
<path d="M85.3574 49.8631V43.8067L82.0773 41.917C81.9434 42.1384 81.8678 42.3902 81.8578 42.6488V46.9834C81.85 47.2431 81.7759 47.4965 81.6426 47.7194L85.3574 49.8631Z" fill="#E0E0E0"/>
<path d="M36.3986 78.1303L33.1229 76.2363C32.9875 76.4587 32.9119 76.7122 32.9033 76.9724V82.1679L34.6509 83.1795L36.3986 78.1303Z" fill="#E0E0E0"/>
<path d="M82.866 49.2863L35.396 76.693C35.1792 76.8347 34.9988 77.0254 34.8694 77.2497C34.74 77.4741 34.6653 77.7258 34.6514 77.9844V83.1799L129.07 28.6678V23.468C129.07 22.9945 128.735 22.8008 128.326 23.0376L107.083 35.3011C106.674 35.5421 106.338 35.3484 106.338 34.8706V30.536C106.338 30.0625 106.007 29.8688 105.594 30.1055L84.3553 42.3776C84.138 42.5188 83.9572 42.7094 83.8278 42.9338C83.6983 43.1583 83.6239 43.4102 83.6106 43.669V48.0036C83.5947 48.2606 83.5191 48.5103 83.3898 48.7329C83.2606 48.9556 83.0812 49.1451 82.866 49.2863Z" fill="#EBEBEB"/>
<g style="mix-blend-mode:multiply" opacity="0.7">
<g style="mix-blend-mode:multiply" opacity="0.7">
<path d="M39.278 77.1063L37.7499 77.9672L38.3353 76.96C38.353 76.9356 38.3654 76.9078 38.3717 76.8784C38.378 76.8489 38.3781 76.8185 38.3719 76.789C38.3657 76.7595 38.3533 76.7317 38.3357 76.7073C38.318 76.6829 38.2955 76.6625 38.2694 76.6473C38.2434 76.6322 38.2145 76.6227 38.1845 76.6194C38.1546 76.6162 38.1243 76.6192 38.0956 76.6284C38.067 76.6376 38.0405 76.6527 38.018 76.6727C37.9956 76.6928 37.9775 76.7173 37.9651 76.7447L36.9708 78.4665C36.9592 78.4922 36.9531 78.5201 36.9531 78.5483C36.9531 78.5765 36.9592 78.6044 36.9708 78.6301C36.9774 78.6579 36.9901 78.6839 37.008 78.7063C37.0258 78.7286 37.0484 78.7467 37.0741 78.7593L38.0684 79.3188C38.099 79.3391 38.1351 79.3496 38.1718 79.349C38.2103 79.3482 38.248 79.3375 38.2812 79.3179C38.3143 79.2983 38.3419 79.2704 38.3612 79.2371C38.3879 79.1871 38.3943 79.1288 38.3791 79.0743C38.3639 79.0197 38.3281 78.9732 38.2794 78.9443L37.6122 78.5699L39.5148 77.4722C39.5393 77.4581 39.5609 77.4392 39.5782 77.4168C39.5955 77.3943 39.6082 77.3687 39.6156 77.3413C39.623 77.3139 39.625 77.2853 39.6213 77.2572C39.6177 77.2291 39.6085 77.2019 39.5944 77.1774C39.5803 77.1528 39.5614 77.1312 39.539 77.1139C39.5165 77.0966 39.4908 77.0839 39.4635 77.0765C39.4361 77.0691 39.4075 77.0671 39.3794 77.0708C39.3513 77.0744 39.3241 77.0836 39.2995 77.0977L39.278 77.1063Z" fill="#E0E0E0"/>
</g>
<g style="mix-blend-mode:multiply" opacity="0.7">
<path d="M42.8383 75.3591C42.8237 75.3035 42.7882 75.2558 42.7393 75.2256L41.745 74.6661C41.7201 74.6522 41.6927 74.6434 41.6645 74.6401C41.6362 74.6368 41.6075 74.6392 41.5802 74.647C41.5528 74.6548 41.5272 74.6679 41.5049 74.6855C41.4826 74.7032 41.464 74.7251 41.4501 74.75C41.4363 74.7749 41.4274 74.8022 41.4242 74.8305C41.4209 74.8588 41.4232 74.8874 41.431 74.9148C41.4388 74.9422 41.4519 74.9678 41.4696 74.9901C41.4873 75.0124 41.5092 75.031 41.534 75.0448L42.1969 75.415L40.2944 76.517C40.2456 76.5458 40.2099 76.5923 40.1946 76.6469C40.1794 76.7014 40.1858 76.7598 40.2126 76.8097C40.232 76.8426 40.2598 76.8698 40.293 76.8886C40.3262 76.9075 40.3638 76.9174 40.402 76.9173C40.4393 76.917 40.4761 76.9082 40.5096 76.8915L42.0377 76.0047L41.4523 77.012C41.4238 77.0618 41.416 77.1208 41.4305 77.1763C41.4449 77.2318 41.4806 77.2794 41.5297 77.309C41.5627 77.3275 41.5996 77.3378 41.6374 77.3391C41.6749 77.3389 41.7118 77.3289 41.7442 77.31C41.7767 77.2911 41.8037 77.2641 41.8224 77.2315L42.8168 75.5097C42.8301 75.4873 42.8389 75.4624 42.8426 75.4366C42.8463 75.4107 42.8448 75.3844 42.8383 75.3591Z" fill="#E0E0E0"/>
</g>
</g>
<path d="M46.0753 72.5431L114.155 33.2431C114.667 32.9461 115.085 33.157 115.085 33.7123C115.062 34.0254 114.966 34.3288 114.805 34.598C114.643 34.8672 114.421 35.0946 114.155 35.2619L46.0753 74.5662C45.563 74.8632 45.1455 74.6522 45.1455 74.0927C45.1688 73.7797 45.265 73.4766 45.4264 73.2075C45.5879 72.9384 45.8101 72.7108 46.0753 72.5431Z" fill="#E0E0E0"/>
<path d="M117.702 31.1861C118.188 30.9063 118.563 31.1344 118.563 31.6897C118.548 31.9922 118.463 32.2871 118.314 32.5504C118.164 32.8136 117.954 33.0379 117.702 33.2049C117.22 33.4847 116.841 33.2565 116.841 32.7013C116.856 32.3989 116.941 32.1043 117.091 31.8411C117.24 31.578 117.45 31.3536 117.702 31.1861Z" fill="#FAFAFA"/>
<path d="M121.206 29.1714C121.688 28.8916 122.067 29.1198 122.067 29.6751C122.052 29.9774 121.966 30.272 121.817 30.5352C121.667 30.7984 121.458 31.0227 121.206 31.1902C120.724 31.47 120.345 31.2419 120.345 30.6866C120.36 30.3843 120.445 30.0897 120.595 29.8265C120.744 29.5633 120.954 29.3389 121.206 29.1714Z" fill="#FAFAFA"/>
<path d="M124.701 27.1529C125.183 26.8731 125.562 27.1012 125.562 27.6565C125.547 27.9588 125.461 28.2535 125.312 28.5166C125.162 28.7798 124.953 29.0042 124.701 29.1717C124.219 29.4515 123.84 29.2233 123.84 28.6681C123.855 28.3657 123.94 28.0711 124.09 27.8079C124.239 27.5448 124.449 27.3204 124.701 27.1529Z" fill="#FAFAFA"/>
<g style="mix-blend-mode:multiply" opacity="0.7">
<g style="mix-blend-mode:multiply" opacity="0.7">
<path d="M88.8623 42.8085C88.8623 43.3638 89.2928 43.5747 89.7964 43.2777L100.17 37.2902C100.437 37.1236 100.66 36.8965 100.823 36.6272C100.985 36.3579 101.082 36.0542 101.104 35.7406C101.104 35.1853 100.674 34.9744 100.17 35.2714L89.7964 41.2589C89.5297 41.4255 89.3061 41.6526 89.1438 41.9219C88.9815 42.1912 88.885 42.495 88.8623 42.8085Z" fill="#E0E0E0"/>
</g>
<g style="mix-blend-mode:multiply" opacity="0.7">
<path d="M86.232 43.3037C85.9799 43.4712 85.7706 43.6955 85.6211 43.9587C85.4715 44.2219 85.3859 44.5165 85.3711 44.8188C85.3711 45.3741 85.7628 45.6023 86.232 45.3225C86.4841 45.155 86.6934 44.9306 86.8429 44.6674C86.9924 44.4042 87.0781 44.1096 87.0929 43.8073C87.1058 43.2391 86.7098 43.0239 86.232 43.3037Z" fill="#3EA635"/>
</g>
<g style="mix-blend-mode:multiply" opacity="0.7">
<path d="M104.59 34.9394C104.553 34.9374 104.516 34.9271 104.483 34.9092L102.735 33.8977C102.708 33.8853 102.683 33.8673 102.663 33.8448C102.643 33.8223 102.628 33.7959 102.619 33.7672C102.609 33.7385 102.606 33.7082 102.61 33.6783C102.613 33.6483 102.622 33.6194 102.638 33.5934C102.653 33.5673 102.673 33.5448 102.698 33.5271C102.722 33.5095 102.75 33.4972 102.779 33.491C102.809 33.4847 102.839 33.4848 102.869 33.4911C102.898 33.4974 102.926 33.5098 102.95 33.5275L104.698 34.5347C104.747 34.5643 104.783 34.6119 104.797 34.6675C104.812 34.723 104.804 34.7819 104.775 34.8318C104.757 34.8643 104.73 34.8913 104.697 34.9102C104.665 34.9291 104.628 34.9391 104.59 34.9394Z" fill="#E0E0E0"/>
</g>
<g style="mix-blend-mode:multiply" opacity="0.7">
<path d="M102.843 35.9469C102.805 35.9477 102.768 35.9372 102.736 35.9168C102.711 35.903 102.689 35.8844 102.672 35.862C102.655 35.8397 102.642 35.8141 102.635 35.7868C102.628 35.7596 102.626 35.7311 102.63 35.7031C102.634 35.6752 102.644 35.6483 102.658 35.6241L104.406 32.611C104.418 32.5835 104.436 32.559 104.459 32.5389C104.481 32.5189 104.508 32.5038 104.536 32.4946C104.565 32.4854 104.595 32.4824 104.625 32.4856C104.655 32.4889 104.684 32.4984 104.71 32.5135C104.736 32.5287 104.759 32.5491 104.776 32.5735C104.794 32.5979 104.806 32.6258 104.812 32.6552C104.819 32.6847 104.819 32.7151 104.812 32.7446C104.806 32.774 104.794 32.8018 104.776 32.8262L103.028 35.8393C103.01 35.8719 102.983 35.8989 102.95 35.9178C102.918 35.9367 102.881 35.9467 102.843 35.9469Z" fill="#E0E0E0"/>
</g>
</g>
<path d="M39.1533 154.423L38.8951 154.273C38.6778 154.132 38.497 153.941 38.3675 153.717C38.2381 153.492 38.1637 153.24 38.1504 152.981V80.003C38.1645 79.7439 38.2397 79.4919 38.3699 79.2674C38.5001 79.043 38.6815 78.8526 38.8994 78.7117L63.633 64.4294C63.8506 64.2882 64.0319 64.0977 64.162 63.8733C64.2921 63.6489 64.3675 63.397 64.382 63.138V58.8034C64.3942 58.5444 64.4682 58.2921 64.5977 58.0674C64.7272 57.8428 64.9086 57.6524 65.1266 57.5121L86.365 45.2486C86.5958 45.1317 86.8509 45.0708 87.1096 45.0708C87.3684 45.0708 87.6235 45.1317 87.8543 45.2486L88.1126 45.3992C88.3299 45.5403 88.5107 45.7309 88.6401 45.9554C88.7696 46.1799 88.844 46.4318 88.8573 46.6906V49.0064C88.8573 49.4799 89.193 49.6736 89.6063 49.4368L131.82 25.0562C132.052 24.9396 132.308 24.8789 132.567 24.8789C132.827 24.8789 133.082 24.9396 133.314 25.0562L133.568 25.2069C133.786 25.348 133.967 25.5385 134.097 25.7629C134.227 25.9873 134.303 26.2392 134.317 26.4982V99.4808C134.302 99.7397 134.226 99.9913 134.096 100.216C133.966 100.44 133.785 100.631 133.568 100.772L40.6513 154.423C40.4194 154.542 40.1627 154.603 39.9023 154.603C39.6419 154.603 39.3853 154.542 39.1533 154.423Z" fill="#E0E0E0"/>
<path d="M39.8984 153.993V81.01C39.9121 80.7513 39.9866 80.4995 40.116 80.2751C40.2454 80.0507 40.426 79.86 40.6431 79.7186L65.381 65.4363C65.5978 65.2947 65.7783 65.104 65.9076 64.8796C66.037 64.6553 66.1117 64.4036 66.1257 64.145V59.8104C66.14 59.5518 66.2148 59.3003 66.3442 59.076C66.4735 58.8517 66.6538 58.6609 66.8704 58.519L88.1087 46.2512C88.5392 46.0102 88.8534 46.2039 88.8534 46.6817V51.0163C88.8534 51.4898 89.1892 51.6835 89.6024 51.4468L133.568 26.0503C133.999 25.8135 134.317 26.0072 134.317 26.4807V99.4805C134.302 99.7394 134.227 99.991 134.097 100.215C133.966 100.44 133.786 100.63 133.568 100.772L40.6517 154.423C40.2213 154.66 39.8984 154.466 39.8984 153.993Z" fill="#FAFAFA"/>
<path d="M38.1508 84.5615V85.1985L39.8984 86.2058L134.317 31.6937V26.4982C134.303 26.2392 134.228 25.9873 134.097 25.7629C133.967 25.5385 133.786 25.348 133.568 25.2069L133.314 25.0562C133.083 24.9396 132.827 24.8789 132.568 24.8789C132.308 24.8789 132.052 24.9396 131.821 25.0562L89.6023 49.4368C89.1719 49.6736 88.8534 49.4799 88.8534 49.0064V46.682C88.8401 46.4232 88.7657 46.1713 88.6362 45.9468C88.5068 45.7223 88.326 45.5317 88.1087 45.3906L87.8504 45.24C87.6196 45.1231 87.3645 45.0622 87.1057 45.0622C86.847 45.0622 86.5919 45.1231 86.3611 45.24L65.1227 57.5034C64.9049 57.6443 64.7234 57.8348 64.5932 58.0592C64.4631 58.2837 64.3878 58.5357 64.3737 58.7948V63.1294C64.3593 63.3884 64.2839 63.6403 64.1538 63.8647C64.0236 64.0891 63.8424 64.2796 63.6248 64.4208L38.8912 78.7031C38.6739 78.8442 38.4931 79.0348 38.3636 79.2592C38.2342 79.4837 38.1598 79.7356 38.1465 79.9944L38.1508 84.5615Z" fill="#F0F0F0"/>
<path d="M67.8734 66.0178V59.9614L64.5934 58.0674C64.4594 58.2904 64.3839 58.5435 64.3738 58.8035V63.1381C64.3632 63.3979 64.2877 63.6509 64.1543 63.8741L67.8734 66.0178Z" fill="#E0E0E0"/>
<path d="M41.6456 81.1616L38.3656 79.2676C38.2323 79.4906 38.1582 79.744 38.1504 80.0036V85.1992L39.898 86.2064L41.6456 81.1616Z" fill="#E0E0E0"/>
<path d="M65.3802 65.4367L40.6509 79.719C40.4339 79.8604 40.2533 80.051 40.1238 80.2754C39.9944 80.4998 39.9199 80.7516 39.9062 81.0103V86.2059L134.317 31.6938V26.4983C134.317 26.0248 133.981 25.8311 133.568 26.0678L89.6016 51.4643C89.1711 51.7011 88.8526 51.5074 88.8526 51.0339V46.682C88.8526 46.2042 88.5212 46.0105 88.1079 46.2516L66.8696 58.5194C66.653 58.6613 66.4727 58.852 66.3434 59.0763C66.214 59.3006 66.1392 59.5522 66.1249 59.8107V64.1454C66.1109 64.404 66.0362 64.6556 65.9068 64.88C65.7775 65.1044 65.597 65.2951 65.3802 65.4367Z" fill="#E0E0E0"/>
<g style="mix-blend-mode:multiply" opacity="0.7">
<g style="mix-blend-mode:multiply" opacity="0.7">
<path d="M44.5251 80.1366L42.997 81.019L43.5824 80.0117C43.6001 79.9874 43.6125 79.9596 43.6188 79.9301C43.6251 79.9007 43.6251 79.8702 43.6189 79.8408C43.6127 79.8113 43.6004 79.7835 43.5827 79.7591C43.5651 79.7346 43.5425 79.7142 43.5165 79.6991C43.4905 79.6839 43.4615 79.6744 43.4316 79.6712C43.4017 79.6679 43.3714 79.671 43.3427 79.6802C43.314 79.6894 43.2876 79.7045 43.2651 79.7245C43.2426 79.7445 43.2246 79.7691 43.2122 79.7965L42.2179 81.5183C42.1887 81.5675 42.1794 81.6261 42.192 81.6819C42.2096 81.7372 42.2462 81.7844 42.2953 81.8153L43.2897 82.3749C43.3229 82.392 43.3599 82.4009 43.3973 82.4007C43.4439 82.3993 43.4888 82.3829 43.5252 82.3538C43.5617 82.3247 43.5877 82.2845 43.5993 82.2394C43.611 82.1942 43.6076 82.1465 43.5898 82.1034C43.572 82.0603 43.5407 82.0242 43.5006 82.0004L42.8377 81.6259L44.7403 80.524C44.7834 80.4926 44.8133 80.4464 44.8243 80.3943C44.8353 80.3421 44.8265 80.2878 44.7998 80.2417C44.773 80.1957 44.7301 80.1612 44.6793 80.1449C44.6286 80.1287 44.5736 80.1318 44.5251 80.1538V80.1366Z" fill="#E0E0E0"/>
</g>
<g style="mix-blend-mode:multiply" opacity="0.7">
<path d="M48.0853 78.3842C48.0779 78.3567 48.0649 78.3311 48.0471 78.3089C48.0294 78.2867 48.0072 78.2683 47.982 78.2551L46.9877 77.6955C46.938 77.6676 46.8793 77.6606 46.8244 77.6759C46.7695 77.6912 46.723 77.7277 46.695 77.7773C46.6671 77.827 46.66 77.8857 46.6754 77.9405C46.6907 77.9954 46.7272 78.042 46.7767 78.07L47.4439 78.4445L45.5371 79.5464C45.4967 79.5704 45.4652 79.6069 45.4475 79.6504C45.4298 79.6939 45.4268 79.742 45.439 79.7874C45.4512 79.8328 45.4779 79.8729 45.515 79.9017C45.5522 79.9304 45.5977 79.9463 45.6447 79.9468C45.6827 79.9475 45.7202 79.937 45.7523 79.9166L47.2847 79.0342L46.6993 80.0415C46.6847 80.0656 46.6751 80.0925 46.6712 80.1205C46.6672 80.1484 46.6689 80.1769 46.6761 80.2042C46.6833 80.2315 46.6959 80.2571 46.7132 80.2794C46.7305 80.3017 46.7521 80.3203 46.7767 80.3342C46.8087 80.355 46.8462 80.3656 46.8844 80.3643C46.9219 80.3641 46.9588 80.354 46.9912 80.3351C47.0237 80.3163 47.0507 80.2892 47.0695 80.2567L48.0638 78.5349C48.0895 78.4891 48.0971 78.4354 48.0853 78.3842Z" fill="#E0E0E0"/>
</g>
</g>
<path d="M51.3223 75.5736L119.398 36.2693C119.914 35.9723 120.332 36.1832 120.332 36.7428C120.309 37.0556 120.212 37.3586 120.049 37.627C119.887 37.8955 119.664 38.122 119.398 38.2881L51.3223 77.5924C50.8101 77.8894 50.3926 77.6785 50.3926 77.1232C50.4152 76.8101 50.5111 76.5067 50.6726 76.2375C50.8341 75.9683 51.0567 75.7409 51.3223 75.5736Z" fill="#E0E0E0"/>
<path d="M122.954 34.1987C123.436 33.9233 123.815 34.1471 123.815 34.7067C123.8 35.0084 123.714 35.3024 123.565 35.5649C123.415 35.8274 123.206 36.051 122.954 36.2175C122.472 36.4973 122.093 36.2735 122.093 35.7139C122.108 35.4117 122.194 35.1174 122.344 34.8543C122.493 34.5912 122.702 34.3667 122.954 34.1987Z" fill="#FAFAFA"/>
<path d="M126.449 32.1978C126.935 31.9223 127.31 32.1461 127.31 32.7057C127.295 33.0075 127.21 33.3017 127.06 33.5642C126.911 33.8267 126.701 34.0503 126.449 34.2166C125.967 34.4964 125.588 34.2725 125.588 33.7129C125.603 33.4108 125.689 33.1164 125.839 32.8533C125.988 32.5903 126.197 32.3658 126.449 32.1978Z" fill="#FAFAFA"/>
<path d="M129.948 30.1782C130.43 29.9027 130.809 30.1266 130.809 30.6862C130.794 30.9879 130.708 31.2819 130.559 31.5444C130.409 31.8069 130.2 32.0305 129.948 32.197C129.466 32.4768 129.087 32.253 129.087 31.6934C129.102 31.3912 129.188 31.0969 129.338 30.8338C129.487 30.5707 129.696 30.3462 129.948 30.1782Z" fill="#FAFAFA"/>
<g style="mix-blend-mode:multiply" opacity="0.7">
<g style="mix-blend-mode:multiply" opacity="0.7">
<path d="M71.3682 58.95C71.3682 59.5096 71.7986 59.7205 72.3022 59.4235L82.6761 53.4317C82.9422 53.2655 83.1654 53.0391 83.3277 52.7706C83.49 52.5021 83.5867 52.1992 83.6101 51.8863C83.6101 51.3268 83.1797 51.1159 82.6761 51.4129L72.3022 57.4047C72.0361 57.5708 71.8129 57.7973 71.6506 58.0658C71.4883 58.3343 71.3916 58.6372 71.3682 58.95Z" fill="#E0E0E0"/>
</g>
<g style="mix-blend-mode:multiply" opacity="0.7">
<path d="M68.7466 59.4534C68.495 59.6214 68.2861 59.8459 68.1366 60.109C67.9871 60.3721 67.9012 60.6664 67.8857 60.9686C67.8857 61.5282 68.2775 61.752 68.7466 61.4722C68.9987 61.3057 69.2079 61.0821 69.3575 60.8196C69.5071 60.5571 69.5927 60.2631 69.6075 59.9614C69.6205 59.4018 69.2287 59.165 68.7466 59.4534Z" fill="#3EA635"/>
</g>
<g style="mix-blend-mode:multiply" opacity="0.7">
<path d="M87.1052 51.09C87.0672 51.0903 87.0299 51.0798 86.9976 51.0599L85.25 50.0526C85.2254 50.0385 85.2038 50.0197 85.1865 49.9972C85.1692 49.9747 85.1565 49.9491 85.1491 49.9217C85.1417 49.8943 85.1397 49.8657 85.1434 49.8376C85.147 49.8095 85.1562 49.7824 85.1703 49.7578C85.1845 49.7332 85.2033 49.7116 85.2258 49.6943C85.2482 49.677 85.2739 49.6643 85.3013 49.6569C85.3286 49.6495 85.3572 49.6476 85.3853 49.6512C85.4135 49.6549 85.4406 49.664 85.4652 49.6781L87.2128 50.6897C87.2532 50.7137 87.2847 50.7502 87.3024 50.7937C87.3201 50.8372 87.323 50.8853 87.3108 50.9307C87.2986 50.976 87.2719 51.0162 87.2348 51.0449C87.1977 51.0737 87.1522 51.0895 87.1052 51.09Z" fill="#E0E0E0"/>
</g>
<g style="mix-blend-mode:multiply" opacity="0.7">
<path d="M85.3573 52.1012C85.3195 52.0999 85.2826 52.0896 85.2496 52.0711C85.2008 52.0424 85.1652 51.9955 85.1507 51.9407C85.1362 51.8859 85.1439 51.8276 85.1722 51.7784L86.9198 48.7653C86.9322 48.7378 86.9502 48.7133 86.9727 48.6932C86.9952 48.6732 87.0216 48.6581 87.0503 48.6489C87.079 48.6397 87.1092 48.6367 87.1392 48.6399C87.1691 48.6432 87.198 48.6527 87.2241 48.6678C87.2501 48.683 87.2727 48.7034 87.2903 48.7278C87.308 48.7522 87.3203 48.78 87.3265 48.8095C87.3327 48.839 87.3327 48.8694 87.3264 48.8989C87.3201 48.9283 87.3077 48.9561 87.29 48.9805L85.5423 51.9936C85.5236 52.0262 85.4966 52.0532 85.4641 52.0721C85.4317 52.091 85.3948 52.101 85.3573 52.1012Z" fill="#E0E0E0"/>
</g>
</g>
<path d="M44.3965 157.45L44.1425 157.303C43.9249 157.162 43.7437 156.972 43.6135 156.747C43.4834 156.523 43.408 156.271 43.3936 156.012V83.0294C43.4082 82.771 43.4832 82.5196 43.6125 82.2953C43.7418 82.0711 43.9219 81.8802 44.1382 81.7381L46.1441 80.5802C46.3614 80.4391 46.5422 80.2485 46.6717 80.024C46.8011 79.7996 46.8755 79.5476 46.8888 79.2888V74.9542C46.9033 74.6952 46.9786 74.4433 47.1088 74.2189C47.2389 73.9945 47.4201 73.804 47.6378 73.6629L68.8761 61.3994C69.107 61.2825 69.3621 61.2216 69.6208 61.2216C69.8795 61.2216 70.1346 61.2825 70.3655 61.3994L70.6238 61.55C70.8411 61.6912 71.0219 61.8818 71.1513 62.1062C71.2807 62.3307 71.3551 62.5826 71.3684 62.8414V65.1572C71.3684 65.6307 71.7042 65.8244 72.1131 65.5877L137.072 28.0869C137.303 27.9701 137.558 27.9092 137.817 27.9092C138.076 27.9092 138.331 27.9701 138.562 28.0869L138.82 28.2376C139.037 28.3787 139.218 28.5693 139.347 28.7938C139.477 29.0182 139.551 29.2702 139.564 29.529V102.507C139.551 102.766 139.477 103.018 139.347 103.242C139.218 103.467 139.037 103.657 138.82 103.799L45.8902 157.45C45.6592 157.569 45.4031 157.631 45.1433 157.631C44.8835 157.631 44.6275 157.569 44.3965 157.45Z" fill="#E0E0E0"/>
<path d="M45.1455 157.019V84.0406C45.1596 83.7815 45.2348 83.5294 45.365 83.305C45.4952 83.0806 45.6766 82.8901 45.8945 82.7492L47.9004 81.5913C48.1167 81.4492 48.2968 81.2583 48.4261 81.0341C48.5554 80.8098 48.6304 80.5584 48.6451 80.3V75.9524C48.6583 75.6937 48.7328 75.4417 48.8622 75.2173C48.9916 74.9928 49.1724 74.8022 49.3897 74.6611L70.6281 62.3976C71.0585 62.1608 71.3728 62.3502 71.3728 62.828V67.1627C71.3728 67.6405 71.7085 67.8299 72.1174 67.5931L138.837 29.0852C139.267 28.8441 139.582 29.0378 139.582 29.5156V102.507C139.568 102.766 139.494 103.018 139.365 103.242C139.235 103.466 139.054 103.657 138.837 103.798L45.8902 157.449C45.477 157.69 45.1455 157.497 45.1455 157.019Z" fill="#FAFAFA"/>
<path d="M45.1406 89.2367L45.1449 103.368L139.56 48.8562V34.7246L45.1406 89.2367Z" fill="#3EA635"/>
<path d="M43.3936 88.2246V102.361L45.1455 103.368L45.1412 89.2362L43.3936 88.2246Z" fill="#3EA635"/>
<path opacity="0.2" d="M43.3936 88.2246V102.361L45.1455 103.368L45.1412 89.2362L43.3936 88.2246Z" fill="black"/>
<path d="M75.7974 77.5927L106.359 59.9443V61.9631L75.7974 79.6115C75.2808 79.9086 74.8633 79.6976 74.8633 79.1424C74.8864 78.8289 74.9829 78.5252 75.1452 78.256C75.3075 77.9868 75.5309 77.7595 75.7974 77.5927Z" fill="white"/>
<path d="M108.963 58.4461L106.342 59.9612V61.98L108.963 60.4563C109.215 60.2888 109.425 60.0644 109.574 59.8012C109.724 59.538 109.809 59.2434 109.824 58.9411C109.837 58.3944 109.445 58.1663 108.963 58.4461Z" fill="white"/>
<path d="M50.3882 104.362C51.3525 103.803 52.1359 104.255 52.1359 105.369C52.1 105.973 51.9233 106.56 51.6198 107.084C51.3163 107.607 50.8946 108.052 50.3882 108.383C49.424 108.938 48.6406 108.486 48.6406 107.371C48.6771 106.768 48.8542 106.182 49.1576 105.659C49.4611 105.137 49.8825 104.693 50.3882 104.362Z" fill="#3EA635"/>
<path d="M54.8173 101.823L65.1868 95.8308C65.699 95.5338 66.1166 95.7447 66.1166 96.3043C66.0933 96.6167 65.9971 96.9192 65.8356 97.1876C65.6741 97.456 65.4519 97.6828 65.1868 97.8496L54.8087 103.841C54.2921 104.138 53.8789 103.928 53.8789 103.368C53.9021 103.055 53.9992 102.751 54.1623 102.483C54.3255 102.214 54.5499 101.988 54.8173 101.823Z" fill="#3EA635"/>
<path d="M53.8877 105.89C53.8988 105.734 53.9467 105.583 54.0275 105.449C54.1083 105.315 54.2197 105.202 54.3526 105.12L60.4133 101.62C60.6716 101.469 60.8782 101.577 60.8782 101.853C60.8674 102.009 60.8196 102.161 60.7388 102.296C60.658 102.43 60.5465 102.544 60.4133 102.627L54.3526 106.127C54.0943 106.278 53.8877 106.17 53.8877 105.89Z" fill="#3EA635"/>
<path opacity="0.3" d="M53.8877 105.89C53.8988 105.734 53.9467 105.583 54.0275 105.449C54.1083 105.315 54.2197 105.202 54.3526 105.12L60.4133 101.62C60.6716 101.469 60.8782 101.577 60.8782 101.853C60.8674 102.009 60.8196 102.161 60.7388 102.296C60.658 102.43 60.5465 102.544 60.4133 102.627L54.3526 106.127C54.0943 106.278 53.8877 106.17 53.8877 105.89Z" fill="white"/>
<path d="M50.3882 112.11C51.3525 111.551 52.1359 112.003 52.1359 113.117C52.1 113.721 51.9233 114.308 51.6198 114.832C51.3163 115.355 50.8946 115.8 50.3882 116.131C49.424 116.686 48.6406 116.234 48.6406 115.119C48.6771 114.516 48.8542 113.93 49.1576 113.407C49.4611 112.885 49.8825 112.441 50.3882 112.11Z" fill="#3EA635"/>
<path d="M54.8173 109.571L65.1868 103.579C65.699 103.282 66.1166 103.493 66.1166 104.052C66.0933 104.365 65.9971 104.667 65.8356 104.936C65.6741 105.204 65.4519 105.431 65.1868 105.598L54.8087 111.59C54.2921 111.887 53.8789 111.676 53.8789 111.116C53.9021 110.803 53.9992 110.499 54.1623 110.231C54.3255 109.962 54.5499 109.736 54.8173 109.571Z" fill="#3EA635"/>
<path d="M53.8877 113.638C53.8988 113.482 53.9467 113.331 54.0275 113.197C54.1083 113.063 54.2197 112.95 54.3526 112.868L60.4133 109.368C60.6716 109.217 60.8782 109.325 60.8782 109.601C60.8674 109.757 60.8196 109.909 60.7388 110.044C60.658 110.179 60.5465 110.292 60.4133 110.375L54.3526 113.875C54.0943 114.026 53.8877 113.918 53.8877 113.638Z" fill="#3EA635"/>
<path opacity="0.3" d="M53.8877 113.638C53.8988 113.482 53.9467 113.331 54.0275 113.197C54.1083 113.063 54.2197 112.95 54.3526 112.868L60.4133 109.368C60.6716 109.217 60.8782 109.325 60.8782 109.601C60.8674 109.757 60.8196 109.909 60.7388 110.044C60.658 110.179 60.5465 110.292 60.4133 110.375L54.3526 113.875C54.0943 114.026 53.8877 113.918 53.8877 113.638Z" fill="white"/>
<path d="M50.3882 120.72C51.3525 120.16 52.1359 120.612 52.1359 121.727C52.1 122.331 51.9233 122.918 51.6198 123.441C51.3163 123.964 50.8946 124.409 50.3882 124.74C49.424 125.295 48.6406 124.843 48.6406 123.728C48.6771 123.125 48.8542 122.539 49.1576 122.017C49.4611 121.494 49.8825 121.05 50.3882 120.72Z" fill="#3EA635"/>
<path d="M54.8173 118.18L65.1868 112.188C65.699 111.891 66.1166 112.102 66.1166 112.662C66.0933 112.974 65.9971 113.277 65.8356 113.545C65.6741 113.813 65.4519 114.04 65.1868 114.207L54.8087 120.199C54.2921 120.496 53.8789 120.285 53.8789 119.725C53.9021 119.412 53.9992 119.109 54.1623 118.84C54.3255 118.571 54.5499 118.345 54.8173 118.18Z" fill="#3EA635"/>
<path d="M53.8877 122.248C53.8988 122.092 53.9467 121.94 54.0275 121.806C54.1083 121.673 54.2197 121.56 54.3526 121.477L60.4133 117.978C60.6716 117.827 60.8782 117.934 60.8782 118.21C60.8674 118.367 60.8196 118.519 60.7388 118.653C60.658 118.788 60.5465 118.902 60.4133 118.985L54.3526 122.484C54.0943 122.635 53.8877 122.527 53.8877 122.248Z" fill="#3EA635"/>
<path opacity="0.3" d="M53.8877 122.248C53.8988 122.092 53.9467 121.94 54.0275 121.806C54.1083 121.673 54.2197 121.56 54.3526 121.477L60.4133 117.978C60.6716 117.827 60.8782 117.934 60.8782 118.21C60.8674 118.367 60.8196 118.519 60.7388 118.653C60.658 118.788 60.5465 118.902 60.4133 118.985L54.3526 122.484C54.0943 122.635 53.8877 122.527 53.8877 122.248Z" fill="white"/>
<path d="M50.3882 134.494C51.3525 133.934 52.1359 134.386 52.1359 135.501C52.1 136.105 51.9233 136.692 51.6198 137.215C51.3163 137.739 50.8946 138.183 50.3882 138.514C49.424 139.07 48.6406 138.618 48.6406 137.503C48.6771 136.9 48.8542 136.314 49.1576 135.791C49.4611 135.269 49.8825 134.825 50.3882 134.494Z" fill="#3EA635"/>
<path d="M54.8173 131.955L65.1868 125.963C65.699 125.666 66.1166 125.877 66.1166 126.436C66.0933 126.749 65.9971 127.051 65.8356 127.319C65.6741 127.588 65.4519 127.815 65.1868 127.981L54.8087 133.973C54.2921 134.27 53.8789 134.059 53.8789 133.5C53.9021 133.186 53.9992 132.883 54.1623 132.614C54.3255 132.346 54.5499 132.12 54.8173 131.955Z" fill="#3EA635"/>
<path d="M53.8877 136.022C53.8988 135.866 53.9467 135.715 54.0275 135.581C54.1083 135.447 54.2197 135.334 54.3526 135.251L60.4133 131.752C60.6716 131.601 60.8782 131.709 60.8782 131.984C60.8674 132.141 60.8196 132.293 60.7388 132.428C60.658 132.562 60.5465 132.676 60.4133 132.759L54.3526 136.259C54.0943 136.409 53.8877 136.302 53.8877 136.022Z" fill="#3EA635"/>
<path opacity="0.3" d="M53.8877 136.022C53.8988 135.866 53.9467 135.715 54.0275 135.581C54.1083 135.447 54.2197 135.334 54.3526 135.251L60.4133 131.752C60.6716 131.601 60.8782 131.709 60.8782 131.984C60.8674 132.141 60.8196 132.293 60.7388 132.428C60.658 132.562 60.5465 132.676 60.4133 132.759L54.3526 136.259C54.0943 136.409 53.8877 136.302 53.8877 136.022Z" fill="white"/>
<path d="M50.3882 141.811C51.3525 141.252 52.1359 141.704 52.1359 142.819C52.1 143.422 51.9233 144.01 51.6198 144.533C51.3163 145.056 50.8946 145.501 50.3882 145.832C49.424 146.387 48.6406 145.935 48.6406 144.82C48.6771 144.217 48.8542 143.631 49.1576 143.109C49.4611 142.586 49.8825 142.142 50.3882 141.811Z" fill="#3EA635"/>
<path d="M54.8173 139.272L65.1868 133.28C65.699 132.983 66.1166 133.194 66.1166 133.754C66.0933 134.066 65.9971 134.368 65.8356 134.637C65.6741 134.905 65.4519 135.132 65.1868 135.299L54.8087 141.291C54.2921 141.588 53.8789 141.377 53.8789 140.817C53.9021 140.504 53.9992 140.2 54.1623 139.932C54.3255 139.663 54.5499 139.437 54.8173 139.272Z" fill="#3EA635"/>
<path d="M53.8877 143.339C53.8988 143.183 53.9467 143.032 54.0275 142.898C54.1083 142.764 54.2197 142.651 54.3526 142.569L60.4133 139.069C60.6716 138.919 60.8782 139.026 60.8782 139.302C60.8674 139.458 60.8196 139.61 60.7388 139.745C60.658 139.88 60.5465 139.993 60.4133 140.077L54.3526 143.576C54.0943 143.727 53.8877 143.619 53.8877 143.339Z" fill="#3EA635"/>
<path opacity="0.3" d="M53.8877 143.339C53.8988 143.183 53.9467 143.032 54.0275 142.898C54.1083 142.764 54.2197 142.651 54.3526 142.569L60.4133 139.069C60.6716 138.919 60.8782 139.026 60.8782 139.302C60.8674 139.458 60.8196 139.61 60.7388 139.745C60.658 139.88 60.5465 139.993 60.4133 140.077L54.3526 143.576C54.0943 143.727 53.8877 143.619 53.8877 143.339Z" fill="white"/>
<path d="M46.8926 132.342V132.389C46.8926 132.531 46.9916 132.591 47.1164 132.518L57.1588 126.72C57.2239 126.678 57.2781 126.62 57.317 126.553C57.3559 126.486 57.3783 126.41 57.3826 126.333V126.285C57.3826 126.143 57.2836 126.083 57.1588 126.156L47.1078 131.937C47.042 131.982 46.988 132.043 46.9505 132.113C46.9131 132.184 46.8932 132.262 46.8926 132.342Z" fill="#E0E0E0"/>
<path d="M72.3022 91.7288L119.393 64.5373C119.91 64.2403 120.327 64.4814 120.327 65.0754V83.1112C120.31 83.4348 120.216 83.7497 120.054 84.0302C119.891 84.3107 119.665 84.5489 119.393 84.7254L72.3022 111.917C71.7857 112.214 71.3682 111.973 71.3682 111.379V93.343C71.385 93.0192 71.4785 92.704 71.6409 92.4234C71.8033 92.1428 72.0299 91.9047 72.3022 91.7288Z" fill="#3EA635"/>
<path d="M74.8682 93.2742C74.8682 93.8295 75.2986 94.0404 75.7979 93.7434L87.1058 87.2178C87.3719 87.0517 87.5952 86.8252 87.7575 86.5567C87.9197 86.2883 88.0165 85.9853 88.0399 85.6725C88.0399 85.1129 87.6095 84.902 87.1058 85.199L75.7979 91.7246C75.5328 91.8924 75.3105 92.1199 75.1491 92.389C74.9876 92.6581 74.8914 92.9613 74.8682 93.2742Z" fill="#F5F5F5"/>
<path d="M89.2666 84.9617C89.2666 85.5213 89.6971 85.7322 90.1964 85.4352L101.504 78.9053C101.769 78.7384 101.992 78.5117 102.153 78.2433C102.315 77.9749 102.411 77.6724 102.434 77.36C102.434 76.8004 102.004 76.5895 101.504 76.8865L90.1964 83.4164C89.9306 83.5825 89.7078 83.8091 89.5462 84.0776C89.3847 84.3462 89.2888 84.6491 89.2666 84.9617Z" fill="#F5F5F5"/>
<path d="M103.66 76.6496C103.66 77.2092 104.091 77.4201 104.594 77.1231L115.898 70.5932C116.163 70.4297 116.387 70.2064 116.551 69.941C116.714 69.6757 116.814 69.3757 116.841 69.0651C116.841 68.5055 116.41 68.2946 115.906 68.5916L104.594 75.0914C104.326 75.2587 104.102 75.4872 103.94 75.7581C103.777 76.029 103.682 76.3345 103.66 76.6496Z" fill="#F5F5F5"/>
<path d="M74.8682 107.406C74.8682 107.965 75.2986 108.176 75.7979 107.879L115.899 84.7296C116.165 84.5628 116.388 84.3356 116.551 84.0664C116.713 83.7972 116.81 83.4935 116.833 83.18C116.833 82.6247 116.402 82.4138 115.899 82.7108L75.7979 105.86C75.5328 106.027 75.3106 106.254 75.1491 106.522C74.9877 106.791 74.8914 107.093 74.8682 107.406Z" fill="#F5F5F5"/>
<path d="M75.6128 95.8734L116.075 72.5044C116.484 72.2676 116.82 72.4613 116.82 72.9348V79.2882C116.806 79.5468 116.731 79.7985 116.602 80.0229C116.472 80.2472 116.292 80.438 116.075 80.5796L75.6128 103.949C75.2039 104.185 74.8682 103.992 74.8682 103.518V97.1648C74.8821 96.9062 74.9568 96.6545 75.0862 96.4301C75.2156 96.2058 75.396 96.0151 75.6128 95.8734Z" fill="#F5F5F5"/>
<path d="M72.3022 115.833L119.393 88.6418C119.91 88.3448 120.327 88.5859 120.327 89.1799V107.216C120.31 107.539 120.216 107.854 120.054 108.135C119.891 108.415 119.665 108.653 119.393 108.83L72.3022 136.021C71.7857 136.318 71.3682 136.077 71.3682 135.483V117.447C71.385 117.124 71.4785 116.809 71.6409 116.528C71.8033 116.247 72.0299 116.009 72.3022 115.833Z" fill="#3EA635"/>
<path d="M74.8682 117.379C74.8682 117.934 75.2986 118.145 75.7979 117.848L87.1058 111.322C87.3719 111.156 87.5952 110.93 87.7575 110.661C87.9197 110.393 88.0165 110.09 88.0399 109.777C88.0399 109.217 87.6095 109.006 87.1058 109.303L75.7979 115.829C75.5328 115.997 75.3105 116.224 75.1491 116.494C74.9876 116.763 74.8914 117.066 74.8682 117.379Z" fill="#F5F5F5"/>
<path d="M89.2666 109.067C89.2666 109.627 89.6971 109.838 90.1964 109.541L101.504 103.011C101.769 102.844 101.992 102.617 102.153 102.349C102.315 102.08 102.411 101.778 102.434 101.465C102.434 100.906 102.004 100.695 101.504 100.992L90.1964 107.522C89.9306 107.688 89.7078 107.915 89.5462 108.183C89.3847 108.452 89.2888 108.755 89.2666 109.067Z" fill="#F5F5F5"/>
<path d="M103.66 100.755C103.66 101.315 104.091 101.526 104.594 101.229L115.898 94.6986C116.163 94.5352 116.387 94.3118 116.551 94.0465C116.714 93.7811 116.814 93.4811 116.841 93.1705C116.841 92.611 116.41 92.4 115.906 92.697L104.594 99.1968C104.326 99.3642 104.102 99.5927 103.94 99.8636C103.777 100.134 103.682 100.44 103.66 100.755Z" fill="#F5F5F5"/>
<path d="M74.8682 131.511C74.8682 132.071 75.2986 132.282 75.7979 131.985L115.899 108.835C116.165 108.668 116.388 108.441 116.551 108.172C116.713 107.903 116.81 107.599 116.833 107.285C116.833 106.73 116.402 106.519 115.899 106.816L75.7979 129.966C75.5328 130.133 75.3106 130.359 75.1491 130.628C74.9877 130.896 74.8914 131.199 74.8682 131.511Z" fill="#F5F5F5"/>
<path d="M75.6128 119.979L116.075 96.6098C116.484 96.3731 116.82 96.5668 116.82 97.0403V103.394C116.806 103.652 116.731 103.904 116.602 104.128C116.472 104.353 116.292 104.543 116.075 104.685L75.6128 128.054C75.2039 128.291 74.8682 128.097 74.8682 127.624V121.27C74.8821 121.012 74.9568 120.76 75.0862 120.536C75.2156 120.311 75.396 120.121 75.6128 119.979Z" fill="#F5F5F5"/>
<path d="M135.135 55.4504L124.761 61.4423C124.489 61.6187 124.263 61.8569 124.101 62.1374C123.938 62.4179 123.845 62.7328 123.827 63.0564V73.017C123.827 73.611 124.258 73.8521 124.761 73.5551L135.135 67.5675C135.406 67.3901 135.631 67.1515 135.792 66.8712C135.954 66.5908 136.047 66.2764 136.065 65.9534V55.9885C136.065 55.3944 135.647 55.1534 135.135 55.4504Z" fill="#3EA635"/>
<path d="M126.858 62.2559C127.568 61.8255 128.149 62.1784 128.149 62.9963C128.124 63.4427 127.995 63.8771 127.77 64.2638C127.546 64.6506 127.233 64.9788 126.858 65.2217C126.148 65.6521 125.566 65.2992 125.566 64.4813C125.592 64.0351 125.722 63.6012 125.947 63.2146C126.171 62.828 126.483 62.4996 126.858 62.2559Z" fill="#F5F5F5"/>
<path d="M129.07 62.4835C129.082 62.3266 129.131 62.1747 129.212 62.0401C129.294 61.9055 129.406 61.792 129.54 61.7087L133.844 59.2207C134.098 59.07 134.309 59.1776 134.309 59.4531C134.297 59.6101 134.249 59.7621 134.167 59.8968C134.086 60.0314 133.973 60.1449 133.84 60.2279L129.535 62.7202C129.281 62.8666 129.07 62.7633 129.07 62.4835Z" fill="#F5F5F5"/>
<path d="M126.039 66.7579L133.847 62.2468C134.106 62.1004 134.317 62.2209 134.317 62.5179V65.4794C134.308 65.6407 134.261 65.7976 134.18 65.9374C134.1 66.0772 133.987 66.1961 133.852 66.2844L126.039 70.7869C125.781 70.9375 125.574 70.817 125.574 70.52V67.5585C125.584 67.3981 125.631 67.2422 125.712 67.1032C125.793 66.9642 125.905 66.846 126.039 66.7579Z" fill="#F5F5F5"/>
<path d="M135.135 69.5859L124.761 75.5735C124.489 75.75 124.263 75.9882 124.101 76.2687C123.938 76.5492 123.845 76.8641 123.827 77.1877V97.2423C123.827 97.8363 124.258 98.0774 124.761 97.7803L135.135 91.7928C135.406 91.6153 135.631 91.3768 135.792 91.0964C135.954 90.8161 136.047 90.5017 136.065 90.1786V70.124C136.065 69.5257 135.647 69.2889 135.135 69.5859Z" fill="#3EA635"/>
<path d="M126.858 76.3831C127.568 75.9741 128.149 76.3056 128.149 77.1277C128.123 77.574 127.993 78.0079 127.769 78.3945C127.545 78.7811 127.232 79.1095 126.858 79.3532C126.148 79.7836 125.566 79.4306 125.566 78.6085C125.592 78.1623 125.723 77.7285 125.947 77.342C126.171 76.9555 126.483 76.627 126.858 76.3831Z" fill="#F5F5F5"/>
<path d="M129.07 76.6152C129.082 76.4589 129.131 76.3076 129.212 76.1737C129.294 76.0398 129.406 75.9271 129.54 75.8447L133.844 73.3525C134.098 73.2061 134.309 73.3094 134.309 73.5892C134.297 73.7461 134.248 73.898 134.167 74.0326C134.085 74.1672 133.973 74.2807 133.84 74.364L129.535 76.852C129.281 77.0027 129.07 76.895 129.07 76.6152Z" fill="#F5F5F5"/>
<path d="M126.039 80.8901L133.847 76.3833C134.106 76.2327 134.317 76.3532 134.317 76.6502V79.6117C134.307 79.7734 134.26 79.9306 134.179 80.071C134.099 80.2115 133.987 80.3312 133.852 80.4209L126.039 84.9277C125.781 85.0784 125.574 84.9579 125.574 84.6609V81.6994C125.583 81.5375 125.629 81.3798 125.71 81.2393C125.791 81.0987 125.904 80.9791 126.039 80.8901Z" fill="#F5F5F5"/>
<path d="M126.858 86.4729C127.568 86.064 128.149 86.3954 128.149 87.2176C128.123 87.6638 127.993 88.0978 127.769 88.4843C127.545 88.8709 127.232 89.1993 126.858 89.443C126.148 89.8519 125.566 89.5205 125.566 88.6983C125.592 88.2522 125.723 87.8184 125.947 87.4318C126.171 87.0453 126.483 86.7168 126.858 86.4729Z" fill="#F5F5F5"/>
<path d="M129.07 86.7139C129.082 86.5576 129.131 86.4063 129.212 86.2724C129.294 86.1385 129.406 86.0257 129.54 85.9434L133.844 83.4511C134.098 83.3047 134.309 83.408 134.309 83.6878C134.297 83.8442 134.248 83.9954 134.167 84.1294C134.085 84.2633 133.973 84.376 133.84 84.4583L129.535 86.9506C129.281 87.0884 129.07 86.9808 129.07 86.7139Z" fill="#F5F5F5"/>
<path d="M126.039 90.9756L133.847 86.4645C134.106 86.3182 134.317 86.4387 134.317 86.7357V89.6972C134.307 89.8589 134.26 90.0161 134.179 90.1566C134.099 90.297 133.987 90.4168 133.852 90.5065L126.039 95.0133C125.781 95.1639 125.574 95.0434 125.574 94.7464V91.7849C125.583 91.623 125.629 91.4654 125.71 91.3248C125.791 91.1842 125.904 91.0646 126.039 90.9756Z" fill="#F5F5F5"/>
<path d="M135.135 93.8078L124.761 99.7954C124.489 99.9719 124.263 100.21 124.101 100.491C123.938 100.771 123.845 101.086 123.827 101.41V105.322C123.827 105.916 124.258 106.157 124.761 105.86L135.135 99.8685C135.406 99.6911 135.631 99.4525 135.792 99.1722C135.954 98.8918 136.047 98.5774 136.065 98.2544V94.3459C136.065 93.7519 135.647 93.5108 135.135 93.8078Z" fill="#3EA635"/>
<path d="M126.862 100.242C127.568 99.8335 128.153 100.165 128.153 100.987C128.127 101.433 127.997 101.866 127.773 102.252C127.548 102.638 127.236 102.965 126.862 103.208C126.151 103.639 125.57 103.286 125.57 102.468C125.595 102.021 125.725 101.587 125.95 101.201C126.174 100.814 126.486 100.486 126.862 100.242Z" fill="#F5F5F5"/>
<path d="M129.074 100.488C129.085 100.332 129.133 100.18 129.214 100.045C129.295 99.9106 129.406 99.797 129.539 99.7134L133.844 97.2254C134.102 97.0748 134.308 97.1824 134.308 97.4622C134.296 97.618 134.248 97.7687 134.167 97.9025C134.087 98.0363 133.976 98.1494 133.844 98.2327L129.539 100.725C129.281 100.858 129.074 100.751 129.074 100.488Z" fill="#F5F5F5"/>
<path d="M139.56 34.7239V29.5241C139.547 29.2652 139.473 29.0132 139.343 28.7886C139.214 28.5641 139.033 28.3736 138.815 28.2327L138.557 28.0821C138.326 27.9652 138.071 27.9043 137.813 27.9043C137.554 27.9043 137.299 27.9652 137.068 28.0821L72.1131 65.5828C71.6827 65.8195 71.3684 65.6258 71.3684 65.1523V62.8365C71.3551 62.5777 71.2807 62.3258 71.1513 62.1013C71.0219 61.8769 70.8411 61.6863 70.6238 61.5452L70.3655 61.3945C70.1347 61.2776 69.8795 61.2167 69.6208 61.2167C69.3621 61.2167 69.107 61.2776 68.8761 61.3945L47.6378 73.658C47.4202 73.7991 47.2389 73.9897 47.1088 74.214C46.9786 74.4384 46.9033 74.6904 46.8888 74.9493V79.284C46.8755 79.5427 46.8011 79.7947 46.6717 80.0191C46.5422 80.2436 46.3614 80.4342 46.1441 80.5753L44.1382 81.7332C43.9219 81.8754 43.7418 82.0662 43.6125 82.2904C43.4832 82.5147 43.4082 82.7661 43.3936 83.0246V88.2201L45.1412 89.2316L139.56 34.7239Z" fill="#F5F5F5"/>
<path d="M48.641 81.1607H48.8304L49.3125 75.4874L47.1086 74.2305C46.9751 74.4537 46.8997 74.7067 46.8891 74.9665V79.3012C46.8805 79.5607 46.8064 79.8139 46.6738 80.0372L48.641 81.1607Z" fill="#E0E0E0"/>
<path d="M43.6131 82.2979C43.4791 82.5193 43.4036 82.771 43.3936 83.0296V88.2251L45.1412 89.2367L46.8931 84.1875L43.6131 82.2979Z" fill="#E0E0E0"/>
<path d="M47.8955 81.5911L45.8896 82.749C45.6717 82.8899 45.4903 83.0803 45.3601 83.3048C45.23 83.5292 45.1547 83.7813 45.1406 84.0403V89.2359L139.56 34.7238V29.5283C139.56 29.0505 139.228 28.8568 138.815 29.0978L72.0953 67.6058C71.6649 67.8426 71.3507 67.6532 71.3507 67.1754V62.8407C71.3507 62.3629 71.0192 62.1735 70.606 62.4103L49.3849 74.6609C49.1675 74.802 48.9868 74.9926 48.8573 75.217C48.7279 75.4415 48.6535 75.6934 48.6402 75.9522V80.2998C48.6255 80.5582 48.5505 80.8096 48.4212 81.0339C48.2919 81.2581 48.1119 81.449 47.8955 81.5911Z" fill="#F5F5F5"/>
<path d="M53.8838 75.0918C53.8838 75.6471 54.3142 75.858 54.8179 75.561L65.1874 69.5821C65.4535 69.4159 65.6767 69.1895 65.839 68.921C66.0013 68.6525 66.0981 68.3496 66.1215 68.0367C66.1215 67.4772 65.691 67.2662 65.1874 67.5632L54.8136 73.5551C54.5494 73.7209 54.3276 73.9462 54.1662 74.213C54.0047 74.4799 53.908 74.7809 53.8838 75.0918Z" fill="#E0E0E0"/>
<path d="M51.2623 75.608C51.0101 75.7755 50.8009 75.9998 50.6514 76.263C50.5018 76.5262 50.4162 76.8208 50.4014 77.1231C50.4014 77.6784 50.7931 77.9066 51.2623 77.6268C51.5144 77.4593 51.7236 77.2349 51.8732 76.9717C52.0227 76.7085 52.1083 76.4139 52.1232 76.1116C52.1361 75.5563 51.7444 75.3282 51.2623 75.608Z" fill="#3EA635"/>
<path d="M69.6211 67.2407C69.5837 67.2404 69.5469 67.2316 69.5135 67.2149L67.7701 66.2033C67.7427 66.1909 67.7182 66.1729 67.6981 66.1504C67.6781 66.128 67.663 66.1015 67.6538 66.0728C67.6446 66.0442 67.6416 66.0139 67.6448 65.9839C67.6481 65.954 67.6576 65.9251 67.6727 65.899C67.6879 65.873 67.7083 65.8504 67.7327 65.8328C67.7571 65.8152 67.7849 65.8028 67.8144 65.7966C67.8439 65.7904 67.8743 65.7904 67.9038 65.7967C67.9332 65.803 67.961 65.8154 67.9854 65.8332L69.733 66.8404C69.7734 66.8644 69.8048 66.9009 69.8225 66.9444C69.8402 66.9879 69.8432 67.036 69.831 67.0814C69.8188 67.1267 69.7921 67.1669 69.755 67.1956C69.7179 67.2244 69.6723 67.2402 69.6254 67.2407H69.6211Z" fill="#E0E0E0"/>
<path d="M67.8731 68.2524C67.8347 68.2473 67.7987 68.2308 67.7698 68.205C67.7452 68.1912 67.7236 68.1726 67.7063 68.1503C67.689 68.1279 67.6764 68.1024 67.6691 68.0751C67.6619 68.0478 67.6602 68.0193 67.6642 67.9913C67.6682 67.9634 67.6778 67.9365 67.6923 67.9123L69.4399 64.8992C69.4713 64.8561 69.5175 64.8262 69.5696 64.8152C69.6218 64.8042 69.6761 64.8129 69.7222 64.8397C69.7682 64.8665 69.8027 64.9094 69.819 64.9601C69.8352 65.0109 69.8321 65.0659 69.8101 65.1144L68.0625 68.1276C68.0457 68.1639 68.0191 68.1949 67.9856 68.2169C67.9521 68.239 67.9132 68.2513 67.8731 68.2524Z" fill="#E0E0E0"/>
<path d="M47.7799 84.7767C47.7417 84.7768 47.7041 84.7669 47.6709 84.748C47.6377 84.7292 47.61 84.7019 47.5905 84.6691C47.5637 84.6192 47.5573 84.5608 47.5726 84.5063C47.5878 84.4517 47.6235 84.4052 47.6723 84.3764L49.7686 83.1625C49.7932 83.1484 49.8203 83.1392 49.8484 83.1356C49.8765 83.1319 49.9051 83.1339 49.9325 83.1413C49.9599 83.1487 49.9855 83.1614 50.008 83.1787C50.0305 83.196 50.0493 83.2176 50.0634 83.2421C50.0776 83.2667 50.0867 83.2939 50.0904 83.322C50.094 83.3501 50.0921 83.3787 50.0847 83.4061C50.0773 83.4334 50.0646 83.4591 50.0473 83.4816C50.03 83.504 50.0084 83.5229 49.9838 83.537L47.8875 84.7466C47.8552 84.7665 47.8179 84.777 47.7799 84.7767Z" fill="#E0E0E0"/>
<path d="M48.641 85.4221C48.6029 85.4229 48.5655 85.4124 48.5333 85.392L47.3496 84.7291L48.4559 82.8308C48.4872 82.7877 48.5334 82.7578 48.5855 82.7468C48.6377 82.7358 48.692 82.7446 48.7381 82.7714C48.7842 82.7981 48.8187 82.841 48.8349 82.8918C48.8511 82.9425 48.848 82.9975 48.8261 83.0461L47.9393 84.5612L48.7443 84.9917C48.7939 85.0197 48.8303 85.0663 48.8457 85.1211C48.861 85.176 48.8539 85.2347 48.8261 85.2844C48.8119 85.3228 48.7869 85.3563 48.754 85.3808C48.7211 85.4053 48.6819 85.4196 48.641 85.4221Z" fill="#E0E0E0"/>
<path d="M50.8878 82.9737C50.8409 82.9732 50.7953 82.9574 50.7582 82.9286C50.7211 82.8998 50.6944 82.8597 50.6822 82.8144C50.67 82.769 50.673 82.7209 50.6907 82.6774C50.7084 82.6339 50.7398 82.5974 50.7802 82.5734L52.8808 81.3638C52.9294 81.3419 52.9843 81.3387 53.0351 81.355C53.0858 81.3712 53.1287 81.4057 53.1555 81.4518C53.1823 81.4978 53.191 81.5522 53.1801 81.6043C53.1691 81.6565 53.1391 81.7027 53.096 81.734L50.9825 82.9479C50.9532 82.9631 50.9209 82.9719 50.8878 82.9737Z" fill="#E0E0E0"/>
<path d="M52.1276 83.3955C52.0894 83.3968 52.0519 83.3863 52.0199 83.3654C51.9711 83.3366 51.9355 83.2898 51.921 83.2349C51.9065 83.1801 51.9142 83.1218 51.9425 83.0727L52.8249 81.5532L52.0199 81.1227C51.9712 81.0939 51.9354 81.0474 51.9202 80.9928C51.905 80.9383 51.9114 80.8799 51.9382 80.83C51.9662 80.7804 52.0127 80.744 52.0676 80.7286C52.1225 80.7133 52.1812 80.7204 52.2309 80.7482L53.4146 81.4111L52.3126 83.2707C52.2962 83.3064 52.2702 83.337 52.2376 83.359C52.2049 83.381 52.1669 83.3936 52.1276 83.3955Z" fill="#E0E0E0"/>
<path d="M56.5782 78.604L124.654 39.2997C125.17 39.0027 125.588 39.2136 125.588 39.7689C125.565 40.0825 125.469 40.3863 125.306 40.6555C125.144 40.9248 124.92 41.152 124.654 41.3185L56.5782 80.6228C56.0617 80.9198 55.6484 80.7089 55.6484 80.1493C55.6707 79.8367 55.7665 79.5337 55.9281 79.2652C56.0897 78.9966 56.3124 78.7701 56.5782 78.604Z" fill="#F5F5F5"/>
<path d="M128.196 37.2466C128.678 36.9668 129.057 37.195 129.057 37.7503C129.042 38.0526 128.956 38.3472 128.807 38.6104C128.657 38.8736 128.448 39.0979 128.196 39.2654C127.714 39.5452 127.335 39.3171 127.335 38.7618C127.35 38.4595 127.435 38.1649 127.585 37.9017C127.734 37.6385 127.944 37.4141 128.196 37.2466Z" fill="#FAFAFA"/>
<path d="M131.691 35.2281C132.177 34.9483 132.552 35.1764 132.552 35.7317C132.537 36.0341 132.452 36.3289 132.302 36.5921C132.153 36.8553 131.943 37.0796 131.691 37.2469C131.209 37.5267 130.83 37.2985 130.83 36.7433C130.845 36.4409 130.931 36.1463 131.08 35.8831C131.23 35.62 131.439 35.3956 131.691 35.2281Z" fill="#FAFAFA"/>
<path d="M135.191 33.2095C135.673 32.9297 136.052 33.1579 136.052 33.7131C136.037 34.0155 135.951 34.3101 135.802 34.5733C135.652 34.8365 135.443 35.0608 135.191 35.2283C134.709 35.5081 134.33 35.28 134.33 34.7247C134.345 34.4224 134.431 34.1278 134.58 33.8646C134.73 33.6014 134.939 33.377 135.191 33.2095Z" fill="#FAFAFA"/>
<path d="M158.246 50.9134L151.182 58.231C151.182 58.231 144.247 57.5466 141.893 56.8708C141.148 56.6598 140.55 55.644 140.386 54.7874C140.365 54.5629 140.274 54.3506 140.126 54.1807C139.977 54.0108 139.779 53.8917 139.56 53.8404V55.5622C139.5 55.9927 139.289 56.2165 138.669 56.2337C136.288 56.2854 135.187 55.5622 134.894 56.8536C134.709 57.68 135.07 58.6184 136.641 59.0488C138.85 59.6558 140.085 59.3545 141.411 59.6859C142.448 59.9442 149.671 61.3173 151.092 61.6272C151.845 61.7908 152.417 61.7391 153.244 60.9342C154.07 60.1293 160.191 54.4043 160.191 54.4043C162.064 52.5318 161.513 50.5862 160.467 50.0137C159.804 49.6349 159.076 50.0568 158.246 50.9134Z" fill="#FFA8A7"/>
<path d="M160.406 49.9535C160.863 50.1386 161.418 50.625 161.465 51.8862C161.513 53.1474 160.579 54.2881 159.481 55.5967C158.383 56.9052 158.056 57.2539 158.056 57.2539C158.056 57.2539 155.28 56.2466 154.811 54.1848C154.811 54.1848 156.903 51.9723 157.527 51.262C158.151 50.5518 159.304 49.4671 160.406 49.9535Z" fill="#3EA635"/>
<path d="M80.9281 172.494L67.0548 164.483C66.7842 164.306 66.5591 164.067 66.3976 163.787C66.2362 163.506 66.1428 163.192 66.125 162.869V160.984C66.1428 160.661 66.2362 160.346 66.3976 160.066C66.5591 159.785 66.7842 159.547 67.0548 159.369L82.6758 150.33C82.9646 150.184 83.2839 150.107 83.6077 150.107C83.9315 150.107 84.2508 150.184 84.5396 150.33L98.413 158.336C98.6848 158.513 98.9111 158.751 99.0734 159.032C99.2357 159.312 99.3295 159.627 99.347 159.951V161.836C99.3302 162.16 99.2367 162.475 99.0743 162.755C98.9119 163.036 98.6853 163.274 98.413 163.45L82.792 172.49C82.5035 172.637 82.1844 172.714 81.8606 172.714C81.5368 172.715 81.2173 172.64 80.9281 172.494Z" fill="#37474F"/>
<path d="M66.125 160.983V162.869C66.1428 163.192 66.2362 163.506 66.3976 163.786C66.5591 164.067 66.7842 164.305 67.0548 164.483L80.9281 172.493C81.2161 172.644 81.5374 172.719 81.8622 172.713V166.975L67.8726 158.896L67.0548 159.369C66.7842 159.546 66.5591 159.785 66.3976 160.065C66.2362 160.346 66.1428 160.66 66.125 160.983Z" fill="#263238"/>
<path d="M82.6756 150.352L67.0546 159.391C66.9421 159.43 66.8445 159.502 66.7753 159.599C66.7061 159.695 66.6689 159.811 66.6689 159.929C66.6689 160.048 66.7061 160.164 66.7753 160.26C66.8445 160.357 66.9421 160.429 67.0546 160.468L80.9279 168.478C81.2168 168.625 81.536 168.701 81.8599 168.701C82.1837 168.701 82.5029 168.625 82.7918 168.478L98.4128 159.439C98.5252 159.401 98.6229 159.328 98.692 159.232C98.7612 159.135 98.7984 159.019 98.7984 158.901C98.7984 158.782 98.7612 158.666 98.692 158.57C98.6229 158.473 98.5252 158.401 98.4128 158.363L84.5566 150.352C84.2656 150.203 83.9432 150.125 83.6161 150.125C83.289 150.125 82.9666 150.203 82.6756 150.352Z" fill="#455A64"/>
<path d="M80.5539 160.05C80.6787 159.538 81.5568 159.034 82.4392 158.961L83.2657 158.892C83.722 158.853 84.1266 158.612 84.2084 158.35C84.2902 158.087 83.9587 157.919 83.5025 157.941L82.676 158.005C81.8074 158.074 80.9642 158.331 80.2052 158.758C79.6038 159.045 79.1397 159.557 78.9139 160.183L78.1477 163.283C77.8851 164.333 79.1549 165.065 80.9757 164.918L81.7979 164.849C82.6677 164.78 83.5122 164.523 84.273 164.096C84.8744 163.81 85.3385 163.298 85.5643 162.671L85.9259 161.208C85.9904 160.941 85.6762 160.777 85.2199 160.799C84.7637 160.82 84.359 161.079 84.2773 161.341L83.9157 162.805C83.7865 163.317 82.9127 163.821 82.026 163.894L81.2039 163.963C80.2913 164.04 79.6585 163.67 79.7877 163.145L80.5539 160.05ZM86.5802 158.621L87.3464 155.522C87.4053 155.27 87.3743 155.006 87.2588 154.774C87.1432 154.543 86.9503 154.36 86.7136 154.256C86.0339 153.92 85.2701 153.793 84.5183 153.89L83.6919 153.959C82.8232 154.024 81.9796 154.28 81.2211 154.708C80.6197 154.994 80.1556 155.506 79.9297 156.133L79.5983 157.471C79.5337 157.738 79.8479 157.902 80.3042 157.88C80.7605 157.859 81.1651 157.601 81.2469 157.338L81.5439 156.017C81.66 155.703 81.8929 155.447 82.1939 155.302C82.5734 155.088 82.9951 154.961 83.4293 154.928L84.2557 154.859C84.6318 154.812 85.0134 154.876 85.3534 155.044C85.4722 155.095 85.5689 155.187 85.6264 155.303C85.684 155.418 85.6986 155.551 85.6676 155.676L84.9014 158.771C84.7766 159.284 83.8985 159.787 83.016 159.86C82.5598 159.899 82.1551 160.145 82.0734 160.407C81.9916 160.67 82.323 160.838 82.7793 160.816C83.6491 160.747 84.4936 160.49 85.2544 160.063C85.8549 159.775 86.3187 159.264 86.5457 158.638L86.5802 158.621Z" fill="white"/>
<path d="M95.8477 145.686V143.8C95.8652 143.477 95.959 143.162 96.1213 142.881C96.2836 142.601 96.5099 142.363 96.7817 142.186L140.378 117.014C140.666 116.867 140.986 116.791 141.31 116.791C141.633 116.791 141.953 116.867 142.241 117.014L156.115 125.024C156.386 125.201 156.612 125.439 156.773 125.72C156.935 126 157.028 126.315 157.045 126.638V128.524C157.028 128.847 156.935 129.162 156.773 129.442C156.612 129.723 156.386 129.961 156.115 130.138L112.536 155.319C112.247 155.466 111.928 155.542 111.604 155.542C111.28 155.542 110.961 155.466 110.672 155.319L96.7817 147.309C96.5088 147.131 96.2818 146.892 96.1194 146.61C95.957 146.328 95.8639 146.011 95.8477 145.686Z" fill="#E0E0E0"/>
<path d="M157.049 128.037V126.638C157.031 126.314 156.938 126 156.775 125.719C156.613 125.439 156.387 125.2 156.115 125.024L155.297 124.555L111.585 149.801V155.543C111.91 155.548 112.231 155.471 112.519 155.319L134.317 142.733L156.115 130.146C156.387 129.97 156.613 129.732 156.775 129.451C156.938 129.171 157.031 128.856 157.049 128.532V128.037Z" fill="#F5F5F5"/>
<path d="M96.7821 143.271L110.655 151.282C110.944 151.428 111.264 151.504 111.587 151.504C111.911 151.504 112.23 151.428 112.519 151.282L156.115 126.109C156.228 126.071 156.325 125.999 156.394 125.902C156.464 125.806 156.501 125.69 156.501 125.571C156.501 125.452 156.464 125.337 156.394 125.24C156.325 125.144 156.228 125.071 156.115 125.033L142.238 117.022C141.949 116.876 141.629 116.8 141.306 116.8C140.982 116.8 140.663 116.876 140.374 117.022L96.7821 142.195C96.6697 142.233 96.572 142.306 96.5028 142.402C96.4337 142.499 96.3965 142.614 96.3965 142.733C96.3965 142.852 96.4337 142.968 96.5028 143.064C96.572 143.161 96.6697 143.233 96.7821 143.271Z" fill="white"/>
<path d="M106.342 152.827L98.0774 154.98C97.9823 155.004 97.8819 154.999 97.7902 154.963C97.6986 154.928 97.6203 154.864 97.5666 154.782C97.5129 154.7 97.4863 154.603 97.4907 154.505C97.4951 154.406 97.5302 154.312 97.591 154.235L101.095 149.784L106.342 152.827Z" fill="#E0E0E0"/>
<path d="M106.342 148.789V152.827L97.4873 154.553V150.507L106.342 148.789Z" fill="#E0E0E0"/>
<path d="M106.342 148.789L98.0774 150.942C97.9823 150.966 97.8819 150.961 97.7902 150.925C97.6986 150.89 97.6203 150.826 97.5666 150.744C97.5129 150.662 97.4863 150.565 97.4907 150.467C97.4951 150.368 97.5302 150.274 97.591 150.197L101.095 145.746L106.342 148.789Z" fill="white"/>
<path d="M115.747 137.008C115.293 136.992 114.849 136.863 114.456 136.633C114.051 136.397 113.832 136.151 113.81 135.893C113.789 135.635 113.965 135.398 114.353 135.174C114.732 134.952 115.166 134.841 115.605 134.856C116.06 134.872 116.504 135 116.897 135.23C117.306 135.467 117.521 135.712 117.542 135.971C117.564 136.229 117.387 136.47 117 136.694C116.621 136.915 116.186 137.024 115.747 137.008ZM116.785 136.014C116.755 135.867 116.604 135.717 116.328 135.557C116.093 135.413 115.828 135.325 115.554 135.299C115.312 135.281 115.07 135.337 114.861 135.458C114.654 135.579 114.559 135.712 114.589 135.859C114.62 136.005 114.766 136.151 115.02 136.289C115.258 136.434 115.526 136.523 115.803 136.552C116.046 136.572 116.289 136.518 116.501 136.397C116.727 136.276 116.822 136.149 116.785 136.014Z" fill="#3EA635"/>
<path d="M119.613 136.246C119.549 136.24 119.488 136.221 119.432 136.19L116.346 134.404C116.384 134.255 116.46 134.119 116.565 134.008C116.703 133.856 116.865 133.726 117.043 133.625C117.435 133.377 117.89 133.245 118.354 133.245C118.818 133.245 119.272 133.377 119.664 133.625C120.069 133.857 120.297 134.098 120.34 134.343C120.383 134.589 120.241 134.804 119.91 134.993C119.61 135.167 119.265 135.247 118.92 135.222L119.996 135.846C120.065 135.884 120.099 135.919 120.104 135.949C120.108 135.979 120.078 136.014 120.013 136.052L119.785 136.181C119.736 136.22 119.676 136.243 119.613 136.246ZM119.557 134.417C119.514 134.27 119.355 134.115 119.075 133.956C118.827 133.8 118.544 133.71 118.253 133.693C117.987 133.697 117.727 133.772 117.499 133.909C117.357 133.978 117.237 134.087 117.155 134.223L118.175 134.808C118.348 134.904 118.543 134.955 118.741 134.955C118.939 134.955 119.134 134.904 119.307 134.808C119.518 134.696 119.604 134.563 119.557 134.417Z" fill="#3EA635"/>
<path d="M121.804 133.762C121.519 133.812 121.228 133.812 120.943 133.762C120.632 133.712 120.333 133.606 120.061 133.448C119.63 133.19 119.385 132.936 119.359 132.682C119.333 132.428 119.51 132.195 119.888 131.976C120.247 131.764 120.66 131.661 121.076 131.679C121.523 131.706 121.956 131.842 122.338 132.075C122.458 132.144 122.471 132.204 122.372 132.26L120.715 133.203C120.936 133.334 121.19 133.398 121.447 133.388C121.712 133.377 121.972 133.3 122.2 133.164C122.402 133.065 122.562 132.897 122.652 132.69C122.653 132.682 122.656 132.673 122.66 132.666C122.665 132.659 122.671 132.652 122.678 132.647C122.709 132.638 122.741 132.638 122.772 132.647L123.104 132.712L123.173 132.738C123.184 132.743 123.194 132.753 123.199 132.765C123.205 132.776 123.206 132.79 123.203 132.802C123.161 132.929 123.09 133.044 122.996 133.138C122.87 133.266 122.725 133.373 122.566 133.457C122.331 133.601 122.073 133.704 121.804 133.762ZM121.602 132.269C121.403 132.15 121.178 132.082 120.947 132.071C120.721 132.059 120.496 132.116 120.302 132.234C120.095 132.355 119.996 132.479 120.009 132.617C120.022 132.755 120.129 132.88 120.336 133L121.602 132.269Z" fill="#3EA635"/>
<path d="M124.004 132.505C123.942 132.5 123.881 132.481 123.827 132.449L121.675 131.205C121.639 131.189 121.609 131.162 121.589 131.128C121.589 131.106 121.589 131.085 121.653 131.055L121.907 130.908C121.938 130.889 121.974 130.879 122.011 130.879C122.047 130.879 122.083 130.889 122.114 130.908L122.329 131.025C122.273 130.758 122.437 130.517 122.816 130.297C123.061 130.154 123.341 130.082 123.625 130.091C123.941 130.096 124.25 130.185 124.52 130.349L125.992 131.21C126.053 131.244 126.087 131.279 126.091 131.313C126.096 131.347 126.07 131.378 126.01 131.412L125.773 131.55C125.719 131.581 125.658 131.598 125.596 131.597C125.534 131.591 125.474 131.572 125.42 131.541L123.986 130.715C123.848 130.627 123.69 130.575 123.526 130.564C123.374 130.567 123.225 130.61 123.095 130.689C123.03 130.72 122.972 130.766 122.927 130.822C122.881 130.879 122.849 130.945 122.833 131.016C122.811 131.141 122.88 131.244 123.035 131.335L124.404 132.127C124.464 132.161 124.499 132.195 124.503 132.23C124.507 132.264 124.481 132.294 124.417 132.333L124.184 132.467C124.13 132.498 124.067 132.512 124.004 132.505Z" fill="#3EA635"/>
<path d="M125.502 128.252C125.419 128.249 125.338 128.227 125.265 128.188L125.157 128.123C125.129 128.111 125.105 128.092 125.084 128.069C125.064 128.046 125.05 128.019 125.041 127.99C125.041 127.938 125.063 127.891 125.136 127.852L125.325 127.74C125.399 127.699 125.482 127.68 125.566 127.684C125.65 127.687 125.731 127.71 125.803 127.753L125.911 127.813C125.939 127.826 125.964 127.845 125.984 127.869C126.005 127.893 126.019 127.921 126.027 127.951C126.027 128.003 126.001 128.05 125.932 128.089L125.738 128.201C125.667 128.243 125.584 128.262 125.502 128.252ZM128.45 129.94C128.387 129.935 128.326 129.914 128.274 129.879L126.169 128.666C126.104 128.631 126.07 128.592 126.065 128.558C126.061 128.524 126.091 128.493 126.147 128.459L126.38 128.326C126.433 128.293 126.494 128.276 126.556 128.278C126.622 128.281 126.685 128.3 126.741 128.334L128.846 129.548C128.906 129.587 128.941 129.621 128.945 129.651C128.949 129.681 128.924 129.72 128.859 129.755L128.627 129.888C128.578 129.919 128.521 129.937 128.463 129.94H128.45Z" fill="#3EA635"/>
<path d="M129.587 129.282C129.524 129.278 129.463 129.259 129.41 129.226L127.258 127.982C127.222 127.965 127.192 127.938 127.172 127.904C127.172 127.904 127.172 127.861 127.236 127.835L127.49 127.685C127.522 127.667 127.557 127.657 127.594 127.657C127.63 127.657 127.666 127.667 127.697 127.685L127.912 127.797C127.856 127.53 128.02 127.289 128.399 127.069C128.645 126.929 128.925 126.858 129.208 126.862C129.525 126.868 129.834 126.958 130.103 127.125L131.575 127.986C131.636 128.02 131.67 128.055 131.674 128.089C131.679 128.124 131.653 128.154 131.593 128.188L131.356 128.326C131.303 128.359 131.242 128.376 131.179 128.373C131.117 128.37 131.056 128.351 131.003 128.317L129.569 127.491C129.431 127.403 129.273 127.351 129.109 127.34C128.957 127.344 128.808 127.389 128.678 127.469C128.613 127.5 128.555 127.545 128.508 127.601C128.462 127.657 128.429 127.722 128.412 127.792C128.412 127.917 128.463 128.025 128.618 128.111L129.987 128.903C130.047 128.937 130.082 128.972 130.086 129.006C130.09 129.041 130.064 129.071 130 129.109L129.767 129.243C129.713 129.274 129.65 129.288 129.587 129.282Z" fill="#3EA635"/>
<path d="M115.119 147.666C114.956 147.65 114.799 147.597 114.659 147.511L109.093 144.309C108.929 144.214 108.843 144.124 108.83 144.042C108.818 143.96 108.895 143.874 109.054 143.779L109.709 143.4C109.797 143.349 109.893 143.313 109.993 143.293C110.113 143.276 110.234 143.276 110.354 143.293L115.438 144.02L112.537 142.346C112.369 142.251 112.283 142.161 112.265 142.075C112.248 141.989 112.326 141.907 112.481 141.816L113.281 141.351C113.42 141.267 113.58 141.224 113.742 141.227C113.908 141.237 114.068 141.291 114.207 141.382L119.751 144.58C119.919 144.675 120.005 144.765 120.009 144.847C120.014 144.929 119.94 145.015 119.781 145.105L119.127 145.484C119.04 145.538 118.944 145.576 118.843 145.596C118.727 145.616 118.609 145.616 118.494 145.596L113.398 144.855L116.333 146.551C116.501 146.646 116.587 146.732 116.591 146.814C116.596 146.896 116.523 146.982 116.363 147.072L115.55 147.537C115.421 147.619 115.272 147.664 115.119 147.666Z" fill="#3EA635"/>
<path d="M120.9 144.317C120.737 144.305 120.579 144.253 120.44 144.166L114.908 140.951C114.74 140.856 114.654 140.766 114.637 140.684C114.62 140.602 114.697 140.512 114.852 140.421L118.296 138.437C118.425 138.357 118.575 138.317 118.726 138.321C118.887 138.341 119.042 138.397 119.178 138.484L119.609 138.738C119.781 138.837 119.876 138.923 119.893 139.001C119.91 139.078 119.846 139.156 119.691 139.246L117.487 140.52L118.653 141.192L120.1 140.357C120.228 140.275 120.378 140.233 120.53 140.236C120.692 140.256 120.848 140.312 120.986 140.4L121.417 140.641C121.589 140.74 121.684 140.826 121.701 140.903C121.718 140.981 121.645 141.063 121.49 141.149L120.044 141.988L121.219 142.664L123.401 141.403C123.529 141.321 123.68 141.28 123.832 141.286C123.992 141.307 124.147 141.363 124.283 141.45L124.714 141.704C124.882 141.799 124.972 141.885 124.989 141.958C125.007 142.031 124.938 142.117 124.783 142.203L121.339 144.183C121.209 144.269 121.056 144.315 120.9 144.317Z" fill="#3EA635"/>
<path d="M126.685 141.028C126.556 141.032 126.428 141.006 126.311 140.951L119.157 138.273L119.04 138.218C118.92 138.149 118.929 138.071 119.066 137.994L120.233 137.318C120.31 137.266 120.401 137.236 120.494 137.232C120.587 137.227 120.68 137.248 120.762 137.292L124.184 138.691L122.462 136.926C122.389 136.849 122.355 136.788 122.363 136.741C122.372 136.694 122.419 136.642 122.518 136.582L123.074 136.263C123.158 136.213 123.252 136.181 123.349 136.169C123.46 136.169 123.569 136.19 123.672 136.229L126.733 137.232L124.296 135.26C124.227 135.204 124.193 135.153 124.197 135.105C124.202 135.058 124.257 135.006 124.356 134.95L125.523 134.275C125.583 134.238 125.651 134.219 125.721 134.219C125.791 134.219 125.859 134.238 125.919 134.275C125.954 134.293 125.987 134.315 126.018 134.339L130.615 138.471C130.706 138.549 130.744 138.622 130.736 138.682C130.727 138.743 130.658 138.807 130.551 138.872L129.797 139.302C129.698 139.362 129.586 139.399 129.47 139.41C129.344 139.411 129.218 139.388 129.1 139.341L125.949 138.256L127.826 140.077C127.912 140.159 127.951 140.232 127.938 140.292C127.925 140.353 127.865 140.417 127.761 140.477L127.008 140.908C126.911 140.971 126.8 141.012 126.685 141.028Z" fill="#3EA635"/>
<path d="M136.835 135.118C136.671 135.104 136.513 135.051 136.374 134.963L131.747 132.294L130.456 133.03C130.329 133.115 130.178 133.155 130.025 133.147C129.872 133.127 129.725 133.072 129.595 132.987L129.164 132.729C128.997 132.634 128.902 132.548 128.885 132.471C128.867 132.393 128.928 132.312 129.083 132.226L133.314 129.781C133.443 129.701 133.593 129.66 133.744 129.664C133.905 129.685 134.059 129.739 134.196 129.824L134.627 130.082C134.793 130.182 134.884 130.268 134.898 130.34C134.898 130.418 134.846 130.499 134.691 130.59L133.4 131.326L138.023 133.995C138.191 134.089 138.277 134.18 138.29 134.262C138.303 134.343 138.225 134.429 138.062 134.524L137.261 134.989C137.133 135.069 136.986 135.113 136.835 135.118Z" fill="#3EA635"/>
<path d="M139.224 133.676C139.168 133.638 139.118 133.592 139.077 133.538L135.35 128.971C135.288 128.91 135.25 128.829 135.242 128.743C135.242 128.683 135.302 128.623 135.406 128.562L136.159 128.132C136.252 128.076 136.357 128.043 136.465 128.037C136.6 128.04 136.735 128.062 136.865 128.102L144.777 130.254C144.854 130.273 144.929 130.3 145 130.336C145.055 130.37 145.085 130.405 145.091 130.439C145.091 130.473 145.065 130.508 145.009 130.542L143.718 131.283C143.646 131.325 143.564 131.35 143.481 131.356C143.385 131.358 143.289 131.345 143.197 131.317L141.992 130.956L140.27 131.958L140.907 132.652C140.93 132.672 140.949 132.697 140.961 132.725C140.973 132.754 140.978 132.784 140.976 132.815C140.976 132.858 140.92 132.905 140.838 132.953L139.547 133.689C139.496 133.715 139.44 133.727 139.384 133.725C139.327 133.723 139.272 133.706 139.224 133.676ZM140.352 130.396L138.225 129.75L139.344 130.981L140.352 130.396Z" fill="#3EA635"/>
<path d="M145.724 129.987C145.561 129.971 145.403 129.918 145.263 129.832L139.732 126.638C139.566 126.544 139.475 126.453 139.461 126.367C139.461 126.285 139.517 126.195 139.672 126.109L142.138 124.684C142.717 124.328 143.383 124.14 144.062 124.142C144.71 124.154 145.344 124.335 145.9 124.667C146.146 124.792 146.35 124.985 146.49 125.222C146.543 125.307 146.571 125.404 146.571 125.504C146.571 125.604 146.543 125.701 146.49 125.786C146.861 125.688 147.248 125.666 147.628 125.722C148.008 125.778 148.372 125.911 148.698 126.113C149.275 126.449 149.559 126.823 149.594 127.241C149.628 127.658 149.284 128.059 148.604 128.45L146.163 129.858C146.033 129.944 145.88 129.988 145.724 129.987ZM144.39 126.315C144.562 126.216 144.644 126.113 144.639 126.001C144.635 125.889 144.536 125.777 144.342 125.67C144.172 125.561 143.976 125.499 143.774 125.489C143.582 125.492 143.395 125.547 143.232 125.648L142.323 126.173L143.477 126.841L144.39 126.315ZM147.101 127.719C147.278 127.615 147.355 127.503 147.334 127.379C147.309 127.301 147.267 127.23 147.212 127.17C147.157 127.11 147.09 127.062 147.015 127.03C146.82 126.911 146.598 126.844 146.37 126.836C146.162 126.836 145.957 126.889 145.776 126.991L144.738 127.607L146.03 128.351L147.101 127.719Z" fill="#3EA635"/>
<path d="M106.11 155.934L91.7799 157.054C91.6348 157.067 91.5 157.134 91.4015 157.242C91.3029 157.349 91.2476 157.489 91.2461 157.635V158.599C91.254 158.759 91.3023 158.914 91.3867 159.051C91.471 159.187 91.5885 159.3 91.7282 159.378L100.837 163.855C100.89 163.889 100.952 163.909 101.016 163.912C101.08 163.914 101.143 163.899 101.2 163.869C101.256 163.839 101.303 163.794 101.336 163.739C101.369 163.684 101.387 163.622 101.387 163.558L101.573 162.094C101.582 162.024 101.604 161.957 101.64 161.896C101.675 161.835 101.722 161.782 101.778 161.74C101.834 161.697 101.898 161.666 101.966 161.649C102.035 161.631 102.106 161.628 102.175 161.638L106.553 162.284C106.712 162.295 106.871 162.272 107.02 162.216C107.168 162.159 107.303 162.071 107.414 161.956L108.102 161.182C108.313 160.911 108.435 160.582 108.451 160.239V159.292C108.447 159.144 108.393 159.002 108.296 158.89C108.2 158.778 108.067 158.702 107.922 158.676L105.86 158.371L106.256 158.151C106.376 158.065 106.475 157.951 106.543 157.82C106.611 157.688 106.647 157.542 106.648 157.394V156.447C106.652 156.376 106.64 156.305 106.615 156.24C106.589 156.174 106.549 156.115 106.497 156.066C106.446 156.017 106.385 155.98 106.318 155.957C106.251 155.935 106.18 155.927 106.11 155.934Z" fill="#3EA635"/>
<path opacity="0.3" d="M106.11 155.934L91.7799 157.054C91.6348 157.067 91.5 157.134 91.4015 157.242C91.3029 157.349 91.2476 157.489 91.2461 157.635V158.599C91.254 158.759 91.3023 158.914 91.3867 159.051C91.471 159.187 91.5885 159.3 91.7282 159.378L100.837 163.855C100.89 163.889 100.952 163.909 101.016 163.912C101.08 163.914 101.143 163.899 101.2 163.869C101.256 163.839 101.303 163.794 101.336 163.739C101.369 163.684 101.387 163.622 101.387 163.558L101.573 162.094C101.582 162.024 101.604 161.957 101.64 161.896C101.675 161.835 101.722 161.782 101.778 161.74C101.834 161.697 101.898 161.666 101.966 161.649C102.035 161.631 102.106 161.628 102.175 161.638L106.553 162.284C106.712 162.295 106.871 162.272 107.02 162.216C107.168 162.159 107.303 162.071 107.414 161.956L108.102 161.182C108.313 160.911 108.435 160.582 108.451 160.239V159.292C108.447 159.144 108.393 159.002 108.296 158.89C108.2 158.778 108.067 158.702 107.922 158.676L105.86 158.371L106.256 158.151C106.376 158.065 106.475 157.951 106.543 157.82C106.611 157.688 106.647 157.542 106.648 157.394V156.447C106.652 156.376 106.64 156.305 106.615 156.24C106.589 156.174 106.549 156.115 106.497 156.066C106.446 156.017 106.385 155.98 106.318 155.957C106.251 155.935 106.18 155.927 106.11 155.934Z" fill="white"/>
<path d="M91.2461 157.635V158.599C91.254 158.759 91.3023 158.915 91.3867 159.051C91.471 159.187 91.5885 159.3 91.7282 159.378L100.837 163.855C100.921 163.899 101.018 163.914 101.112 163.898V161.483L91.7799 157.054C91.6348 157.068 91.5 157.135 91.4015 157.242C91.3029 157.349 91.2476 157.489 91.2461 157.635Z" fill="#3EA635"/>
<path opacity="0.2" d="M91.2461 157.635V158.599C91.254 158.759 91.3023 158.915 91.3867 159.051C91.471 159.187 91.5885 159.3 91.7282 159.378L100.837 163.855C100.921 163.899 101.018 163.914 101.112 163.898V161.483L91.7799 157.054C91.6348 157.068 91.5 157.135 91.4015 157.242C91.3029 157.349 91.2476 157.489 91.2461 157.635Z" fill="black"/>
<path d="M101.865 161.677C101.959 161.624 102.068 161.603 102.175 161.617L106.553 162.262C106.698 162.279 106.846 162.261 106.983 162.211V159.985L101.865 159.236V161.677Z" fill="#3EA635"/>
<path opacity="0.2" d="M101.865 161.677C101.959 161.624 102.068 161.603 102.175 161.617L106.553 162.262C106.698 162.279 106.846 162.261 106.983 162.211V159.985L101.865 159.236V161.677Z" fill="black"/>
<path d="M106.109 155.935L91.7796 157.054C91.4869 157.054 91.4611 157.2 91.728 157.333L100.836 161.81C100.89 161.845 100.951 161.864 101.015 161.867C101.078 161.87 101.142 161.855 101.198 161.825C101.254 161.796 101.301 161.751 101.334 161.697C101.368 161.643 101.386 161.581 101.387 161.517L101.572 160.05C101.581 159.98 101.604 159.912 101.639 159.852C101.675 159.791 101.722 159.737 101.778 159.695C101.834 159.652 101.898 159.622 101.966 159.604C102.034 159.587 102.105 159.583 102.175 159.593L106.553 160.239C106.711 160.251 106.871 160.227 107.019 160.171C107.168 160.114 107.303 160.026 107.414 159.912L108.081 159.146C108.274 158.918 108.193 158.715 107.9 158.659L103.522 158.014C103.225 157.971 103.199 157.816 103.458 157.674L106.157 156.154C106.436 156.016 106.406 155.909 106.109 155.935Z" fill="#3EA635"/>
</svg>
